<svg height="396pt" viewBox="0 0 432 396" width="432pt" xmlns="http://www.w3.org/2000/svg" xmlns:xlink="http://www.w3.org/1999/xlink"><clipPath id="a"><path d="m66 31.679688h2v316.980468h-2zm0 0"/></clipPath><clipPath id="b"><path d="m123 31.679688h2v316.980468h-2zm0 0"/></clipPath><clipPath id="c"><path d="m180 31.679688h2v316.980468h-2zm0 0"/></clipPath><clipPath id="d"><path d="m236 31.679688h2v316.980468h-2zm0 0"/></clipPath><clipPath id="e"><path d="m293 31.679688h2v316.980468h-2zm0 0"/></clipPath><clipPath id="f"><path d="m350 31.679688h2v316.980468h-2zm0 0"/></clipPath><clipPath id="g"><path d="m407 31.679688h2v316.980468h-2zm0 0"/></clipPath><clipPath id="h"><path d="m55.675781 348h363.363281v.660156h-363.363281zm0 0"/></clipPath><clipPath id="i"><path d="m55.675781 290h363.363281v2h-363.363281zm0 0"/></clipPath><clipPath id="j"><path d="m55.675781 232h363.363281v2h-363.363281zm0 0"/></clipPath><clipPath id="k"><path d="m55.675781 175h363.363281v2h-363.363281zm0 0"/></clipPath><clipPath id="l"><path d="m55.675781 117h363.363281v2h-363.363281zm0 0"/></clipPath><clipPath id="m"><path d="m55.675781 59h363.363281v2h-363.363281zm0 0"/></clipPath><symbol id="n" overflow="visible"><path d="m.460938-3.882812c0-.925782.089843-1.671876.285156-2.246094.1875-.570313.476562-1.011719.847656-1.316406.375-.308594.859375-.464844 1.429688-.464844.417968 0 .792968.089844 1.113281.265625.308593.175781.570312.417969.78125.738281.207031.316406.371093.703125.492187 1.164062.113282.460938.179688 1.089844.179688 1.859376 0 .921874-.101563 1.671874-.289063 2.242187-.1875.574219-.472656 1.003906-.847656 1.3125-.371094.3046875-.855469.449219-1.429687.449219-.769532 0-1.363282-.265625-1.792969-.804688-.515625-.648437-.769531-1.714844-.769531-3.199218m.992187 0c0 1.296874.140625 2.15625.449219 2.585937.296875.429687.671875.636719 1.121094.636719.441406 0 .804687-.207032 1.113281-.636719.308593-.429687.460937-1.289063.460937-2.585937 0-1.296876-.152344-2.15625-.460937-2.585938-.308594-.417969-.683594-.636719-1.121094-.636719-.453125 0-.804687.1875-1.070313.558594-.328124.484375-.492187 1.375-.492187 2.664063"/></symbol><symbol id="o" overflow="visible"><path d="m.460938-2.066406 1.011718-.078125c.066406.496093.242188.867187.519532 1.109375.273437.253906.605468.375.988281.375.460937 0 .859375-.175782 1.1875-.527344.320312-.351562.484375-.816406.484375-1.398438 0-.550781-.164063-.976562-.472656-1.296874-.308594-.320313-.714844-.484376-1.210938-.484376-.308594 0-.59375.078126-.847656.21875-.25.144532-.449219.320313-.582032.539063l-.910156-.109375.757813-4.046875h3.914062v.921875h-3.132812l-.429688 2.113281c.472657-.328125.96875-.496093 1.484375-.496093.683594 0 1.265625.242187 1.738282.714843.472656.484375.714843 1.089844.714843 1.839844 0 .714844-.207031 1.328125-.625 1.847656-.507812.636719-1.191406.945313-2.070312.945313-.714844 0-1.296875-.199219-1.75-.59375-.460938-.394532-.714844-.925782-.769531-1.59375"/></symbol><symbol id="p" overflow="visible"><path d="m4.101562 0h-.964843v-6.160156c-.242188.21875-.550781.449218-.925781.671875-.375.21875-.714844.382812-1.011719.496093v-.9375c.539062-.253906 1.011719-.558593 1.417969-.921874.398437-.351563.683593-.707032.859374-1.058594h.625z"/></symbol><symbol id="q" overflow="visible"><path d="m5.53125-.925781v.925781h-5.203125c-.007813-.230469.035156-.449219.121094-.671875.132812-.351563.34375-.691406.628906-1.042969.285156-.34375.714844-.738281 1.265625-1.199218.855469-.695313 1.429688-1.242188 1.738281-1.660157.296875-.410156.449219-.792969.449219-1.167969s-.140625-.703124-.417969-.96875c-.273437-.261718-.625-.394531-1.066406-.394531-.460937 0-.835937.140625-1.109375.417969-.289062.285156-.429688.671875-.429688 1.164062l-.992187-.109374c.066406-.734376.320313-1.296876.761719-1.691407.4375-.386719 1.042968-.585937 1.792968-.585937.746094 0 1.351563.222656 1.792969.640625.4375.417969.660157.933593.660157 1.550781 0 .316406-.066407.625-.199219.933594-.132813.308594-.339844.628906-.636719.957031-.296875.339844-.792969.804687-1.488281 1.386719-.582031.484375-.957031.8125-1.121094.988281s-.296875.351563-.40625.527344z"/></symbol><symbol id="r" overflow="visible"><path d="m.460938-2.078125.96875-.132813c.109374.550782.296874.945313.5625 1.1875.261718.242188.59375.363282.976562.363282.453125 0 .835938-.152344 1.144531-.472656.308594-.308594.472657-.703126.472657-1.167969 0-.4375-.152344-.8125-.4375-1.097657-.289063-.285156-.660157-.441406-1.101563-.441406-.1875 0-.417969.042969-.683594.109375l.113281-.84375c.0625.007813.109376.007813.152344.007813.40625 0 .78125-.097656 1.109375-.316406.332031-.222657.496094-.550782.496094-1.003907 0-.351562-.121094-.636719-.363281-.867187-.242188-.230469-.550782-.351563-.921875-.351563-.375 0-.695313.121094-.945313.351563-.253906.242187-.410156.59375-.476562 1.054687l-.964844-.164062c.109375-.648438.382812-1.15625.800781-1.507813.417969-.351562.9375-.539062 1.5625-.539062.429688 0 .824219.101562 1.1875.289062.351563.183594.628907.4375.824219.746094.199219.320312.296875.660156.296875 1.011719 0 .351562-.097656.660156-.273437.933593-.1875.289063-.460938.507813-.8125.660157.460937.113281.8125.34375 1.078124.671875.261719.339844.394532.769531.394532 1.277344 0 .679687-.253906 1.265624-.757813 1.738281-.507812.4843748-1.132812.714843-1.894531.714843-.703125 0-1.273438-.1992182-1.726562-.617187-.460938-.40625-.714844-.933594-.78125-1.59375"/></symbol><symbol id="s" overflow="visible"><path d="m5.476562-5.949219-.964843.074219c-.089844-.371094-.210938-.648438-.363281-.824219-.265626-.265625-.59375-.40625-.96875-.40625-.308594 0-.582032.085938-.816407.253907-.304687.21875-.539062.546874-.714843.964843-.175782.429688-.273438 1.035157-.273438 1.828125.230469-.351562.515625-.605468.859375-.78125.328125-.175781.679687-.265625 1.054687-.265625.636719 0 1.1875.242188 1.640626.714844.449218.476563.679687 1.089844.679687 1.839844 0 .492187-.109375.957031-.320313 1.375-.21875.429687-.503906.746093-.878906.964843-.375.2226568-.792968.332032-1.265625.332032-.8125 0-1.460937-.285156-1.96875-.878906-.503906-.585938-.757812-1.5625-.757812-2.925782 0-1.519531.273437-2.621094.835937-3.324218.484375-.59375 1.144532-.902344 1.980469-.902344.617187 0 1.132813.175781 1.527344.527344.398437.355468.628906.828124.714843 1.433593m-3.949218 3.398438c0 .328125.066406.648437.210937.957031.132813.308594.328125.539062.59375.691406.253907.164063.515625.242188.804688.242188.394531 0 .746093-.164063 1.042969-.496094.285156-.328125.441406-.769531.441406-1.339844 0-.539062-.15625-.96875-.441406-1.289062-.285157-.308594-.648438-.472656-1.089844-.472656-.4375 0-.800782.164062-1.109375.472656-.308594.320312-.453125.726562-.453125 1.234375"/></symbol><symbol id="t" overflow="visible"><path d="m.515625-6.84375v-.933594h5.105469v.757813c-.507813.539062-1.011719 1.253906-1.496094 2.136719-.496094.878906-.878906 1.792968-1.144531 2.714843-.199219.660157-.320313 1.386719-.363281 2.167969h-1c.011718-.617188.132812-1.363281.363281-2.242188.230469-.882812.558593-1.730468 1-2.542968.441406-.8125.902343-1.496094 1.398437-2.058594z"/></symbol><symbol id="u" overflow="visible"><path d="m1.945312-4.269531c-.40625-.140625-.703124-.351563-.898437-.625-.199219-.265625-.289063-.59375-.289063-.980469 0-.570312.199219-1.042969.617188-1.441406.417969-.394532.96875-.59375 1.648438-.59375.683593 0 1.246093.210937 1.664062.605468.417969.398438.625.878907.625 1.453126 0 .375-.097656.691406-.285156.957031-.199219.273437-.484375.484375-.878906.625.484374.15625.84375.410156 1.097656.761719.253906.351562.386718.769531.386718 1.253906 0 .679687-.242187 1.242187-.714843 1.691406-.484375.4648438-1.113281.683594-1.882813.683594-.78125 0-1.40625-.2187502-1.878906-.683594-.472656-.449219-.707031-1.023438-.707031-1.714844 0-.503906.121093-.933594.386719-1.285156.253906-.34375.628906-.574219 1.109374-.707031m-.195312-1.636719c0 .375.121094.679688.363281.914062.242188.238282.546875.351563.933594.351563.375 0 .671875-.113281.914063-.351563.242187-.234374.363281-.519531.363281-.859374 0-.351563-.132813-.648438-.375-.890626-.242188-.242187-.550781-.363281-.914063-.363281-.375 0-.679687.121094-.921875.351563-.242187.242187-.363281.515625-.363281.847656m-.308594 3.628906c0 .285156.066406.550782.199219.804688.128906.261718.316406.460937.582031.605468.253906.140626.527344.207032.824219.207032.460937 0 .835937-.144532 1.144531-.441406.296875-.296876.449219-.679688.449219-1.140626 0-.464843-.152344-.835937-.460937-1.144531-.308594-.308593-.703126-.464843-1.164063-.464843-.464844 0-.835937.15625-1.132813.453124-.296874.308594-.441406.679688-.441406 1.121094"/></symbol><symbol id="v" overflow="visible"><path d="m.605469-1.824219.921875-.078125c.078125.4375.234375.746094.453125.945313s.503906.296875.859375.296875c.285156 0 .546875-.066406.769531-.199219.21875-.128906.40625-.316406.546875-.546875.144531-.222656.265625-.53125.363281-.925781.101563-.386719.15625-.78125.15625-1.175781 0-.046876-.011719-.109376-.011719-.199219-.199218.308593-.460937.5625-.792968.746093-.328125.199219-.691406.289063-1.089844.289063-.648438 0-1.195312-.230469-1.648438-.707031-.449218-.472656-.671874-1.097656-.671874-1.867188 0-.792968.230468-1.441406.703124-1.925781.464844-.484375 1.058594-.738281 1.773438-.738281.503906 0 .96875.144531 1.398438.417968.417968.277344.746093.671876.964843 1.179688.222657.515625.332031 1.253906.332031 2.210938 0 1.011718-.109374 1.8125-.332031 2.40625-.21875.59375-.539062 1.046874-.964843 1.355468-.441407.308594-.949219.460938-1.519532.460938-.617187 0-1.121094-.1640628-1.519531-.507813-.394531-.328125-.625-.8125-.691406-1.4375m3.960937-3.464843c0-.550782-.15625-.992188-.453125-1.320313-.296875-.332031-.648437-.496094-1.066406-.496094-.429687 0-.804687.175781-1.121094.527344-.320312.351563-.472656.8125-.472656 1.363281 0 .507813.140625.914063.449219 1.222656.296875.316407.671875.472657 1.121094.472657.441406 0 .816406-.15625 1.101562-.472657.285156-.308593.441406-.75.441406-1.296874"/></symbol><symbol id="w" overflow="visible"><path d="m.867188 0v-7.875h5.699218v.933594h-4.652344v2.410156h4.355469v.921875h-4.355469v2.683594h4.828126v.925781z"/></symbol><symbol id="x" overflow="visible"><path d="m4.445312-2.089844.957032.121094c-.113282.660156-.375 1.175781-.804688 1.539062-.429687.3750005-.957031.550782-1.574218.550782-.789063 0-1.417969-.253906-1.890626-.757813-.472656-.507812-.703124-1.234375-.703124-2.191406 0-.613281.097656-1.152344.308593-1.617187.195313-.460938.503907-.800782.921875-1.03125.417969-.234376.871094-.351563 1.363282-.351563.617187 0 1.125.164063 1.519531.472656.394531.304688.648437.757813.757812 1.328125l-.933593.144532c-.089844-.375-.253907-.660157-.472657-.859376-.230469-.195312-.507812-.296874-.824219-.296874-.496093 0-.890624.175781-1.199218.527343-.308594.355469-.453125.902344-.453125 1.652344 0 .769531.144531 1.332031.441406 1.671875.285156.351562.671875.515625 1.15625.515625.371094 0 .691406-.109375.945313-.339844.253906-.230469.417968-.59375.484374-1.078125"/></symbol><symbol id="y" overflow="visible"><path d="m.363281-2.847656c0-1.058594.285157-1.839844.878907-2.355469.484374-.417969 1.089843-.625 1.792968-.625.78125 0 1.417969.261719 1.925782.769531.496093.515625.75 1.21875.75 2.121094 0 .738281-.113282 1.320312-.332032 1.738281s-.550781.75-.96875.980469c-.417968.21875-.878906.339844-1.375.339844-.800781 0-1.449218-.253906-1.933594-.757813-.496093-.507812-.738281-1.246093-.738281-2.210937m1 0c0 .726562.15625 1.273437.472657 1.636718.308593.363282.714843.539063 1.199218.539063s.878906-.175781 1.199219-.539063c.320313-.363281.484375-.921874.484375-1.671874 0-.703126-.164062-1.230469-.484375-1.605469-.328125-.363281-.726563-.550781-1.199219-.550781-.484375 0-.890625.1875-1.199218.550781-.316407.363281-.472657.914062-.472657 1.640625"/></symbol><symbol id="z" overflow="visible"><path d="m.726562 0v-5.710938h.867188v.816407c.417969-.617188 1.023438-.933594 1.816406-.933594.339844 0 .660156.0625.945313.183594.285156.121093.507812.289062.648437.484375.144532.199218.242188.441406.296875.714844.035157.175781.054688.496093.054688.9375v3.507812h-.964844v-3.464844c0-.394531-.046875-.683594-.113281-.878906-.074219-.199219-.207032-.351562-.394532-.472656-.199218-.113282-.417968-.175782-.671874-.175782-.417969 0-.78125.128907-1.078126.394532-.296874.261718-.4375.757812-.4375 1.484375v3.113281z"/></symbol><symbol id="A" overflow="visible"><path d="m.726562 0v-5.710938h.867188v.804688c.175781-.273438.410156-.496094.707031-.671875.296875-.164063.636719-.25 1.019531-.25.417969 0 .761719.085937 1.035157.261719.265625.175781.460937.429687.574219.738281.449218-.660156 1.03125-1 1.757812-1 .574219 0 1 .164063 1.308594.472656.308594.304688.464844.789063.464844 1.441407v3.914062h-.96875v-3.597656c0-.375-.035157-.648438-.101563-.824219s-.175781-.308594-.339844-.417969c-.164062-.097656-.351562-.152344-.570312-.152344-.410157 0-.738281.140626-1.003907.40625-.261718.261719-.394531.691407-.394531 1.273438v3.3125h-.96875v-3.707031c0-.429688-.085937-.746094-.242187-.96875-.152344-.207031-.417969-.316407-.769532-.316407-.273437 0-.527343.074219-.757812.21875-.230469.140626-.398438.351563-.496094.625-.109375.277344-.152344.671876-.152344 1.1875v2.960938z"/></symbol><symbol id="B" overflow="visible"><path d="m.726562-6.765625v-1.109375h.96875v1.109375zm0 6.765625v-5.710938h.96875v5.710938z"/></symbol><symbol id="C" overflow="visible"/><symbol id="D" overflow="visible"><path d="m2.308594 0-2.164063-5.710938h1.011719l1.230469 3.421876c.132812.375.253906.75.363281 1.144531.089844-.296875.210938-.660157.363281-1.078125l1.265625-3.488282h.988282l-2.15625 5.710938z"/></symbol><symbol id="E" overflow="visible"><path d="m4.445312-.703125c-.363281.308594-.707031.527344-1.035156.6484375-.332031.109375-.691406.1757815-1.066406.1757815-.628906 0-1.113281-.1445315-1.441406-.449219-.339844-.308594-.507813-.695313-.507813-1.179687 0-.273438.054688-.527344.1875-.757813.132813-.230469.296875-.417969.507813-.5625.195312-.132813.429687-.242187.691406-.316406.1875-.046875.472656-.089844.859375-.144531.78125-.089844 1.351563-.199219 1.726563-.328126 0-.132812 0-.210937 0-.253906 0-.398437-.089844-.671875-.265626-.835937-.25-.222657-.625-.332031-1.109374-.332031-.460938 0-.792969.089843-1.011719.242187-.21875.164063-.375.453125-.472657.847656l-.945312-.132812c.085938-.394531.230469-.726563.425781-.976563.199219-.242187.476563-.441406.847657-.574218.375-.132813.804687-.195313 1.300781-.195313.480469 0 .878906.0625 1.1875.175781.308593.109375.527343.25.667969.425782.144531.175781.242187.386718.296874.652343.035157.175781.058594.472657.058594.898438v1.289062c0 .902344.007813 1.460938.054688 1.703125.042968.242188.121094.464844.25.683594h-1.011719c-.109375-.199219-.175781-.429688-.195313-.703125m-.078124-2.15625c-.351563.140625-.878907.261719-1.585938.363281-.394531.066406-.679688.132813-.84375.195313-.167969.066406-.289062.179687-.375.308593-.089844.144532-.132812.296876-.132812.464844 0 .261719.089843.472656.285156.648438.199218.175781.484375.25.859375.25s.703125-.074219.988281-.238282c.289062-.167968.507812-.386718.652344-.671874.097656-.222657.152344-.539063.152344-.96875z"/></symbol><symbol id="F" overflow="visible"><path d="m.703125 0v-7.875h.96875v7.875z"/></symbol><symbol id="G" overflow="visible"><path d="m4.464844 0v-.835938c-.449219.636719-1.054688.957032-1.8125.957032-.34375 0-.660156-.0664065-.949219-.1875002-.285156-.1210938-.503906-.2851558-.648437-.4843748-.140626-.195313-.242188-.429688-.296876-.714844-.042968-.1875-.054687-.484375-.054687-.902344v-3.542969h.96875v3.171876c0 .503906.011719.84375.054687 1.019531.066407.253906.1875.453125.386719.59375.195313.15625.4375.222656.734375.222656.289063 0 .550782-.066406.816406-.222656.25-.140625.429688-.339844.539063-.601563.097656-.253906.152344-.628906.152344-1.125v-3.058594h.96875v5.710938z"/></symbol><symbol id="H" overflow="visible"><path d="m4.632812-1.835938 1 .121094c-.164062.59375-.460937 1.042969-.878906 1.363282-.429687.320312-.96875.472656-1.628906.472656-.835938 0-1.507812-.253906-1.992188-.757813-.484374-.507812-.726562-1.234375-.726562-2.167969 0-.957031.242188-1.707031.738281-2.234374.484375-.527344 1.132813-.789063 1.925781-.789063.757813 0 1.382813.261719 1.867188.777344.484375.519531.726562 1.246093.726562 2.191406 0 .066406-.011718.140625-.011718.253906h-4.253906c.03125.636719.207031 1.109375.527343 1.441407.316407.328124.714844.492187 1.199219.492187.351562 0 .660156-.085937.910156-.273437.242188-.175782.441406-.472657.597656-.890626m-3.179687-1.5625h3.1875c-.042969-.484374-.164063-.835937-.363281-1.078124-.304688-.375-.714844-.5625-1.199219-.5625-.449219 0-.824219.15625-1.121094.453124-.308593.296876-.472656.691407-.503906 1.1875"/></symbol><symbol id="I" overflow="visible"><path d="m.847656 0v-7.875h2.96875c.519532 0 .914063.03125 1.199219.074219.386719.066406.703125.199219.96875.375.261719.175781.472656.429687.636719.761719.15625.328124.242187.679687.242187 1.066406 0 .679687-.21875 1.242187-.648437 1.703125-.429688.460937-1.199219.695312-2.308594.695312h-2.015625v3.199219zm1.042969-4.125h2.035156c.671875 0 1.144531-.121094 1.429688-.375.289062-.253906.429687-.605469.429687-1.066406 0-.328125-.085937-.605469-.253906-.847656-.175781-.230469-.394531-.382813-.660156-.460938-.175782-.042969-.503906-.066406-.964844-.066406h-2.015625z"/></symbol><symbol id="J" overflow="visible"><path d="m.726562 0v-7.875h.96875v2.824219c.4375-.515625 1.011719-.777344 1.703126-.777344.417968 0 .792968.085937 1.101562.25.308594.167969.539062.398437.671875.683594.128906.296875.195313.726562.195313 1.277343v3.617188h-.96875v-3.617188c0-.484374-.109376-.835937-.316407-1.058593-.210937-.21875-.507812-.328125-.882812-.328125-.285157 0-.558594.074218-.8125.230468-.253907.152344-.429688.351563-.539063.605469-.109375.253907-.152344.605469-.152344 1.042969v3.125z"/></symbol><symbol id="K" overflow="visible"><path d="m.683594 2.1875-.113282-.910156c.210938.054687.398438.085937.5625.085937.210938 0 .375-.042969.507813-.109375.128906-.078125.230469-.175781.316406-.296875.066407-.097656.164063-.339843.296875-.726562.023438-.054688.046875-.1328128.089844-.230469l-2.167969-5.710938h1.046875l1.1875 3.3125c.152344.417969.285156.859376.40625 1.320313.109375-.441406.242188-.878906.394532-1.296875l1.222656-3.335938h.96875l-2.167969 5.8007818c-.242187.6132812-.417969 1.0429682-.539063 1.2851562-.175781.320312-.375.550781-.59375.703125-.21875.144531-.484374.222656-.792968.222656-.199219 0-.40625-.046875-.625-.113281"/></symbol><symbol id="L" overflow="visible"><path d="m.550781.460938.933594.144531c.042969.285156.15625.496093.332031.625.242188.175781.558594.277343.976563.277343.441406 0 .792969-.101562 1.035156-.277343s.417969-.425781.507813-.746094c.042968-.199219.0625-.605469.0625-1.230469-.425782.503906-.957032.746094-1.582032.746094-.792968 0-1.398437-.273438-1.828125-.847656-.425781-.558594-.636719-1.242188-.636719-2.035156 0-.539063.097657-1.042969.296876-1.507813.199218-.460937.484374-.8125.859374-1.066406.375-.242188.8125-.371094 1.320313-.371094.667969 0 1.21875.273437 1.660156.8125v-.695313h.890625v4.941407c0 .878906-.097656 1.496093-.273437 1.871093-.175781.371094-.464844.660157-.859375.878907-.394532.207031-.867188.320312-1.441406.320312-.683594 0-1.230469-.15625-1.648438-.464843-.417969-.308594-.628906-.757813-.605469-1.375m.800781-3.421876c0 .75.144532 1.300782.441407 1.640626.296875.351562.671875.515624 1.121093.515624.441407 0 .804688-.164062 1.113282-.503906.296875-.339844.449218-.878906.449218-1.617187 0-.691407-.152343-1.222657-.460937-1.574219s-.683594-.539062-1.121094-.539062c-.429687 0-.792969.175781-1.089843.527343-.308594.355469-.453126.871094-.453126 1.550781"/></symbol><symbol id="M" overflow="visible"><path d="m2.839844-.867188.140625.8554692c-.285157.0429688-.527344.078125-.738281.078125-.351563 0-.625-.0546874-.8125-.15625-.199219-.1093752-.328126-.2500002-.40625-.4375002-.089844-.175781-.121094-.5625-.121094-1.144531v-3.277344h-.703125v-.761719h.703125v-1.40625l.957031-.582031v1.988281h.980469v.761719h-.980469v3.332031c0 .285157.011719.460938.054687.539063.03125.078125.089844.144531.164063.1875.078125.042969.1875.066406.332031.066406.109375 0 .25-.011719.429688-.042969"/></symbol><symbol id="N" overflow="visible"><path d="m4.421875 0v-.714844c-.363281.5625-.890625.835938-1.59375.835938-.464844 0-.882813-.121094-1.253906-.375-.386719-.242188-.683594-.59375-.890625-1.042969-.210938-.441406-.308594-.957031-.308594-1.550781 0-.5625.085938-1.078125.285156-1.542969.1875-.460937.472656-.824219.847656-1.066406.375-.242188.800782-.371094 1.273438-.371094.34375 0 .652344.074219.925781.21875.265625.140625.484375.328125.648438.558594v-2.824219h.96875v7.875zm-3.046875-2.847656c0 .734375.144531 1.285156.449219 1.636718.308593.363282.671875.539063 1.101562.539063.417969 0 .769531-.164063 1.066407-.515625.296874-.339844.453124-.871094.453124-1.574219 0-.78125-.15625-1.351562-.453124-1.726562-.308594-.363281-.671876-.550781-1.109376-.550781-.441406 0-.792968.175781-1.078124.527343-.285157.355469-.429688.914063-.429688 1.664063"/></symbol><symbol id="O" overflow="visible"><path d="m.714844 0v-5.710938h.871094v.871094c.21875-.394531.417968-.660156.613281-.792968.1875-.132813.398437-.195313.617187-.195313.328125 0 .660156.109375 1 .304687l-.339844.902344c-.242187-.132812-.472656-.207031-.703124-.207031-.222657 0-.410157.066406-.574219.1875-.175781.128906-.296875.304687-.363281.527344-.109376.351562-.152344.726562-.152344 1.132812v2.980469z"/></symbol><symbol id="P" overflow="visible"><path d="m.339844-1.703125.957031-.144531c.046875.382812.199219.683594.441406.878906.242188.199219.59375.296875 1.035157.296875.4375 0 .769531-.085937.988281-.261719.210937-.175781.320312-.398437.320312-.640625 0-.21875-.101562-.382812-.285156-.515625-.132813-.089844-.464844-.199218-.992187-.332031-.703126-.175781-1.199219-.328125-1.472657-.460937-.277343-.132813-.484375-.308594-.628906-.539063-.140625-.230469-.207031-.484375-.207031-.769531 0-.253906.054687-.484375.175781-.703125.109375-.21875.273437-.394531.472656-.539063.152344-.109375.351563-.199218.617188-.277344.261719-.074218.539062-.117187.835937-.117187.4375 0 .835938.0625 1.175782.195313.339843.132812.59375.296874.757812.519531.15625.21875.265625.515625.332031.878906l-.949219.132813c-.042968-.289063-.175781-.519532-.371093-.683594-.210938-.164063-.496094-.253906-.871094-.253906-.449219 0-.769531.078124-.957031.222656-.195313.152344-.285156.316406-.285156.515625 0 .132812.035156.242187.121093.339843.078125.109376.199219.1875.375.253907.085938.042969.375.121093.847657.253906.679687.175781 1.164062.328125 1.429687.4375.261719.121094.484375.296875.636719.519531.152344.21875.230468.492188.230468.824219 0 .328125-.097656.625-.285156.914063-.1875.285156-.460937.492187-.8125.648437-.355468.1523438-.761718.230469-1.199218.230469-.75 0-1.308594-.1445315-1.695313-.449219-.394531-.308594-.636719-.761719-.738281-1.375"/></symbol><symbol id="Q" overflow="visible"><path d="m.496094-2.53125.976562-.085938c.046875.394532.15625.726563.332032.976563.164062.253906.429687.453125.792968.605469.351563.15625.757813.230468 1.207032.230468.398437 0 .738281-.054687 1.046874-.175781.308594-.109375.527344-.273437.679688-.484375.144531-.195312.222656-.425781.222656-.667968 0-.242188-.078125-.464844-.222656-.648438-.140625-.179688-.371094-.332031-.703125-.464844-.207031-.085937-.671875-.207031-1.394531-.382812-.726563-.175782-1.234375-.34375-1.519532-.496094-.375-.199219-.660156-.441406-.847656-.726562-.1875-.285157-.273437-.617188-.273437-.988282 0-.398437.109375-.761718.339843-1.113281.21875-.339844.550782-.605469.988282-.78125.429687-.175781.914062-.273437 1.441406-.273437.585938 0 1.101562.097656 1.542969.285156.4375.1875.789062.460937 1.03125.824218.242187.375.363281.78125.386719 1.246094l-1 .074219c-.054688-.492187-.234376-.867187-.539063-1.132813-.308594-.253906-.769531-.382812-1.375-.382812-.640625 0-1.089844.121094-1.375.351562-.289063.230469-.429687.503907-.429687.835938 0 .285156.097656.515625.296874.691406.199219.1875.726563.375 1.574219.574219.84375.195313 1.429688.363281 1.746094.492187.453125.222657.792969.484376 1.011719.804688.222656.328125.332031.703125.332031 1.121094 0 .417968-.121094.816406-.363281 1.1875-.242188.375-.59375.660156-1.035156.859375-.449219.1992185-.957032.296875-1.515626.296875-.714843 0-1.3125-.0976565-1.792968-.296875-.484375-.199219-.859375-.515625-1.132813-.933594-.277343-.417969-.417969-.894531-.429687-1.421875"/></symbol><symbol id="R" overflow="visible"><path d="m.726562 2.179688v-7.890626h.878907v.75c.199219-.285156.441406-.507812.703125-.648437.265625-.144531.574218-.21875.949218-.21875.480469 0 .910157.128906 1.285157.371094.375.253906.648437.605469.847656 1.066406.1875.464844.285156.957031.285156 1.496094 0 .585937-.109375 1.113281-.320312 1.574219-.207031.472656-.515625.835937-.910157 1.078124-.398437.242188-.816406.363282-1.253906.363282-.332031 0-.617187-.0664065-.871094-.199219-.261718-.132813-.472656-.296875-.625-.515625v2.773438zm.878907-4.996094c0 .738281.144531 1.277344.441406 1.628906s.660156.515625 1.078125.515625c.429688 0 .789062-.175781 1.097656-.539063.308594-.363281.464844-.921874.464844-1.691406 0-.726562-.15625-1.265625-.453125-1.628906-.296875-.351562-.648437-.539062-1.066406-.539062s-.78125.199218-1.089844.582031c-.316406.386719-.472656.945312-.472656 1.671875"/></symbol><symbol id="S" overflow="visible"><path d="m3.109375 0v-7.570312h-2.832031v-1.023438h6.816406v1.023438h-2.847656v7.570312z"/></symbol><symbol id="T" overflow="visible"><path d="m.792969-7.378906v-1.214844h1.054687v1.214844zm0 7.378906v-6.226562h1.054687v6.226562z"/></symbol><symbol id="U" overflow="visible"><path d="m.792969 0v-6.226562h.945312v.875c.195313-.300782.445313-.539063.769531-.734376.324219-.179687.695313-.273437 1.117188-.273437.453125 0 .828125.09375 1.128906.289063.285156.191406.503906.464843.621094.800781.492188-.71875 1.128906-1.089844 1.921875-1.089844.625 0 1.089844.179687 1.425781.515625.335938.335938.503906.863281.503906 1.570312v4.273438h-1.054687v-3.925781c0-.40625-.035156-.707031-.109375-.898438-.070312-.191406-.191406-.335937-.371094-.457031-.179687-.105469-.382812-.167969-.625-.167969-.441406 0-.800781.15625-1.089844.445313-.289062.289062-.433593.757812-.433593 1.390625v3.613281h-1.054688v-4.042969c0-.46875-.097656-.816406-.265625-1.058593-.167968-.226563-.453125-.347657-.839844-.347657-.296874 0-.574218.085938-.828124.242188-.25.15625-.429688.382812-.539063.683593-.121094.300782-.167969.730469-.167969 1.296876v3.226562z"/></symbol><symbol id="V" overflow="visible"><path d="m5.050781-2.003906 1.09375.132812c-.179687.648438-.503906 1.140625-.960937 1.488282-.46875.3476558-1.054688.515624-1.777344.515624-.910156 0-1.640625-.277343-2.171875-.828124-.527344-.550782-.789063-1.34375-.789063-2.363282 0-1.046875.261719-1.863281.800782-2.4375.53125-.574218 1.238281-.863281 2.101562-.863281.828125 0 1.511719.289063 2.039063.851563.527343.5625.792969 1.355468.792969 2.386718 0 .074219-.011719.15625-.011719.277344h-4.644531c.035156.695312.230468 1.210938.578124 1.570312.347657.363282.777344.542969 1.304688.542969.386719 0 .722656-.097656.996094-.300781.265625-.191406.480468-.515625.648437-.972656m-3.464843-1.703125h3.476562c-.046875-.527344-.179688-.914063-.394531-1.175781-.335938-.410157-.78125-.613282-1.308594-.613282-.492187 0-.898437.167969-1.222656.492188-.335938.324218-.515625.757812-.550781 1.296875"/></symbol><symbol id="W" overflow="visible"><path d="m0-.925781h-8.59375v-3.238281c0-.5625.039062-.996094.085938-1.308594.070312-.417969.214843-.765625.40625-1.054688.195312-.289062.46875-.515625.828124-.695312.363282-.167969.746094-.265625 1.164063-.265625.746094 0 1.355469.242187 1.863281.707031.503906.46875.753906 1.308594.753906 2.519531v2.199219h3.492188zm-4.5-1.136719v-2.222656c0-.730469-.132812-1.246094-.40625-1.558594-.277344-.3125-.660156-.46875-1.164062-.46875-.363282 0-.660157.097656-.925782.277344-.25.191406-.417968.429687-.503906.71875-.046875.191406-.070312.550781-.070312 1.054687v2.199219z"/></symbol><symbol id="X" overflow="visible"><path d="m-2.003906-5.050781.132812-1.09375c.648438.179687 1.140625.503906 1.488282.960937.3476558.46875.515624 1.054688.515624 1.777344 0 .910156-.277343 1.640625-.828124 2.171875-.550782.527344-1.34375.789063-2.363282.789063-1.046875 0-1.863281-.261719-2.4375-.800782-.574218-.53125-.863281-1.238281-.863281-2.101562 0-.828125.289063-1.511719.851563-2.039063.5625-.527343 1.355468-.792969 2.386718-.792969.074219 0 .15625.011719.277344.011719v4.644531c.695312-.035156 1.210938-.230468 1.570312-.578124.363282-.347657.542969-.777344.542969-1.304688 0-.386719-.097656-.722656-.300781-.996094-.191406-.265625-.515625-.480468-.972656-.648437m-1.703125 3.464843v-3.476562c-.527344.046875-.914063.179688-1.175781.394531-.410157.335938-.613282.78125-.613282 1.308594 0 .492187.167969.898437.492188 1.222656.324218.335938.757812.515625 1.296875.550781"/></symbol><symbol id="Y" overflow="visible"><path d="m0-.78125h-6.226562v-.945312h.945312c-.429688-.242188-.71875-.457032-.863281-.671876-.144531-.207031-.214844-.433593-.214844-.671874 0-.363282.121094-.722657.335937-1.09375l.984376.371093c-.144532.265625-.230469.515625-.230469.769531 0 .238282.074219.445313.207031.625.140625.191407.335938.324219.574219.394532.382812.121094.792969.167968 1.234375.167968h3.253906z"/></symbol><symbol id="Z" overflow="visible"><path d="m-2.28125-4.847656.132812-1.042969c.71875.117187 1.285157.40625 1.679688.875.4101562.46875.601562 1.042969.601562 1.714844 0 .863281-.277343 1.546875-.828124 2.066406-.550782.515625-1.34375.765625-2.390626.765625-.671874 0-1.257812-.105469-1.761718-.335938-.503906-.214843-.875-.550781-1.128906-1.007812-.25-.457031-.382813-.949219-.382813-1.488281 0-.671875.179687-1.222657.515625-1.65625.335938-.429688.828125-.707031 1.453125-.828125l.15625 1.019531c-.410156.097656-.722656.277344-.9375.519531-.214844.25-.324219.550782-.324219.898438 0 .539062.191406.972656.574219 1.308594.386719.335937.984375.492187 1.800781.492187.839844 0 1.453125-.15625 1.824219-.480469.386719-.3125.566406-.734375.566406-1.261718 0-.40625-.121093-.753907-.375-1.03125-.25-.277344-.648437-.457032-1.175781-.527344"/></symbol><symbol id="aa" overflow="visible"><path d="m0-.792969h-6.226562v-.945312h.886718c-.671875-.457031-1.019531-1.117188-1.019531-1.980469 0-.375.070313-.722656.203125-1.035156.132812-.308594.3125-.550782.527344-.707032.21875-.15625.480468-.261718.78125-.324218.191406-.035156.539062-.058594 1.019531-.058594h3.828125v1.054688h-3.78125c-.429688 0-.742188.050781-.957031.121093-.21875.082031-.386719.226563-.519531.433594-.117188.214844-.191407.453125-.191407.730469 0 .457031.144531.851562.433594 1.175781s.828125.480469 1.621094.480469h3.394531z"/></symbol><symbol id="ab" overflow="visible"><path d="m-.949219-3.097656.9375002-.15625c.046875.3125.0820313.578125.0820313.804687 0 .386719-.0585937.683594-.1679687.890625-.1171878.214844-.2734378.359375-.4765628.441406-.195312.097657-.613281.132813-1.25.132813h-3.574219v.769531h-.828124v-.769531h-1.539063l-.632813-1.042969h2.171876v-1.070312h.828124v1.070312h3.632813c.3125 0 .503906-.011718.589844-.0625.082031-.035156.15625-.09375.203125-.179687.046875-.082031.074218-.203125.074218-.359375 0-.117188-.011718-.273438-.050781-.46875"/></symbol><symbol id="ac" overflow="visible"><path d="m-.769531-4.847656c.335937.394531.578125.769531.7109372 1.128906.1171876.359375.1914058.753906.1914058 1.164062 0 .683594-.1562495 1.210938-.492187 1.570313-.335937.371094-.757813.550781-1.285156.550781-.300781 0-.574219-.058594-.828125-.203125-.25-.144531-.457032-.324219-.613282-.550781-.140624-.214844-.261718-.46875-.347656-.757812-.046875-.203126-.09375-.515626-.15625-.933594-.09375-.851563-.214844-1.476563-.359375-1.886719-.144531 0-.226562 0-.273437 0-.433594 0-.734375.097656-.914063.289063-.238281.277343-.359375.683593-.359375 1.210937 0 .503906.097656.867187.265625 1.105469.179688.238281.492188.40625.921875.515625l-.144531 1.03125c-.429687-.09375-.789063-.25-1.066406-.464844-.265625-.21875-.480469-.519531-.625-.925781s-.214844-.875-.214844-1.417969c0-.527344.070313-.957031.191406-1.292969.121094-.335937.277344-.578125.46875-.734375.191407-.15625.417969-.261719.707031-.324219.191407-.035156.515626-.058593.984376-.058593h1.402343c.984375 0 1.597657-.011719 1.863281-.058594.261719-.050781.503907-.132813.742188-.277344v1.105469c-.214844.117188-.46875.191406-.769531.214844m-2.351563.082031c.15625.386719.289063.960937.398438 1.730469.070312.429687.144531.742187.214844.921875.070312.179687.191406.3125.335937.410156.15625.09375.324219.144531.503906.144531.289063 0 .515625-.097656.707031-.3125.191407-.21875.277344-.527344.277344-.9375 0-.40625-.085937-.765625-.265625-1.078125-.179687-.3125-.417969-.554687-.730469-.710937-.242187-.105469-.589843-.167969-1.054687-.167969z"/></symbol><symbol id="ad" overflow="visible"><path d="m.503906-.601562.15625-1.019532c.3125-.046875.539063-.167968.683594-.359375.191406-.261719.300781-.613281.300781-1.066406 0-.480469-.109375-.863281-.300781-1.128906s-.46875-.457031-.816406-.550781c-.214844-.050782-.660156-.074219-1.34375-.074219.550781.46875.816406 1.042969.816406 1.730469 0 .863281-.300781 1.523437-.925781 1.992187-.609375.464844-1.355469.695313-2.21875.695313-.585938 0-1.140625-.109376-1.644531-.324219-.503907-.21875-.886719-.527344-1.164063-.9375-.261719-.40625-.40625-.886719-.40625-1.441407 0-.730468.300781-1.328124.886719-1.808593h-.753906v-.972657h5.386718c.960938 0 1.632813.105469 2.039063.300782.410156.191406.722656.503906.960937.933594.226563.433593.347656.949218.347656 1.574218 0 .742188-.167968 1.34375-.503906 1.796875-.335937.457031-.828125.6875-1.5.660157m-3.730468-.875c.816406 0 1.414062-.15625 1.785156-.480469.386718-.324219.566406-.730469.566406-1.222657 0-.480468-.179688-.875-.554688-1.210937-.371093-.324219-.957031-.492187-1.761718-.492187-.757813 0-1.332032.167968-1.714844.503906-.386719.335937-.589844.742187-.589844 1.222656 0 .46875.191406.863281.574219 1.1875.386719.335938.949219.492188 1.695313.492188"/></symbol><symbol id="ae" overflow="visible"/><symbol id="af" overflow="visible"><path d="m0-2.519531-6.226562 2.363281v-1.105469l3.730468-1.34375c.40625-.140625.816406-.273437 1.25-.394531-.324218-.097656-.722656-.226562-1.179687-.394531l-3.800781-1.382813v-1.078125l6.226562 2.351563z"/></symbol><symbol id="ag" overflow="visible"><path d="m0-.769531h-8.59375v-1.054688h8.59375z"/></symbol><symbol id="ah" overflow="visible"><path d="m0-4.871094h-.910156c.695312.492188 1.042968 1.152344 1.042968 1.980469 0 .371094-.0742182.71875-.2031245 1.03125-.1328125.3125-.3124995.550781-.5312495.707031-.214844.15625-.464844.265625-.777344.324219-.207032.046875-.527344.058594-.984375.058594h-3.863281v-1.054688h3.453124c.554688 0 .925782-.011719 1.117188-.058593.277344-.074219.492188-.207032.648438-.421876.167968-.214843.238281-.480468.238281-.804687 0-.3125-.070313-.597656-.238281-.886719-.15625-.277344-.371094-.46875-.660157-.589844-.277343-.105468-.683593-.167968-1.222656-.167968h-3.335937v-1.054688h6.226562z"/></symbol><symbol id="ai" overflow="visible"><path d="m-1.859375-.371094-.15625-1.042968c.417969-.050782.742187-.21875.960937-.480469.214844-.265625.324219-.648438.324219-1.128907 0-.480468-.097656-.839843-.289062-1.082031-.191407-.226562-.433594-.347656-.695313-.347656-.242187 0-.421875.109375-.566406.3125-.09375.144531-.214844.503906-.359375 1.082031-.191406.765625-.359375 1.304688-.503906 1.605469s-.335938.527344-.585938.683594c-.253906.15625-.53125.230469-.839843.230469-.277344 0-.53125-.0625-.769532-.191407-.238281-.121093-.433594-.300781-.589844-.515625-.117187-.167968-.214843-.386718-.296874-.675781-.085938-.285156-.132813-.585937-.132813-.910156 0-.480469.070313-.910157.214844-1.285157.144531-.371093.324219-.648437.566406-.828124.238281-.167969.5625-.285157.957031-.359376l.144532 1.03125c-.3125.050782-.5625.195313-.742188.410157-.179688.226562-.277344.539062-.277344.949219 0 .488281.085938.839843.238282 1.042968.167968.214844.351562.3125.566406.3125.144531 0 .261718-.039062.371094-.132812.121093-.085938.203124-.214844.277343-.410156.046875-.09375.132813-.40625.273438-.921876.195312-.746093.363281-1.273437.480469-1.5625.132812-.285156.324218-.527343.566406-.695312.238281-.167969.539062-.25.898437-.25s.683594.105469.996094.3125c.3125.203125.539063.503906.707031.886719.167969.382812.253906.828125.253906 1.308593 0 .816407-.1562495 1.425782-.492187 1.847657-.335937.433593-.828125.695312-1.5.804687"/></symbol><symbol id="aj" overflow="visible"><path d="m3.824219 0-3.824219-10.738281h2.339844l2.714844 7.949219 2.640624-7.949219h2.292969l-3.839843 10.738281z"/></symbol><symbol id="ak" overflow="visible"><path d="m2.609375-5.398438-1.859375-.347656c.210938-.75.570312-1.304687 1.078125-1.664062.511719-.359375 1.261719-.539063 2.28125-.539063.914063 0 1.605469.121094 2.054687.328125.449219.210938.765626.496094.945313.824219.179687.332031.285156.945313.285156 1.832031l-.03125 2.414063c0 .691406.03125 1.1875.089844 1.515625.0625.332031.195313.675781.375 1.035156h-2.023437c-.058594-.136719-.132813-.34375-.195313-.613281-.042969-.121094-.074219-.195313-.074219-.242188-.359375.359375-.75.617188-1.140625.7812502-.40625.1484376-.824219.2382808-1.273437.2382808-.8125 0-1.441406-.210937-1.890625-.644531-.464844-.417969-.691407-.972656-.691407-1.648437 0-.4375.105469-.824219.316407-1.171875.210937-.328125.496093-.597657.871093-.777344.375-.183594.929688-.347656 1.648438-.496094.960938-.179687 1.621094-.347656 1.996094-.496093v-.210938c0-.390625-.105469-.671875-.300782-.839844-.195312-.164062-.554687-.253906-1.09375-.253906-.375 0-.660156.074219-.871093.226562-.210938.148438-.375.386719-.496094.75m2.761719 1.664063c-.269532.089844-.691406.195313-1.261719.3125-.570313.121094-.945313.242187-1.109375.363281-.269531.195313-.40625.433594-.40625.71875 0 .300782.105469.539063.316406.75.210938.210938.496094.316406.824219.316406.359375 0 .71875-.121093 1.066406-.363281.238281-.179687.402344-.417969.496094-.6875.042969-.164062.074219-.496093.074219-1.003906z"/></symbol><symbol id="al" overflow="visible"><path d="m3.046875 0h-2.058594v-7.785156h1.90625v1.109375c.332031-.507813.617188-.855469.886719-1.019531.253906-.164063.554688-.253907.898438-.253907.449218 0 .898437.132813 1.351562.390625l-.644531 1.785156c-.347657-.210937-.660157-.332031-.960938-.332031s-.539062.089844-.734375.242188c-.210937.164062-.363281.449219-.480468.867187-.121094.421875-.164063 1.277344-.164063 2.597656z"/></symbol><symbol id="am" overflow="visible"><path d="m1.078125-8.835938v-1.902343h2.058594v1.902343zm0 8.835938v-7.785156h2.058594v7.785156z"/></symbol><symbol id="an" overflow="visible"><path d="m.988281 0v-10.738281h2.058594v3.867187c.628906-.71875 1.394531-1.078125 2.261719-1.078125.929687 0 1.710937.34375 2.339844 1.035157.617187.6875.929687 1.664062.929687 2.9375 0 1.335937-.3125 2.355468-.941406 3.078124-.632813.71875-1.410157 1.0625-2.3125 1.0625-.449219 0-.882813-.117187-1.304688-.328124-.433593-.210938-.808593-.539063-1.125-.976563v1.140625zm2.042969-4.066406c0 .8125.117188 1.410156.390625 1.800781.34375.539063.808594.8125 1.40625.8125.453125 0 .84375-.183594 1.171875-.570313.316406-.390624.480469-1.007812.480469-1.847656 0-.882812-.164063-1.527344-.496094-1.917968-.328125-.390626-.734375-.585938-1.230469-.585938-.492187 0-.898437.195312-1.230468.570312-.328126.390626-.492188.960938-.492188 1.738282"/></symbol><symbol id="ao" overflow="visible"><path d="m1.078125 0v-10.738281h2.058594v10.738281z"/></symbol><symbol id="ap" overflow="visible"><path d="m5.578125-2.476562 2.058594.347656c-.273438.75-.691407 1.320312-1.261719 1.707031-.570312.390625-1.273438.585937-2.128906.585937-1.351563 0-2.355469-.433593-3-1.320312-.511719-.6875-.765625-1.589844-.765625-2.667969 0-1.289062.328125-2.296875 1.003906-3.03125.675781-.71875 1.53125-1.09375 2.566406-1.09375 1.140625 0 2.054688.390625 2.730469 1.152344.660156.765625.988281 1.9375.957031 3.496094h-5.160156c.015625.617187.183594 1.097656.496094 1.425781.316406.34375.722656.511719 1.199219.511719.316406 0 .585937-.078125.8125-.257813.210937-.179687.375-.464844.492187-.855468m.121094-2.082032c-.027344-.585937-.179688-1.035156-.464844-1.351562-.300781-.300782-.644531-.464844-1.0625-.464844-.453125 0-.828125.164062-1.113281.480469-.296875.328125-.449219.78125-.433594 1.335937z"/></symbol><symbol id="aq" overflow="visible"><path d="m.34375-2.21875 2.070312-.316406c.089844.40625.269532.707031.539063.914062.273437.210938.648437.316406 1.125.316406.527344 0 .933594-.089843 1.203125-.300781.179688-.132812.269531-.316406.269531-.554687 0-.148438-.0625-.269532-.152343-.375-.101563-.089844-.328126-.195313-.6875-.285156-1.664063-.359376-2.714844-.691407-3.152344-.988282-.628906-.421875-.929688-1.007812-.929688-1.757812 0-.660156.257813-1.230469.796875-1.695313.539063-.449219 1.363281-.6875 2.488281-.6875 1.050782 0 1.847657.179688 2.371094.523438.511719.347656.871094.855469 1.066406 1.53125l-1.9375.359375c-.089843-.300782-.238281-.523438-.480468-.691406-.238282-.164063-.570313-.253907-.988282-.253907-.539062 0-.929687.074219-1.15625.226563-.164062.117187-.238281.253906-.238281.417968 0 .152344.058594.285157.210938.375.179687.152344.808593.347657 1.902343.585938 1.097657.253906 1.859376.554688 2.3125.914062.417969.359376.644532.871094.644532 1.53125 0 .71875-.300782 1.320313-.902344 1.828126-.597656.5117182-1.46875.765624-2.640625.765624-1.0625 0-1.902344-.210937-2.519531-.628906-.628906-.421875-1.035156-1.003906-1.214844-1.753906"/></symbol><symbol id="ar" overflow="visible"/><symbol id="as" overflow="visible"><path d="m4.648438-7.785156v1.648437h-1.410157v3.136719c0 .628906 0 1.003906.03125 1.109375s.089844.195313.179688.253906c.089843.078125.210937.105469.359375.105469.179687 0 .464844-.058594.828125-.195312l.179687 1.589843c-.480468.1953128-1.035156.300781-1.636718.300781-.375 0-.703126-.058593-1.003907-.179687s-.511719-.269531-.644531-.480469c-.152344-.195312-.242188-.464844-.285156-.792968-.0625-.242188-.074219-.722657-.074219-1.457032v-3.390625h-.945313v-1.648437h.945313v-1.542969l2.066406-1.203125v2.746094z"/></symbol><symbol id="at" overflow="visible"><path d="m3.121094-10.738281v3.941406c.660156-.761719 1.453125-1.152344 2.382812-1.152344.480469 0 .902344.089844 1.292969.269531.375.179688.65625.40625.851563.675782.179687.269531.316406.570312.390624.898437.0625.332031.105469.855469.105469 1.546875v4.558594h-2.054687v-4.109375c0-.8125-.042969-1.320313-.121094-1.546875-.074219-.207031-.207031-.390625-.402344-.523438-.210937-.121093-.453125-.195312-.75-.195312-.347656 0-.644531.089844-.917968.253906-.269532.167969-.476563.421875-.597657.75-.121093.332032-.179687.824219-.179687 1.472656v3.898438h-2.054688v-10.738281z"/></symbol><symbol id="au" overflow="visible"><path d="m.601562-4.003906c0-.675782.164063-1.335938.492188-1.980469.332031-.628906.8125-1.125 1.441406-1.457031.613282-.328125 1.304688-.507813 2.070313-.507813 1.167969 0 2.144531.390625 2.894531 1.152344.75.765625 1.125 1.726563 1.125 2.882813 0 1.183593-.390625 2.160156-1.140625 2.925781-.765625.777343-1.722656 1.152343-2.863281 1.152343-.722656 0-1.394532-.164062-2.042969-.480468-.65625-.3125-1.152344-.777344-1.484375-1.410156-.328125-.613282-.492188-1.378907-.492188-2.277344m2.113282.117187c0 .78125.179687 1.367188.539062 1.773438.359375.417969.824219.613281 1.367188.613281.523437 0 .972656-.195312 1.332031-.613281.363281-.40625.558594-1.007813.558594-1.785157 0-.75-.195313-1.335937-.558594-1.757812-.359375-.402344-.808594-.613281-1.332031-.613281-.542969 0-1.007813.210937-1.367188.613281-.359375.421875-.539062 1.007812-.539062 1.769531"/></symbol><symbol id="av" overflow="visible"><path d="m6.195312 0v-1.171875c-.285156.421875-.660156.75-1.125.992187-.464843.226563-.945312.34375-1.457031.34375-.523437 0-.988281-.117187-1.410156-.328124-.417969-.226563-.71875-.539063-.898437-.960938-.179688-.421875-.269532-.988281-.269532-1.726562v-4.933594h2.054688v3.585937c0 1.09375.03125 1.769531.105468 2.007813.074219.242187.210938.4375.417969.585937.195313.152344.453125.210938.765625.210938.347656 0 .660156-.089844.945313-.285157.269531-.179687.464843-.421874.570312-.707031.089844-.285156.152344-.988281.152344-2.113281v-3.285156h2.066406v7.785156z"/></symbol><symbol id="aw" overflow="visible"><path d="m.886719.496094 2.351562.285156c.03125.269531.121094.464844.273438.570312.179687.132813.492187.207032.914062.207032.539063 0 .945313-.089844 1.214844-.238282.179687-.105468.3125-.269531.40625-.511718.058594-.179688.101563-.480469.101563-.929688v-1.140625c-.628907.839844-1.410157 1.261719-2.339844 1.261719-1.046875 0-1.875-.433594-2.472656-1.320312-.480469-.691407-.722657-1.558594-.722657-2.609376 0-1.304687.316407-2.296874.945313-2.984374.632812-.691407 1.410156-1.035157 2.339844-1.035157.960937 0 1.742187.417969 2.371093 1.257813v-1.09375h1.933594v6.988281c0 .902344-.074219 1.59375-.222656 2.042969-.152344.449218-.375.792968-.644531 1.0625-.269532.257812-.644532.453125-1.097657.601562-.449219.148438-1.035156.226563-1.722656.226563-1.320313 0-2.265625-.226563-2.804687-.675781-.554688-.449219-.824219-1.019532-.824219-1.710938 0-.074219 0-.164062 0-.253906m1.84375-4.546875c0 .824219.148437 1.425781.480469 1.816406.3125.390625.703124.570313 1.167968.570313.511719 0 .929688-.195313 1.277344-.585938.34375-.390625.523438-.976562.523438-1.753906 0-.796875-.164063-1.394532-.496094-1.785156-.328125-.390626-.75-.585938-1.257813-.585938-.496093 0-.902343.195312-1.214843.570312-.332032.390626-.480469.976563-.480469 1.753907"/></symbol><symbol id="ax" overflow="visible"><path d="m.929688-7.785156h1.890624v1.066406c.675782-.8125 1.484376-1.230469 2.429688-1.230469.480469 0 .914062.105469 1.289062.3125.359376.210938.660157.511719.902344.917969.328125-.40625.703125-.707031 1.09375-.917969.390625-.207031.824219-.3125 1.273438-.3125.570312 0 1.050781.121094 1.457031.34375.390625.242188.6875.570313.882813 1.019531.136718.332032.210937.871094.210937 1.605469v4.980469h-2.054687v-4.441406c0-.777344-.074219-1.273438-.210938-1.5-.195312-.285156-.492188-.433594-.882812-.433594-.300782 0-.570313.089844-.8125.269531-.253907.179688-.433594.433594-.554688.765625-.117188.34375-.164062.886719-.164062 1.605469v3.734375h-2.054688v-4.261719c0-.75-.046875-1.242187-.121094-1.46875-.074218-.210937-.179687-.375-.328125-.480469-.152343-.105468-.359375-.164062-.628906-.164062-.332031 0-.617187.089844-.855469.253906-.257812.179688-.4375.421875-.542968.734375-.117188.332031-.164063.855469-.164063 1.605469v3.78125h-2.054687z"/></symbol><path d="m0 0h432v396h-432z" fill="#fff"/><path d="m55.675781 348.660156h363.363281v-316.980468h-363.363281zm0 0" fill="#eaeaf2"/><g clip-path="url(#a)"><path d="m67.03125 47.339844v316.980468" fill="none" stroke="#fff" stroke-linecap="round" stroke-linejoin="round" stroke-miterlimit="10" transform="matrix(1 0 0 -1 0 396)"/></g><use fill="#262626" x="63.968867" xlink:href="#n" y="366.035"/><g clip-path="url(#b)"><path d="m123.808594 47.339844v316.980468" fill="none" stroke="#fff" stroke-linecap="round" stroke-linejoin="round" stroke-miterlimit="10" transform="matrix(1 0 0 -1 0 396)"/></g><use fill="#262626" x="120.744453" xlink:href="#o" y="366.035"/><g clip-path="url(#c)"><path d="m180.582031 47.339844v316.980468" fill="none" stroke="#fff" stroke-linecap="round" stroke-linejoin="round" stroke-miterlimit="10" transform="matrix(1 0 0 -1 0 396)"/></g><g fill="#262626"><use x="174.457539" xlink:href="#p" y="366.035"/><use x="180.573539" xlink:href="#n" y="366.035"/></g><g clip-path="url(#d)"><path d="m237.359375 47.339844v316.980468" fill="none" stroke="#fff" stroke-linecap="round" stroke-linejoin="round" stroke-miterlimit="10" transform="matrix(1 0 0 -1 0 396)"/></g><g fill="#262626"><use x="231.233125" xlink:href="#p" y="366.035"/><use x="237.349125" xlink:href="#o" y="366.035"/></g><g clip-path="url(#e)"><path d="m294.132812 47.339844v316.980468" fill="none" stroke="#fff" stroke-linecap="round" stroke-linejoin="round" stroke-miterlimit="10" transform="matrix(1 0 0 -1 0 396)"/></g><g fill="#262626"><use x="288.008711" xlink:href="#q" y="366.035"/><use x="294.124711" xlink:href="#n" y="366.035"/></g><g clip-path="url(#f)"><path d="m350.910156 47.339844v316.980468" fill="none" stroke="#fff" stroke-linecap="round" stroke-linejoin="round" stroke-miterlimit="10" transform="matrix(1 0 0 -1 0 396)"/></g><g fill="#262626"><use x="344.784297" xlink:href="#q" y="366.035"/><use x="350.900297" xlink:href="#o" y="366.035"/></g><g clip-path="url(#g)"><path d="m407.683594 47.339844v316.980468" fill="none" stroke="#fff" stroke-linecap="round" stroke-linejoin="round" stroke-miterlimit="10" transform="matrix(1 0 0 -1 0 396)"/></g><g fill="#262626"><use x="401.559883" xlink:href="#r" y="366.035"/><use x="407.675883" xlink:href="#n" y="366.035"/></g><g fill="#262626"><use x="224.272188" xlink:href="#S" y="380.81625"/><use x="231.604187" xlink:href="#T" y="380.81625"/><use x="234.268187" xlink:href="#U" y="380.81625"/><use x="244.264187" xlink:href="#V" y="380.81625"/></g><g clip-path="url(#h)"><path d="m55.675781 47.339844h363.363281" fill="none" stroke="#fff" stroke-linecap="round" stroke-linejoin="round" stroke-miterlimit="10" transform="matrix(1 0 0 -1 0 396)"/></g><g fill="#262626"><use x="33.92625" xlink:href="#o" y="352.5975"/><use x="40.04225" xlink:href="#n" y="352.5975"/></g><g clip-path="url(#i)"><path d="m55.675781 104.972656h363.363281" fill="none" stroke="#fff" stroke-linecap="round" stroke-linejoin="round" stroke-miterlimit="10" transform="matrix(1 0 0 -1 0 396)"/></g><g fill="#262626"><use x="33.92625" xlink:href="#s" y="294.964773"/><use x="40.04225" xlink:href="#n" y="294.964773"/></g><g clip-path="url(#j)"><path d="m55.675781 162.605469h363.363281" fill="none" stroke="#fff" stroke-linecap="round" stroke-linejoin="round" stroke-miterlimit="10" transform="matrix(1 0 0 -1 0 396)"/></g><g fill="#262626"><use x="33.92625" xlink:href="#t" y="237.332045"/><use x="40.04225" xlink:href="#n" y="237.332045"/></g><g clip-path="url(#k)"><path d="m55.675781 220.238281h363.363281" fill="none" stroke="#fff" stroke-linecap="round" stroke-linejoin="round" stroke-miterlimit="10" transform="matrix(1 0 0 -1 0 396)"/></g><g fill="#262626"><use x="33.92625" xlink:href="#u" y="179.699318"/><use x="40.04225" xlink:href="#n" y="179.699318"/></g><g clip-path="url(#l)"><path d="m55.675781 277.871094h363.363281" fill="none" stroke="#fff" stroke-linecap="round" stroke-linejoin="round" stroke-miterlimit="10" transform="matrix(1 0 0 -1 0 396)"/></g><g fill="#262626"><use x="33.92625" xlink:href="#v" y="122.066591"/><use x="40.04225" xlink:href="#n" y="122.066591"/></g><g clip-path="url(#m)"><path d="m55.675781 335.503906h363.363281" fill="none" stroke="#fff" stroke-linecap="round" stroke-linejoin="round" stroke-miterlimit="10" transform="matrix(1 0 0 -1 0 396)"/></g><g fill="#262626"><use x="27.80125" xlink:href="#p" y="64.433864"/><use x="33.91725" xlink:href="#n" y="64.433864"/><use x="40.03325" xlink:href="#n" y="64.433864"/></g><g fill="#262626"><use x="21.27" xlink:href="#W" y="239.8575"/><use x="21.27" xlink:href="#X" y="231.8535"/><use x="21.27" xlink:href="#Y" y="225.1815"/><use x="21.27" xlink:href="#Z" y="221.1855"/><use x="21.27" xlink:href="#X" y="215.1855"/><use x="21.27" xlink:href="#aa" y="208.5135"/><use x="21.27" xlink:href="#ab" y="201.8415"/><use x="21.27" xlink:href="#ac" y="198.5055"/><use x="21.27" xlink:href="#ad" y="191.8335"/><use x="21.27" xlink:href="#X" y="185.1615"/><use x="21.27" xlink:href="#ae" y="178.4895"/><use x="21.27" xlink:href="#af" y="175.1535"/><use x="21.27" xlink:href="#ac" y="169.1535"/><use x="21.27" xlink:href="#ag" y="162.4815"/><use x="21.27" xlink:href="#ah" y="159.8175"/><use x="21.27" xlink:href="#X" y="153.1455"/><use x="21.27" xlink:href="#ai" y="146.4735"/></g><g stroke-miterlimit="10"><path d="m67.03125 335.503906h22.710938l11.355468-.105468 11.355469-.027344 11.355469-1.632813 11.351562-.355469 11.355469-2.839843 11.355469-133.410157 11.355468-3.246093 11.355469-.722657 11.355469-.066406h11.355469l11.355469-2.183594 11.355468-1.355468 11.355469-6.199219 11.355469-2.679687" fill="none" stroke="#7570b3" stroke-linecap="round" stroke-linejoin="round" stroke-width="1.5" transform="matrix(1 0 0 -1 0 396)"/><path d="m-.00011719-2.99973c.79687519 0 1.55859419.316406 2.12109419.878906s.878906 1.324219.878906 2.12109389c0 .79687511-.316406 1.55859411-.878906 2.12109411s-1.324219.878906-2.12109419.878906c-.79687481 0-1.55859381-.316406-2.12109381-.878906s-.878906-1.324219-.878906-2.12109411c0-.79687489.316406-1.55859389.878906-2.12109389s1.324219-.878906 2.12109381-.878906zm0 0" fill="#7570b3" stroke="#7570b3" stroke-linejoin="round" transform="matrix(1 0 0 -1 67.031367 60.496364)"/><path d="m.00023438-2.99973c.79687462 0 1.55859362.316406 2.12109362.878906s.878906 1.324219.878906 2.12109389c0 .79687511-.316406 1.55859411-.878906 2.12109411s-1.324219.878906-2.12109362.878906c-.79687538 0-1.55859338-.316406-2.12109338-.878906s-.878907-1.324219-.878907-2.12109411c0-.79687489.316407-1.55859389.878907-2.12109389s1.324218-.878906 2.12109338-.878906zm0 0" fill="#7570b3" stroke="#7570b3" stroke-linejoin="round" transform="matrix(1 0 0 -1 78.386484 60.496364)"/><path d="m.00058594-2.99973c.79687506 0 1.55859406.316406 2.12109406.878906s.878906 1.324219.878906 2.12109389c0 .79687511-.316406 1.55859411-.878906 2.12109411s-1.324219.878906-2.12109406.878906c-.79687494 0-1.55859394-.316406-2.12109394-.878906s-.878906-1.324219-.878906-2.12109411c0-.79687489.316406-1.55859389.878906-2.12109389s1.324219-.878906 2.12109394-.878906zm0 0" fill="#7570b3" stroke="#7570b3" stroke-linejoin="round" transform="matrix(1 0 0 -1 89.741602 60.496364)"/><path d="m.0009375-2.999632c.7929685 0 1.5585935.316407 2.1210935.878907s.878907 1.324218.878907 2.12109349c0 .79687451-.316407 1.55859351-.878907 2.12109351s-1.328125.878906-2.1210935.878906c-.7968745 0-1.5585935-.316406-2.1210935-.878906s-.878906-1.324219-.878906-2.12109351c0-.79687549.316406-1.55859349.878906-2.12109349s1.324219-.878907 2.1210935-.878907zm0 0" fill="#7570b3" stroke="#7570b3" stroke-linejoin="round" transform="matrix(1 0 0 -1 101.096719 60.601931)"/><path d="m.00128906-2.99915c.79296894 0 1.55859394.316406 2.12109394.878906s.878906 1.324219.878906 2.12109364c0 .79296836-.316406 1.55859336-.878906 2.12109336s-1.328125.878907-2.12109394.878907c-.79687506 0-1.55859406-.316407-2.12109406-.878907s-.878906-1.328125-.878906-2.12109336c0-.79687464.316406-1.55859364.878906-2.12109364s1.324219-.878906 2.12109406-.878906zm0 0" fill="#7570b3" stroke="#7570b3" stroke-linejoin="round" transform="matrix(1 0 0 -1 112.451836 60.629756)"/><path d="m.00164063-2.999596c.79296837 0 1.55859337.316407 2.12109337.878907s.878907 1.324218.878907 2.12109327c0 .79687473-.316407 1.55859373-.878907 2.12109373s-1.328125.878906-2.12109337.878906c-.79687463 0-1.55859363-.316406-2.12109363-.878906s-.878906-1.324219-.878906-2.12109373c0-.79687527.316406-1.55859327.878906-2.12109327s1.324219-.878907 2.12109363-.878907zm0 0" fill="#7570b3" stroke="#7570b3" stroke-linejoin="round" transform="matrix(1 0 0 -1 123.806953 62.262123)"/><path d="m-.00191406-2.998603c.79687506 0 1.56250006.316406 2.12500006.878906s.875 1.324219.875 2.12109365c0 .79296835-.3125 1.55859335-.875 2.12109335s-1.328125.878907-2.12500006.878907c-.79296894 0-1.55859394-.316407-2.12109394-.878907s-.878906-1.328125-.878906-2.12109335c0-.79687465.316406-1.55859365.878906-2.12109365s1.328125-.878906 2.12109394-.878906zm0 0" fill="#7570b3" stroke="#7570b3" stroke-linejoin="round" transform="matrix(1 0 0 -1 135.16207 62.618584)"/><path d="m-.0015625-3.001545c.7968745 0 1.5585935.316407 2.1210935.878907s.878906 1.328125.878906 2.12109348c0 .79687452-.316406 1.55859352-.878906 2.12109352s-1.324219.878906-2.1210935.878906c-.7929685 0-1.5585935-.316406-2.1210935-.878906s-.878907-1.324219-.878907-2.12109352c0-.79296848.316407-1.55859348.878907-2.12109348s1.328125-.878907 2.1210935-.878907zm0 0" fill="#7570b3" stroke="#7570b3" stroke-linejoin="round" transform="matrix(1 0 0 -1 146.517188 65.455487)"/><path d="m-.00121094-3.001016c.79687494 0 1.55859394.316407 2.12109394.878907s.878906 1.328125.878906 2.12109338c0 .79687462-.316406 1.55859362-.878906 2.12109362s-1.324219.878906-2.12109394.878906c-.79296906 0-1.55859406-.316406-2.12109406-.878906s-.878906-1.324219-.878906-2.12109362c0-.79296838.316406-1.55859338.878906-2.12109338s1.328125-.878907 2.12109406-.878907zm0 0" fill="#7570b3" stroke="#7570b3" stroke-linejoin="round" transform="matrix(1 0 0 -1 157.872305 198.866172)"/><path d="m-.00085938-3.00065c.79687538 0 1.55859338.316406 2.12109338.878906s.878907 1.324219.878907 2.12109393c0 .79687507-.316407 1.55859407-.878907 2.12109407s-1.324218.878906-2.12109338.878906c-.79296862 0-1.55859362-.316406-2.12109362-.878906s-.878906-1.324219-.878906-2.12109407c0-.79687493.316406-1.55859393.878906-2.12109393s1.328125-.878906 2.12109362-.878906zm0 0" fill="#7570b3" stroke="#7570b3" stroke-linejoin="round" transform="matrix(1 0 0 -1 169.227422 202.112631)"/><path d="m-.00050781-3.001369c.79687481 0 1.55859381.316406 2.12109381.878906s.878906 1.328125.878906 2.12109375c0 .79687525-.316406 1.55859425-.878906 2.12109425s-1.324219.878906-2.12109381.878906c-.79687519 0-1.55859419-.316406-2.12109419-.878906s-.878906-1.324219-.878906-2.12109425c0-.79296875.316406-1.55859375.878906-2.12109375s1.324219-.878906 2.12109419-.878906zm0 0" fill="#7570b3" stroke="#7570b3" stroke-linejoin="round" transform="matrix(1 0 0 -1 180.582539 202.834568)"/><path d="m-.00015625-3.001207c.79687525 0 1.55859325.316406 2.12109325.878906s.878907 1.328125.878907 2.12109355c0 .79687545-.316407 1.55859345-.878907 2.12109345s-1.324218.878907-2.12109325.878907c-.79687475 0-1.55859375-.316407-2.12109375-.878907s-.878906-1.324218-.878906-2.12109345c0-.79296855.316406-1.55859355.878906-2.12109355s1.324219-.878906 2.12109375-.878906zm0 0" fill="#7570b3" stroke="#7570b3" stroke-linejoin="round" transform="matrix(1 0 0 -1 191.937656 202.901136)"/><path d="m.00019531-3.001207c.79687469 0 1.55859369.316406 2.12109369.878906s.878906 1.328125.878906 2.12109355c0 .79687545-.316406 1.55859345-.878906 2.12109345s-1.324219.878907-2.12109369.878907c-.79687531 0-1.55859331-.316407-2.12109331-.878907s-.878907-1.324218-.878907-2.12109345c0-.79296855.316407-1.55859355.878907-2.12109355s1.324218-.878906 2.12109331-.878906zm0 0" fill="#7570b3" stroke="#7570b3" stroke-linejoin="round" transform="matrix(1 0 0 -1 203.292773 202.901136)"/><path d="m.00054688-2.998609c.79687512 0 1.55859412.316406 2.12109412.878906s.878906 1.324219.878906 2.12109391c0 .79296909-.316406 1.55859409-.878906 2.12109409s-1.324219.878906-2.12109412.878906c-.79687488 0-1.55859388-.316406-2.12109388-.878906s-.878906-1.328125-.878906-2.12109409c0-.79687491.316406-1.55859391.878906-2.12109391s1.324219-.878906 2.12109388-.878906zm0 0" fill="#7570b3" stroke="#7570b3" stroke-linejoin="round" transform="matrix(1 0 0 -1 214.647891 205.087328)"/><path d="m.00089844-2.998622c.79296856 0 1.55859356.316406 2.12109356.878906s.878906 1.324219.878906 2.12109404c0 .79296896-.316406 1.55859396-.878906 2.12109396s-1.328125.878906-2.12109356.878906c-.79687544 0-1.55859344-.316406-2.12109344-.878906s-.878907-1.328125-.878907-2.12109396c0-.79687504.316407-1.55859404.878907-2.12109404s1.324218-.878906 2.12109344-.878906zm0 0" fill="#7570b3" stroke="#7570b3" stroke-linejoin="round" transform="matrix(1 0 0 -1 226.003008 206.442784)"/><path d="m.00125-2.998397c.792969 0 1.558594.316406 2.121094.878906s.878906 1.324219.878906 2.12109376c0 .79296924-.316406 1.55859424-.878906 2.12109424s-1.328125.878906-2.121094.878906c-.796875 0-1.558594-.316406-2.121094-.878906s-.878906-1.328125-.878906-2.12109424c0-.79687476.316406-1.55859376.878906-2.12109376s1.324219-.878906 2.121094-.878906zm0 0" fill="#7570b3" stroke="#7570b3" stroke-linejoin="round" transform="matrix(1 0 0 -1 237.358125 212.642228)"/><path d="m.00160156-3.001112c.79296844 0 1.55859344.316406 2.12109344.878906s.878907 1.328125.878907 2.12109411c0 .79687489-.316407 1.55859389-.878907 2.12109389s-1.328125.878906-2.12109344.878906c-.79687456 0-1.55859356-.316406-2.12109356-.878906s-.878906-1.324219-.878906-2.12109389c0-.79296911.316406-1.55859411.878906-2.12109411s1.324219-.878906 2.12109356-.878906zm0 0" fill="#7570b3" stroke="#7570b3" stroke-linejoin="round" transform="matrix(1 0 0 -1 248.713242 215.319201)"/><path d="m67.03125 335.503906h22.710938l11.355468-2.023437 11.355469-.914063 11.355469-1.890625 11.351562-7.203125 11.355469-2.902344 11.355469-2.039062 11.355468-5.5 11.355469-5.660156 11.355469-2.171875h11.355469l11.355469-5.097657 11.355468-4.542968 11.355469-5.023438 11.355469-4.089844" fill="none" stroke="#1b9e77" stroke-linecap="round" stroke-linejoin="round" stroke-width="1.5" transform="matrix(1 0 0 -1 0 396)"/><path d="m-.00011719-2.99973c.79687519 0 1.55859419.316406 2.12109419.878906s.878906 1.324219.878906 2.12109389c0 .79687511-.316406 1.55859411-.878906 2.12109411s-1.324219.878906-2.12109419.878906c-.79687481 0-1.55859381-.316406-2.12109381-.878906s-.878906-1.324219-.878906-2.12109411c0-.79687489.316406-1.55859389.878906-2.12109389s1.324219-.878906 2.12109381-.878906zm0 0" fill="#1b9e77" stroke="#1b9e77" stroke-linejoin="round" transform="matrix(1 0 0 -1 67.031367 60.496364)"/><path d="m.00023438-2.99973c.79687462 0 1.55859362.316406 2.12109362.878906s.878906 1.324219.878906 2.12109389c0 .79687511-.316406 1.55859411-.878906 2.12109411s-1.324219.878906-2.12109362.878906c-.79687538 0-1.55859338-.316406-2.12109338-.878906s-.878907-1.324219-.878907-2.12109411c0-.79687489.316407-1.55859389.878907-2.12109389s1.324218-.878906 2.12109338-.878906zm0 0" fill="#1b9e77" stroke="#1b9e77" stroke-linejoin="round" transform="matrix(1 0 0 -1 78.386484 60.496364)"/><path d="m.00058594-2.99973c.79687506 0 1.55859406.316406 2.12109406.878906s.878906 1.324219.878906 2.12109389c0 .79687511-.316406 1.55859411-.878906 2.12109411s-1.324219.878906-2.12109406.878906c-.79687494 0-1.55859394-.316406-2.12109394-.878906s-.878906-1.324219-.878906-2.12109411c0-.79687489.316406-1.55859389.878906-2.12109389s1.324219-.878906 2.12109394-.878906zm0 0" fill="#1b9e77" stroke="#1b9e77" stroke-linejoin="round" transform="matrix(1 0 0 -1 89.741602 60.496364)"/><path d="m.0009375-2.999206c.7929685 0 1.5585935.316407 2.1210935.878907s.878907 1.324218.878907 2.12109326c0 .79296874-.316407 1.55859374-.878907 2.12109374s-1.328125.878906-2.1210935.878906c-.7968745 0-1.5585935-.316406-2.1210935-.878906s-.878906-1.328125-.878906-2.12109374c0-.79687526.316406-1.55859326.878906-2.12109326s1.324219-.878907 2.1210935-.878907zm0 0" fill="#1b9e77" stroke="#1b9e77" stroke-linejoin="round" transform="matrix(1 0 0 -1 101.096719 62.520326)"/><path d="m.00128906-2.999123c.79296894 0 1.55859394.316406 2.12109394.878906s.878906 1.324219.878906 2.12109354c0 .79296846-.316406 1.55859346-.878906 2.12109346s-1.328125.878907-2.12109394.878907c-.79687506 0-1.55859406-.316407-2.12109406-.878907s-.878906-1.328125-.878906-2.12109346c0-.79687454.316406-1.55859354.878906-2.12109354s1.324219-.878906 2.12109406-.878906zm0 0" fill="#1b9e77" stroke="#1b9e77" stroke-linejoin="round" transform="matrix(1 0 0 -1 112.451836 63.43447)"/><path d="m.00164063-2.998182c.79296837 0 1.55859337.3125 2.12109337.875s.878907 1.328125.878907 2.12499991c0 .79296909-.316407 1.55859409-.878907 2.12109409s-1.328125.878906-2.12109337.878906c-.79687463 0-1.55859363-.316406-2.12109363-.878906s-.878906-1.328125-.878906-2.12109409c0-.79687491.316406-1.56249991.878906-2.12499991s1.324219-.875 2.12109363-.875zm0 0" fill="#1b9e77" stroke="#1b9e77" stroke-linejoin="round" transform="matrix(1 0 0 -1 123.806953 65.326037)"/><path d="m-.00191406-3.001888c.79687506 0 1.56250006.316406 2.12500006.878906s.875 1.328125.875 2.12109382c0 .79687518-.3125 1.56250018-.875 2.12500018s-1.328125.875-2.12500006.875c-.79296894 0-1.55859394-.3125-2.12109394-.875s-.878906-1.328125-.878906-2.12500018c0-.79296882.316406-1.55859382.878906-2.12109382s1.328125-.878906 2.12109394-.878906zm0 0" fill="#1b9e77" stroke="#1b9e77" stroke-linejoin="round" transform="matrix(1 0 0 -1 135.16207 72.525456)"/><path d="m-.0015625-3.000837c.7968745 0 1.5585935.316406 2.1210935.878906s.878906 1.328125.878906 2.1210936c0 .7968754-.316406 1.5585934-.878906 2.1210934s-1.324219.878907-2.1210935.878907c-.7929685 0-1.5585935-.316407-2.1210935-.878907s-.878907-1.324218-.878907-2.1210934c0-.7929686.316407-1.5585936.878907-2.1210936s1.328125-.878906 2.1210935-.878906zm0 0" fill="#1b9e77" stroke="#1b9e77" stroke-linejoin="round" transform="matrix(1 0 0 -1 146.517188 75.42885)"/><path d="m-.00121094-2.999966c.79687494 0 1.55859394.316406 2.12109394.878906s.878906 1.324219.878906 2.12109356c0 .79687544-.316406 1.55859344-.878906 2.12109344s-1.324219.878907-2.12109394.878907c-.79296906 0-1.55859406-.316407-2.12109406-.878907s-.878906-1.324218-.878906-2.12109344c0-.79687456.316406-1.55859356.878906-2.12109356s1.328125-.878906 2.12109406-.878906zm0 0" fill="#1b9e77" stroke="#1b9e77" stroke-linejoin="round" transform="matrix(1 0 0 -1 157.872305 77.468784)"/><path d="m-.00085938-2.9997c.79687538 0 1.55859338.316406 2.12109338.878906s.878907 1.324219.878907 2.12109416c0 .79687484-.316407 1.55859384-.878907 2.12109384s-1.324218.878906-2.12109338.878906c-.79296862 0-1.55859362-.316406-2.12109362-.878906s-.878906-1.324219-.878906-2.12109384c0-.79687516.316406-1.55859416.878906-2.12109416s1.328125-.878906 2.12109362-.878906zm0 0" fill="#1b9e77" stroke="#1b9e77" stroke-linejoin="round" transform="matrix(1 0 0 -1 169.227422 82.96905)"/><path d="m-.00050781-3.001368c.79687481 0 1.55859381.316406 2.12109381.878906s.878906 1.328125.878906 2.12109355c0 .79687545-.316406 1.55859345-.878906 2.12109345s-1.324219.878907-2.12109381.878907c-.79687519 0-1.55859419-.316407-2.12109419-.878907s-.878906-1.324218-.878906-2.12109345c0-.79296855.316406-1.55859355.878906-2.12109355s1.324219-.878906 2.12109419-.878906zm0 0" fill="#1b9e77" stroke="#1b9e77" stroke-linejoin="round" transform="matrix(1 0 0 -1 180.582539 88.627538)"/><path d="m-.00015625-2.998951c.79687525 0 1.55859325.316406 2.12109325.878906s.878907 1.324219.878907 2.12109355c0 .79296845-.316407 1.55859345-.878907 2.12109345s-1.324218.878907-2.12109325.878907c-.79687475 0-1.55859375-.316407-2.12109375-.878907s-.878906-1.328125-.878906-2.12109345c0-.79687455.316406-1.55859355.878906-2.12109355s1.324219-.878906 2.12109375-.878906zm0 0" fill="#1b9e77" stroke="#1b9e77" stroke-linejoin="round" transform="matrix(1 0 0 -1 191.937656 90.80183)"/><path d="m.00019531-2.998951c.79687469 0 1.55859369.316406 2.12109369.878906s.878906 1.324219.878906 2.12109355c0 .79296845-.316406 1.55859345-.878906 2.12109345s-1.324219.878907-2.12109369.878907c-.79687531 0-1.55859331-.316407-2.12109331-.878907s-.878907-1.328125-.878907-2.12109345c0-.79687455.316407-1.55859355.878907-2.12109355s1.324218-.878906 2.12109331-.878906zm0 0" fill="#1b9e77" stroke="#1b9e77" stroke-linejoin="round" transform="matrix(1 0 0 -1 203.292773 90.80183)"/><path d="m.00054688-2.999598c.79687512 0 1.55859412.316406 2.12109412.878906s.878906 1.324219.878906 2.12109376c0 .79687524-.316406 1.55859424-.878906 2.12109424s-1.324219.878906-2.12109412.878906c-.79687488 0-1.55859388-.316406-2.12109388-.878906s-.878906-1.324219-.878906-2.12109424c0-.79687476.316406-1.55859376.878906-2.12109376s1.324219-.878906 2.12109388-.878906zm0 0" fill="#1b9e77" stroke="#1b9e77" stroke-linejoin="round" transform="matrix(1 0 0 -1 214.647891 95.898839)"/><path d="m.00089844-2.999346c.79296856 0 1.55859356.316406 2.12109356.878906s.878906 1.324219.878906 2.12109398c0 .79687502-.316406 1.55859402-.878906 2.12109402s-1.328125.878906-2.12109356.878906c-.79687544 0-1.55859344-.316406-2.12109344-.878906s-.878907-1.324219-.878907-2.12109402c0-.79687498.316407-1.55859398.878907-2.12109398s1.324218-.878906 2.12109344-.878906zm0 0" fill="#1b9e77" stroke="#1b9e77" stroke-linejoin="round" transform="matrix(1 0 0 -1 226.003008 100.44206)"/><path d="m.00125-2.998272c.792969 0 1.558594.3125 2.121094.875.5625.566406.878906 1.328125.878906 2.12499991 0 .79296909-.316406 1.55859409-.878906 2.12109409s-1.328125.878906-2.121094.878906c-.796875 0-1.558594-.316406-2.121094-.878906s-.878906-1.328125-.878906-2.12109409c0-.79687491.316406-1.55859391.878906-2.12499991.5625-.5625 1.324219-.875 2.121094-.875zm0 0" fill="#1b9e77" stroke="#1b9e77" stroke-linejoin="round" transform="matrix(1 0 0 -1 237.358125 105.466572)"/><path d="m.00160156-3.001587c.79296844 0 1.55859344.316407 2.12109344.878907s.878907 1.328125.878907 2.12109342c0 .79687458-.316407 1.55859358-.878907 2.12109358s-1.328125.878906-2.12109344.878906c-.79687456 0-1.55859356-.316406-2.12109356-.878906s-.878906-1.324219-.878906-2.12109358c0-.79296842.316406-1.55859342.878906-2.12109342s1.324219-.878907 2.12109356-.878907zm0 0" fill="#1b9e77" stroke="#1b9e77" stroke-linejoin="round" transform="matrix(1 0 0 -1 248.713242 109.553101)"/><path d="m67.03125 335.503906h22.710938l11.355468-4.609375 11.355469-2.308593 11.355469-4.609376 11.351562-12.679687 11.355469-10.371094 11.355469-5.765625 11.355468-8.066406 11.355469-6.917969 11.355469-4.609375h11.355469l11.355469-10.375 11.355468-8.066406 11.355469-8.070312 11.355469-12.679688" fill="none" stroke="#d95f02" stroke-linecap="round" stroke-linejoin="round" stroke-width="1.5" transform="matrix(1 0 0 -1 0 396)"/><path d="m-.00011719-2.99973c.79687519 0 1.55859419.316406 2.12109419.878906s.878906 1.324219.878906 2.12109389c0 .79687511-.316406 1.55859411-.878906 2.12109411s-1.324219.878906-2.12109419.878906c-.79687481 0-1.55859381-.316406-2.12109381-.878906s-.878906-1.324219-.878906-2.12109411c0-.79687489.316406-1.55859389.878906-2.12109389s1.324219-.878906 2.12109381-.878906zm0 0" fill="#d95f02" stroke="#d95f02" stroke-linejoin="round" transform="matrix(1 0 0 -1 67.031367 60.496364)"/><path d="m.00023438-2.99973c.79687462 0 1.55859362.316406 2.12109362.878906s.878906 1.324219.878906 2.12109389c0 .79687511-.316406 1.55859411-.878906 2.12109411s-1.324219.878906-2.12109362.878906c-.79687538 0-1.55859338-.316406-2.12109338-.878906s-.878907-1.324219-.878907-2.12109411c0-.79687489.316407-1.55859389.878907-2.12109389s1.324218-.878906 2.12109338-.878906zm0 0" fill="#d95f02" stroke="#d95f02" stroke-linejoin="round" transform="matrix(1 0 0 -1 78.386484 60.496364)"/><path d="m.00058594-2.99973c.79687506 0 1.55859406.316406 2.12109406.878906s.878906 1.324219.878906 2.12109389c0 .79687511-.316406 1.55859411-.878906 2.12109411s-1.324219.878906-2.12109406.878906c-.79687494 0-1.55859394-.316406-2.12109394-.878906s-.878906-1.324219-.878906-2.12109411c0-.79687489.316406-1.55859389.878906-2.12109389s1.324219-.878906 2.12109394-.878906zm0 0" fill="#d95f02" stroke="#d95f02" stroke-linejoin="round" transform="matrix(1 0 0 -1 89.741602 60.496364)"/><path d="m.0009375-2.998487c.7929685 0 1.5585935.316406 2.1210935.878906s.878907 1.324219.878907 2.12109407c0 .79296893-.316407 1.55859393-.878907 2.12109393s-1.328125.878906-2.1210935.878906c-.7968745 0-1.5585935-.316406-2.1210935-.878906s-.878906-1.328125-.878906-2.12109393c0-.79687507.316406-1.55859407.878906-2.12109407s1.324219-.878906 2.1210935-.878906zm0 0" fill="#d95f02" stroke="#d95f02" stroke-linejoin="round" transform="matrix(1 0 0 -1 101.096719 65.106982)"/><path d="m.00128906-3.001772c.79296894 0 1.55859394.316407 2.12109394.878907s.878906 1.328125.878906 2.12109341c0 .79687459-.316406 1.55859359-.878906 2.12499959-.5625.5625-1.328125.875-2.12109394.875-.79687506 0-1.55859406-.3125-2.12109406-.875-.5625-.566406-.878906-1.328125-.878906-2.12499959 0-.79296841.316406-1.55859341.878906-2.12109341s1.324219-.878907 2.12109406-.878907zm0 0" fill="#d95f02" stroke="#d95f02" stroke-linejoin="round" transform="matrix(1 0 0 -1 112.451836 67.412291)"/><path d="m.00164063-3.000528c.79296837 0 1.55859337.316406 2.12109337.878906s.878907 1.324219.878907 2.12109359c0 .79687541-.316407 1.55859341-.878907 2.12109341s-1.328125.878907-2.12109337.878907c-.79687463 0-1.55859363-.316407-2.12109363-.878907s-.878906-1.324218-.878906-2.12109341c0-.79687459.316406-1.55859359.878906-2.12109359s1.324219-.878906 2.12109363-.878906zm0 0" fill="#d95f02" stroke="#d95f02" stroke-linejoin="round" transform="matrix(1 0 0 -1 123.806953 72.022909)"/><path d="m-.00191406-3.001016c.79687506 0 1.56250006.316406 2.12500006.878906s.875 1.328125.875 2.12109409c0 .79687491-.3125 1.55859391-.875 2.12109391s-1.328125.878906-2.12500006.878906c-.79296894 0-1.55859394-.316406-2.12109394-.878906s-.878906-1.324219-.878906-2.12109391c0-.79296909.316406-1.55859409.878906-2.12109409s1.328125-.878906 2.12109394-.878906zm0 0" fill="#d95f02" stroke="#d95f02" stroke-linejoin="round" transform="matrix(1 0 0 -1 135.16207 84.702109)"/><path d="m-.0015625-2.998219c.7968745 0 1.5585935.3125 2.1210935.875.5625.566407.878906 1.328125.878906 2.12500025 0 .79296875-.316406 1.55859375-.878906 2.12109375s-1.324219.878906-2.1210935.878906c-.7929685 0-1.5585935-.316406-2.1210935-.878906s-.878907-1.328125-.878907-2.12109375c0-.79687525.316407-1.55859325.878907-2.12500025.5625-.5625 1.328125-.875 2.1210935-.875zm0 0" fill="#d95f02" stroke="#d95f02" stroke-linejoin="round" transform="matrix(1 0 0 -1 146.517188 95.076)"/><path d="m-.00121094-3.000571c.79687494 0 1.55859394.316406 2.12109394.878906s.878906 1.324219.878906 2.12109398c0 .79687502-.316406 1.55859402-.878906 2.12109402s-1.324219.878906-2.12109394.878906c-.79296906 0-1.55859406-.316406-2.12109406-.878906s-.878906-1.324219-.878906-2.12109402c0-.79687498.316406-1.55859398.878906-2.12109398s1.328125-.878906 2.12109406-.878906zm0 0" fill="#d95f02" stroke="#d95f02" stroke-linejoin="round" transform="matrix(1 0 0 -1 157.872305 100.839273)"/><path d="m-.00085938-2.998395c.79687538 0 1.55859338.316406 2.12109338.878906s.878907 1.324219.878907 2.12109355c0 .79296845-.316407 1.55859345-.878907 2.12109345s-1.324218.878907-2.12109338.878907c-.79296862 0-1.55859362-.316407-2.12109362-.878907s-.878906-1.328125-.878906-2.12109345c0-.79687455.316406-1.55859355.878906-2.12109355s1.328125-.878906 2.12109362-.878906zm0 0" fill="#d95f02" stroke="#d95f02" stroke-linejoin="round" transform="matrix(1 0 0 -1 169.227422 108.907855)"/><path d="m-.00050781-3.000437c.79687481 0 1.55859381.316406 2.12109381.878906s.878906 1.324219.878906 2.12109407c0 .79687493-.316406 1.55859393-.878906 2.12109393s-1.324219.878906-2.12109381.878906c-.79687519 0-1.55859419-.316406-2.12109419-.878906s-.878906-1.324219-.878906-2.12109393c0-.79687507.316406-1.55859407.878906-2.12109407s1.324219-.878906 2.12109419-.878906zm0 0" fill="#d95f02" stroke="#d95f02" stroke-linejoin="round" transform="matrix(1 0 0 -1 180.582539 115.823782)"/><path d="m-.00015625-2.999194c.79687525 0 1.55859325.316407 2.12109325.878907s.878907 1.324218.878907 2.12109325c0 .79296875-.316407 1.55859375-.878907 2.12109375s-1.324218.878906-2.12109325.878906c-.79687475 0-1.55859375-.316406-2.12109375-.878906s-.878906-1.328125-.878906-2.12109375c0-.79687525.316406-1.55859325.878906-2.12109325s1.324219-.878907 2.12109375-.878907zm0 0" fill="#d95f02" stroke="#d95f02" stroke-linejoin="round" transform="matrix(1 0 0 -1 191.937656 120.4344)"/><path d="m.00019531-2.999194c.79687469 0 1.55859369.316407 2.12109369.878907s.878906 1.324218.878906 2.12109325c0 .79296875-.316406 1.55859375-.878906 2.12109375s-1.324219.878906-2.12109369.878906c-.79687531 0-1.55859331-.316406-2.12109331-.878906s-.878907-1.328125-.878907-2.12109375c0-.79687525.316407-1.55859325.878907-2.12109325s1.324218-.878907 2.12109331-.878907zm0 0" fill="#d95f02" stroke="#d95f02" stroke-linejoin="round" transform="matrix(1 0 0 -1 203.292773 120.4344)"/><path d="m.00054688-3.000303c.79687512 0 1.55859412.316406 2.12109412.878906s.878906 1.324219.878906 2.12109416c0 .79687484-.316406 1.55859384-.878906 2.12109384s-1.324219.878906-2.12109412.878906c-.79687488 0-1.55859388-.316406-2.12109388-.878906s-.878906-1.324219-.878906-2.12109384c0-.79687516.316406-1.55859416.878906-2.12109416s1.324219-.878906 2.12109388-.878906zm0 0" fill="#d95f02" stroke="#d95f02" stroke-linejoin="round" transform="matrix(1 0 0 -1 214.647891 130.808291)"/><path d="m.00089844-2.998127c.79296856 0 1.55859356.3125 2.12109356.875s.878906 1.328125.878906 2.12499973c0 .79296827-.316406 1.55859327-.878906 2.12109327s-1.328125.878907-2.12109356.878907c-.79687544 0-1.55859344-.316407-2.12109344-.878907s-.878907-1.328125-.878907-2.12109327c0-.79687473.316407-1.56249973.878907-2.12499973s1.324218-.875 2.12109344-.875zm0 0" fill="#d95f02" stroke="#d95f02" stroke-linejoin="round" transform="matrix(1 0 0 -1 226.003008 138.876873)"/><path d="m.00125-2.999858c.792969 0 1.558594.316406 2.121094.878906s.878906 1.324219.878906 2.12109405c0 .79687495-.316406 1.55859395-.878906 2.12109395s-1.328125.878906-2.121094.878906c-.796875 0-1.558594-.316406-2.121094-.878906s-.878906-1.324219-.878906-2.12109395c0-.79687505.316406-1.55859405.878906-2.12109405s1.324219-.878906 2.121094-.878906zm0 0" fill="#d95f02" stroke="#d95f02" stroke-linejoin="round" transform="matrix(1 0 0 -1 237.358125 146.945455)"/><path d="m.00160156-3.000345c.79296844 0 1.55859344.316406 2.12109344.878906s.878907 1.324219.878907 2.12109355c0 .79687545-.316407 1.55859345-.878907 2.12109345s-1.328125.878907-2.12109344.878907c-.79687456 0-1.55859356-.316407-2.12109356-.878907s-.878906-1.324218-.878906-2.12109345c0-.79687455.316406-1.55859355.878906-2.12109355s1.324219-.878906 2.12109356-.878906zm0 0" fill="#d95f02" stroke="#d95f02" stroke-linejoin="round" transform="matrix(1 0 0 -1 248.713242 159.624655)"/><path d="m55.675781 47.339844v316.980468" fill="none" stroke="#fff" stroke-linecap="square" stroke-width="1.25" transform="matrix(1 0 0 -1 0 396)"/><path d="m419.039062 47.339844v316.980468" fill="none" stroke="#fff" stroke-linecap="square" stroke-width="1.25" transform="matrix(1 0 0 -1 0 396)"/><path d="m55.675781 47.339844h363.363281" fill="none" stroke="#fff" stroke-linecap="square" stroke-width="1.25" transform="matrix(1 0 0 -1 0 396)"/><path d="m55.675781 364.320312h363.363281" fill="none" stroke="#fff" stroke-linecap="square" stroke-width="1.25" transform="matrix(1 0 0 -1 0 396)"/></g><g fill="#262626"><use x="156.522188" xlink:href="#aj" y="25.68"/><use x="166.527188" xlink:href="#ak" y="25.68"/><use x="174.867188" xlink:href="#al" y="25.68"/><use x="180.702188" xlink:href="#am" y="25.68"/><use x="184.872188" xlink:href="#ak" y="25.68"/><use x="193.212188" xlink:href="#an" y="25.68"/><use x="202.377188" xlink:href="#ao" y="25.68"/><use x="206.547188" xlink:href="#ap" y="25.68"/><use x="214.887188" xlink:href="#aq" y="25.68"/><use x="223.227188" xlink:href="#ar" y="25.68"/><use x="227.397188" xlink:href="#as" y="25.68"/><use x="232.392188" xlink:href="#at" y="25.68"/><use x="241.557187" xlink:href="#al" y="25.68"/><use x="247.392188" xlink:href="#au" y="25.68"/><use x="256.557187" xlink:href="#av" y="25.68"/><use x="265.722188" xlink:href="#aw" y="25.68"/><use x="274.887188" xlink:href="#at" y="25.68"/><use x="284.052188" xlink:href="#ar" y="25.68"/><use x="288.222188" xlink:href="#as" y="25.68"/><use x="293.217188" xlink:href="#am" y="25.68"/><use x="297.387188" xlink:href="#ax" y="25.68"/><use x="310.722188" xlink:href="#ap" y="25.68"/></g><path d="m63.375 52.839844h141.65625c1.464844 0 2.199219.734375 2.199219 2.199218v45.980469c0 1.464844-.734375 2.199219-2.199219 2.199219h-141.65625c-1.464844 0-2.199219-.734375-2.199219-2.199219v-45.980469c0-1.464843.734375-2.199218 2.199219-2.199218zm0 0" fill="#eaeaf2" fill-opacity=".8" stroke="#ccc" stroke-miterlimit="10" stroke-opacity=".8" transform="matrix(1 0 0 -1 0 396)"/><path d="m65.578125 94.792969h22" style="fill:none;stroke-width:1.5;stroke-linecap:round;stroke-linejoin:round;stroke:#7570b3;stroke-miterlimit:10" transform="matrix(1 0 0 -1 0 396)"/><path d="m76.578125 91.792969c.792969 0 1.558594.316406 2.121094.878906s.878906 1.324219.878906 2.121094-.316406 1.558593-.878906 2.121093-1.328125.878907-2.121094.878907c-.796875 0-1.5625-.316407-2.125-.878907s-.875-1.324218-.875-2.121093.3125-1.558594.875-2.121094 1.328125-.878906 2.125-.878906zm0 0" fill="#7570b3" stroke="#7570b3" stroke-linejoin="round" stroke-miterlimit="10" transform="matrix(1 0 0 -1 0 396)"/><g fill="#262626"><use x="96.37625" xlink:href="#w" y="305.056875"/><use x="103.71325" xlink:href="#x" y="305.056875"/><use x="109.21325" xlink:href="#y" y="305.056875"/><use x="115.32925" xlink:href="#z" y="305.056875"/><use x="121.44525" xlink:href="#y" y="305.056875"/><use x="127.56125" xlink:href="#A" y="305.056875"/><use x="136.72425" xlink:href="#B" y="305.056875"/><use x="139.16625" xlink:href="#x" y="305.056875"/><use x="144.66625" xlink:href="#C" y="305.056875"/><use x="147.72425" xlink:href="#D" y="305.056875"/><use x="153.22425" xlink:href="#E" y="305.056875"/><use x="159.34025" xlink:href="#F" y="305.056875"/><use x="161.78225" xlink:href="#G" y="305.056875"/><use x="167.89825" xlink:href="#H" y="305.056875"/></g><path d="m65.578125 79.230469h22" style="fill:none;stroke-width:1.5;stroke-linecap:round;stroke-linejoin:round;stroke:#1b9e77;stroke-miterlimit:10" transform="matrix(1 0 0 -1 0 396)"/><path d="m76.578125 76.230469c.792969 0 1.558594.316406 2.121094.878906s.878906 1.324219.878906 2.121094-.316406 1.558593-.878906 2.121093-1.328125.878907-2.121094.878907c-.796875 0-1.5625-.316407-2.125-.878907s-.875-1.324218-.875-2.121093.3125-1.558594.875-2.121094 1.328125-.878906 2.125-.878906zm0 0" fill="#1b9e77" stroke="#1b9e77" stroke-linejoin="round" stroke-miterlimit="10" transform="matrix(1 0 0 -1 0 396)"/><g fill="#262626"><use x="96.37625" xlink:href="#I" y="320.619375"/><use x="103.71325" xlink:href="#J" y="320.619375"/><use x="109.82925" xlink:href="#K" y="320.619375"/><use x="115.32925" xlink:href="#F" y="320.619375"/><use x="117.77125" xlink:href="#y" y="320.619375"/><use x="123.88725" xlink:href="#L" y="320.619375"/><use x="130.00325" xlink:href="#H" y="320.619375"/><use x="136.11925" xlink:href="#z" y="320.619375"/><use x="142.23525" xlink:href="#H" y="320.619375"/><use x="148.35125" xlink:href="#M" y="320.619375"/><use x="151.40925" xlink:href="#B" y="320.619375"/><use x="153.85125" xlink:href="#x" y="320.619375"/><use x="159.35125" xlink:href="#C" y="320.619375"/><use x="162.40925" xlink:href="#N" y="320.619375"/><use x="168.52525" xlink:href="#B" y="320.619375"/><use x="170.96725" xlink:href="#D" y="320.619375"/><use x="176.46725" xlink:href="#H" y="320.619375"/><use x="182.58325" xlink:href="#O" y="320.619375"/><use x="186.24625" xlink:href="#P" y="320.619375"/><use x="191.74625" xlink:href="#B" y="320.619375"/><use x="194.18825" xlink:href="#M" y="320.619375"/><use x="197.24625" xlink:href="#K" y="320.619375"/></g><path d="m65.578125 63.402344h22" style="fill:none;stroke-width:1.5;stroke-linecap:round;stroke-linejoin:round;stroke:#d95f02;stroke-miterlimit:10" transform="matrix(1 0 0 -1 0 396)"/><path d="m76.578125 60.402344c.792969 0 1.558594.316406 2.121094.878906s.878906 1.324219.878906 2.121094-.316406 1.558594-.878906 2.121094-1.328125.878906-2.121094.878906c-.796875 0-1.5625-.316406-2.125-.878906s-.875-1.324219-.875-2.121094.3125-1.558594.875-2.121094 1.328125-.878906 2.125-.878906zm0 0" fill="#d95f02" stroke="#d95f02" stroke-linejoin="round" stroke-miterlimit="10" transform="matrix(1 0 0 -1 0 396)"/><g fill="#262626"><use x="96.37625" xlink:href="#Q" y="336.4475"/><use x="103.71325" xlink:href="#R" y="336.4475"/><use x="109.82925" xlink:href="#H" y="336.4475"/><use x="115.94525" xlink:href="#x" y="336.4475"/><use x="121.44525" xlink:href="#B" y="336.4475"/><use x="123.88725" xlink:href="#H" y="336.4475"/><use x="130.00325" xlink:href="#P" y="336.4475"/><use x="135.50325" xlink:href="#C" y="336.4475"/><use x="138.56125" xlink:href="#N" y="336.4475"/><use x="144.67725" xlink:href="#B" y="336.4475"/><use x="147.11925" xlink:href="#D" y="336.4475"/><use x="152.61925" xlink:href="#H" y="336.4475"/><use x="158.73525" xlink:href="#O" y="336.4475"/><use x="162.39825" xlink:href="#P" y="336.4475"/><use x="167.89825" xlink:href="#B" y="336.4475"/><use x="170.34025" xlink:href="#M" y="336.4475"/><use x="173.39825" xlink:href="#K" y="336.4475"/></g></svg>