<svg height="396pt" viewBox="0 0 432 396" width="432pt" xmlns="http://www.w3.org/2000/svg" xmlns:xlink="http://www.w3.org/1999/xlink"><clipPath id="a"><path d="m69 31.679688h2v331.78125h-2zm0 0"/></clipPath><clipPath id="b"><path d="m136 31.679688h2v331.78125h-2zm0 0"/></clipPath><clipPath id="c"><path d="m202 31.679688h2v331.78125h-2zm0 0"/></clipPath><clipPath id="d"><path d="m269 31.679688h2v331.78125h-2zm0 0"/></clipPath><clipPath id="e"><path d="m335 31.679688h2v331.78125h-2zm0 0"/></clipPath><clipPath id="f"><path d="m402 31.679688h2v331.78125h-2zm0 0"/></clipPath><clipPath id="g"><path d="m53.058594 362h365.980468v1.460938h-365.980468zm0 0"/></clipPath><clipPath id="h"><path d="m53.058594 292h365.980468v2h-365.980468zm0 0"/></clipPath><clipPath id="i"><path d="m53.058594 221h365.980468v2h-365.980468zm0 0"/></clipPath><clipPath id="j"><path d="m53.058594 151h365.980468v2h-365.980468zm0 0"/></clipPath><clipPath id="k"><path d="m53.058594 80h365.980468v2h-365.980468zm0 0"/></clipPath><clipPath id="l"><path d="m69 294h2v69.460938h-2zm0 0"/></clipPath><clipPath id="m"><path d="m70 93h1v270.460938h-1zm0 0"/></clipPath><clipPath id="n"><path d="m71 49h1v314.460938h-1zm0 0"/></clipPath><clipPath id="o"><path d="m71 299h2v64.460938h-2zm0 0"/></clipPath><clipPath id="p"><path d="m72 310h1v53.460938h-1zm0 0"/></clipPath><clipPath id="q"><path d="m73 47h1v316.460938h-1zm0 0"/></clipPath><clipPath id="r"><path d="m73 139h2v224.460938h-2zm0 0"/></clipPath><clipPath id="s"><path d="m74 119h1v244.460938h-1zm0 0"/></clipPath><clipPath id="t"><path d="m75 199h1v164.460938h-1zm0 0"/></clipPath><clipPath id="u"><path d="m75 201h2v162.460938h-2zm0 0"/></clipPath><clipPath id="v"><path d="m76 224h1v139.460938h-1zm0 0"/></clipPath><clipPath id="w"><path d="m77 279h1v84.460938h-1zm0 0"/></clipPath><clipPath id="x"><path d="m77 312h2v51.460938h-2zm0 0"/></clipPath><clipPath id="y"><path d="m78 311h1v52.460938h-1zm0 0"/></clipPath><clipPath id="z"><path d="m79 212h1v151.460938h-1zm0 0"/></clipPath><clipPath id="A"><path d="m79 306h2v57.460938h-2zm0 0"/></clipPath><clipPath id="B"><path d="m80 163h1v200.460938h-1zm0 0"/></clipPath><clipPath id="C"><path d="m81 239h1v124.460938h-1zm0 0"/></clipPath><clipPath id="D"><path d="m81 197h2v166.460938h-2zm0 0"/></clipPath><clipPath id="E"><path d="m82 310h1v53.460938h-1zm0 0"/></clipPath><clipPath id="F"><path d="m83 167h1v196.460938h-1zm0 0"/></clipPath><clipPath id="G"><path d="m83 218h2v145.460938h-2zm0 0"/></clipPath><clipPath id="H"><path d="m84 352h1v11.460938h-1zm0 0"/></clipPath><clipPath id="I"><path d="m85 290h1v73.460938h-1zm0 0"/></clipPath><clipPath id="J"><path d="m85 247h2v116.460938h-2zm0 0"/></clipPath><clipPath id="K"><path d="m86 354h1v9.460938h-1zm0 0"/></clipPath><clipPath id="L"><path d="m87 301h1v62.460938h-1zm0 0"/></clipPath><clipPath id="M"><path d="m87 288h2v75.460938h-2zm0 0"/></clipPath><clipPath id="N"><path d="m88 318h1v45.460938h-1zm0 0"/></clipPath><clipPath id="O"><path d="m89 250h1v113.460938h-1zm0 0"/></clipPath><clipPath id="P"><path d="m89 343h2v20.460938h-2zm0 0"/></clipPath><clipPath id="Q"><path d="m90 348h1v15.460938h-1zm0 0"/></clipPath><clipPath id="R"><path d="m90 338h2v25.460938h-2zm0 0"/></clipPath><clipPath id="S"><path d="m91 233h2v130.460938h-2zm0 0"/></clipPath><clipPath id="T"><path d="m92 309h1v54.460938h-1zm0 0"/></clipPath><clipPath id="U"><path d="m92 348h2v15.460938h-2zm0 0"/></clipPath><clipPath id="V"><path d="m93 305h2v58.460938h-2zm0 0"/></clipPath><clipPath id="W"><path d="m94 342h1v21.460938h-1zm0 0"/></clipPath><clipPath id="X"><path d="m94 335h2v28.460938h-2zm0 0"/></clipPath><clipPath id="Y"><path d="m95 239h2v124.460938h-2zm0 0"/></clipPath><clipPath id="Z"><path d="m96 251h1v112.460938h-1zm0 0"/></clipPath><clipPath id="aa"><path d="m96 312h2v51.460938h-2zm0 0"/></clipPath><clipPath id="ab"><path d="m97 193h2v170.460938h-2zm0 0"/></clipPath><clipPath id="ac"><path d="m98 276h1v87.460938h-1zm0 0"/></clipPath><clipPath id="ad"><path d="m98 278h2v85.460938h-2zm0 0"/></clipPath><clipPath id="ae"><path d="m99 346h2v17.460938h-2zm0 0"/></clipPath><clipPath id="af"><path d="m100 247h1v116.460938h-1zm0 0"/></clipPath><clipPath id="ag"><path d="m100 335h2v28.460938h-2zm0 0"/></clipPath><clipPath id="ah"><path d="m101 359h2v4.460938h-2zm0 0"/></clipPath><clipPath id="ai"><path d="m102 291h1v72.460938h-1zm0 0"/></clipPath><clipPath id="aj"><path d="m102 255h2v108.460938h-2zm0 0"/></clipPath><clipPath id="ak"><path d="m103 353h2v10.460938h-2zm0 0"/></clipPath><clipPath id="al"><path d="m104 296h1v67.460938h-1zm0 0"/></clipPath><clipPath id="am"><path d="m104 341h2v22.460938h-2zm0 0"/></clipPath><clipPath id="an"><path d="m105 344h2v19.460938h-2zm0 0"/></clipPath><clipPath id="ao"><path d="m106 293h1v70.460938h-1zm0 0"/></clipPath><clipPath id="ap"><path d="m106 349h2v14.460938h-2zm0 0"/></clipPath><clipPath id="aq"><path d="m107 329h2v34.460938h-2zm0 0"/></clipPath><clipPath id="ar"><path d="m108 266h1v97.460938h-1zm0 0"/></clipPath><clipPath id="as"><path d="m108 270h2v93.460938h-2zm0 0"/></clipPath><clipPath id="at"><path d="m109 279h2v84.460938h-2zm0 0"/></clipPath><clipPath id="au"><path d="m110 350h1v13.460938h-1zm0 0"/></clipPath><clipPath id="av"><path d="m110 355h2v8.460938h-2zm0 0"/></clipPath><clipPath id="aw"><path d="m111 278h2v85.460938h-2zm0 0"/></clipPath><clipPath id="ax"><path d="m112 314h1v49.460938h-1zm0 0"/></clipPath><clipPath id="ay"><path d="m112 320h2v43.460938h-2zm0 0"/></clipPath><clipPath id="az"><path d="m113 358h2v5.460938h-2zm0 0"/></clipPath><clipPath id="aA"><path d="m114 358h1v5.460938h-1zm0 0"/></clipPath><clipPath id="aB"><path d="m114 259h2v104.460938h-2zm0 0"/></clipPath><clipPath id="aC"><path d="m115 363h2v.460938h-2zm0 0"/></clipPath><clipPath id="aD"><path d="m116 350h1v13.460938h-1zm0 0"/></clipPath><clipPath id="aE"><path d="m116 302h2v61.460938h-2zm0 0"/></clipPath><clipPath id="aF"><path d="m117 322h2v41.460938h-2zm0 0"/></clipPath><clipPath id="aG"><path d="m118 334h1v29.460938h-1zm0 0"/></clipPath><clipPath id="aH"><path d="m118 299h2v64.460938h-2zm0 0"/></clipPath><clipPath id="aI"><path d="m119 302h2v61.460938h-2zm0 0"/></clipPath><clipPath id="aJ"><path d="m120 278h1v85.460938h-1zm0 0"/></clipPath><clipPath id="aK"><path d="m120 340h2v23.460938h-2zm0 0"/></clipPath><clipPath id="aL"><path d="m121 342h2v21.460938h-2zm0 0"/></clipPath><clipPath id="aM"><path d="m122 323h1v40.460938h-1zm0 0"/></clipPath><clipPath id="aN"><path d="m122 224h2v139.460938h-2zm0 0"/></clipPath><clipPath id="aO"><path d="m123 330h2v33.460938h-2zm0 0"/></clipPath><clipPath id="aP"><path d="m124 303h1v60.460938h-1zm0 0"/></clipPath><clipPath id="aQ"><path d="m124 356h2v7.460938h-2zm0 0"/></clipPath><clipPath id="aR"><path d="m125 307h2v56.460938h-2zm0 0"/></clipPath><clipPath id="aS"><path d="m126 352h1v11.460938h-1zm0 0"/></clipPath><clipPath id="aT"><path d="m126 328h2v35.460938h-2zm0 0"/></clipPath><clipPath id="aU"><path d="m127 287h2v76.460938h-2zm0 0"/></clipPath><clipPath id="aV"><path d="m128 333h1v30.460938h-1zm0 0"/></clipPath><clipPath id="aW"><path d="m128 316h2v47.460938h-2zm0 0"/></clipPath><clipPath id="aX"><path d="m129 342h2v21.460938h-2zm0 0"/></clipPath><clipPath id="aY"><path d="m130 324h1v39.460938h-1zm0 0"/></clipPath><clipPath id="aZ"><path d="m130 317h2v46.460938h-2zm0 0"/></clipPath><clipPath id="a0"><path d="m131 332h2v31.460938h-2zm0 0"/></clipPath><clipPath id="a1"><path d="m132 344h1v19.460938h-1zm0 0"/></clipPath><clipPath id="a2"><path d="m132 330h2v33.460938h-2zm0 0"/></clipPath><clipPath id="a3"><path d="m133 354h2v9.460938h-2zm0 0"/></clipPath><clipPath id="a4"><path d="m134 359h1v4.460938h-1zm0 0"/></clipPath><clipPath id="a5"><path d="m134 356h2v7.460938h-2zm0 0"/></clipPath><clipPath id="a6"><path d="m135 342h2v21.460938h-2zm0 0"/></clipPath><clipPath id="a7"><path d="m136 270h1v93.460938h-1zm0 0"/></clipPath><clipPath id="a8"><path d="m136 321h2v42.460938h-2zm0 0"/></clipPath><clipPath id="a9"><path d="m137 340h2v23.460938h-2zm0 0"/></clipPath><clipPath id="ba"><path d="m138 331h1v32.460938h-1zm0 0"/></clipPath><clipPath id="bb"><path d="m138 343h2v20.460938h-2zm0 0"/></clipPath><clipPath id="bc"><path d="m139 329h2v34.460938h-2zm0 0"/></clipPath><clipPath id="bd"><path d="m140 360h1v3.460938h-1zm0 0"/></clipPath><clipPath id="be"><path d="m140 321h2v42.460938h-2zm0 0"/></clipPath><clipPath id="bf"><path d="m141 358h2v5.460938h-2zm0 0"/></clipPath><clipPath id="bg"><path d="m142 331h1v32.460938h-1zm0 0"/></clipPath><clipPath id="bh"><path d="m142 356h2v7.460938h-2zm0 0"/></clipPath><clipPath id="bi"><path d="m143 360h2v3.460938h-2zm0 0"/></clipPath><clipPath id="bj"><path d="m144 357h1v6.460938h-1zm0 0"/></clipPath><clipPath id="bk"><path d="m144 323h2v40.460938h-2zm0 0"/></clipPath><clipPath id="bl"><path d="m145 347h2v16.460938h-2zm0 0"/></clipPath><clipPath id="bm"><path d="m146 363h1v.460938h-1zm0 0"/></clipPath><clipPath id="bn"><path d="m146 341h2v22.460938h-2zm0 0"/></clipPath><clipPath id="bo"><path d="m147 342h2v21.460938h-2zm0 0"/></clipPath><clipPath id="bp"><path d="m148 361h1v2.460938h-1zm0 0"/></clipPath><clipPath id="bq"><path d="m148 343h2v20.460938h-2zm0 0"/></clipPath><clipPath id="br"><path d="m149 363h2v.460938h-2zm0 0"/></clipPath><clipPath id="bs"><path d="m150 362h1v1.460938h-1zm0 0"/></clipPath><clipPath id="bt"><path d="m150 354h2v9.460938h-2zm0 0"/></clipPath><clipPath id="bu"><path d="m151 315h2v48.460938h-2zm0 0"/></clipPath><clipPath id="bv"><path d="m152 314h1v49.460938h-1zm0 0"/></clipPath><clipPath id="bw"><path d="m152 326h2v37.460938h-2zm0 0"/></clipPath><clipPath id="bx"><path d="m153 360h2v3.460938h-2zm0 0"/></clipPath><clipPath id="by"><path d="m154 360h1v3.460938h-1zm0 0"/></clipPath><clipPath id="bz"><path d="m154 327h2v36.460938h-2zm0 0"/></clipPath><clipPath id="bA"><path d="m155 358h2v5.460938h-2zm0 0"/></clipPath><clipPath id="bB"><path d="m156 296h1v67.460938h-1zm0 0"/></clipPath><clipPath id="bC"><path d="m156 356h2v7.460938h-2zm0 0"/></clipPath><clipPath id="bD"><path d="m157 358h2v5.460938h-2zm0 0"/></clipPath><clipPath id="bE"><path d="m158 325h1v38.460938h-1zm0 0"/></clipPath><clipPath id="bF"><path d="m158 346h2v17.460938h-2zm0 0"/></clipPath><clipPath id="bG"><path d="m159 342h2v21.460938h-2zm0 0"/></clipPath><clipPath id="bH"><path d="m160 321h1v42.460938h-1zm0 0"/></clipPath><clipPath id="bI"><path d="m160 325h2v38.460938h-2zm0 0"/></clipPath><clipPath id="bJ"><path d="m161 347h2v16.460938h-2zm0 0"/></clipPath><clipPath id="bK"><path d="m162 362h1v1.460938h-1zm0 0"/></clipPath><clipPath id="bL"><path d="m162 333h2v30.460938h-2zm0 0"/></clipPath><clipPath id="bM"><path d="m163 356h2v7.460938h-2zm0 0"/></clipPath><clipPath id="bN"><path d="m164 359h1v4.460938h-1zm0 0"/></clipPath><clipPath id="bO"><path d="m164 348h2v15.460938h-2zm0 0"/></clipPath><clipPath id="bP"><path d="m165 311h2v52.460938h-2zm0 0"/></clipPath><clipPath id="bQ"><path d="m166 338h1v25.460938h-1zm0 0"/></clipPath><clipPath id="bR"><path d="m166 322h2v41.460938h-2zm0 0"/></clipPath><clipPath id="bS"><path d="m167 321h2v42.460938h-2zm0 0"/></clipPath><clipPath id="bT"><path d="m168 318h1v45.460938h-1zm0 0"/></clipPath><clipPath id="bU"><path d="m168 362h2v1.460938h-2zm0 0"/></clipPath><clipPath id="bV"><path d="m169 343h2v20.460938h-2zm0 0"/></clipPath><clipPath id="bW"><path d="m170 361h1v2.460938h-1zm0 0"/></clipPath><clipPath id="bX"><path d="m170 341h2v22.460938h-2zm0 0"/></clipPath><clipPath id="bY"><path d="m171 335h2v28.460938h-2zm0 0"/></clipPath><clipPath id="bZ"><path d="m172 328h1v35.460938h-1zm0 0"/></clipPath><clipPath id="b0"><path d="m172 361h2v2.460938h-2zm0 0"/></clipPath><clipPath id="b1"><path d="m173 363h2v.460938h-2zm0 0"/></clipPath><clipPath id="b2"><path d="m174 338h1v25.460938h-1zm0 0"/></clipPath><clipPath id="b3"><path d="m174 341h2v22.460938h-2zm0 0"/></clipPath><clipPath id="b4"><path d="m175 362h2v1.460938h-2zm0 0"/></clipPath><clipPath id="b5"><path d="m176 326h1v37.460938h-1zm0 0"/></clipPath><clipPath id="b6"><path d="m176 362h2v1.460938h-2zm0 0"/></clipPath><clipPath id="b7"><path d="m177 353h2v10.460938h-2zm0 0"/></clipPath><clipPath id="b8"><path d="m178 340h1v23.460938h-1zm0 0"/></clipPath><clipPath id="b9"><path d="m178 310h2v53.460938h-2zm0 0"/></clipPath><clipPath id="ca"><path d="m179 340h2v23.460938h-2zm0 0"/></clipPath><clipPath id="cb"><path d="m180 309h1v54.460938h-1zm0 0"/></clipPath><clipPath id="cc"><path d="m180 357h2v6.460938h-2zm0 0"/></clipPath><clipPath id="cd"><path d="m181 363h2v.460938h-2zm0 0"/></clipPath><clipPath id="ce"><path d="m182 358h1v5.460938h-1zm0 0"/></clipPath><clipPath id="cf"><path d="m182 351h2v12.460938h-2zm0 0"/></clipPath><clipPath id="cg"><path d="m183 348h2v15.460938h-2zm0 0"/></clipPath><clipPath id="ch"><path d="m184 346h1v17.460938h-1zm0 0"/></clipPath><clipPath id="ci"><path d="m184 321h2v42.460938h-2zm0 0"/></clipPath><clipPath id="cj"><path d="m185 362h2v1.460938h-2zm0 0"/></clipPath><clipPath id="ck"><path d="m186 340h1v23.460938h-1zm0 0"/></clipPath><clipPath id="cl"><path d="m186 340h2v23.460938h-2zm0 0"/></clipPath><clipPath id="cm"><path d="m187 361h2v2.460938h-2zm0 0"/></clipPath><clipPath id="cn"><path d="m188 361h1v2.460938h-1zm0 0"/></clipPath><clipPath id="co"><path d="m188 363h2v.460938h-2zm0 0"/></clipPath><clipPath id="cp"><path d="m189 351h2v12.460938h-2zm0 0"/></clipPath><clipPath id="cq"><path d="m190 363h1v.460938h-1zm0 0"/></clipPath><clipPath id="cr"><path d="m190 354h2v9.460938h-2zm0 0"/></clipPath><clipPath id="cs"><path d="m191 350h2v13.460938h-2zm0 0"/></clipPath><clipPath id="ct"><path d="m192 363h1v.460938h-1zm0 0"/></clipPath><clipPath id="cu"><path d="m192 356h2v7.460938h-2zm0 0"/></clipPath><clipPath id="cv"><path d="m193 326h2v37.460938h-2zm0 0"/></clipPath><clipPath id="cw"><path d="m194 339h1v24.460938h-1zm0 0"/></clipPath><clipPath id="cx"><path d="m194 352h2v11.460938h-2zm0 0"/></clipPath><clipPath id="cy"><path d="m195 348h2v15.460938h-2zm0 0"/></clipPath><clipPath id="cz"><path d="m196 362h1v1.460938h-1zm0 0"/></clipPath><clipPath id="cA"><path d="m196 362h2v1.460938h-2zm0 0"/></clipPath><clipPath id="cB"><path d="m197 342h2v21.460938h-2zm0 0"/></clipPath><clipPath id="cC"><path d="m198 338h1v25.460938h-1zm0 0"/></clipPath><clipPath id="cD"><path d="m198 347h2v16.460938h-2zm0 0"/></clipPath><clipPath id="cE"><path d="m199 361h2v2.460938h-2zm0 0"/></clipPath><clipPath id="cF"><path d="m200 329h1v34.460938h-1zm0 0"/></clipPath><clipPath id="cG"><path d="m200 352h2v11.460938h-2zm0 0"/></clipPath><clipPath id="cH"><path d="m201 360h2v3.460938h-2zm0 0"/></clipPath><clipPath id="cI"><path d="m202 344h1v19.460938h-1zm0 0"/></clipPath><clipPath id="cJ"><path d="m202 361h2v2.460938h-2zm0 0"/></clipPath><clipPath id="cK"><path d="m203 362h2v1.460938h-2zm0 0"/></clipPath><clipPath id="cL"><path d="m204 356h1v7.460938h-1zm0 0"/></clipPath><clipPath id="cM"><path d="m204 339h2v24.460938h-2zm0 0"/></clipPath><clipPath id="cN"><path d="m205 332h2v31.460938h-2zm0 0"/></clipPath><clipPath id="cO"><path d="m206 363h1v.460938h-1zm0 0"/></clipPath><clipPath id="cP"><path d="m206 349h2v14.460938h-2zm0 0"/></clipPath><clipPath id="cQ"><path d="m207 340h2v23.460938h-2zm0 0"/></clipPath><clipPath id="cR"><path d="m208 347h1v16.460938h-1zm0 0"/></clipPath><clipPath id="cS"><path d="m208 358h2v5.460938h-2zm0 0"/></clipPath><clipPath id="cT"><path d="m209 328h2v35.460938h-2zm0 0"/></clipPath><clipPath id="cU"><path d="m210 362h1v1.460938h-1zm0 0"/></clipPath><clipPath id="cV"><path d="m210 363h2v.460938h-2zm0 0"/></clipPath><clipPath id="cW"><path d="m211 361h2v2.460938h-2zm0 0"/></clipPath><clipPath id="cX"><path d="m212 326h1v37.460938h-1zm0 0"/></clipPath><clipPath id="cY"><path d="m212 355h2v8.460938h-2zm0 0"/></clipPath><clipPath id="cZ"><path d="m213 359h2v4.460938h-2zm0 0"/></clipPath><clipPath id="c0"><path d="m214 351h1v12.460938h-1zm0 0"/></clipPath><clipPath id="c1"><path d="m214 354h2v9.460938h-2zm0 0"/></clipPath><clipPath id="c2"><path d="m215 345h2v18.460938h-2zm0 0"/></clipPath><clipPath id="c3"><path d="m216 349h1v14.460938h-1zm0 0"/></clipPath><clipPath id="c4"><path d="m216 363h2v.460938h-2zm0 0"/></clipPath><clipPath id="c5"><path d="m217 349h2v14.460938h-2zm0 0"/></clipPath><clipPath id="c6"><path d="m218 363h1v.460938h-1zm0 0"/></clipPath><clipPath id="c7"><path d="m218 360h2v3.460938h-2zm0 0"/></clipPath><clipPath id="c8"><path d="m219 361h2v2.460938h-2zm0 0"/></clipPath><clipPath id="c9"><path d="m220 342h1v21.460938h-1zm0 0"/></clipPath><clipPath id="da"><path d="m220 360h2v3.460938h-2zm0 0"/></clipPath><clipPath id="db"><path d="m221 330h2v33.460938h-2zm0 0"/></clipPath><clipPath id="dc"><path d="m222 360h1v3.460938h-1zm0 0"/></clipPath><clipPath id="dd"><path d="m222 337h2v26.460938h-2zm0 0"/></clipPath><clipPath id="de"><path d="m223 340h1v23.460938h-1zm0 0"/></clipPath><clipPath id="df"><path d="m224 357h1v6.460938h-1zm0 0"/></clipPath><clipPath id="dg"><path d="m224 359h2v4.460938h-2zm0 0"/></clipPath><clipPath id="dh"><path d="m225 360h1v3.460938h-1zm0 0"/></clipPath><clipPath id="di"><path d="m226 343h1v20.460938h-1zm0 0"/></clipPath><clipPath id="dj"><path d="m226 346h2v17.460938h-2zm0 0"/></clipPath><clipPath id="dk"><path d="m227 353h1v10.460938h-1zm0 0"/></clipPath><clipPath id="dl"><path d="m228 345h1v18.460938h-1zm0 0"/></clipPath><clipPath id="dm"><path d="m228 358h2v5.460938h-2zm0 0"/></clipPath><clipPath id="dn"><path d="m229 358h1v5.460938h-1zm0 0"/></clipPath><clipPath id="do"><path d="m230 357h1v6.460938h-1zm0 0"/></clipPath><clipPath id="dp"><path d="m230 358h2v5.460938h-2zm0 0"/></clipPath><clipPath id="dq"><path d="m231 348h1v15.460938h-1zm0 0"/></clipPath><clipPath id="dr"><path d="m232 355h1v8.460938h-1zm0 0"/></clipPath><clipPath id="ds"><path d="m232 362h2v1.460938h-2zm0 0"/></clipPath><clipPath id="dt"><path d="m233 357h1v6.460938h-1zm0 0"/></clipPath><clipPath id="du"><path d="m234 362h1v1.460938h-1zm0 0"/></clipPath><clipPath id="dv"><path d="m234 344h2v19.460938h-2zm0 0"/></clipPath><clipPath id="dw"><path d="m235 354h1v9.460938h-1zm0 0"/></clipPath><clipPath id="dx"><path d="m236 362h1v1.460938h-1zm0 0"/></clipPath><clipPath id="dy"><path d="m236 359h2v4.460938h-2zm0 0"/></clipPath><clipPath id="dz"><path d="m237 338h1v25.460938h-1zm0 0"/></clipPath><clipPath id="dA"><path d="m238 345h1v18.460938h-1zm0 0"/></clipPath><clipPath id="dB"><path d="m238 339h2v24.460938h-2zm0 0"/></clipPath><clipPath id="dC"><path d="m239 363h1v.460938h-1zm0 0"/></clipPath><clipPath id="dD"><path d="m240 336h1v27.460938h-1zm0 0"/></clipPath><clipPath id="dE"><path d="m240 345h2v18.460938h-2zm0 0"/></clipPath><clipPath id="dF"><path d="m241 360h1v3.460938h-1zm0 0"/></clipPath><clipPath id="dG"><path d="m242 360h1v3.460938h-1zm0 0"/></clipPath><clipPath id="dH"><path d="m242 363h2v.460938h-2zm0 0"/></clipPath><clipPath id="dI"><path d="m243 348h1v15.460938h-1zm0 0"/></clipPath><clipPath id="dJ"><path d="m244 360h1v3.460938h-1zm0 0"/></clipPath><clipPath id="dK"><path d="m245 359h1v4.460938h-1zm0 0"/></clipPath><clipPath id="dL"><path d="m246 361h1v2.460938h-1zm0 0"/></clipPath><clipPath id="dM"><path d="m246 352h2v11.460938h-2zm0 0"/></clipPath><clipPath id="dN"><path d="m247 363h1v.460938h-1zm0 0"/></clipPath><clipPath id="dO"><path d="m248 354h1v9.460938h-1zm0 0"/></clipPath><clipPath id="dP"><path d="m248 332h2v31.460938h-2zm0 0"/></clipPath><clipPath id="dQ"><path d="m249 358h1v5.460938h-1zm0 0"/></clipPath><clipPath id="dR"><path d="m250 361h1v2.460938h-1zm0 0"/></clipPath><clipPath id="dS"><path d="m250 362h2v1.460938h-2zm0 0"/></clipPath><clipPath id="dT"><path d="m251 347h1v16.460938h-1zm0 0"/></clipPath><clipPath id="dU"><path d="m252 362h1v1.460938h-1zm0 0"/></clipPath><clipPath id="dV"><path d="m252 348h2v15.460938h-2zm0 0"/></clipPath><clipPath id="dW"><path d="m253 353h1v10.460938h-1zm0 0"/></clipPath><clipPath id="dX"><path d="m254 361h1v2.460938h-1zm0 0"/></clipPath><clipPath id="dY"><path d="m254 342h2v21.460938h-2zm0 0"/></clipPath><clipPath id="dZ"><path d="m255 350h1v13.460938h-1zm0 0"/></clipPath><clipPath id="d0"><path d="m256 363h1v.460938h-1zm0 0"/></clipPath><clipPath id="d1"><path d="m256 312h2v51.460938h-2zm0 0"/></clipPath><clipPath id="d2"><path d="m257 362h1v1.460938h-1zm0 0"/></clipPath><clipPath id="d3"><path d="m258 361h1v2.460938h-1zm0 0"/></clipPath><clipPath id="d4"><path d="m258 363h2v.460938h-2zm0 0"/></clipPath><clipPath id="d5"><path d="m259 362h1v1.460938h-1zm0 0"/></clipPath><clipPath id="d6"><path d="m260 362h1v1.460938h-1zm0 0"/></clipPath><clipPath id="d7"><path d="m260 363h2v.460938h-2zm0 0"/></clipPath><clipPath id="d8"><path d="m261 360h1v3.460938h-1zm0 0"/></clipPath><clipPath id="d9"><path d="m262 362h1v1.460938h-1zm0 0"/></clipPath><clipPath id="ea"><path d="m262 363h2v.460938h-2zm0 0"/></clipPath><clipPath id="eb"><path d="m263 355h1v8.460938h-1zm0 0"/></clipPath><clipPath id="ec"><path d="m264 361h1v2.460938h-1zm0 0"/></clipPath><clipPath id="ed"><path d="m264 362h2v1.460938h-2zm0 0"/></clipPath><clipPath id="ee"><path d="m265 362h1v1.460938h-1zm0 0"/></clipPath><clipPath id="ef"><path d="m266 363h1v.460938h-1zm0 0"/></clipPath><clipPath id="eg"><path d="m266 363h2v.460938h-2zm0 0"/></clipPath><clipPath id="eh"><path d="m267 363h1v.460938h-1zm0 0"/></clipPath><clipPath id="ei"><path d="m268 363h1v.460938h-1zm0 0"/></clipPath><clipPath id="ej"><path d="m268 363h2v.460938h-2zm0 0"/></clipPath><clipPath id="ek"><path d="m269 358h1v5.460938h-1zm0 0"/></clipPath><clipPath id="el"><path d="m270 363h1v.460938h-1zm0 0"/></clipPath><clipPath id="em"><path d="m270 363h2v.460938h-2zm0 0"/></clipPath><clipPath id="en"><path d="m271 359h1v4.460938h-1zm0 0"/></clipPath><clipPath id="eo"><path d="m272 360h1v3.460938h-1zm0 0"/></clipPath><clipPath id="ep"><path d="m272 353h2v10.460938h-2zm0 0"/></clipPath><clipPath id="eq"><path d="m273 363h1v.460938h-1zm0 0"/></clipPath><clipPath id="er"><path d="m274 362h1v1.460938h-1zm0 0"/></clipPath><clipPath id="es"><path d="m275 362h1v1.460938h-1zm0 0"/></clipPath><clipPath id="et"><path d="m276 361h1v2.460938h-1zm0 0"/></clipPath><clipPath id="eu"><path d="m276 361h2v2.460938h-2zm0 0"/></clipPath><clipPath id="ev"><path d="m277 352h1v11.460938h-1zm0 0"/></clipPath><clipPath id="ew"><path d="m278 361h1v2.460938h-1zm0 0"/></clipPath><clipPath id="ex"><path d="m278 362h2v1.460938h-2zm0 0"/></clipPath><clipPath id="ey"><path d="m279 361h1v2.460938h-1zm0 0"/></clipPath><clipPath id="ez"><path d="m280 363h1v.460938h-1zm0 0"/></clipPath><clipPath id="eA"><path d="m280 359h2v4.460938h-2zm0 0"/></clipPath><clipPath id="eB"><path d="m281 363h1v.460938h-1zm0 0"/></clipPath><clipPath id="eC"><path d="m282 359h1v4.460938h-1zm0 0"/></clipPath><clipPath id="eD"><path d="m282 363h2v.460938h-2zm0 0"/></clipPath><clipPath id="eE"><path d="m283 363h1v.460938h-1zm0 0"/></clipPath><clipPath id="eF"><path d="m284 363h1v.460938h-1zm0 0"/></clipPath><clipPath id="eG"><path d="m284 353h2v10.460938h-2zm0 0"/></clipPath><clipPath id="eH"><path d="m285 361h1v2.460938h-1zm0 0"/></clipPath><clipPath id="eI"><path d="m286 363h2v.460938h-2zm0 0"/></clipPath><clipPath id="eJ"><path d="m287 353h1v10.460938h-1zm0 0"/></clipPath><clipPath id="eK"><path d="m288 357h1v6.460938h-1zm0 0"/></clipPath><clipPath id="eL"><path d="m288 363h2v.460938h-2zm0 0"/></clipPath><clipPath id="eM"><path d="m289 362h1v1.460938h-1zm0 0"/></clipPath><clipPath id="eN"><path d="m290 360h1v3.460938h-1zm0 0"/></clipPath><clipPath id="eO"><path d="m290 359h2v4.460938h-2zm0 0"/></clipPath><clipPath id="eP"><path d="m291 360h1v3.460938h-1zm0 0"/></clipPath><clipPath id="eQ"><path d="m292 363h1v.460938h-1zm0 0"/></clipPath><clipPath id="eR"><path d="m292 363h2v.460938h-2zm0 0"/></clipPath><clipPath id="eS"><path d="m294 354h1v9.460938h-1zm0 0"/></clipPath><clipPath id="eT"><path d="m294 360h2v3.460938h-2zm0 0"/></clipPath><clipPath id="eU"><path d="m295 363h1v.460938h-1zm0 0"/></clipPath><clipPath id="eV"><path d="m296 359h1v4.460938h-1zm0 0"/></clipPath><clipPath id="eW"><path d="m296 363h2v.460938h-2zm0 0"/></clipPath><clipPath id="eX"><path d="m297 353h1v10.460938h-1zm0 0"/></clipPath><clipPath id="eY"><path d="m298 363h1v.460938h-1zm0 0"/></clipPath><clipPath id="eZ"><path d="m298 354h2v9.460938h-2zm0 0"/></clipPath><clipPath id="e0"><path d="m299 363h1v.460938h-1zm0 0"/></clipPath><clipPath id="e1"><path d="m300 362h1v1.460938h-1zm0 0"/></clipPath><clipPath id="e2"><path d="m300 363h2v.460938h-2zm0 0"/></clipPath><clipPath id="e3"><path d="m302 362h1v1.460938h-1zm0 0"/></clipPath><clipPath id="e4"><path d="m302 363h2v.460938h-2zm0 0"/></clipPath><clipPath id="e5"><path d="m304 363h1v.460938h-1zm0 0"/></clipPath><clipPath id="e6"><path d="m304 362h2v1.460938h-2zm0 0"/></clipPath><clipPath id="e7"><path d="m305 363h1v.460938h-1zm0 0"/></clipPath><clipPath id="e8"><path d="m306 363h2v.460938h-2zm0 0"/></clipPath><clipPath id="e9"><path d="m307 358h1v5.460938h-1zm0 0"/></clipPath><clipPath id="fa"><path d="m308 353h1v10.460938h-1zm0 0"/></clipPath><clipPath id="fb"><path d="m308 363h2v.460938h-2zm0 0"/></clipPath><clipPath id="fc"><path d="m309 358h1v5.460938h-1zm0 0"/></clipPath><clipPath id="fd"><path d="m310 363h1v.460938h-1zm0 0"/></clipPath><clipPath id="fe"><path d="m310 363h2v.460938h-2zm0 0"/></clipPath><clipPath id="ff"><path d="m311 362h1v1.460938h-1zm0 0"/></clipPath><clipPath id="fg"><path d="m312 363h1v.460938h-1zm0 0"/></clipPath><clipPath id="fh"><path d="m312 362h2v1.460938h-2zm0 0"/></clipPath><clipPath id="fi"><path d="m313 363h1v.460938h-1zm0 0"/></clipPath><clipPath id="fj"><path d="m314 363h1v.460938h-1zm0 0"/></clipPath><clipPath id="fk"><path d="m314 363h2v.460938h-2zm0 0"/></clipPath><clipPath id="fl"><path d="m315 363h1v.460938h-1zm0 0"/></clipPath><clipPath id="fm"><path d="m316 363h1v.460938h-1zm0 0"/></clipPath><clipPath id="fn"><path d="m316 363h2v.460938h-2zm0 0"/></clipPath><clipPath id="fo"><path d="m317 362h1v1.460938h-1zm0 0"/></clipPath><clipPath id="fp"><path d="m317 362h2v1.460938h-2zm0 0"/></clipPath><clipPath id="fq"><path d="m318 362h2v1.460938h-2zm0 0"/></clipPath><clipPath id="fr"><path d="m320 362h2v1.460938h-2zm0 0"/></clipPath><clipPath id="fs"><path d="m321 363h1v.460938h-1zm0 0"/></clipPath><clipPath id="ft"><path d="m321 363h2v.460938h-2zm0 0"/></clipPath><clipPath id="fu"><path d="m322 363h2v.460938h-2zm0 0"/></clipPath><clipPath id="fv"><path d="m323 363h1v.460938h-1zm0 0"/></clipPath><clipPath id="fw"><path d="m324 362h2v1.460938h-2zm0 0"/></clipPath><clipPath id="fx"><path d="m325 363h1v.460938h-1zm0 0"/></clipPath><clipPath id="fy"><path d="m325 362h2v1.460938h-2zm0 0"/></clipPath><clipPath id="fz"><path d="m326 362h2v1.460938h-2zm0 0"/></clipPath><clipPath id="fA"><path d="m327 361h1v2.460938h-1zm0 0"/></clipPath><clipPath id="fB"><path d="m327 363h2v.460938h-2zm0 0"/></clipPath><clipPath id="fC"><path d="m329 363h1v.460938h-1zm0 0"/></clipPath><clipPath id="fD"><path d="m329 363h2v.460938h-2zm0 0"/></clipPath><clipPath id="fE"><path d="m330 363h2v.460938h-2zm0 0"/></clipPath><clipPath id="fF"><path d="m331 363h1v.460938h-1zm0 0"/></clipPath><clipPath id="fG"><path d="m331 363h2v.460938h-2zm0 0"/></clipPath><clipPath id="fH"><path d="m332 363h2v.460938h-2zm0 0"/></clipPath><clipPath id="fI"><path d="m333 359h2v4.460938h-2zm0 0"/></clipPath><clipPath id="fJ"><path d="m335 361h1v2.460938h-1zm0 0"/></clipPath><clipPath id="fK"><path d="m335 363h2v.460938h-2zm0 0"/></clipPath><clipPath id="fL"><path d="m336 363h2v.460938h-2zm0 0"/></clipPath><clipPath id="fM"><path d="m337 363h1v.460938h-1zm0 0"/></clipPath><clipPath id="fN"><path d="m337 362h2v1.460938h-2zm0 0"/></clipPath><clipPath id="fO"><path d="m338 363h2v.460938h-2zm0 0"/></clipPath><clipPath id="fP"><path d="m339 361h1v2.460938h-1zm0 0"/></clipPath><clipPath id="fQ"><path d="m339 363h2v.460938h-2zm0 0"/></clipPath><clipPath id="fR"><path d="m340 363h2v.460938h-2zm0 0"/></clipPath><clipPath id="fS"><path d="m341 363h1v.460938h-1zm0 0"/></clipPath><clipPath id="fT"><path d="m343 363h1v.460938h-1zm0 0"/></clipPath><clipPath id="fU"><path d="m343 363h2v.460938h-2zm0 0"/></clipPath><clipPath id="fV"><path d="m344 363h2v.460938h-2zm0 0"/></clipPath><clipPath id="fW"><path d="m345 363h1v.460938h-1zm0 0"/></clipPath><clipPath id="fX"><path d="m345 361h2v2.460938h-2zm0 0"/></clipPath><clipPath id="fY"><path d="m346 363h2v.460938h-2zm0 0"/></clipPath><clipPath id="fZ"><path d="m347 360h2v3.460938h-2zm0 0"/></clipPath><clipPath id="f0"><path d="m348 363h2v.460938h-2zm0 0"/></clipPath><clipPath id="f1"><path d="m349 363h1v.460938h-1zm0 0"/></clipPath><clipPath id="f2"><path d="m349 363h2v.460938h-2zm0 0"/></clipPath><clipPath id="f3"><path d="m350 363h2v.460938h-2zm0 0"/></clipPath><clipPath id="f4"><path d="m351 363h1v.460938h-1zm0 0"/></clipPath><clipPath id="f5"><path d="m351 363h2v.460938h-2zm0 0"/></clipPath><clipPath id="f6"><path d="m352 363h2v.460938h-2zm0 0"/></clipPath><clipPath id="f7"><path d="m353 363h2v.460938h-2zm0 0"/></clipPath><clipPath id="f8"><path d="m355 363h1v.460938h-1zm0 0"/></clipPath><clipPath id="f9"><path d="m355 363h2v.460938h-2zm0 0"/></clipPath><clipPath id="ga"><path d="m357 363h1v.460938h-1zm0 0"/></clipPath><clipPath id="gb"><path d="m357 363h2v.460938h-2zm0 0"/></clipPath><clipPath id="gc"><path d="m359 363h1v.460938h-1zm0 0"/></clipPath><clipPath id="gd"><path d="m359 363h2v.460938h-2zm0 0"/></clipPath><clipPath id="ge"><path d="m360 362h2v1.460938h-2zm0 0"/></clipPath><clipPath id="gf"><path d="m362 363h2v.460938h-2zm0 0"/></clipPath><clipPath id="gg"><path d="m363 363h1v.460938h-1zm0 0"/></clipPath><clipPath id="gh"><path d="m364 363h2v.460938h-2zm0 0"/></clipPath><clipPath id="gi"><path d="m365 363h1v.460938h-1zm0 0"/></clipPath><clipPath id="gj"><path d="m365 363h2v.460938h-2zm0 0"/></clipPath><clipPath id="gk"><path d="m367 362h1v1.460938h-1zm0 0"/></clipPath><clipPath id="gl"><path d="m368 363h2v.460938h-2zm0 0"/></clipPath><clipPath id="gm"><path d="m370 363h2v.460938h-2zm0 0"/></clipPath><clipPath id="gn"><path d="m371 363h1v.460938h-1zm0 0"/></clipPath><clipPath id="go"><path d="m371 363h2v.460938h-2zm0 0"/></clipPath><clipPath id="gp"><path d="m372 363h2v.460938h-2zm0 0"/></clipPath><clipPath id="gq"><path d="m376 363h2v.460938h-2zm0 0"/></clipPath><clipPath id="gr"><path d="m377 363h1v.460938h-1zm0 0"/></clipPath><clipPath id="gs"><path d="m377 362h2v1.460938h-2zm0 0"/></clipPath><clipPath id="gt"><path d="m379 363h2v.460938h-2zm0 0"/></clipPath><clipPath id="gu"><path d="m381 363h1v.460938h-1zm0 0"/></clipPath><clipPath id="gv"><path d="m383 363h1v.460938h-1zm0 0"/></clipPath><clipPath id="gw"><path d="m386 363h2v.460938h-2zm0 0"/></clipPath><clipPath id="gx"><path d="m387 363h2v.460938h-2zm0 0"/></clipPath><clipPath id="gy"><path d="m395 363h2v.460938h-2zm0 0"/></clipPath><clipPath id="gz"><path d="m400 363h2v.460938h-2zm0 0"/></clipPath><symbol id="gA" overflow="visible"><path d="m.460938-3.882812c0-.925782.089843-1.671876.285156-2.246094.1875-.570313.476562-1.011719.847656-1.316406.375-.308594.859375-.464844 1.429688-.464844.417968 0 .792968.089844 1.113281.265625.308593.175781.570312.417969.78125.738281.207031.316406.371093.703125.492187 1.164062.113282.460938.179688 1.089844.179688 1.859376 0 .921874-.101563 1.671874-.289063 2.242187-.1875.574219-.472656 1.003906-.847656 1.3125-.371094.3046875-.855469.449219-1.429687.449219-.769532 0-1.363282-.265625-1.792969-.804688-.515625-.648437-.769531-1.714844-.769531-3.199218m.992187 0c0 1.296874.140625 2.15625.449219 2.585937.296875.429687.671875.636719 1.121094.636719.441406 0 .804687-.207032 1.113281-.636719.308593-.429687.460937-1.289063.460937-2.585937 0-1.296876-.152344-2.15625-.460937-2.585938-.308594-.417969-.683594-.636719-1.121094-.636719-.453125 0-.804687.1875-1.070313.558594-.328124.484375-.492187 1.375-.492187 2.664063"/></symbol><symbol id="gB" overflow="visible"><path d="m4.101562 0h-.964843v-6.160156c-.242188.21875-.550781.449218-.925781.671875-.375.21875-.714844.382812-1.011719.496093v-.9375c.539062-.253906 1.011719-.558593 1.417969-.921874.398437-.351563.683593-.707032.859374-1.058594h.625z"/></symbol><symbol id="gC" overflow="visible"><path d="m5.53125-.925781v.925781h-5.203125c-.007813-.230469.035156-.449219.121094-.671875.132812-.351563.34375-.691406.628906-1.042969.285156-.34375.714844-.738281 1.265625-1.199218.855469-.695313 1.429688-1.242188 1.738281-1.660157.296875-.410156.449219-.792969.449219-1.167969s-.140625-.703124-.417969-.96875c-.273437-.261718-.625-.394531-1.066406-.394531-.460937 0-.835937.140625-1.109375.417969-.289062.285156-.429688.671875-.429688 1.164062l-.992187-.109374c.066406-.734376.320313-1.296876.761719-1.691407.4375-.386719 1.042968-.585937 1.792968-.585937.746094 0 1.351563.222656 1.792969.640625.4375.417969.660157.933593.660157 1.550781 0 .316406-.066407.625-.199219.933594-.132813.308594-.339844.628906-.636719.957031-.296875.339844-.792969.804687-1.488281 1.386719-.582031.484375-.957031.8125-1.121094.988281s-.296875.351563-.40625.527344z"/></symbol><symbol id="gD" overflow="visible"><path d="m.460938-2.078125.96875-.132813c.109374.550782.296874.945313.5625 1.1875.261718.242188.59375.363282.976562.363282.453125 0 .835938-.152344 1.144531-.472656.308594-.308594.472657-.703126.472657-1.167969 0-.4375-.152344-.8125-.4375-1.097657-.289063-.285156-.660157-.441406-1.101563-.441406-.1875 0-.417969.042969-.683594.109375l.113281-.84375c.0625.007813.109376.007813.152344.007813.40625 0 .78125-.097656 1.109375-.316406.332031-.222657.496094-.550782.496094-1.003907 0-.351562-.121094-.636719-.363281-.867187-.242188-.230469-.550782-.351563-.921875-.351563-.375 0-.695313.121094-.945313.351563-.253906.242187-.410156.59375-.476562 1.054687l-.964844-.164062c.109375-.648438.382812-1.15625.800781-1.507813.417969-.351562.9375-.539062 1.5625-.539062.429688 0 .824219.101562 1.1875.289062.351563.183594.628907.4375.824219.746094.199219.320312.296875.660156.296875 1.011719 0 .351562-.097656.660156-.273437.933593-.1875.289063-.460938.507813-.8125.660157.460937.113281.8125.34375 1.078124.671875.261719.339844.394532.769531.394532 1.277344 0 .679687-.253906 1.265624-.757813 1.738281-.507812.4843748-1.132812.714843-1.894531.714843-.703125 0-1.273438-.1992182-1.726562-.617187-.460938-.40625-.714844-.933594-.78125-1.59375"/></symbol><symbol id="gE" overflow="visible"><path d="m3.554688 0v-1.882812h-3.410157v-.890626l3.585938-5.101562h.789062v5.101562h1.070313v.890626h-1.070313v1.882812zm0-2.773438v-3.550781l-2.464844 3.550781z"/></symbol><symbol id="gF" overflow="visible"><path d="m.460938-2.066406 1.011718-.078125c.066406.496093.242188.867187.519532 1.109375.273437.253906.605468.375.988281.375.460937 0 .859375-.175782 1.1875-.527344.320312-.351562.484375-.816406.484375-1.398438 0-.550781-.164063-.976562-.472656-1.296874-.308594-.320313-.714844-.484376-1.210938-.484376-.308594 0-.59375.078126-.847656.21875-.25.144532-.449219.320313-.582032.539063l-.910156-.109375.757813-4.046875h3.914062v.921875h-3.132812l-.429688 2.113281c.472657-.328125.96875-.496093 1.484375-.496093.683594 0 1.265625.242187 1.738282.714843.472656.484375.714843 1.089844.714843 1.839844 0 .714844-.207031 1.328125-.625 1.847656-.507812.636719-1.191406.945313-2.070312.945313-.714844 0-1.296875-.199219-1.75-.59375-.460938-.394532-.714844-.925782-.769531-1.59375"/></symbol><path d="m0 0h432v396h-432z" fill="#fff"/><path d="m53.058594 363.460938h365.980468v-331.78125h-365.980468zm0 0" fill="#eaeaf2"/><g clip-path="url(#a)"><path d="m69.960938 32.539062v331.78125" fill="none" stroke="#fff" stroke-linecap="round" stroke-linejoin="round" stroke-miterlimit="10" transform="matrix(1 0 0 -1 0 396)"/></g><use fill="#262626" x="66.899228" xlink:href="#gA" y="380.835"/><g clip-path="url(#b)"><path d="m136.53125 32.539062v331.78125" fill="none" stroke="#fff" stroke-linecap="round" stroke-linejoin="round" stroke-miterlimit="10" transform="matrix(1 0 0 -1 0 396)"/></g><g fill="#262626"><use x="127.342674" xlink:href="#gB" y="380.835"/><use x="133.458674" xlink:href="#gA" y="380.835"/><use x="139.574674" xlink:href="#gA" y="380.835"/></g><g clip-path="url(#c)"><path d="m203.097656 32.539062v331.78125" fill="none" stroke="#fff" stroke-linecap="round" stroke-linejoin="round" stroke-miterlimit="10" transform="matrix(1 0 0 -1 0 396)"/></g><g fill="#262626"><use x="193.911119" xlink:href="#gC" y="380.835"/><use x="200.027119" xlink:href="#gA" y="380.835"/><use x="206.143119" xlink:href="#gA" y="380.835"/></g><g clip-path="url(#d)"><path d="m269.667969 32.539062v331.78125" fill="none" stroke="#fff" stroke-linecap="round" stroke-linejoin="round" stroke-miterlimit="10" transform="matrix(1 0 0 -1 0 396)"/></g><g fill="#262626"><use x="260.479565" xlink:href="#gD" y="380.835"/><use x="266.595565" xlink:href="#gA" y="380.835"/><use x="272.711565" xlink:href="#gA" y="380.835"/></g><g clip-path="url(#e)"><path d="m336.234375 32.539062v331.78125" fill="none" stroke="#fff" stroke-linecap="round" stroke-linejoin="round" stroke-miterlimit="10" transform="matrix(1 0 0 -1 0 396)"/></g><g fill="#262626"><use x="327.048011" xlink:href="#gE" y="380.835"/><use x="333.164011" xlink:href="#gA" y="380.835"/><use x="339.280011" xlink:href="#gA" y="380.835"/></g><g clip-path="url(#f)"><path d="m402.804688 32.539062v331.78125" fill="none" stroke="#fff" stroke-linecap="round" stroke-linejoin="round" stroke-miterlimit="10" transform="matrix(1 0 0 -1 0 396)"/></g><g fill="#262626"><use x="393.616456" xlink:href="#gF" y="380.835"/><use x="399.732456" xlink:href="#gA" y="380.835"/><use x="405.848456" xlink:href="#gA" y="380.835"/></g><g clip-path="url(#g)"><path d="m53.058594 32.539062h365.980468" fill="none" stroke="#fff" stroke-linecap="round" stroke-linejoin="round" stroke-miterlimit="10" transform="matrix(1 0 0 -1 0 396)"/></g><use fill="#262626" x="37.435" xlink:href="#gA" y="367.3975"/><g clip-path="url(#h)"><path d="m53.058594 103.074219h365.980468" fill="none" stroke="#fff" stroke-linecap="round" stroke-linejoin="round" stroke-miterlimit="10" transform="matrix(1 0 0 -1 0 396)"/></g><g fill="#262626"><use x="19.06" xlink:href="#gF" y="296.862149"/><use x="25.176" xlink:href="#gA" y="296.862149"/><use x="31.292" xlink:href="#gA" y="296.862149"/><use x="37.408" xlink:href="#gA" y="296.862149"/></g><g clip-path="url(#i)"><path d="m53.058594 173.609375h365.980468" fill="none" stroke="#fff" stroke-linecap="round" stroke-linejoin="round" stroke-miterlimit="10" transform="matrix(1 0 0 -1 0 396)"/></g><g fill="#262626"><use x="12.935" xlink:href="#gB" y="226.326798"/><use x="19.051" xlink:href="#gA" y="226.326798"/><use x="25.167" xlink:href="#gA" y="226.326798"/><use x="31.283" xlink:href="#gA" y="226.326798"/><use x="37.399" xlink:href="#gA" y="226.326798"/></g><g clip-path="url(#j)"><path d="m53.058594 244.144531h365.980468" fill="none" stroke="#fff" stroke-linecap="round" stroke-linejoin="round" stroke-miterlimit="10" transform="matrix(1 0 0 -1 0 396)"/></g><g fill="#262626"><use x="12.935" xlink:href="#gB" y="155.791447"/><use x="19.051" xlink:href="#gF" y="155.791447"/><use x="25.167" xlink:href="#gA" y="155.791447"/><use x="31.283" xlink:href="#gA" y="155.791447"/><use x="37.399" xlink:href="#gA" y="155.791447"/></g><g clip-path="url(#k)"><path d="m53.058594 314.679688h365.980468" fill="none" stroke="#fff" stroke-linecap="round" stroke-linejoin="round" stroke-miterlimit="10" transform="matrix(1 0 0 -1 0 396)"/></g><g fill="#262626"><use x="12.935" xlink:href="#gC" y="85.256096"/><use x="19.051" xlink:href="#gA" y="85.256096"/><use x="25.167" xlink:href="#gA" y="85.256096"/><use x="31.283" xlink:href="#gA" y="85.256096"/><use x="37.399" xlink:href="#gA" y="85.256096"/></g><g clip-path="url(#l)"><path d="m69.695312 363.460938h.53125v-69.234376h-.53125zm0 0" fill="#4c72b0"/></g><g clip-path="url(#m)"><path d="m70.359375 363.460938h.535156v-269.84375h-.535156zm0 0" fill="#4c72b0"/></g><g clip-path="url(#n)"><path d="m71.027344 363.460938h.53125v-313.679688h-.53125zm0 0" fill="#4c72b0"/></g><g clip-path="url(#o)"><path d="m71.691406 363.460938h.535156v-63.871094h-.535156zm0 0" fill="#4c72b0"/></g><g clip-path="url(#p)"><path d="m72.359375 363.460938h.53125v-52.921876h-.53125zm0 0" fill="#4c72b0"/></g><g clip-path="url(#q)"><path d="m73.023438 363.460938h.53125v-315.980469h-.53125zm0 0" fill="#4c72b0"/></g><g clip-path="url(#r)"><path d="m73.691406 363.460938h.53125v-223.585938h-.53125zm0 0" fill="#4c72b0"/></g><g clip-path="url(#s)"><path d="m74.355469 363.460938h.53125v-244.460938h-.53125zm0 0" fill="#4c72b0"/></g><g clip-path="url(#t)"><path d="m75.019531 363.460938h.535157v-164.023438h-.535157zm0 0" fill="#4c72b0"/></g><g clip-path="url(#u)"><path d="m75.6875 363.460938h.53125v-162.238282h-.53125zm0 0" fill="#4c72b0"/></g><g clip-path="url(#v)"><path d="m76.351562 363.460938h.535157v-138.582032h-.535157zm0 0" fill="#4c72b0"/></g><g clip-path="url(#w)"><path d="m77.019531 363.460938h.53125v-83.644532h-.53125zm0 0" fill="#4c72b0"/></g><g clip-path="url(#x)"><path d="m77.683594 363.460938h.53125v-50.554688h-.53125zm0 0" fill="#4c72b0"/></g><g clip-path="url(#y)"><path d="m78.347656 363.460938h.535156v-51.695313h-.535156zm0 0" fill="#4c72b0"/></g><g clip-path="url(#z)"><path d="m79.015625 363.460938h.53125v-151.175782h-.53125zm0 0" fill="#4c72b0"/></g><g clip-path="url(#A)"><path d="m79.679688 363.460938h.535156v-57.046876h-.535156zm0 0" fill="#4c72b0"/></g><g clip-path="url(#B)"><path d="m80.347656 363.460938h.53125v-199.960938h-.53125zm0 0" fill="#4c72b0"/></g><g clip-path="url(#C)"><path d="m81.011719 363.460938h.53125v-124.425782h-.53125zm0 0" fill="#4c72b0"/></g><g clip-path="url(#D)"><path d="m81.679688 363.460938h.53125v-166.359376h-.53125zm0 0" fill="#4c72b0"/></g><g clip-path="url(#E)"><path d="m82.34375 363.460938h.53125v-52.945313h-.53125zm0 0" fill="#4c72b0"/></g><g clip-path="url(#F)"><path d="m83.007812 363.460938h.535157v-195.945313h-.535157zm0 0" fill="#4c72b0"/></g><g clip-path="url(#G)"><path d="m83.675781 363.460938h.53125v-145.332032h-.53125zm0 0" fill="#4c72b0"/></g><g clip-path="url(#H)"><path d="m84.339844 363.460938h.535156v-10.886719h-.535156zm0 0" fill="#4c72b0"/></g><g clip-path="url(#I)"><path d="m85.007812 363.460938h.53125v-73.066407h-.53125zm0 0" fill="#4c72b0"/></g><g clip-path="url(#J)"><path d="m85.671875 363.460938h.53125v-116.128907h-.53125zm0 0" fill="#4c72b0"/></g><g clip-path="url(#K)"><path d="m86.335938 363.460938h.535156v-9.21875h-.535156zm0 0" fill="#4c72b0"/></g><g clip-path="url(#L)"><path d="m87.003906 363.460938h.53125v-61.523438h-.53125zm0 0" fill="#4c72b0"/></g><g clip-path="url(#M)"><path d="m87.667969 363.460938h.535156v-75.371094h-.535156zm0 0" fill="#4c72b0"/></g><g clip-path="url(#N)"><path d="m88.335938 363.460938h.53125v-45.183594h-.53125zm0 0" fill="#4c72b0"/></g><g clip-path="url(#O)"><path d="m89 363.460938h.53125v-113.042969h-.53125zm0 0" fill="#4c72b0"/></g><g clip-path="url(#P)"><path d="m89.664062 363.460938h.535157v-20.347657h-.535157zm0 0" fill="#4c72b0"/></g><g clip-path="url(#Q)"><path d="m90.332031 363.460938h.53125v-14.992188h-.53125zm0 0" fill="#4c72b0"/></g><g clip-path="url(#R)"><path d="m90.996094 363.460938h.535156v-25.09375h-.535156zm0 0" fill="#4c72b0"/></g><g clip-path="url(#S)"><path d="m91.664062 363.460938h.53125v-130.128907h-.53125zm0 0" fill="#4c72b0"/></g><g clip-path="url(#T)"><path d="m92.328125 363.460938h.53125v-54.035157h-.53125zm0 0" fill="#4c72b0"/></g><g clip-path="url(#U)"><path d="m92.996094 363.460938h.53125v-15.445313h-.53125zm0 0" fill="#4c72b0"/></g><g clip-path="url(#V)"><path d="m93.660156 363.460938h.53125v-58.011719h-.53125zm0 0" fill="#4c72b0"/></g><g clip-path="url(#W)"><path d="m94.324219 363.460938h.535156v-21.085938h-.535156zm0 0" fill="#4c72b0"/></g><g clip-path="url(#X)"><path d="m94.992188 363.460938h.53125v-27.664063h-.53125zm0 0" fill="#4c72b0"/></g><g clip-path="url(#Y)"><path d="m95.65625 363.460938h.535156v-124.136719h-.535156zm0 0" fill="#4c72b0"/></g><g clip-path="url(#Z)"><path d="m96.324219 363.460938h.53125v-112.175782h-.53125zm0 0" fill="#4c72b0"/></g><g clip-path="url(#aa)"><path d="m96.988281 363.460938h.53125v-50.714844h-.53125zm0 0" fill="#4c72b0"/></g><g clip-path="url(#ab)"><path d="m97.652344 363.460938h.535156v-170.398438h-.535156zm0 0" fill="#4c72b0"/></g><g clip-path="url(#ac)"><path d="m98.320312 363.460938h.53125v-87.070313h-.53125zm0 0" fill="#4c72b0"/></g><g clip-path="url(#ad)"><path d="m98.984375 363.460938h.535156v-85.214844h-.535156zm0 0" fill="#4c72b0"/></g><g clip-path="url(#ae)"><path d="m99.652344 363.460938h.53125v-16.519532h-.53125zm0 0" fill="#4c72b0"/></g><g clip-path="url(#af)"><path d="m100.316406 363.460938h.53125v-116.160157h-.53125zm0 0" fill="#4c72b0"/></g><g clip-path="url(#ag)"><path d="m100.984375 363.460938h.53125v-28.371094h-.53125zm0 0" fill="#4c72b0"/></g><g clip-path="url(#ah)"><path d="m101.648438 363.460938h.53125v-4.011719h-.53125zm0 0" fill="#4c72b0"/></g><g clip-path="url(#ai)"><path d="m102.3125 363.460938h.535156v-71.738282h-.535156zm0 0" fill="#4c72b0"/></g><g clip-path="url(#aj)"><path d="m102.980469 363.460938h.53125v-107.542969h-.53125zm0 0" fill="#4c72b0"/></g><g clip-path="url(#ak)"><path d="m103.644531 363.460938h.535157v-10.433594h-.535157zm0 0" fill="#4c72b0"/></g><g clip-path="url(#al)"><path d="m104.3125 363.460938h.53125v-67.082032h-.53125zm0 0" fill="#4c72b0"/></g><g clip-path="url(#am)"><path d="m104.976562 363.460938h.53125v-21.796876h-.53125zm0 0" fill="#4c72b0"/></g><g clip-path="url(#an)"><path d="m105.640625 363.460938h.535156v-19.117188h-.535156zm0 0" fill="#4c72b0"/></g><g clip-path="url(#ao)"><path d="m106.308594 363.460938h.53125v-69.75h-.53125zm0 0" fill="#4c72b0"/></g><g clip-path="url(#ap)"><path d="m106.972656 363.460938h.535156v-14.066407h-.535156zm0 0" fill="#4c72b0"/></g><g clip-path="url(#aq)"><path d="m107.640625 363.460938h.53125v-34.457032h-.53125zm0 0" fill="#4c72b0"/></g><g clip-path="url(#ar)"><path d="m108.304688 363.460938h.53125v-97.210938h-.53125zm0 0" fill="#4c72b0"/></g><g clip-path="url(#as)"><path d="m108.972656 363.460938h.53125v-93.296876h-.53125zm0 0" fill="#4c72b0"/></g><g clip-path="url(#at)"><path d="m109.636719 363.460938h.53125v-84.140626h-.53125zm0 0" fill="#4c72b0"/></g><g clip-path="url(#au)"><path d="m110.300781 363.460938h.535157v-13.460938h-.535157zm0 0" fill="#4c72b0"/></g><g clip-path="url(#av)"><path d="m110.96875 363.460938h.53125v-7.730469h-.53125zm0 0" fill="#4c72b0"/></g><g clip-path="url(#aw)"><path d="m111.632812 363.460938h.535157v-85.078126h-.535157zm0 0" fill="#4c72b0"/></g><g clip-path="url(#ax)"><path d="m112.300781 363.460938h.53125v-49.199219h-.53125zm0 0" fill="#4c72b0"/></g><g clip-path="url(#ay)"><path d="m112.964844 363.460938h.53125v-42.492188h-.53125zm0 0" fill="#4c72b0"/></g><g clip-path="url(#az)"><path d="m113.628906 363.460938h.535156v-5.066407h-.535156zm0 0" fill="#4c72b0"/></g><g clip-path="url(#aA)"><path d="m114.296875 363.460938h.53125v-5.441407h-.53125zm0 0" fill="#4c72b0"/></g><g clip-path="url(#aB)"><path d="m114.960938 363.460938h.535156v-103.523438h-.535156zm0 0" fill="#4c72b0"/></g><g clip-path="url(#aC)"><path d="m115.628906 363.460938h.53125v-.15625h-.53125zm0 0" fill="#4c72b0"/></g><g clip-path="url(#aD)"><path d="m116.292969 363.460938h.53125v-12.601563h-.53125zm0 0" fill="#4c72b0"/></g><g clip-path="url(#aE)"><path d="m116.960938 363.460938h.53125v-60.527344h-.53125zm0 0" fill="#4c72b0"/></g><g clip-path="url(#aF)"><path d="m117.625 363.460938h.53125v-41.234376h-.53125zm0 0" fill="#4c72b0"/></g><g clip-path="url(#aG)"><path d="m118.289062 363.460938h.535157v-29.070313h-.535157zm0 0" fill="#4c72b0"/></g><g clip-path="url(#aH)"><path d="m118.957031 363.460938h.53125v-63.535157h-.53125zm0 0" fill="#4c72b0"/></g><g clip-path="url(#aI)"><path d="m119.621094 363.460938h.535156v-60.539063h-.535156zm0 0" fill="#4c72b0"/></g><g clip-path="url(#aJ)"><path d="m120.289062 363.460938h.53125v-84.488282h-.53125zm0 0" fill="#4c72b0"/></g><g clip-path="url(#aK)"><path d="m120.953125 363.460938h.53125v-23.433594h-.53125zm0 0" fill="#4c72b0"/></g><g clip-path="url(#aL)"><path d="m121.617188 363.460938h.535156v-21.417969h-.535156zm0 0" fill="#4c72b0"/></g><g clip-path="url(#aM)"><path d="m122.285156 363.460938h.53125v-40.144532h-.53125zm0 0" fill="#4c72b0"/></g><g clip-path="url(#aN)"><path d="m122.949219 363.460938h.535156v-138.632813h-.535156zm0 0" fill="#4c72b0"/></g><g clip-path="url(#aO)"><path d="m123.617188 363.460938h.53125v-33.160157h-.53125zm0 0" fill="#4c72b0"/></g><g clip-path="url(#aP)"><path d="m124.28125 363.460938h.53125v-59.5625h-.53125zm0 0" fill="#4c72b0"/></g><g clip-path="url(#aQ)"><path d="m124.945312 363.460938h.535157v-6.464844h-.535157zm0 0" fill="#4c72b0"/></g><g clip-path="url(#aR)"><path d="m125.613281 363.460938h.53125v-55.871094h-.53125zm0 0" fill="#4c72b0"/></g><g clip-path="url(#aS)"><path d="m126.277344 363.460938h.535156v-11.148438h-.535156zm0 0" fill="#4c72b0"/></g><g clip-path="url(#aT)"><path d="m126.945312 363.460938h.53125v-35.34375h-.53125zm0 0" fill="#4c72b0"/></g><g clip-path="url(#aU)"><path d="m127.609375 363.460938h.53125v-75.476563h-.53125zm0 0" fill="#4c72b0"/></g><g clip-path="url(#aV)"><path d="m128.277344 363.460938h.53125v-29.707032h-.53125zm0 0" fill="#4c72b0"/></g><g clip-path="url(#aW)"><path d="m128.941406 363.460938h.53125v-47.101563h-.53125zm0 0" fill="#4c72b0"/></g><g clip-path="url(#aX)"><path d="m129.605469 363.460938h.535156v-21.074219h-.535156zm0 0" fill="#4c72b0"/></g><g clip-path="url(#aY)"><path d="m130.273438 363.460938h.53125v-39.21875h-.53125zm0 0" fill="#4c72b0"/></g><g clip-path="url(#aZ)"><path d="m130.9375 363.460938h.535156v-45.789063h-.535156zm0 0" fill="#4c72b0"/></g><g clip-path="url(#a0)"><path d="m131.605469 363.460938h.53125v-30.652344h-.53125zm0 0" fill="#4c72b0"/></g><g clip-path="url(#a1)"><path d="m132.269531 363.460938h.53125v-18.882813h-.53125zm0 0" fill="#4c72b0"/></g><g clip-path="url(#a2)"><path d="m132.933594 363.460938h.535156v-32.46875h-.535156zm0 0" fill="#4c72b0"/></g><g clip-path="url(#a3)"><path d="m133.601562 363.460938h.53125v-8.703126h-.53125zm0 0" fill="#4c72b0"/></g><g clip-path="url(#a4)"><path d="m134.265625 363.460938h.535156v-3.878907h-.535156zm0 0" fill="#4c72b0"/></g><g clip-path="url(#a5)"><path d="m134.933594 363.460938h.53125v-7.007813h-.53125zm0 0" fill="#4c72b0"/></g><g clip-path="url(#a6)"><path d="m135.597656 363.460938h.53125v-21.179688h-.53125zm0 0" fill="#4c72b0"/></g><g clip-path="url(#a7)"><path d="m136.265625 363.460938h.53125v-92.75h-.53125zm0 0" fill="#4c72b0"/></g><g clip-path="url(#a8)"><path d="m136.929688 363.460938h.53125v-42.042969h-.53125zm0 0" fill="#4c72b0"/></g><g clip-path="url(#a9)"><path d="m137.59375 363.460938h.535156v-23.238282h-.535156zm0 0" fill="#4c72b0"/></g><g clip-path="url(#ba)"><path d="m138.261719 363.460938h.53125v-31.535157h-.53125zm0 0" fill="#4c72b0"/></g><g clip-path="url(#bb)"><path d="m138.925781 363.460938h.535157v-20.179688h-.535157zm0 0" fill="#4c72b0"/></g><g clip-path="url(#bc)"><path d="m139.59375 363.460938h.53125v-33.890626h-.53125zm0 0" fill="#4c72b0"/></g><g clip-path="url(#bd)"><path d="m140.257812 363.460938h.53125v-2.933594h-.53125zm0 0" fill="#4c72b0"/></g><g clip-path="url(#be)"><path d="m140.921875 363.460938h.535156v-41.851563h-.535156zm0 0" fill="#4c72b0"/></g><g clip-path="url(#bf)"><path d="m141.589844 363.460938h.53125v-5.375h-.53125zm0 0" fill="#4c72b0"/></g><g clip-path="url(#bg)"><path d="m142.253906 363.460938h.535156v-31.828126h-.535156zm0 0" fill="#4c72b0"/></g><g clip-path="url(#bh)"><path d="m142.921875 363.460938h.53125v-6.863282h-.53125zm0 0" fill="#4c72b0"/></g><g clip-path="url(#bi)"><path d="m143.585938 363.460938h.53125v-2.828126h-.53125zm0 0" fill="#4c72b0"/></g><g clip-path="url(#bj)"><path d="m144.253906 363.460938h.53125v-5.539063h-.53125zm0 0" fill="#4c72b0"/></g><g clip-path="url(#bk)"><path d="m144.917969 363.460938h.53125v-40.328126h-.53125zm0 0" fill="#4c72b0"/></g><g clip-path="url(#bl)"><path d="m145.582031 363.460938h.535157v-15.703126h-.535157zm0 0" fill="#4c72b0"/></g><g clip-path="url(#bm)"><path d="m146.25 363.460938h.53125v-.070313h-.53125zm0 0" fill="#4c72b0"/></g><g clip-path="url(#bn)"><path d="m146.914062 363.460938h.535157v-21.933594h-.535157zm0 0" fill="#4c72b0"/></g><g clip-path="url(#bo)"><path d="m147.582031 363.460938h.53125v-20.808594h-.53125zm0 0" fill="#4c72b0"/></g><g clip-path="url(#bp)"><path d="m148.246094 363.460938h.53125v-1.617188h-.53125zm0 0" fill="#4c72b0"/></g><g clip-path="url(#bq)"><path d="m148.910156 363.460938h.535156v-19.484376h-.535156zm0 0" fill="#4c72b0"/></g><g clip-path="url(#br)"><path d="m149.578125 363.460938h.53125v-.308594h-.53125zm0 0" fill="#4c72b0"/></g><g clip-path="url(#bs)"><path d="m150.242188 363.460938h.535156v-.859376h-.535156zm0 0" fill="#4c72b0"/></g><g clip-path="url(#bt)"><path d="m150.910156 363.460938h.53125v-8.847657h-.53125zm0 0" fill="#4c72b0"/></g><g clip-path="url(#bu)"><path d="m151.574219 363.460938h.53125v-47.535157h-.53125zm0 0" fill="#4c72b0"/></g><g clip-path="url(#bv)"><path d="m152.242188 363.460938h.53125v-49.210938h-.53125zm0 0" fill="#4c72b0"/></g><g clip-path="url(#bw)"><path d="m152.90625 363.460938h.53125v-37.046876h-.53125zm0 0" fill="#4c72b0"/></g><g clip-path="url(#bx)"><path d="m153.570312 363.460938h.535157v-3.226563h-.535157zm0 0" fill="#4c72b0"/></g><g clip-path="url(#by)"><path d="m154.238281 363.460938h.53125v-3.101563h-.53125zm0 0" fill="#4c72b0"/></g><g clip-path="url(#bz)"><path d="m154.902344 363.460938h.535156v-35.617188h-.535156zm0 0" fill="#4c72b0"/></g><g clip-path="url(#bA)"><path d="m155.570312 363.460938h.53125v-4.464844h-.53125zm0 0" fill="#4c72b0"/></g><g clip-path="url(#bB)"><path d="m156.234375 363.460938h.53125v-66.964844h-.53125zm0 0" fill="#4c72b0"/></g><g clip-path="url(#bC)"><path d="m156.898438 363.460938h.535156v-7.191407h-.535156zm0 0" fill="#4c72b0"/></g><g clip-path="url(#bD)"><path d="m157.566406 363.460938h.53125v-4.957032h-.53125zm0 0" fill="#4c72b0"/></g><g clip-path="url(#bE)"><path d="m158.230469 363.460938h.535156v-37.585938h-.535156zm0 0" fill="#4c72b0"/></g><g clip-path="url(#bF)"><path d="m158.898438 363.460938h.53125v-16.820313h-.53125zm0 0" fill="#4c72b0"/></g><g clip-path="url(#bG)"><path d="m159.5625 363.460938h.53125v-21.203126h-.53125zm0 0" fill="#4c72b0"/></g><g clip-path="url(#bH)"><path d="m160.230469 363.460938h.53125v-42.179688h-.53125zm0 0" fill="#4c72b0"/></g><g clip-path="url(#bI)"><path d="m160.894531 363.460938h.53125v-38.234376h-.53125zm0 0" fill="#4c72b0"/></g><g clip-path="url(#bJ)"><path d="m161.558594 363.460938h.535156v-15.894532h-.535156zm0 0" fill="#4c72b0"/></g><g clip-path="url(#bK)"><path d="m162.226562 363.460938h.53125v-1.027344h-.53125zm0 0" fill="#4c72b0"/></g><g clip-path="url(#bL)"><path d="m162.890625 363.460938h.53125v-30.136719h-.53125zm0 0" fill="#4c72b0"/></g><g clip-path="url(#bM)"><path d="m163.558594 363.460938h.53125v-6.886719h-.53125zm0 0" fill="#4c72b0"/></g><g clip-path="url(#bN)"><path d="m164.222656 363.460938h.53125v-3.945313h-.53125zm0 0" fill="#4c72b0"/></g><g clip-path="url(#bO)"><path d="m164.886719 363.460938h.535156v-15.234376h-.535156zm0 0" fill="#4c72b0"/></g><g clip-path="url(#bP)"><path d="m165.554688 363.460938h.53125v-52.261719h-.53125zm0 0" fill="#4c72b0"/></g><g clip-path="url(#bQ)"><path d="m166.21875 363.460938h.535156v-25.449219h-.535156zm0 0" fill="#4c72b0"/></g><g clip-path="url(#bR)"><path d="m166.886719 363.460938h.53125v-41.070313h-.53125zm0 0" fill="#4c72b0"/></g><g clip-path="url(#bS)"><path d="m167.550781 363.460938h.53125v-42.273438h-.53125zm0 0" fill="#4c72b0"/></g><g clip-path="url(#bT)"><path d="m168.214844 363.460938h.535156v-45.4375h-.535156zm0 0" fill="#4c72b0"/></g><g clip-path="url(#bU)"><path d="m168.882812 363.460938h.53125v-1.367188h-.53125zm0 0" fill="#4c72b0"/></g><g clip-path="url(#bV)"><path d="m169.546875 363.460938h.535156v-20.164063h-.535156zm0 0" fill="#4c72b0"/></g><g clip-path="url(#bW)"><path d="m170.214844 363.460938h.53125v-1.582032h-.53125zm0 0" fill="#4c72b0"/></g><g clip-path="url(#bX)"><path d="m170.878906 363.460938h.53125v-21.851563h-.53125zm0 0" fill="#4c72b0"/></g><g clip-path="url(#bY)"><path d="m171.546875 363.460938h.53125v-27.5h-.53125zm0 0" fill="#4c72b0"/></g><g clip-path="url(#bZ)"><path d="m172.210938 363.460938h.53125v-35.207032h-.53125zm0 0" fill="#4c72b0"/></g><g clip-path="url(#b0)"><path d="m172.875 363.460938h.535156v-1.554688h-.535156zm0 0" fill="#4c72b0"/></g><g clip-path="url(#b1)"><path d="m173.542969 363.460938h.53125v-.070313h-.53125zm0 0" fill="#4c72b0"/></g><g clip-path="url(#b2)"><path d="m174.207031 363.460938h.535157v-24.609376h-.535157zm0 0" fill="#4c72b0"/></g><g clip-path="url(#b3)"><path d="m174.875 363.460938h.53125v-21.5h-.53125zm0 0" fill="#4c72b0"/></g><g clip-path="url(#b4)"><path d="m175.539062 363.460938h.53125v-1.402344h-.53125zm0 0" fill="#4c72b0"/></g><g clip-path="url(#b5)"><path d="m176.203125 363.460938h.535156v-36.722657h-.535156zm0 0" fill="#4c72b0"/></g><g clip-path="url(#b6)"><path d="m176.871094 363.460938h.53125v-1.421876h-.53125zm0 0" fill="#4c72b0"/></g><g clip-path="url(#b7)"><path d="m177.535156 363.460938h.535156v-10.445313h-.535156zm0 0" fill="#4c72b0"/></g><g clip-path="url(#b8)"><path d="m178.203125 363.460938h.53125v-22.742188h-.53125zm0 0" fill="#4c72b0"/></g><g clip-path="url(#b9)"><path d="m178.867188 363.460938h.53125v-52.894532h-.53125zm0 0" fill="#4c72b0"/></g><g clip-path="url(#ca)"><path d="m179.535156 363.460938h.53125v-23.242188h-.53125zm0 0" fill="#4c72b0"/></g><g clip-path="url(#cb)"><path d="m180.199219 363.460938h.53125v-54.242188h-.53125zm0 0" fill="#4c72b0"/></g><g clip-path="url(#cc)"><path d="m180.863281 363.460938h.535157v-5.722657h-.535157zm0 0" fill="#4c72b0"/></g><g clip-path="url(#cd)"><path d="m181.53125 363.460938h.53125v-.449219h-.53125zm0 0" fill="#4c72b0"/></g><g clip-path="url(#ce)"><path d="m182.195312 363.460938h.535157v-5.152344h-.535157zm0 0" fill="#4c72b0"/></g><g clip-path="url(#cf)"><path d="m182.863281 363.460938h.53125v-11.929688h-.53125zm0 0" fill="#4c72b0"/></g><g clip-path="url(#cg)"><path d="m183.527344 363.460938h.53125v-14.738282h-.53125zm0 0" fill="#4c72b0"/></g><g clip-path="url(#ch)"><path d="m184.191406 363.460938h.535156v-17.183594h-.535156zm0 0" fill="#4c72b0"/></g><g clip-path="url(#ci)"><path d="m184.859375 363.460938h.53125v-41.925782h-.53125zm0 0" fill="#4c72b0"/></g><g clip-path="url(#cj)"><path d="m185.523438 363.460938h.535156v-.519532h-.535156zm0 0" fill="#4c72b0"/></g><g clip-path="url(#ck)"><path d="m186.191406 363.460938h.53125v-22.773438h-.53125zm0 0" fill="#4c72b0"/></g><g clip-path="url(#cl)"><path d="m186.855469 363.460938h.53125v-22.46875h-.53125zm0 0" fill="#4c72b0"/></g><g clip-path="url(#cm)"><path d="m187.523438 363.460938h.53125v-2.035157h-.53125zm0 0" fill="#4c72b0"/></g><g clip-path="url(#cn)"><path d="m188.1875 363.460938h.53125v-1.503907h-.53125zm0 0" fill="#4c72b0"/></g><g clip-path="url(#co)"><path d="m188.851562 363.460938h.535157v-.007813h-.535157zm0 0" fill="#4c72b0"/></g><g clip-path="url(#cp)"><path d="m189.519531 363.460938h.53125v-11.972657h-.53125zm0 0" fill="#4c72b0"/></g><g clip-path="url(#cq)"><path d="m190.183594 363.460938h.535156v-.019532h-.535156zm0 0" fill="#4c72b0"/></g><g clip-path="url(#cr)"><path d="m190.851562 363.460938h.53125v-9.3125h-.53125zm0 0" fill="#4c72b0"/></g><g clip-path="url(#cs)"><path d="m191.515625 363.460938h.53125v-13.058594h-.53125zm0 0" fill="#4c72b0"/></g><g clip-path="url(#ct)"><path d="m192.179688 363.460938h.535156v-.390626h-.535156zm0 0" fill="#4c72b0"/></g><g clip-path="url(#cu)"><path d="m192.847656 363.460938h.53125v-7.429688h-.53125zm0 0" fill="#4c72b0"/></g><g clip-path="url(#cv)"><path d="m193.511719 363.460938h.535156v-37.289063h-.535156zm0 0" fill="#4c72b0"/></g><g clip-path="url(#cw)"><path d="m194.179688 363.460938h.53125v-23.519532h-.53125zm0 0" fill="#4c72b0"/></g><g clip-path="url(#cx)"><path d="m194.84375 363.460938h.53125v-11.183594h-.53125zm0 0" fill="#4c72b0"/></g><g clip-path="url(#cy)"><path d="m195.511719 363.460938h.53125v-14.710938h-.53125zm0 0" fill="#4c72b0"/></g><g clip-path="url(#cz)"><path d="m196.175781 363.460938h.53125v-1.074219h-.53125zm0 0" fill="#4c72b0"/></g><g clip-path="url(#cA)"><path d="m196.839844 363.460938h.535156v-1.363282h-.535156zm0 0" fill="#4c72b0"/></g><g clip-path="url(#cB)"><path d="m197.507812 363.460938h.53125v-21.382813h-.53125zm0 0" fill="#4c72b0"/></g><g clip-path="url(#cC)"><path d="m198.171875 363.460938h.535156v-25.140626h-.535156zm0 0" fill="#4c72b0"/></g><g clip-path="url(#cD)"><path d="m198.839844 363.460938h.53125v-16.296876h-.53125zm0 0" fill="#4c72b0"/></g><g clip-path="url(#cE)"><path d="m199.503906 363.460938h.53125v-2.449219h-.53125zm0 0" fill="#4c72b0"/></g><g clip-path="url(#cF)"><path d="m200.167969 363.460938h.535156v-33.472657h-.535156zm0 0" fill="#4c72b0"/></g><g clip-path="url(#cG)"><path d="m200.835938 363.460938h.53125v-11.027344h-.53125zm0 0" fill="#4c72b0"/></g><g clip-path="url(#cH)"><path d="m201.5 363.460938h.535156v-3.460938h-.535156zm0 0" fill="#4c72b0"/></g><g clip-path="url(#cI)"><path d="m202.167969 363.460938h.53125v-18.632813h-.53125zm0 0" fill="#4c72b0"/></g><g clip-path="url(#cJ)"><path d="m202.832031 363.460938h.53125v-1.492188h-.53125zm0 0" fill="#4c72b0"/></g><g clip-path="url(#cK)"><path d="m203.496094 363.460938h.535156v-1.164063h-.535156zm0 0" fill="#4c72b0"/></g><g clip-path="url(#cL)"><path d="m204.164062 363.460938h.53125v-7.03125h-.53125zm0 0" fill="#4c72b0"/></g><g clip-path="url(#cM)"><path d="m204.828125 363.460938h.535156v-24.265626h-.535156zm0 0" fill="#4c72b0"/></g><g clip-path="url(#cN)"><path d="m205.496094 363.460938h.53125v-31.414063h-.53125zm0 0" fill="#4c72b0"/></g><g clip-path="url(#cO)"><path d="m206.160156 363.460938h.53125v-.019532h-.53125zm0 0" fill="#4c72b0"/></g><g clip-path="url(#cP)"><path d="m206.828125 363.460938h.53125v-14.304688h-.53125zm0 0" fill="#4c72b0"/></g><g clip-path="url(#cQ)"><path d="m207.492188 363.460938h.53125v-23.429688h-.53125zm0 0" fill="#4c72b0"/></g><g clip-path="url(#cR)"><path d="m208.15625 363.460938h.535156v-16.441407h-.535156zm0 0" fill="#4c72b0"/></g><g clip-path="url(#cS)"><path d="m208.824219 363.460938h.53125v-4.828126h-.53125zm0 0" fill="#4c72b0"/></g><g clip-path="url(#cT)"><path d="m209.488281 363.460938h.535157v-34.554688h-.535157zm0 0" fill="#4c72b0"/></g><g clip-path="url(#cU)"><path d="m210.15625 363.460938h.53125v-.972657h-.53125zm0 0" fill="#4c72b0"/></g><g clip-path="url(#cV)"><path d="m210.820312 363.460938h.53125v-.117188h-.53125zm0 0" fill="#4c72b0"/></g><g clip-path="url(#cW)"><path d="m211.484375 363.460938h.535156v-1.578126h-.535156zm0 0" fill="#4c72b0"/></g><g clip-path="url(#cX)"><path d="m212.152344 363.460938h.53125v-37.015626h-.53125zm0 0" fill="#4c72b0"/></g><g clip-path="url(#cY)"><path d="m212.816406 363.460938h.535156v-7.992188h-.535156zm0 0" fill="#4c72b0"/></g><g clip-path="url(#cZ)"><path d="m213.484375 363.460938h.53125v-3.960938h-.53125zm0 0" fill="#4c72b0"/></g><g clip-path="url(#c0)"><path d="m214.148438 363.460938h.53125v-12.386719h-.53125zm0 0" fill="#4c72b0"/></g><g clip-path="url(#c1)"><path d="m214.816406 363.460938h.53125v-8.691407h-.53125zm0 0" fill="#4c72b0"/></g><g clip-path="url(#c2)"><path d="m215.480469 363.460938h.53125v-17.855469h-.53125zm0 0" fill="#4c72b0"/></g><g clip-path="url(#c3)"><path d="m216.144531 363.460938h.535157v-13.550782h-.535157zm0 0" fill="#4c72b0"/></g><g clip-path="url(#c4)"><path d="m216.8125 363.460938h.53125v-.054688h-.53125zm0 0" fill="#4c72b0"/></g><g clip-path="url(#c5)"><path d="m217.476562 363.460938h.535157v-13.964844h-.535157zm0 0" fill="#4c72b0"/></g><g clip-path="url(#c6)"><path d="m218.144531 363.460938h.53125v-.140626h-.53125zm0 0" fill="#4c72b0"/></g><g clip-path="url(#c7)"><path d="m218.808594 363.460938h.53125v-2.789063h-.53125zm0 0" fill="#4c72b0"/></g><g clip-path="url(#c8)"><path d="m219.472656 363.460938h.535156v-2.347657h-.535156zm0 0" fill="#4c72b0"/></g><g clip-path="url(#c9)"><path d="m220.140625 363.460938h.53125v-21.140626h-.53125zm0 0" fill="#4c72b0"/></g><g clip-path="url(#da)"><path d="m220.804688 363.460938h.535156v-2.765626h-.535156zm0 0" fill="#4c72b0"/></g><g clip-path="url(#db)"><path d="m221.472656 363.460938h.53125v-32.617188h-.53125zm0 0" fill="#4c72b0"/></g><g clip-path="url(#dc)"><path d="m222.136719 363.460938h.53125v-2.707032h-.53125zm0 0" fill="#4c72b0"/></g><g clip-path="url(#dd)"><path d="m222.804688 363.460938h.53125v-26.117188h-.53125zm0 0" fill="#4c72b0"/></g><g clip-path="url(#de)"><path d="m223.46875 363.460938h.53125v-22.71875h-.53125zm0 0" fill="#4c72b0"/></g><g clip-path="url(#df)"><path d="m224.132812 363.460938h.535157v-5.777344h-.535157zm0 0" fill="#4c72b0"/></g><g clip-path="url(#dg)"><path d="m224.800781 363.460938h.53125v-4.429688h-.53125zm0 0" fill="#4c72b0"/></g><g clip-path="url(#dh)"><path d="m225.464844 363.460938h.535156v-2.753907h-.535156zm0 0" fill="#4c72b0"/></g><g clip-path="url(#di)"><path d="m226.132812 363.460938h.53125v-19.839844h-.53125zm0 0" fill="#4c72b0"/></g><g clip-path="url(#dj)"><path d="m226.796875 363.460938h.53125v-16.863282h-.53125zm0 0" fill="#4c72b0"/></g><g clip-path="url(#dk)"><path d="m227.460938 363.460938h.535156v-10.375h-.535156zm0 0" fill="#4c72b0"/></g><g clip-path="url(#dl)"><path d="m228.128906 363.460938h.53125v-17.695313h-.53125zm0 0" fill="#4c72b0"/></g><g clip-path="url(#dm)"><path d="m228.792969 363.460938h.535156v-5.046876h-.535156zm0 0" fill="#4c72b0"/></g><g clip-path="url(#dn)"><path d="m229.460938 363.460938h.53125v-5.183594h-.53125zm0 0" fill="#4c72b0"/></g><g clip-path="url(#do)"><path d="m230.125 363.460938h.53125v-6.246094h-.53125zm0 0" fill="#4c72b0"/></g><g clip-path="url(#dp)"><path d="m230.792969 363.460938h.53125v-5.316407h-.53125zm0 0" fill="#4c72b0"/></g><g clip-path="url(#dq)"><path d="m231.457031 363.460938h.53125v-14.980469h-.53125zm0 0" fill="#4c72b0"/></g><g clip-path="url(#dr)"><path d="m232.121094 363.460938h.535156v-7.71875h-.535156zm0 0" fill="#4c72b0"/></g><g clip-path="url(#ds)"><path d="m232.789062 363.460938h.53125v-.753907h-.53125zm0 0" fill="#4c72b0"/></g><g clip-path="url(#dt)"><path d="m233.453125 363.460938h.535156v-5.863282h-.535156zm0 0" fill="#4c72b0"/></g><g clip-path="url(#du)"><path d="m234.121094 363.460938h.53125v-.800782h-.53125zm0 0" fill="#4c72b0"/></g><g clip-path="url(#dv)"><path d="m234.785156 363.460938h.53125v-18.871094h-.53125zm0 0" fill="#4c72b0"/></g><g clip-path="url(#dw)"><path d="m235.449219 363.460938h.535156v-9.03125h-.535156zm0 0" fill="#4c72b0"/></g><g clip-path="url(#dx)"><path d="m236.117188 363.460938h.53125v-.722657h-.53125zm0 0" fill="#4c72b0"/></g><g clip-path="url(#dy)"><path d="m236.78125 363.460938h.535156v-3.644532h-.535156zm0 0" fill="#4c72b0"/></g><g clip-path="url(#dz)"><path d="m237.449219 363.460938h.53125v-24.851563h-.53125zm0 0" fill="#4c72b0"/></g><g clip-path="url(#dA)"><path d="m238.113281 363.460938h.53125v-18.253907h-.53125zm0 0" fill="#4c72b0"/></g><g clip-path="url(#dB)"><path d="m238.78125 363.460938h.53125v-24.335938h-.53125zm0 0" fill="#4c72b0"/></g><g clip-path="url(#dC)"><path d="m239.445312 363.460938h.53125v-.105469h-.53125zm0 0" fill="#4c72b0"/></g><g clip-path="url(#dD)"><path d="m240.109375 363.460938h.535156v-26.527344h-.535156zm0 0" fill="#4c72b0"/></g><g clip-path="url(#dE)"><path d="m240.777344 363.460938h.53125v-17.507813h-.53125zm0 0" fill="#4c72b0"/></g><g clip-path="url(#dF)"><path d="m241.441406 363.460938h.53125v-2.625h-.53125zm0 0" fill="#4c72b0"/></g><g clip-path="url(#dG)"><path d="m242.109375 363.460938h.53125v-2.800782h-.53125zm0 0" fill="#4c72b0"/></g><g clip-path="url(#dH)"><path d="m242.773438 363.460938h.53125v-.089844h-.53125zm0 0" fill="#4c72b0"/></g><g clip-path="url(#dI)"><path d="m243.4375 363.460938h.535156v-14.585938h-.535156zm0 0" fill="#4c72b0"/></g><g clip-path="url(#dJ)"><path d="m244.105469 363.460938h.53125v-2.53125h-.53125zm0 0" fill="#4c72b0"/></g><g clip-path="url(#dK)"><path d="m245.4375 363.460938h.53125v-3.78125h-.53125zm0 0" fill="#4c72b0"/></g><g clip-path="url(#dL)"><path d="m246.101562 363.460938h.53125v-2.199219h-.53125zm0 0" fill="#4c72b0"/></g><g clip-path="url(#dM)"><path d="m246.765625 363.460938h.535156v-10.765626h-.535156zm0 0" fill="#4c72b0"/></g><g clip-path="url(#dN)"><path d="m247.433594 363.460938h.53125v-.292969h-.53125zm0 0" fill="#4c72b0"/></g><g clip-path="url(#dO)"><path d="m248.097656 363.460938h.535156v-8.628907h-.535156zm0 0" fill="#4c72b0"/></g><g clip-path="url(#dP)"><path d="m248.765625 363.460938h.53125v-31.246094h-.53125zm0 0" fill="#4c72b0"/></g><g clip-path="url(#dQ)"><path d="m249.429688 363.460938h.53125v-4.652344h-.53125zm0 0" fill="#4c72b0"/></g><g clip-path="url(#dR)"><path d="m250.097656 363.460938h.53125v-1.835938h-.53125zm0 0" fill="#4c72b0"/></g><g clip-path="url(#dS)"><path d="m250.761719 363.460938h.53125v-1.226563h-.53125zm0 0" fill="#4c72b0"/></g><g clip-path="url(#dT)"><path d="m251.425781 363.460938h.535157v-15.464844h-.535157zm0 0" fill="#4c72b0"/></g><g clip-path="url(#dU)"><path d="m252.09375 363.460938h.53125v-.792969h-.53125zm0 0" fill="#4c72b0"/></g><g clip-path="url(#dV)"><path d="m252.757812 363.460938h.535157v-14.59375h-.535157zm0 0" fill="#4c72b0"/></g><g clip-path="url(#dW)"><path d="m253.425781 363.460938h.53125v-10.109376h-.53125zm0 0" fill="#4c72b0"/></g><g clip-path="url(#dX)"><path d="m254.089844 363.460938h.53125v-1.746094h-.53125zm0 0" fill="#4c72b0"/></g><g clip-path="url(#dY)"><path d="m254.753906 363.460938h.535156v-21.011719h-.535156zm0 0" fill="#4c72b0"/></g><g clip-path="url(#dZ)"><path d="m255.421875 363.460938h.53125v-13.328126h-.53125zm0 0" fill="#4c72b0"/></g><g clip-path="url(#d0)"><path d="m256.085938 363.460938h.535156v-.003907h-.535156zm0 0" fill="#4c72b0"/></g><g clip-path="url(#d1)"><path d="m256.753906 363.460938h.53125v-50.703126h-.53125zm0 0" fill="#4c72b0"/></g><g clip-path="url(#d2)"><path d="m257.417969 363.460938h.53125v-1.367188h-.53125zm0 0" fill="#4c72b0"/></g><g clip-path="url(#d3)"><path d="m258.085938 363.460938h.53125v-1.78125h-.53125zm0 0" fill="#4c72b0"/></g><g clip-path="url(#d4)"><path d="m258.75 363.460938h.53125v-.03125h-.53125zm0 0" fill="#4c72b0"/></g><g clip-path="url(#d5)"><path d="m259.414062 363.460938h.535157v-.75h-.535157zm0 0" fill="#4c72b0"/></g><g clip-path="url(#d6)"><path d="m260.082031 363.460938h.53125v-.582032h-.53125zm0 0" fill="#4c72b0"/></g><g clip-path="url(#d7)"><path d="m260.746094 363.460938h.535156v-.3125h-.535156zm0 0" fill="#4c72b0"/></g><g clip-path="url(#d8)"><path d="m261.414062 363.460938h.53125v-2.746094h-.53125zm0 0" fill="#4c72b0"/></g><g clip-path="url(#d9)"><path d="m262.078125 363.460938h.53125v-.632813h-.53125zm0 0" fill="#4c72b0"/></g><g clip-path="url(#ea)"><path d="m262.742188 363.460938h.535156v-.011719h-.535156zm0 0" fill="#4c72b0"/></g><g clip-path="url(#eb)"><path d="m263.410156 363.460938h.53125v-7.605469h-.53125zm0 0" fill="#4c72b0"/></g><g clip-path="url(#ec)"><path d="m264.074219 363.460938h.535156v-1.679688h-.535156zm0 0" fill="#4c72b0"/></g><g clip-path="url(#ed)"><path d="m264.742188 363.460938h.53125v-.527344h-.53125zm0 0" fill="#4c72b0"/></g><g clip-path="url(#ee)"><path d="m265.40625 363.460938h.53125v-1.128907h-.53125zm0 0" fill="#4c72b0"/></g><g clip-path="url(#ef)"><path d="m266.074219 363.460938h.53125v-.070313h-.53125zm0 0" fill="#4c72b0"/></g><g clip-path="url(#eg)"><path d="m266.738281 363.460938h.53125v-.179688h-.53125zm0 0" fill="#4c72b0"/></g><g clip-path="url(#eh)"><path d="m267.402344 363.460938h.535156v-.136719h-.535156zm0 0" fill="#4c72b0"/></g><g clip-path="url(#ei)"><path d="m268.070312 363.460938h.53125v-.179688h-.53125zm0 0" fill="#4c72b0"/></g><g clip-path="url(#ej)"><path d="m268.734375 363.460938h.535156v-.132813h-.535156zm0 0" fill="#4c72b0"/></g><g clip-path="url(#ek)"><path d="m269.402344 363.460938h.53125v-4.769532h-.53125zm0 0" fill="#4c72b0"/></g><g clip-path="url(#el)"><path d="m270.066406 363.460938h.53125v-.0625h-.53125zm0 0" fill="#4c72b0"/></g><g clip-path="url(#em)"><path d="m270.730469 363.460938h.535156v-.203126h-.535156zm0 0" fill="#4c72b0"/></g><g clip-path="url(#en)"><path d="m271.398438 363.460938h.53125v-3.964844h-.53125zm0 0" fill="#4c72b0"/></g><g clip-path="url(#eo)"><path d="m272.0625 363.460938h.535156v-3.265626h-.535156zm0 0" fill="#4c72b0"/></g><g clip-path="url(#ep)"><path d="m272.730469 363.460938h.53125v-9.582032h-.53125zm0 0" fill="#4c72b0"/></g><g clip-path="url(#eq)"><path d="m273.394531 363.460938h.53125v-.246094h-.53125zm0 0" fill="#4c72b0"/></g><g clip-path="url(#er)"><path d="m274.0625 363.460938h.53125v-1.011719h-.53125zm0 0" fill="#4c72b0"/></g><g clip-path="url(#es)"><path d="m275.390625 363.460938h.535156v-1.320313h-.535156zm0 0" fill="#4c72b0"/></g><g clip-path="url(#et)"><path d="m276.058594 363.460938h.53125v-1.574219h-.53125zm0 0" fill="#4c72b0"/></g><g clip-path="url(#eu)"><path d="m276.722656 363.460938h.535156v-1.816407h-.535156zm0 0" fill="#4c72b0"/></g><g clip-path="url(#ev)"><path d="m277.390625 363.460938h.53125v-10.710938h-.53125zm0 0" fill="#4c72b0"/></g><g clip-path="url(#ew)"><path d="m278.054688 363.460938h.53125v-2.160157h-.53125zm0 0" fill="#4c72b0"/></g><g clip-path="url(#ex)"><path d="m278.71875 363.460938h.535156v-.894532h-.535156zm0 0" fill="#4c72b0"/></g><g clip-path="url(#ey)"><path d="m279.386719 363.460938h.53125v-2.382813h-.53125zm0 0" fill="#4c72b0"/></g><g clip-path="url(#ez)"><path d="m280.050781 363.460938h.535157v-.15625h-.535157zm0 0" fill="#4c72b0"/></g><g clip-path="url(#eA)"><path d="m280.71875 363.460938h.53125v-3.882813h-.53125zm0 0" fill="#4c72b0"/></g><g clip-path="url(#eB)"><path d="m281.382812 363.460938h.53125v-.085938h-.53125zm0 0" fill="#4c72b0"/></g><g clip-path="url(#eC)"><path d="m282.046875 363.460938h.535156v-3.808594h-.535156zm0 0" fill="#4c72b0"/></g><g clip-path="url(#eD)"><path d="m282.714844 363.460938h.53125v-.003907h-.53125zm0 0" fill="#4c72b0"/></g><g clip-path="url(#eE)"><path d="m283.378906 363.460938h.535156v-.011719h-.535156zm0 0" fill="#4c72b0"/></g><g clip-path="url(#eF)"><path d="m284.046875 363.460938h.53125v-.035157h-.53125zm0 0" fill="#4c72b0"/></g><g clip-path="url(#eG)"><path d="m284.710938 363.460938h.53125v-10.300782h-.53125zm0 0" fill="#4c72b0"/></g><g clip-path="url(#eH)"><path d="m285.378906 363.460938h.53125v-1.839844h-.53125zm0 0" fill="#4c72b0"/></g><g clip-path="url(#eI)"><path d="m286.707031 363.460938h.535157v-.40625h-.535157zm0 0" fill="#4c72b0"/></g><g clip-path="url(#eJ)"><path d="m287.375 363.460938h.53125v-9.835938h-.53125zm0 0" fill="#4c72b0"/></g><g clip-path="url(#eK)"><path d="m288.039062 363.460938h.535157v-5.636719h-.535157zm0 0" fill="#4c72b0"/></g><g clip-path="url(#eL)"><path d="m288.707031 363.460938h.53125v-.242188h-.53125zm0 0" fill="#4c72b0"/></g><g clip-path="url(#eM)"><path d="m289.371094 363.460938h.53125v-.503907h-.53125zm0 0" fill="#4c72b0"/></g><g clip-path="url(#eN)"><path d="m290.035156 363.460938h.535156v-2.542969h-.535156zm0 0" fill="#4c72b0"/></g><g clip-path="url(#eO)"><path d="m290.703125 363.460938h.53125v-3.519532h-.53125zm0 0" fill="#4c72b0"/></g><g clip-path="url(#eP)"><path d="m291.367188 363.460938h.535156v-3.402344h-.535156zm0 0" fill="#4c72b0"/></g><g clip-path="url(#eQ)"><path d="m292.035156 363.460938h.53125v-.027344h-.53125zm0 0" fill="#4c72b0"/></g><g clip-path="url(#eR)"><path d="m292.699219 363.460938h.53125v-.28125h-.53125zm0 0" fill="#4c72b0"/></g><g clip-path="url(#eS)"><path d="m294.03125 363.460938h.53125v-9.4375h-.53125zm0 0" fill="#4c72b0"/></g><g clip-path="url(#eT)"><path d="m294.695312 363.460938h.535157v-2.71875h-.535157zm0 0" fill="#4c72b0"/></g><g clip-path="url(#eU)"><path d="m295.363281 363.460938h.53125v-.085938h-.53125zm0 0" fill="#4c72b0"/></g><g clip-path="url(#eV)"><path d="m296.027344 363.460938h.535156v-3.59375h-.535156zm0 0" fill="#4c72b0"/></g><g clip-path="url(#eW)"><path d="m296.695312 363.460938h.53125v-.050782h-.53125zm0 0" fill="#4c72b0"/></g><g clip-path="url(#eX)"><path d="m297.359375 363.460938h.53125v-9.996094h-.53125zm0 0" fill="#4c72b0"/></g><g clip-path="url(#eY)"><path d="m298.023438 363.460938h.535156v-.011719h-.535156zm0 0" fill="#4c72b0"/></g><g clip-path="url(#eZ)"><path d="m298.691406 363.460938h.53125v-9.207032h-.53125zm0 0" fill="#4c72b0"/></g><g clip-path="url(#e0)"><path d="m299.355469 363.460938h.535156v-.039063h-.535156zm0 0" fill="#4c72b0"/></g><g clip-path="url(#e1)"><path d="m300.023438 363.460938h.53125v-1.425782h-.53125zm0 0" fill="#4c72b0"/></g><g clip-path="url(#e2)"><path d="m300.6875 363.460938h.53125v-.066407h-.53125zm0 0" fill="#4c72b0"/></g><g clip-path="url(#e3)"><path d="m302.019531 363.460938h.53125v-.539063h-.53125zm0 0" fill="#4c72b0"/></g><g clip-path="url(#e4)"><path d="m302.683594 363.460938h.535156v-.003907h-.535156zm0 0" fill="#4c72b0"/></g><g clip-path="url(#e5)"><path d="m304.015625 363.460938h.535156v-.007813h-.535156zm0 0" fill="#4c72b0"/></g><g clip-path="url(#e6)"><path d="m304.683594 363.460938h.53125v-.945313h-.53125zm0 0" fill="#4c72b0"/></g><g clip-path="url(#e7)"><path d="m305.347656 363.460938h.53125v-.109376h-.53125zm0 0" fill="#4c72b0"/></g><g clip-path="url(#e8)"><path d="m306.679688 363.460938h.53125v-.238282h-.53125zm0 0" fill="#4c72b0"/></g><g clip-path="url(#e9)"><path d="m307.34375 363.460938h.535156v-5.136719h-.535156zm0 0" fill="#4c72b0"/></g><g clip-path="url(#fa)"><path d="m308.011719 363.460938h.53125v-9.660157h-.53125zm0 0" fill="#4c72b0"/></g><g clip-path="url(#fb)"><path d="m308.675781 363.460938h.53125v-.015626h-.53125zm0 0" fill="#4c72b0"/></g><g clip-path="url(#fc)"><path d="m309.34375 363.460938h.53125v-4.46875h-.53125zm0 0" fill="#4c72b0"/></g><g clip-path="url(#fd)"><path d="m310.007812 363.460938h.53125v-.390626h-.53125zm0 0" fill="#4c72b0"/></g><g clip-path="url(#fe)"><path d="m310.671875 363.460938h.535156v-.015626h-.535156zm0 0" fill="#4c72b0"/></g><g clip-path="url(#ff)"><path d="m311.339844 363.460938h.53125v-.925782h-.53125zm0 0" fill="#4c72b0"/></g><g clip-path="url(#fg)"><path d="m312.003906 363.460938h.535156v-.003907h-.535156zm0 0" fill="#4c72b0"/></g><g clip-path="url(#fh)"><path d="m312.671875 363.460938h.53125v-1.402344h-.53125zm0 0" fill="#4c72b0"/></g><g clip-path="url(#fi)"><path d="m313.335938 363.460938h.53125v-.082032h-.53125zm0 0" fill="#4c72b0"/></g><g clip-path="url(#fj)"><path d="m314 363.460938h.535156v-.207032h-.535156zm0 0" fill="#4c72b0"/></g><g clip-path="url(#fk)"><path d="m314.667969 363.460938h.53125v-.089844h-.53125zm0 0" fill="#4c72b0"/></g><g clip-path="url(#fl)"><path d="m315.332031 363.460938h.535157v-.015626h-.535157zm0 0" fill="#4c72b0"/></g><g clip-path="url(#fm)"><path d="m316 363.460938h.53125v-.027344h-.53125zm0 0" fill="#4c72b0"/></g><g clip-path="url(#fn)"><path d="m316.664062 363.460938h.53125v-.007813h-.53125zm0 0" fill="#4c72b0"/></g><g clip-path="url(#fo)"><path d="m317.328125 363.460938h.535156v-.480469h-.535156zm0 0" fill="#4c72b0"/></g><g clip-path="url(#fp)"><path d="m317.996094 363.460938h.53125v-1.230469h-.53125zm0 0" fill="#4c72b0"/></g><g clip-path="url(#fq)"><path d="m318.660156 363.460938h.535156v-.476563h-.535156zm0 0" fill="#4c72b0"/></g><g clip-path="url(#fr)"><path d="m320.660156 363.460938h.53125v-.578126h-.53125zm0 0" fill="#4c72b0"/></g><g clip-path="url(#fs)"><path d="m321.324219 363.460938h.53125v-.019532h-.53125zm0 0" fill="#4c72b0"/></g><g clip-path="url(#ft)"><path d="m321.988281 363.460938h.535157v-.007813h-.535157zm0 0" fill="#4c72b0"/></g><g clip-path="url(#fu)"><path d="m322.65625 363.460938h.53125v-.015626h-.53125zm0 0" fill="#4c72b0"/></g><g clip-path="url(#fv)"><path d="m323.320312 363.460938h.535157v-.164063h-.535157zm0 0" fill="#4c72b0"/></g><g clip-path="url(#fw)"><path d="m324.652344 363.460938h.53125v-.503907h-.53125zm0 0" fill="#4c72b0"/></g><g clip-path="url(#fx)"><path d="m325.316406 363.460938h.535156v-.273438h-.535156zm0 0" fill="#4c72b0"/></g><g clip-path="url(#fy)"><path d="m325.984375 363.460938h.53125v-.726563h-.53125zm0 0" fill="#4c72b0"/></g><g clip-path="url(#fz)"><path d="m326.648438 363.460938h.535156v-.652344h-.535156zm0 0" fill="#4c72b0"/></g><g clip-path="url(#fA)"><path d="m327.316406 363.460938h.53125v-2.195313h-.53125zm0 0" fill="#4c72b0"/></g><g clip-path="url(#fB)"><path d="m327.980469 363.460938h.53125v-.296876h-.53125zm0 0" fill="#4c72b0"/></g><g clip-path="url(#fC)"><path d="m329.3125 363.460938h.53125v-.007813h-.53125zm0 0" fill="#4c72b0"/></g><g clip-path="url(#fD)"><path d="m329.976562 363.460938h.535157v-.109376h-.535157zm0 0" fill="#4c72b0"/></g><g clip-path="url(#fE)"><path d="m330.644531 363.460938h.53125v-.007813h-.53125zm0 0" fill="#4c72b0"/></g><g clip-path="url(#fF)"><path d="m331.308594 363.460938h.535156v-.003907h-.535156zm0 0" fill="#4c72b0"/></g><g clip-path="url(#fG)"><path d="m331.976562 363.460938h.53125v-.015626h-.53125zm0 0" fill="#4c72b0"/></g><g clip-path="url(#fH)"><path d="m332.640625 363.460938h.53125v-.003907h-.53125zm0 0" fill="#4c72b0"/></g><g clip-path="url(#fI)"><path d="m333.972656 363.460938h.53125v-4.050782h-.53125zm0 0" fill="#4c72b0"/></g><g clip-path="url(#fJ)"><path d="m335.304688 363.460938h.53125v-2.164063h-.53125zm0 0" fill="#4c72b0"/></g><g clip-path="url(#fK)"><path d="m335.96875 363.460938h.53125v-.015626h-.53125zm0 0" fill="#4c72b0"/></g><g clip-path="url(#fL)"><path d="m336.636719 363.460938h.53125v-.078126h-.53125zm0 0" fill="#4c72b0"/></g><g clip-path="url(#fM)"><path d="m337.300781 363.460938h.53125v-.070313h-.53125zm0 0" fill="#4c72b0"/></g><g clip-path="url(#fN)"><path d="m337.964844 363.460938h.535156v-.757813h-.535156zm0 0" fill="#4c72b0"/></g><g clip-path="url(#fO)"><path d="m338.632812 363.460938h.53125v-.011719h-.53125zm0 0" fill="#4c72b0"/></g><g clip-path="url(#fP)"><path d="m339.296875 363.460938h.535156v-2.273438h-.535156zm0 0" fill="#4c72b0"/></g><g clip-path="url(#fQ)"><path d="m339.964844 363.460938h.53125v-.007813h-.53125zm0 0" fill="#4c72b0"/></g><g clip-path="url(#fR)"><path d="m340.628906 363.460938h.53125v-.089844h-.53125zm0 0" fill="#4c72b0"/></g><g clip-path="url(#fS)"><path d="m341.292969 363.460938h.535156v-.027344h-.535156zm0 0" fill="#4c72b0"/></g><g clip-path="url(#fT)"><path d="m343.292969 363.460938h.53125v-.039063h-.53125zm0 0" fill="#4c72b0"/></g><g clip-path="url(#fU)"><path d="m343.957031 363.460938h.53125v-.117188h-.53125zm0 0" fill="#4c72b0"/></g><g clip-path="url(#fV)"><path d="m344.625 363.460938h.53125v-.007813h-.53125zm0 0" fill="#4c72b0"/></g><g clip-path="url(#fW)"><path d="m345.289062 363.460938h.53125v-.375h-.53125zm0 0" fill="#4c72b0"/></g><g clip-path="url(#fX)"><path d="m345.953125 363.460938h.535156v-2.007813h-.535156zm0 0" fill="#4c72b0"/></g><g clip-path="url(#fY)"><path d="m346.621094 363.460938h.53125v-.09375h-.53125zm0 0" fill="#4c72b0"/></g><g clip-path="url(#fZ)"><path d="m347.953125 363.460938h.53125v-2.46875h-.53125zm0 0" fill="#4c72b0"/></g><g clip-path="url(#f0)"><path d="m348.617188 363.460938h.53125v-.035157h-.53125zm0 0" fill="#4c72b0"/></g><g clip-path="url(#f1)"><path d="m349.28125 363.460938h.535156v-.027344h-.535156zm0 0" fill="#4c72b0"/></g><g clip-path="url(#f2)"><path d="m349.949219 363.460938h.53125v-.027344h-.53125zm0 0" fill="#4c72b0"/></g><g clip-path="url(#f3)"><path d="m350.613281 363.460938h.535157v-.269532h-.535157zm0 0" fill="#4c72b0"/></g><g clip-path="url(#f4)"><path d="m351.28125 363.460938h.53125v-.210938h-.53125zm0 0" fill="#4c72b0"/></g><g clip-path="url(#f5)"><path d="m351.945312 363.460938h.53125v-.011719h-.53125zm0 0" fill="#4c72b0"/></g><g clip-path="url(#f6)"><path d="m352.613281 363.460938h.53125v-.0625h-.53125zm0 0" fill="#4c72b0"/></g><g clip-path="url(#f7)"><path d="m353.941406 363.460938h.535156v-.003907h-.535156zm0 0" fill="#4c72b0"/></g><g clip-path="url(#f8)"><path d="m355.273438 363.460938h.53125v-.007813h-.53125zm0 0" fill="#4c72b0"/></g><g clip-path="url(#f9)"><path d="m355.941406 363.460938h.53125v-.125h-.53125zm0 0" fill="#4c72b0"/></g><g clip-path="url(#ga)"><path d="m357.269531 363.460938h.535157v-.226563h-.535157zm0 0" fill="#4c72b0"/></g><g clip-path="url(#gb)"><path d="m357.9375 363.460938h.53125v-.050782h-.53125zm0 0" fill="#4c72b0"/></g><g clip-path="url(#gc)"><path d="m359.269531 363.460938h.53125v-.003907h-.53125zm0 0" fill="#4c72b0"/></g><g clip-path="url(#gd)"><path d="m359.933594 363.460938h.53125v-.050782h-.53125zm0 0" fill="#4c72b0"/></g><g clip-path="url(#ge)"><path d="m360.597656 363.460938h.535156v-1.359376h-.535156zm0 0" fill="#4c72b0"/></g><g clip-path="url(#gf)"><path d="m362.597656 363.460938h.53125v-.011719h-.53125zm0 0" fill="#4c72b0"/></g><g clip-path="url(#gg)"><path d="m363.261719 363.460938h.53125v-.035157h-.53125zm0 0" fill="#4c72b0"/></g><g clip-path="url(#gh)"><path d="m364.59375 363.460938h.53125v-.011719h-.53125zm0 0" fill="#4c72b0"/></g><g clip-path="url(#gi)"><path d="m365.257812 363.460938h.535157v-.015626h-.535157zm0 0" fill="#4c72b0"/></g><g clip-path="url(#gj)"><path d="m365.925781 363.460938h.53125v-.273438h-.53125zm0 0" fill="#4c72b0"/></g><g clip-path="url(#gk)"><path d="m367.257812 363.460938h.53125v-1.125h-.53125zm0 0" fill="#4c72b0"/></g><g clip-path="url(#gl)"><path d="m368.585938 363.460938h.535156v-.003907h-.535156zm0 0" fill="#4c72b0"/></g><g clip-path="url(#gm)"><path d="m370.585938 363.460938h.53125v-.003907h-.53125zm0 0" fill="#4c72b0"/></g><g clip-path="url(#gn)"><path d="m371.25 363.460938h.53125v-.257813h-.53125zm0 0" fill="#4c72b0"/></g><g clip-path="url(#go)"><path d="m371.917969 363.460938h.53125v-.003907h-.53125zm0 0" fill="#4c72b0"/></g><g clip-path="url(#gp)"><path d="m372.582031 363.460938h.53125v-.082032h-.53125zm0 0" fill="#4c72b0"/></g><g clip-path="url(#gq)"><path d="m376.574219 363.460938h.535156v-.023438h-.535156zm0 0" fill="#4c72b0"/></g><g clip-path="url(#gr)"><path d="m377.242188 363.460938h.53125v-.101563h-.53125zm0 0" fill="#4c72b0"/></g><g clip-path="url(#gs)"><path d="m377.90625 363.460938h.535156v-.757813h-.535156zm0 0" fill="#4c72b0"/></g><g clip-path="url(#gt)"><path d="m379.90625 363.460938h.53125v-.003907h-.53125zm0 0" fill="#4c72b0"/></g><g clip-path="url(#gu)"><path d="m381.234375 363.460938h.535156v-.003907h-.535156zm0 0" fill="#4c72b0"/></g><g clip-path="url(#gv)"><path d="m383.234375 363.460938h.53125v-.007813h-.53125zm0 0" fill="#4c72b0"/></g><g clip-path="url(#gw)"><path d="m386.5625 363.460938h.53125v-.007813h-.53125zm0 0" fill="#4c72b0"/></g><g clip-path="url(#gx)"><path d="m387.894531 363.460938h.53125v-.015626h-.53125zm0 0" fill="#4c72b0"/></g><g clip-path="url(#gy)"><path d="m395.878906 363.460938h.535156v-.003907h-.535156zm0 0" fill="#4c72b0"/></g><g clip-path="url(#gz)"><path d="m400.539062 363.460938h.535157v-.015626h-.535157zm0 0" fill="#4c72b0"/></g><g fill="none" stroke="#fff" stroke-linecap="square" stroke-miterlimit="10" stroke-width="1.25" transform="matrix(1 0 0 -1 0 396)"><path d="m53.058594 32.539062v331.78125"/><path d="m419.039062 32.539062v331.78125"/><path d="m53.058594 32.539062h365.980468"/><path d="m53.058594 364.320312h365.980468"/></g></svg>