<svg height="396pt" viewBox="0 0 432 396" width="432pt" xmlns="http://www.w3.org/2000/svg"><path d="m0 0h432v396h-432z" fill="#fff"/><path d="m12.960938 383.039062h406.078124v-351.359374h-406.078124zm0 0" fill="#fff"/><g fill="none" stroke-linecap="square" stroke-miterlimit="10" transform="matrix(1 0 0 -1 0 396)"><path d="m29.804688 236.320312v-69.820312h46.222656" stroke="#a9a9a9" stroke-linejoin="round"/><path d="m76.027344 166.5v-23.417969h17.011718" stroke="#a9a9a9" stroke-linejoin="round"/><path d="m93.039062 143.082031v-34.785156h24.613282" stroke="#a9a9a9" stroke-linejoin="round"/><path d="m117.652344 108.296875v27.3125h17.421875" stroke="#a9a9a9" stroke-linejoin="round"/><path d="m135.074219 135.609375v5.449219h147.738281" stroke="#a9a9a9" stroke-linejoin="round"/><path d="m282.8125 141.058594v3.617187h36.476562" stroke="#a9a9a9" stroke-linejoin="round"/><path d="m319.289062 144.675781v1.4375h88.761719" stroke="#a9a9a9" stroke-linejoin="round"/><path d="m408.050781 146.113281v.347657h6.269531" stroke="#a9a9a9" stroke-linejoin="round"/><path d="m408.050781 146.113281v-.347656h6.269531" stroke="#a9a9a9" stroke-linejoin="round"/><path d="m319.289062 144.675781v-1.4375h70.25" stroke="#a9a9a9" stroke-linejoin="round"/><path d="m389.539062 143.238281v1.308594h15.917969" stroke="#a9a9a9" stroke-linejoin="round"/><path d="m405.457031 144.546875v-.523437h5.699219" stroke="#a9a9a9" stroke-linejoin="round"/><path d="m411.15625 144.023438v.347656h3.164062" stroke="#a9a9a9" stroke-linejoin="round"/><path d="m411.15625 144.023438v-.347657h3.164062" stroke="#a9a9a9" stroke-linejoin="round"/><path d="m405.457031 144.546875v.523437h8.863281" stroke="#a9a9a9" stroke-linejoin="round"/><path d="m389.539062 143.238281v-1.308593h12.089844" stroke="#a9a9a9" stroke-linejoin="round"/><path d="m401.628906 141.929688v.699218h2.433594" stroke="#a9a9a9" stroke-linejoin="round"/><path d="m404.0625 142.628906v.347656h10.257812" stroke="#a9a9a9" stroke-linejoin="round"/><path d="m404.0625 142.628906v-.347656h10.257812" stroke="#a9a9a9" stroke-linejoin="round"/><path d="m401.628906 141.929688v-.695313h1.835938" stroke="#a9a9a9" stroke-linejoin="round"/><path d="m403.464844 141.234375v.347656h10.855468" stroke="#a9a9a9" stroke-linejoin="round"/><path d="m403.464844 141.234375v-.347656h10.855468" stroke="#a9a9a9" stroke-linejoin="round"/><path d="m282.8125 141.058594v-3.613282h41.207031" stroke="#a9a9a9" stroke-linejoin="round"/><path d="m324.019531 137.445312v1.699219h38.175781" stroke="#a9a9a9" stroke-linejoin="round"/><path d="m362.195312 139.144531v.695313h51.632813" stroke="#a9a9a9" stroke-linejoin="round"/><path d="m413.828125 139.839844v.347656h.492187" stroke="#a9a9a9" stroke-linejoin="round"/><path d="m413.828125 139.839844v-.347656h.492187" stroke="#a9a9a9" stroke-linejoin="round"/><path d="m362.195312 139.144531v-.699219h9.601563" stroke="#a9a9a9" stroke-linejoin="round"/><path d="m371.796875 138.445312v.347657h42.523437" stroke="#a9a9a9" stroke-linejoin="round"/><path d="m371.796875 138.445312v-.347656h42.523437" stroke="#a9a9a9" stroke-linejoin="round"/><path d="m324.019531 137.445312v-1.699218h40.886719" stroke="#a9a9a9" stroke-linejoin="round"/><path d="m364.90625 135.746094v-1.308594h6.757812" stroke="#a9a9a9" stroke-linejoin="round"/><path d="m371.664062 134.4375v-1.046875h31.535157" stroke="#a9a9a9" stroke-linejoin="round"/><path d="m403.199219 133.390625v.523437h11.121093" stroke="#a9a9a9" stroke-linejoin="round"/><path d="m403.199219 133.390625v-.523437h4.644531" stroke="#a9a9a9" stroke-linejoin="round"/><path d="m407.84375 132.867188v.351562h6.476562" stroke="#a9a9a9" stroke-linejoin="round"/><path d="m407.84375 132.867188v-.347657h6.476562" stroke="#a9a9a9" stroke-linejoin="round"/><path d="m371.664062 134.4375v1.046875h39.058594" stroke="#a9a9a9" stroke-linejoin="round"/><path d="m410.722656 135.484375v-.523437h.65625" stroke="#a9a9a9" stroke-linejoin="round"/><path d="m411.378906 134.960938v.347656h2.941406" stroke="#a9a9a9" stroke-linejoin="round"/><path d="m411.378906 134.960938v-.347657h2.941406" stroke="#a9a9a9" stroke-linejoin="round"/><path d="m410.722656 135.484375v.519531h3.597656" stroke="#a9a9a9" stroke-linejoin="round"/><path d="m364.90625 135.746094v1.304687h2.964844" stroke="#a9a9a9" stroke-linejoin="round"/><path d="m367.871094 137.050781v.347657h46.449218" stroke="#a9a9a9" stroke-linejoin="round"/><path d="m367.871094 137.050781v-.347656h46.449218" stroke="#a9a9a9" stroke-linejoin="round"/><path d="m135.074219 135.609375v-5.453125h89.570312" stroke="#a9a9a9" stroke-linejoin="round"/><path d="m224.644531 130.15625v-1.667969h13.363281" stroke="#a9a9a9" stroke-linejoin="round"/><path d="m238.007812 128.488281v-2.640625h23.609376" stroke="#a9a9a9" stroke-linejoin="round"/><path d="m261.617188 125.847656v3.710938h28.296874" stroke="#a9a9a9" stroke-linejoin="round"/><path d="m289.914062 129.558594v.871094h124.40625" stroke="#a9a9a9" stroke-linejoin="round"/><path d="m289.914062 129.558594v-.871094h50.789063" stroke="#a9a9a9" stroke-linejoin="round"/><path d="m340.703125 128.6875v.695312h62.953125" stroke="#a9a9a9" stroke-linejoin="round"/><path d="m403.65625 129.382812v.347657h10.664062" stroke="#a9a9a9" stroke-linejoin="round"/><path d="m403.65625 129.382812v-.347656h10.664062" stroke="#a9a9a9" stroke-linejoin="round"/><path d="m340.703125 128.6875v-.699219h50.214844" stroke="#a9a9a9" stroke-linejoin="round"/><path d="m390.917969 127.988281v.347657h23.402343" stroke="#a9a9a9" stroke-linejoin="round"/><path d="m390.917969 127.988281v-.347656h23.402343" stroke="#a9a9a9" stroke-linejoin="round"/><path d="m261.617188 125.847656v-3.707031h32.597656" stroke="#a9a9a9" stroke-linejoin="round"/><path d="m294.214844 122.140625v-2.976563h45.191406" stroke="#a9a9a9" stroke-linejoin="round"/><path d="m339.40625 119.164062v-1.761718h18.363281" stroke="#a9a9a9" stroke-linejoin="round"/><path d="m357.769531 117.402344v.828125h49.144531" stroke="#a9a9a9" stroke-linejoin="round"/><path d="m406.914062 118.230469v.347656h7.40625" stroke="#a9a9a9" stroke-linejoin="round"/><path d="m406.914062 118.230469v-.351563h7.40625" stroke="#a9a9a9" stroke-linejoin="round"/><path d="m357.769531 117.402344v-.828125h5.683594" stroke="#a9a9a9" stroke-linejoin="round"/><path d="m363.453125 116.574219v-.613281h21.515625" stroke="#a9a9a9" stroke-linejoin="round"/><path d="m384.96875 115.960938v-.519532h17.6875" stroke="#a9a9a9" stroke-linejoin="round"/><path d="m402.65625 115.441406v.347656h11.664062" stroke="#a9a9a9" stroke-linejoin="round"/><path d="m402.65625 115.441406v-.351562h11.664062" stroke="#a9a9a9" stroke-linejoin="round"/><path d="m384.96875 115.960938v.523437h29.351562" stroke="#a9a9a9" stroke-linejoin="round"/><path d="m363.453125 116.574219v.609375h50.867187" stroke="#a9a9a9" stroke-linejoin="round"/><path d="m339.40625 119.164062v1.765626h5.933594" stroke="#a9a9a9" stroke-linejoin="round"/><path d="m345.339844 120.929688v.785156h68" stroke="#a9a9a9" stroke-linejoin="round"/><path d="m413.339844 121.714844v.347656h.980468" stroke="#a9a9a9" stroke-linejoin="round"/><path d="m413.339844 121.714844v-.347656h.980468" stroke="#a9a9a9" stroke-linejoin="round"/><path d="m345.339844 120.929688v-.785157h17.304687" stroke="#a9a9a9" stroke-linejoin="round"/><path d="m362.644531 120.144531v.523438h51.675781" stroke="#a9a9a9" stroke-linejoin="round"/><path d="m362.644531 120.144531v-.523437h8.28125" stroke="#a9a9a9" stroke-linejoin="round"/><path d="m370.925781 119.621094v.351562h43.394531" stroke="#a9a9a9" stroke-linejoin="round"/><path d="m370.925781 119.621094v-.347656h43.394531" stroke="#a9a9a9" stroke-linejoin="round"/><path d="m294.214844 122.140625v2.972656h15.003906" stroke="#a9a9a9" stroke-linejoin="round"/><path d="m309.21875 125.113281v-1.308593h34.609375" stroke="#a9a9a9" stroke-linejoin="round"/><path d="m343.828125 123.804688v-.695313h2.085937" stroke="#a9a9a9" stroke-linejoin="round"/><path d="m345.914062 123.109375v.347656h68.40625" stroke="#a9a9a9" stroke-linejoin="round"/><path d="m345.914062 123.109375v-.347656h68.40625" stroke="#a9a9a9" stroke-linejoin="round"/><path d="m343.828125 123.804688v.699218h55.46875" stroke="#a9a9a9" stroke-linejoin="round"/><path d="m399.296875 124.503906v.347656h15.023437" stroke="#a9a9a9" stroke-linejoin="round"/><path d="m399.296875 124.503906v-.351562h15.023437" stroke="#a9a9a9" stroke-linejoin="round"/><path d="m309.21875 125.113281v1.308594h86.722656" stroke="#a9a9a9" stroke-linejoin="round"/><path d="m395.941406 126.421875v-.523437h17.410156" stroke="#a9a9a9" stroke-linejoin="round"/><path d="m413.351562 125.898438v.347656h.96875" stroke="#a9a9a9" stroke-linejoin="round"/><path d="m413.351562 125.898438v-.351563h.96875" stroke="#a9a9a9" stroke-linejoin="round"/><path d="m395.941406 126.421875v.519531h18.378906" stroke="#a9a9a9" stroke-linejoin="round"/><path d="m238.007812 128.488281v2.636719h176.3125" stroke="#a9a9a9" stroke-linejoin="round"/><path d="m224.644531 130.15625v1.667969h189.675781" stroke="#a9a9a9" stroke-linejoin="round"/><path d="m117.652344 108.296875v-27.308594h21.128906" stroke="#a9a9a9" stroke-linejoin="round"/><path d="m138.78125 80.988281v24.375h96.546875" stroke="#a9a9a9" stroke-linejoin="round"/><path d="m235.328125 105.363281v7.492188h63.339844" stroke="#a9a9a9" stroke-linejoin="round"/><path d="m298.667969 112.855469v1.191406h103.5625" stroke="#a9a9a9" stroke-linejoin="round"/><path d="m402.230469 114.046875v.347656h12.089843" stroke="#a9a9a9" stroke-linejoin="round"/><path d="m402.230469 114.046875v-.351563h12.089843" stroke="#a9a9a9" stroke-linejoin="round"/><path d="m298.667969 112.855469v-1.1875h8.042969" stroke="#a9a9a9" stroke-linejoin="round"/><path d="m306.710938 111.667969v-.984375h18.269531" stroke="#a9a9a9" stroke-linejoin="round"/><path d="m324.980469 110.683594v.921875h89.339843" stroke="#a9a9a9" stroke-linejoin="round"/><path d="m324.980469 110.683594v-.917969h33.683593" stroke="#a9a9a9" stroke-linejoin="round"/><path d="m358.664062 109.765625v1.144531h55.65625" stroke="#a9a9a9" stroke-linejoin="round"/><path d="m358.664062 109.765625v-1.144531h9.269532" stroke="#a9a9a9" stroke-linejoin="round"/><path d="m367.933594 108.621094v1.589844h46.386718" stroke="#a9a9a9" stroke-linejoin="round"/><path d="m367.933594 108.621094v-1.589844h10.257812" stroke="#a9a9a9" stroke-linejoin="round"/><path d="m378.191406 107.03125v-1.4375h16.246094" stroke="#a9a9a9" stroke-linejoin="round"/><path d="m394.4375 105.59375v-.785156h3.074219" stroke="#a9a9a9" stroke-linejoin="round"/><path d="m397.511719 104.808594v.523437h16.808593" stroke="#a9a9a9" stroke-linejoin="round"/><path d="m397.511719 104.808594v-.523438h8.976562" stroke="#a9a9a9" stroke-linejoin="round"/><path d="m406.488281 104.285156v.347656h7.832031" stroke="#a9a9a9" stroke-linejoin="round"/><path d="m406.488281 104.285156v-.347656h7.832031" stroke="#a9a9a9" stroke-linejoin="round"/><path d="m394.4375 105.59375v.785156h17.460938" stroke="#a9a9a9" stroke-linejoin="round"/><path d="m411.898438 106.378906v.347656h2.421874" stroke="#a9a9a9" stroke-linejoin="round"/><path d="m411.898438 106.378906v-.351562h2.421874" stroke="#a9a9a9" stroke-linejoin="round"/><path d="m378.191406 107.03125v1.4375h5.800782" stroke="#a9a9a9" stroke-linejoin="round"/><path d="m383.992188 108.46875v-.699219h8.726562" stroke="#a9a9a9" stroke-linejoin="round"/><path d="m392.71875 107.769531v.351563h21.601562" stroke="#a9a9a9" stroke-linejoin="round"/><path d="m392.71875 107.769531v-.347656h21.601562" stroke="#a9a9a9" stroke-linejoin="round"/><path d="m383.992188 108.46875v.695312h9.867187" stroke="#a9a9a9" stroke-linejoin="round"/><path d="m393.859375 109.164062v.351563h20.460937" stroke="#a9a9a9" stroke-linejoin="round"/><path d="m393.859375 109.164062v-.347656h20.460937" stroke="#a9a9a9" stroke-linejoin="round"/><path d="m306.710938 111.667969v.984375h57.730468" stroke="#a9a9a9" stroke-linejoin="round"/><path d="m364.441406 112.652344v.347656h49.878906" stroke="#a9a9a9" stroke-linejoin="round"/><path d="m364.441406 112.652344v-.347656h49.878906" stroke="#a9a9a9" stroke-linejoin="round"/><path d="m235.328125 105.363281v-7.492187h5.839844" stroke="#a9a9a9" stroke-linejoin="round"/><path d="m241.167969 97.871094v4.433594h9.414062" stroke="#a9a9a9" stroke-linejoin="round"/><path d="m250.582031 102.304688v-.9375h82.300781" stroke="#a9a9a9" stroke-linejoin="round"/><path d="m332.882812 101.367188v-.828126h33.851563" stroke="#a9a9a9" stroke-linejoin="round"/><path d="m366.734375 100.539062v.609376h47.585937" stroke="#a9a9a9" stroke-linejoin="round"/><path d="m366.734375 100.539062v-.609374h45.070313" stroke="#a9a9a9" stroke-linejoin="round"/><path d="m411.804688 99.929688v.523437h2.515624" stroke="#a9a9a9" stroke-linejoin="round"/><path d="m411.804688 99.929688v-.523438h2.410156" stroke="#a9a9a9" stroke-linejoin="round"/><path d="m414.214844 99.40625v.347656h.105468" stroke="#a9a9a9" stroke-linejoin="round"/><path d="m414.214844 99.40625v-.347656h.105468" stroke="#a9a9a9" stroke-linejoin="round"/><path d="m332.882812 101.367188v.828124h77.589844" stroke="#a9a9a9" stroke-linejoin="round"/><path d="m410.472656 102.195312v.347657h3.847656" stroke="#a9a9a9" stroke-linejoin="round"/><path d="m410.472656 102.195312v-.347656h3.847656" stroke="#a9a9a9" stroke-linejoin="round"/><path d="m250.582031 102.304688v.933593h163.738281" stroke="#a9a9a9" stroke-linejoin="round"/><path d="m241.167969 97.871094v-4.4375h18.042969" stroke="#a9a9a9" stroke-linejoin="round"/><path d="m259.210938 93.433594v-3.484375h37.515624" stroke="#a9a9a9" stroke-linejoin="round"/><path d="m296.726562 89.949219v-2.398438h17.046876" stroke="#a9a9a9" stroke-linejoin="round"/><path d="m313.773438 87.550781v1.789063h29.625" stroke="#a9a9a9" stroke-linejoin="round"/><path d="m343.398438 89.339844v-.652344h7.113281" stroke="#a9a9a9" stroke-linejoin="round"/><path d="m350.511719 88.6875v.609375h63.808593" stroke="#a9a9a9" stroke-linejoin="round"/><path d="m350.511719 88.6875v-.609375h3.304687" stroke="#a9a9a9" stroke-linejoin="round"/><path d="m353.816406 88.078125v-.523437h14.445313" stroke="#a9a9a9" stroke-linejoin="round"/><path d="m368.261719 87.554688v.347656h46.058593" stroke="#a9a9a9" stroke-linejoin="round"/><path d="m368.261719 87.554688v-.347657h46.058593" stroke="#a9a9a9" stroke-linejoin="round"/><path d="m353.816406 88.078125v.523437h60.503906" stroke="#a9a9a9" stroke-linejoin="round"/><path d="m343.398438 89.339844v.65625h70.921874" stroke="#a9a9a9" stroke-linejoin="round"/><path d="m313.773438 87.550781v-1.792969h25.515624" stroke="#a9a9a9" stroke-linejoin="round"/><path d="m339.289062 85.757812v.75h75.03125" stroke="#a9a9a9" stroke-linejoin="round"/><path d="m339.289062 85.757812v-.753906h.839844" stroke="#a9a9a9" stroke-linejoin="round"/><path d="m340.128906 85.003906v-.804687h6.769532" stroke="#a9a9a9" stroke-linejoin="round"/><path d="m346.898438 84.199219v.914062h67.421874" stroke="#a9a9a9" stroke-linejoin="round"/><path d="m346.898438 84.199219v-.914063h1.222656" stroke="#a9a9a9" stroke-linejoin="round"/><path d="m348.121094 83.285156v-.785156h8.101562" stroke="#a9a9a9" stroke-linejoin="round"/><path d="m356.222656 82.5v-.523438h11.742188" stroke="#a9a9a9" stroke-linejoin="round"/><path d="m367.964844 81.976562v.347657h46.355468" stroke="#a9a9a9" stroke-linejoin="round"/><path d="m367.964844 81.976562v-.347656h46.355468" stroke="#a9a9a9" stroke-linejoin="round"/><path d="m356.222656 82.5v.523438h58.097656" stroke="#a9a9a9" stroke-linejoin="round"/><path d="m348.121094 83.285156v.785156h27.578125" stroke="#a9a9a9" stroke-linejoin="round"/><path d="m375.699219 84.070312v.347657h38.621093" stroke="#a9a9a9" stroke-linejoin="round"/><path d="m375.699219 84.070312v-.351562h38.621093" stroke="#a9a9a9" stroke-linejoin="round"/><path d="m340.128906 85.003906v.808594h74.191406" stroke="#f00" stroke-linejoin="round"/><path d="m296.726562 89.949219v2.398437h28.988282" stroke="#a9a9a9" stroke-linejoin="round"/><path d="m325.714844 92.347656v-.785156h32.726562" stroke="#a9a9a9" stroke-linejoin="round"/><path d="m358.441406 91.5625v-.523438h46.988282" stroke="#a9a9a9" stroke-linejoin="round"/><path d="m405.429688 91.039062v.347657h8.890624" stroke="#a9a9a9" stroke-linejoin="round"/><path d="m405.429688 91.039062v-.347656h8.890624" stroke="#a9a9a9" stroke-linejoin="round"/><path d="m358.441406 91.5625v.523438h55.878906" stroke="#a9a9a9" stroke-linejoin="round"/><path d="m325.714844 92.347656v.785156h72.199218" stroke="#a9a9a9" stroke-linejoin="round"/><path d="m397.914062 93.132812v.347657h16.40625" stroke="#a9a9a9" stroke-linejoin="round"/><path d="m397.914062 93.132812v-.351562h16.40625" stroke="#a9a9a9" stroke-linejoin="round"/><path d="m259.210938 93.433594v3.488281h77.972656" stroke="#a9a9a9" stroke-linejoin="round"/><path d="m337.183594 96.921875v-1.089844h22.84375" stroke="#a9a9a9" stroke-linejoin="round"/><path d="m360.027344 95.832031v-.785156h25.855468" stroke="#a9a9a9" stroke-linejoin="round"/><path d="m385.882812 95.046875v-.519531h11.898438" stroke="#a9a9a9" stroke-linejoin="round"/><path d="m397.78125 94.527344v.347656h16.539062" stroke="#a9a9a9" stroke-linejoin="round"/><path d="m397.78125 94.527344v-.351563h16.539062" stroke="#a9a9a9" stroke-linejoin="round"/><path d="m385.882812 95.046875v.523437h28.4375" stroke="#a9a9a9" stroke-linejoin="round"/><path d="m360.027344 95.832031v.785157h2.457031" stroke="#a9a9a9" stroke-linejoin="round"/><path d="m362.484375 96.617188v.347656h51.835937" stroke="#a9a9a9" stroke-linejoin="round"/><path d="m362.484375 96.617188v-.347657h51.835937" stroke="#a9a9a9" stroke-linejoin="round"/><path d="m337.183594 96.921875v1.089844h49.402344" stroke="#a9a9a9" stroke-linejoin="round"/><path d="m386.585938 98.011719v.347656h27.734374" stroke="#a9a9a9" stroke-linejoin="round"/><path d="m386.585938 98.011719v-.347657h27.734374" stroke="#a9a9a9" stroke-linejoin="round"/><path d="m138.78125 80.988281v-24.375h3.308594" stroke="#a9a9a9" stroke-linejoin="round"/><path d="m142.089844 56.613281v15.40625h91.195312" stroke="#a9a9a9" stroke-linejoin="round"/><path d="m233.285156 72.019531v6.105469h37.019532" stroke="#a9a9a9" stroke-linejoin="round"/><path d="m270.304688 78.125v1.671875h14.574218" stroke="#a9a9a9" stroke-linejoin="round"/><path d="m284.878906 79.796875v.785156h85.351563" stroke="#a9a9a9" stroke-linejoin="round"/><path d="m370.230469 80.582031v.347657h44.089843" stroke="#a9a9a9" stroke-linejoin="round"/><path d="m370.230469 80.582031v-.347656h44.089843" stroke="#a9a9a9" stroke-linejoin="round"/><path d="m284.878906 79.796875v-.78125h105.867188" stroke="#a9a9a9" stroke-linejoin="round"/><path d="m390.746094 79.015625v-.523437h5.316406" stroke="#a9a9a9" stroke-linejoin="round"/><path d="m396.0625 78.492188v.347656h18.257812" stroke="#a9a9a9" stroke-linejoin="round"/><path d="m396.0625 78.492188v-.347657h18.257812" stroke="#a9a9a9" stroke-linejoin="round"/><path d="m390.746094 79.015625v.523437h23.574218" stroke="#a9a9a9" stroke-linejoin="round"/><path d="m270.304688 78.125v-1.671875h37.066406" stroke="#a9a9a9" stroke-linejoin="round"/><path d="m307.371094 76.453125v-.988281h21.695312" stroke="#a9a9a9" stroke-linejoin="round"/><path d="m329.066406 75.464844v-1.285156h13.953125" stroke="#a9a9a9" stroke-linejoin="round"/><path d="m343.019531 74.179688v-1.351563h17.78125" stroke="#a9a9a9" stroke-linejoin="round"/><path d="m360.800781 72.828125v.785156h46.859375" stroke="#a9a9a9" stroke-linejoin="round"/><path d="m407.660156 73.613281v.347657h6.660156" stroke="#a9a9a9" stroke-linejoin="round"/><path d="m407.660156 73.613281v-.351562h6.660156" stroke="#a9a9a9" stroke-linejoin="round"/><path d="m360.800781 72.828125v-.785156h44.546875" stroke="#a9a9a9" stroke-linejoin="round"/><path d="m405.347656 72.042969v.523437h8.972656" stroke="#a9a9a9" stroke-linejoin="round"/><path d="m405.347656 72.042969v-.523438h3.957032" stroke="#a9a9a9" stroke-linejoin="round"/><path d="m409.304688 71.519531v.347657h5.015624" stroke="#a9a9a9" stroke-linejoin="round"/><path d="m409.304688 71.519531v-.347656h5.015624" stroke="#a9a9a9" stroke-linejoin="round"/><path d="m343.019531 74.179688v1.347656h14.074219" stroke="#a9a9a9" stroke-linejoin="round"/><path d="m357.09375 75.527344v-.523438h42.164062" stroke="#a9a9a9" stroke-linejoin="round"/><path d="m399.257812 75.003906v.351563h15.0625" stroke="#a9a9a9" stroke-linejoin="round"/><path d="m399.257812 75.003906v-.347656h15.0625" stroke="#a9a9a9" stroke-linejoin="round"/><path d="m357.09375 75.527344v.523437h57.226562" stroke="#a9a9a9" stroke-linejoin="round"/><path d="m329.066406 75.464844v1.285156h85.253906" stroke="#a9a9a9" stroke-linejoin="round"/><path d="m307.371094 76.453125v.992187h106.949218" stroke="#a9a9a9" stroke-linejoin="round"/><path d="m233.285156 72.019531v-6.105469h94.222656" stroke="#a9a9a9" stroke-linejoin="round"/><path d="m327.507812 65.914062v-2.945312h5.546876" stroke="#a9a9a9" stroke-linejoin="round"/><path d="m333.054688 62.96875v-2.101562h7.316406" stroke="#a9a9a9" stroke-linejoin="round"/><path d="m340.371094 60.867188v-1.984376h.800781" stroke="#a9a9a9" stroke-linejoin="round"/><path d="m341.171875 58.882812v.785157h23.699219" stroke="#a9a9a9" stroke-linejoin="round"/><path d="m364.871094 59.667969v.347656h49.449218" stroke="#a9a9a9" stroke-linejoin="round"/><path d="m364.871094 59.667969v-.347657h49.449218" stroke="#a9a9a9" stroke-linejoin="round"/><path d="m341.171875 58.882812v-.78125h34.621094" stroke="#a9a9a9" stroke-linejoin="round"/><path d="m375.792969 58.101562v.519532h38.527343" stroke="#a9a9a9" stroke-linejoin="round"/><path d="m375.792969 58.101562v-.523437h38.113281" stroke="#a9a9a9" stroke-linejoin="round"/><path d="m413.90625 57.578125v.347656h.414062" stroke="#a9a9a9" stroke-linejoin="round"/><path d="m413.90625 57.578125v-.347656h.414062" stroke="#a9a9a9" stroke-linejoin="round"/><path d="m340.371094 60.867188v1.980468h35.253906" stroke="#a9a9a9" stroke-linejoin="round"/><path d="m375.625 62.847656v-.652344h1.421875" stroke="#a9a9a9" stroke-linejoin="round"/><path d="m377.046875 62.195312v.609376h37.273437" stroke="#a9a9a9" stroke-linejoin="round"/><path d="m377.046875 62.195312v-.609374h19.191406" stroke="#a9a9a9" stroke-linejoin="round"/><path d="m396.238281 61.585938v.523437h18.082031" stroke="#a9a9a9" stroke-linejoin="round"/><path d="m396.238281 61.585938v-.523438h13.730469" stroke="#a9a9a9" stroke-linejoin="round"/><path d="m409.96875 61.0625v.347656h4.351562" stroke="#a9a9a9" stroke-linejoin="round"/><path d="m409.96875 61.0625v-.347656h4.351562" stroke="#a9a9a9" stroke-linejoin="round"/><path d="m375.625 62.847656v.65625h38.695312" stroke="#a9a9a9" stroke-linejoin="round"/><path d="m333.054688 62.96875v2.101562h32.050781" stroke="#a9a9a9" stroke-linejoin="round"/><path d="m365.105469 65.070312v.523438h49.214843" stroke="#a9a9a9" stroke-linejoin="round"/><path d="m365.105469 65.070312v-.523437h18.539062" stroke="#a9a9a9" stroke-linejoin="round"/><path d="m383.644531 64.546875v.351563h30.675781" stroke="#a9a9a9" stroke-linejoin="round"/><path d="m383.644531 64.546875v-.347656h30.675781" stroke="#a9a9a9" stroke-linejoin="round"/><path d="m327.507812 65.914062v2.949219h46.921876" stroke="#a9a9a9" stroke-linejoin="round"/><path d="m374.429688 68.863281v1.089844h5.425781" stroke="#a9a9a9" stroke-linejoin="round"/><path d="m379.855469 69.953125v-.523437h4.652343" stroke="#a9a9a9" stroke-linejoin="round"/><path d="m384.507812 69.429688v.347656h29.8125" stroke="#a9a9a9" stroke-linejoin="round"/><path d="m384.507812 69.429688v-.351563h29.8125" stroke="#a9a9a9" stroke-linejoin="round"/><path d="m379.855469 69.953125v.519531h34.464843" stroke="#a9a9a9" stroke-linejoin="round"/><path d="m374.429688 68.863281v-1.089843h3.921874" stroke="#a9a9a9" stroke-linejoin="round"/><path d="m378.351562 67.773438v-.609376h1.332032" stroke="#a9a9a9" stroke-linejoin="round"/><path d="m379.683594 67.164062v.523438h34.636718" stroke="#a9a9a9" stroke-linejoin="round"/><path d="m379.683594 67.164062v-.523437h1.90625" stroke="#a9a9a9" stroke-linejoin="round"/><path d="m381.589844 66.640625v.347656h32.730468" stroke="#a9a9a9" stroke-linejoin="round"/><path d="m381.589844 66.640625v-.347656h32.730468" stroke="#a9a9a9" stroke-linejoin="round"/><path d="m378.351562 67.773438v.609374h35.96875" stroke="#a9a9a9" stroke-linejoin="round"/><path d="m142.089844 56.613281v-15.40625h15.050781" stroke="#a9a9a9" stroke-linejoin="round"/><path d="m157.140625 41.207031v12.417969h53.660156" stroke="#a9a9a9" stroke-linejoin="round"/><path d="m210.800781 53.625v-1.777344h56.910157" stroke="#a9a9a9" stroke-linejoin="round"/><path d="m267.710938 51.847656v1.199219h146.609374" stroke="#a9a9a9" stroke-linejoin="round"/><path d="m267.710938 51.847656v-1.195312h84.84375" stroke="#a9a9a9" stroke-linejoin="round"/><path d="m352.554688 50.652344v-1.347656h1.363281" stroke="#a9a9a9" stroke-linejoin="round"/><path d="m353.917969 49.304688v1.648437h60.402343" stroke="#a9a9a9" stroke-linejoin="round"/><path d="m353.917969 49.304688v-1.648438h.007812" stroke="#a9a9a9" stroke-linejoin="round"/><path d="m353.925781 47.65625v-2.25h4.691407" stroke="#a9a9a9" stroke-linejoin="round"/><path d="m358.617188 45.40625v-2.785156h6.402343" stroke="#a9a9a9" stroke-linejoin="round"/><path d="m365.019531 42.621094v1.710937h24.453125" stroke="#a9a9a9" stroke-linejoin="round"/><path d="m389.472656 44.332031v.347657h24.847656" stroke="#a9a9a9" stroke-linejoin="round"/><path d="m389.472656 44.332031v-.347656h24.847656" stroke="#a9a9a9" stroke-linejoin="round"/><path d="m365.019531 42.621094v-1.710938h11.214844" stroke="#a9a9a9" stroke-linejoin="round"/><path d="m376.234375 40.910156v-1.328125h3.328125" stroke="#a9a9a9" stroke-linejoin="round"/><path d="m379.5625 39.582031v-.914062h8.933594" stroke="#a9a9a9" stroke-linejoin="round"/><path d="m388.496094 38.667969v.785156h.394531" stroke="#a9a9a9" stroke-linejoin="round"/><path d="m388.890625 39.453125v.347656h25.429687" stroke="#a9a9a9" stroke-linejoin="round"/><path d="m388.890625 39.453125v-.351563h25.429687" stroke="#a9a9a9" stroke-linejoin="round"/><path d="m388.496094 38.667969v-.785157h24.457031" stroke="#a9a9a9" stroke-linejoin="round"/><path d="m412.953125 37.882812v-.523437h.542969" stroke="#a9a9a9" stroke-linejoin="round"/><path d="m413.496094 37.359375v.347656h.824218" stroke="#a9a9a9" stroke-linejoin="round"/><path d="m413.496094 37.359375v-.347656h.824218" stroke="#a9a9a9" stroke-linejoin="round"/><path d="m412.953125 37.882812v.523438h1.367187" stroke="#a9a9a9" stroke-linejoin="round"/><path d="m379.5625 39.582031v.914063h34.757812" stroke="#a9a9a9" stroke-linejoin="round"/><path d="m376.234375 40.910156v1.328125h8.566406" stroke="#a9a9a9" stroke-linejoin="round"/><path d="m384.800781 42.238281v-.695312h7.585938" stroke="#a9a9a9" stroke-linejoin="round"/><path d="m392.386719 41.542969v.347656h21.933593" stroke="#a9a9a9" stroke-linejoin="round"/><path d="m392.386719 41.542969v-.347657h21.933593" stroke="#a9a9a9" stroke-linejoin="round"/><path d="m384.800781 42.238281v.699219h9.109375" stroke="#a9a9a9" stroke-linejoin="round"/><path d="m393.910156 42.9375v.347656h20.410156" stroke="#a9a9a9" stroke-linejoin="round"/><path d="m393.910156 42.9375v-.347656h20.410156" stroke="#a9a9a9" stroke-linejoin="round"/><path d="m358.617188 45.40625v2.78125h20.71875" stroke="#a9a9a9" stroke-linejoin="round"/><path d="m379.335938 48.1875v.675781h34.984374" stroke="#a9a9a9" stroke-linejoin="round"/><path d="m379.335938 48.1875v-.675781h12.828124" stroke="#a9a9a9" stroke-linejoin="round"/><path d="m392.164062 47.511719v-.652344h3.269532" stroke="#a9a9a9" stroke-linejoin="round"/><path d="m395.433594 46.859375v.609375h18.886718" stroke="#a9a9a9" stroke-linejoin="round"/><path d="m395.433594 46.859375v-.609375h1.0625" stroke="#a9a9a9" stroke-linejoin="round"/><path d="m396.496094 46.25v.519531h17.824218" stroke="#a9a9a9" stroke-linejoin="round"/><path d="m396.496094 46.25v-.523438h10.113281" stroke="#a9a9a9" stroke-linejoin="round"/><path d="m406.609375 45.726562v.347657h7.710937" stroke="#a9a9a9" stroke-linejoin="round"/><path d="m406.609375 45.726562v-.347656h7.710937" stroke="#a9a9a9" stroke-linejoin="round"/><path d="m392.164062 47.511719v.652343h22.15625" stroke="#a9a9a9" stroke-linejoin="round"/><path d="m353.925781 47.65625v2.253906h14.015625" stroke="#a9a9a9" stroke-linejoin="round"/><path d="m367.941406 49.910156v.347656h46.378906" stroke="#a9a9a9" stroke-linejoin="round"/><path d="m367.941406 49.910156v-.351562h46.378906" stroke="#a9a9a9" stroke-linejoin="round"/><path d="m352.554688 50.652344v1.347656h40.621093" stroke="#a9a9a9" stroke-linejoin="round"/><path d="m393.175781 52v.347656h21.144531" stroke="#a9a9a9" stroke-linejoin="round"/><path d="m393.175781 52v-.347656h21.144531" stroke="#a9a9a9" stroke-linejoin="round"/><path d="m210.800781 53.625v1.773438h119.21875" stroke="#a9a9a9" stroke-linejoin="round"/><path d="m330.019531 55.398438v-.785157h10.238281" stroke="#a9a9a9" stroke-linejoin="round"/><path d="m340.257812 54.613281v.523438h74.0625" stroke="#a9a9a9" stroke-linejoin="round"/><path d="m340.257812 54.613281v-.523437h20.734376" stroke="#a9a9a9" stroke-linejoin="round"/><path d="m360.992188 54.089844v.351562h53.328124" stroke="#a9a9a9" stroke-linejoin="round"/><path d="m360.992188 54.089844v-.347656h53.328124" stroke="#a9a9a9" stroke-linejoin="round"/><path d="m330.019531 55.398438v.785156h46.226563" stroke="#a9a9a9" stroke-linejoin="round"/><path d="m376.246094 56.183594v.347656h38.074218" stroke="#a9a9a9" stroke-linejoin="round"/><path d="m376.246094 56.183594v-.347656h38.074218" stroke="#a9a9a9" stroke-linejoin="round"/><path d="m157.140625 41.207031v-12.417969h85.972656" stroke="#a9a9a9" stroke-linejoin="round"/><path d="m243.113281 28.789062v5.878907h33.714844" stroke="#a9a9a9" stroke-linejoin="round"/><path d="m276.828125 34.667969v1.296875h62.746094" stroke="#a9a9a9" stroke-linejoin="round"/><path d="m339.574219 35.964844v.347656h74.746093" stroke="#a9a9a9" stroke-linejoin="round"/><path d="m339.574219 35.964844v-.347656h74.746093" stroke="#a9a9a9" stroke-linejoin="round"/><path d="m276.828125 34.667969v-1.292969h7.3125" stroke="#a9a9a9" stroke-linejoin="round"/><path d="m284.140625 33.375v-1.546875h57.117187" stroke="#a9a9a9" stroke-linejoin="round"/><path d="m341.257812 31.828125v-1.789063h17.042969" stroke="#a9a9a9" stroke-linejoin="round"/><path d="m358.300781 30.039062v-1.042968h23.222657" stroke="#a9a9a9" stroke-linejoin="round"/><path d="m381.523438 28.996094v-.699219h18.171874" stroke="#a9a9a9" stroke-linejoin="round"/><path d="m399.695312 28.296875v.347656h14.625" stroke="#a9a9a9" stroke-linejoin="round"/><path d="m399.695312 28.296875v-.347656h14.625" stroke="#a9a9a9" stroke-linejoin="round"/><path d="m381.523438 28.996094v.695312h26.921874" stroke="#a9a9a9" stroke-linejoin="round"/><path d="m408.445312 29.691406v.347656h5.875" stroke="#a9a9a9" stroke-linejoin="round"/><path d="m408.445312 29.691406v-.347656h5.875" stroke="#a9a9a9" stroke-linejoin="round"/><path d="m358.300781 30.039062v1.046876h55.925781" stroke="#a9a9a9" stroke-linejoin="round"/><path d="m414.226562 31.085938v.347656h.09375" stroke="#a9a9a9" stroke-linejoin="round"/><path d="m414.226562 31.085938v-.347657h.09375" stroke="#a9a9a9" stroke-linejoin="round"/><path d="m341.257812 31.828125v1.785156h3.582032" stroke="#a9a9a9" stroke-linejoin="round"/><path d="m344.839844 33.613281v.609375h69.480468" stroke="#a9a9a9" stroke-linejoin="round"/><path d="m344.839844 33.613281v-.609375h5.066406" stroke="#a9a9a9" stroke-linejoin="round"/><path d="m349.90625 33.003906v-.523437h8.980469" stroke="#a9a9a9" stroke-linejoin="round"/><path d="m358.886719 32.480469v.347656h55.433593" stroke="#a9a9a9" stroke-linejoin="round"/><path d="m358.886719 32.480469v-.347657h55.433593" stroke="#a9a9a9" stroke-linejoin="round"/><path d="m349.90625 33.003906v.523438h64.414062" stroke="#a9a9a9" stroke-linejoin="round"/><path d="m284.140625 33.375v1.546875h130.179687" stroke="#a9a9a9" stroke-linejoin="round"/><path d="m243.113281 28.789062v-5.882812h50.519531" stroke="#a9a9a9" stroke-linejoin="round"/><path d="m293.632812 22.90625v3.210938h65.25" stroke="#a9a9a9" stroke-linejoin="round"/><path d="m358.882812 26.117188v-1.132813h5.128907" stroke="#a9a9a9" stroke-linejoin="round"/><path d="m364.011719 24.984375v-1.042969h24.914062" stroke="#a9a9a9" stroke-linejoin="round"/><path d="m388.925781 23.941406v.519532h25.394531" stroke="#a9a9a9" stroke-linejoin="round"/><path d="m388.925781 23.941406v-.523437h17.035157" stroke="#a9a9a9" stroke-linejoin="round"/><path d="m405.960938 23.417969v.347656h8.359374" stroke="#a9a9a9" stroke-linejoin="round"/><path d="m405.960938 23.417969v-.347657h8.359374" stroke="#a9a9a9" stroke-linejoin="round"/><path d="m364.011719 24.984375v1.046875h25.828125" stroke="#a9a9a9" stroke-linejoin="round"/><path d="m389.839844 26.03125v.523438h24.480468" stroke="#a9a9a9" stroke-linejoin="round"/><path d="m389.839844 26.03125v-.523438h20.445312" stroke="#a9a9a9" stroke-linejoin="round"/><path d="m410.285156 25.507812v.347657h4.035156" stroke="#a9a9a9" stroke-linejoin="round"/><path d="m410.285156 25.507812v-.347656h4.035156" stroke="#a9a9a9" stroke-linejoin="round"/><path d="m358.882812 26.117188v1.132812h55.4375" stroke="#a9a9a9" stroke-linejoin="round"/><path d="m293.632812 22.90625v-3.214844h23.667969" stroke="#a9a9a9" stroke-linejoin="round"/><path d="m317.300781 19.691406v-1.546875h23.71875" stroke="#a9a9a9" stroke-linejoin="round"/><path d="m341.019531 18.144531v-.742187h3.359375" stroke="#a9a9a9" stroke-linejoin="round"/><path d="m344.378906 17.402344v-.78125h42.28125" stroke="#a9a9a9" stroke-linejoin="round"/><path d="m386.660156 16.621094v.871094h27.660156" stroke="#a9a9a9" stroke-linejoin="round"/><path d="m386.660156 16.621094v-.871094h5.140625" stroke="#a9a9a9" stroke-linejoin="round"/><path d="m391.800781 15.75v.695312h21.710938" stroke="#a9a9a9" stroke-linejoin="round"/><path d="m413.511719 16.445312v.347657h.808593" stroke="#a9a9a9" stroke-linejoin="round"/><path d="m413.511719 16.445312v-.347656h.808593" stroke="#a9a9a9" stroke-linejoin="round"/><path d="m391.800781 15.75v-.699219h6.414063" stroke="#a9a9a9" stroke-linejoin="round"/><path d="m398.214844 15.050781v.347657h16.105468" stroke="#a9a9a9" stroke-linejoin="round"/><path d="m398.214844 15.050781v-.347656h16.105468" stroke="#a9a9a9" stroke-linejoin="round"/><path d="m344.378906 17.402344v.785156h69.941406" stroke="#a9a9a9" stroke-linejoin="round"/><path d="m341.019531 18.144531v.742188h73.300781" stroke="#a9a9a9" stroke-linejoin="round"/><path d="m317.300781 19.691406v1.546875h11.046875" stroke="#a9a9a9" stroke-linejoin="round"/><path d="m328.347656 21.238281v-.785156h17.3125" stroke="#a9a9a9" stroke-linejoin="round"/><path d="m345.660156 20.453125v.523437h68.660156" stroke="#a9a9a9" stroke-linejoin="round"/><path d="m345.660156 20.453125v-.523437h52.78125" stroke="#a9a9a9" stroke-linejoin="round"/><path d="m398.441406 19.929688v.351562h15.878906" stroke="#a9a9a9" stroke-linejoin="round"/><path d="m398.441406 19.929688v-.347657h15.878906" stroke="#a9a9a9" stroke-linejoin="round"/><path d="m328.347656 21.238281v.785157h20.738282" stroke="#a9a9a9" stroke-linejoin="round"/><path d="m349.085938 22.023438v.347656h65.234374" stroke="#a9a9a9" stroke-linejoin="round"/><path d="m349.085938 22.023438v-.347657h65.234374" stroke="#a9a9a9" stroke-linejoin="round"/><path d="m93.039062 143.082031v34.785157h66.464844" stroke="#a9a9a9" stroke-linejoin="round"/><path d="m159.503906 177.867188v-4.242188h61.570313" stroke="#a9a9a9" stroke-linejoin="round"/><path d="m221.074219 173.625v5.144531h91.148437" stroke="#a9a9a9" stroke-linejoin="round"/><path d="m312.222656 178.769531v1.15625h102.097656" stroke="#a9a9a9" stroke-linejoin="round"/><path d="m312.222656 178.769531v-1.152343h6.382813" stroke="#a9a9a9" stroke-linejoin="round"/><path d="m318.605469 177.617188v1.089843h72.476562" stroke="#a9a9a9" stroke-linejoin="round"/><path d="m391.082031 178.707031v.523438h23.238281" stroke="#a9a9a9" stroke-linejoin="round"/><path d="m391.082031 178.707031v-.523437h19.058594" stroke="#a9a9a9" stroke-linejoin="round"/><path d="m410.140625 178.183594v.347656h4.179687" stroke="#a9a9a9" stroke-linejoin="round"/><path d="m410.140625 178.183594v-.347656h4.179687" stroke="#a9a9a9" stroke-linejoin="round"/><path d="m318.605469 177.617188v-1.089844h56.5625" stroke="#a9a9a9" stroke-linejoin="round"/><path d="m375.167969 176.527344v-.609375h36.28125" stroke="#a9a9a9" stroke-linejoin="round"/><path d="m411.449219 175.917969v.523437h2.871093" stroke="#a9a9a9" stroke-linejoin="round"/><path d="m411.449219 175.917969v-.523438h1.78125" stroke="#a9a9a9" stroke-linejoin="round"/><path d="m413.230469 175.394531v.347657h1.089843" stroke="#a9a9a9" stroke-linejoin="round"/><path d="m413.230469 175.394531v-.347656h1.089843" stroke="#a9a9a9" stroke-linejoin="round"/><path d="m375.167969 176.527344v.609375h39.152343" stroke="#a9a9a9" stroke-linejoin="round"/><path d="m221.074219 173.625v-5.144531h1.261719" stroke="#a9a9a9" stroke-linejoin="round"/><path d="m222.335938 168.480469v-4.992188h5.929687" stroke="#a9a9a9" stroke-linejoin="round"/><path d="m228.265625 163.488281v-5.089843h75.9375" stroke="#a9a9a9" stroke-linejoin="round"/><path d="m304.203125 158.398438v3.621093h6.015625" stroke="#a9a9a9" stroke-linejoin="round"/><path d="m310.21875 162.019531v1.347657h86.609375" stroke="#a9a9a9" stroke-linejoin="round"/><path d="m396.828125 163.367188v-.519532h6.460937" stroke="#a9a9a9" stroke-linejoin="round"/><path d="m403.289062 162.847656v.347656h11.03125" stroke="#a9a9a9" stroke-linejoin="round"/><path d="m403.289062 162.847656v-.351562h11.03125" stroke="#a9a9a9" stroke-linejoin="round"/><path d="m396.828125 163.367188v.523437h17.492187" stroke="#a9a9a9" stroke-linejoin="round"/><path d="m310.21875 162.019531v-1.351562h77.902344" stroke="#a9a9a9" stroke-linejoin="round"/><path d="m388.121094 160.667969v.785156h15.875" stroke="#a9a9a9" stroke-linejoin="round"/><path d="m403.996094 161.453125v.347656h10.324218" stroke="#a9a9a9" stroke-linejoin="round"/><path d="m403.996094 161.453125v-.351563h10.324218" stroke="#a9a9a9" stroke-linejoin="round"/><path d="m388.121094 160.667969v-.785157h17.71875" stroke="#a9a9a9" stroke-linejoin="round"/><path d="m405.839844 159.882812v.523438h8.480468" stroke="#a9a9a9" stroke-linejoin="round"/><path d="m405.839844 159.882812v-.523437h5.675781" stroke="#a9a9a9" stroke-linejoin="round"/><path d="m411.515625 159.359375v.347656h2.804687" stroke="#a9a9a9" stroke-linejoin="round"/><path d="m411.515625 159.359375v-.347656h2.804687" stroke="#a9a9a9" stroke-linejoin="round"/><path d="m304.203125 158.398438v-3.617188h5.539063" stroke="#a9a9a9" stroke-linejoin="round"/><path d="m309.742188 154.78125v-2.359375h48.40625" stroke="#a9a9a9" stroke-linejoin="round"/><path d="m358.148438 152.421875v1.359375h39.648437" stroke="#a9a9a9" stroke-linejoin="round"/><path d="m397.796875 153.78125v.351562h16.523437" stroke="#a9a9a9" stroke-linejoin="round"/><path d="m397.796875 153.78125v-.347656h16.523437" stroke="#a9a9a9" stroke-linejoin="round"/><path d="m358.148438 152.421875v-1.363281h.578124" stroke="#a9a9a9" stroke-linejoin="round"/><path d="m358.726562 151.058594v-1.328125h3.058594" stroke="#a9a9a9" stroke-linejoin="round"/><path d="m361.785156 149.730469v1.089843h46.351563" stroke="#a9a9a9" stroke-linejoin="round"/><path d="m408.136719 150.820312v.523438h6.183593" stroke="#a9a9a9" stroke-linejoin="round"/><path d="m408.136719 150.820312v-.523437h3.742187" stroke="#a9a9a9" stroke-linejoin="round"/><path d="m411.878906 150.296875v.347656h2.441406" stroke="#a9a9a9" stroke-linejoin="round"/><path d="m411.878906 150.296875v-.347656h2.441406" stroke="#a9a9a9" stroke-linejoin="round"/><path d="m361.785156 149.730469v-1.089844h24.824219" stroke="#a9a9a9" stroke-linejoin="round"/><path d="m386.609375 148.640625v.609375h27.710937" stroke="#a9a9a9" stroke-linejoin="round"/><path d="m386.609375 148.640625v-.609375h.496094" stroke="#a9a9a9" stroke-linejoin="round"/><path d="m387.105469 148.03125v-.523438h26.757812" stroke="#a9a9a9" stroke-linejoin="round"/><path d="m413.863281 147.507812v.347657h.457031" stroke="#a9a9a9" stroke-linejoin="round"/><path d="m413.863281 147.507812v-.347656h.457031" stroke="#a9a9a9" stroke-linejoin="round"/><path d="m387.105469 148.03125v.523438h27.214843" stroke="#a9a9a9" stroke-linejoin="round"/><path d="m358.726562 151.058594v1.328125h23.957032" stroke="#a9a9a9" stroke-linejoin="round"/><path d="m382.683594 152.386719v.351562h31.636718" stroke="#a9a9a9" stroke-linejoin="round"/><path d="m382.683594 152.386719v-.347657h31.636718" stroke="#a9a9a9" stroke-linejoin="round"/><path d="m309.742188 154.78125v2.355469h8.511718" stroke="#a9a9a9" stroke-linejoin="round"/><path d="m318.253906 157.136719v.828125h94.808594" stroke="#a9a9a9" stroke-linejoin="round"/><path d="m413.0625 157.964844v.347656h1.257812" stroke="#a9a9a9" stroke-linejoin="round"/><path d="m413.0625 157.964844v-.347656h1.257812" stroke="#a9a9a9" stroke-linejoin="round"/><path d="m318.253906 157.136719v-.828125h33.136719" stroke="#a9a9a9" stroke-linejoin="round"/><path d="m351.390625 156.308594v.613281h62.929687" stroke="#a9a9a9" stroke-linejoin="round"/><path d="m351.390625 156.308594v-.609375h2.667969" stroke="#a9a9a9" stroke-linejoin="round"/><path d="m354.058594 155.699219v.523437h60.261718" stroke="#a9a9a9" stroke-linejoin="round"/><path d="m354.058594 155.699219v-.523438h52.15625" stroke="#a9a9a9" stroke-linejoin="round"/><path d="m406.214844 155.175781v.351563h8.105468" stroke="#a9a9a9" stroke-linejoin="round"/><path d="m406.214844 155.175781v-.347656h8.105468" stroke="#a9a9a9" stroke-linejoin="round"/><path d="m228.265625 163.488281v5.085938h37.65625" stroke="#a9a9a9" stroke-linejoin="round"/><path d="m265.921875 168.574219v1.679687h70.183594" stroke="#a9a9a9" stroke-linejoin="round"/><path d="m336.105469 170.253906v.609375h78.214843" stroke="#a9a9a9" stroke-linejoin="round"/><path d="m336.105469 170.253906v-.609375h25.101562" stroke="#a9a9a9" stroke-linejoin="round"/><path d="m361.207031 169.644531v-.523437h49.101563" stroke="#a9a9a9" stroke-linejoin="round"/><path d="m410.308594 169.121094v.347656h4.011718" stroke="#a9a9a9" stroke-linejoin="round"/><path d="m410.308594 169.121094v-.351563h4.011718" stroke="#a9a9a9" stroke-linejoin="round"/><path d="m361.207031 169.644531v.519531h53.113281" stroke="#a9a9a9" stroke-linejoin="round"/><path d="m265.921875 168.574219v-1.675781h63.234375" stroke="#a9a9a9" stroke-linejoin="round"/><path d="m329.15625 166.898438v.828124h80.660156" stroke="#a9a9a9" stroke-linejoin="round"/><path d="m409.816406 167.726562v.347657h4.503906" stroke="#a9a9a9" stroke-linejoin="round"/><path d="m409.816406 167.726562v-.347656h4.503906" stroke="#a9a9a9" stroke-linejoin="round"/><path d="m329.15625 166.898438v-.828126h3.664062" stroke="#a9a9a9" stroke-linejoin="round"/><path d="m332.820312 166.070312v-.609374h60.777344" stroke="#a9a9a9" stroke-linejoin="round"/><path d="m393.597656 165.460938v-.523438h5.941406" stroke="#a9a9a9" stroke-linejoin="round"/><path d="m399.539062 164.9375v.347656h14.78125" stroke="#a9a9a9" stroke-linejoin="round"/><path d="m399.539062 164.9375v-.347656h14.78125" stroke="#a9a9a9" stroke-linejoin="round"/><path d="m393.597656 165.460938v.523437h20.722656" stroke="#a9a9a9" stroke-linejoin="round"/><path d="m332.820312 166.070312v.609376h81.5" stroke="#a9a9a9" stroke-linejoin="round"/><path d="m222.335938 168.480469v4.996093h126.566406" stroke="#a9a9a9" stroke-linejoin="round"/><path d="m348.902344 173.476562v.871094h65.417968" stroke="#a9a9a9" stroke-linejoin="round"/><path d="m348.902344 173.476562v-.871093h27.726562" stroke="#a9a9a9" stroke-linejoin="round"/><path d="m376.628906 172.605469v.699219h30.914063" stroke="#a9a9a9" stroke-linejoin="round"/><path d="m407.542969 173.304688v.347656h6.777343" stroke="#a9a9a9" stroke-linejoin="round"/><path d="m407.542969 173.304688v-.351563h6.777343" stroke="#a9a9a9" stroke-linejoin="round"/><path d="m376.628906 172.605469v-.695313h9.496094" stroke="#a9a9a9" stroke-linejoin="round"/><path d="m386.125 171.910156v.347656h28.195312" stroke="#a9a9a9" stroke-linejoin="round"/><path d="m386.125 171.910156v-.351562h28.195312" stroke="#a9a9a9" stroke-linejoin="round"/><path d="m159.503906 177.867188v4.238281h127.617188" stroke="#a9a9a9" stroke-linejoin="round"/><path d="m287.121094 182.105469v.609375h127.199218" stroke="#a9a9a9" stroke-linejoin="round"/><path d="m287.121094 182.105469v-.609375h78.679687" stroke="#a9a9a9" stroke-linejoin="round"/><path d="m365.800781 181.496094v.519531h48.519531" stroke="#a9a9a9" stroke-linejoin="round"/><path d="m365.800781 181.496094v-.523438h36.628907" stroke="#a9a9a9" stroke-linejoin="round"/><path d="m402.429688 180.972656v.347656h11.890624" stroke="#a9a9a9" stroke-linejoin="round"/><path d="m402.429688 180.972656v-.351562h11.890624" stroke="#a9a9a9" stroke-linejoin="round"/><path d="m76.027344 166.5v23.414062h65.335937" stroke="#a9a9a9" stroke-linejoin="round"/><path d="m141.363281 189.914062v-1.863281h181.15625" stroke="#a9a9a9" stroke-linejoin="round"/><path d="m322.519531 188.050781v1.894531h10.3125" stroke="#a9a9a9" stroke-linejoin="round"/><path d="m332.832031 189.945312v-.78125h45.863281" stroke="#a9a9a9" stroke-linejoin="round"/><path d="m378.695312 189.164062v-.523437h31.382813" stroke="#a9a9a9" stroke-linejoin="round"/><path d="m410.078125 188.640625v.347656h4.242187" stroke="#a9a9a9" stroke-linejoin="round"/><path d="m410.078125 188.640625v-.347656h4.242187" stroke="#a9a9a9" stroke-linejoin="round"/><path d="m378.695312 189.164062v.523438h35.625" stroke="#a9a9a9" stroke-linejoin="round"/><path d="m332.832031 189.945312v.785157h52.863281" stroke="#a9a9a9" stroke-linejoin="round"/><path d="m385.695312 190.730469v.347656h28.625" stroke="#a9a9a9" stroke-linejoin="round"/><path d="m385.695312 190.730469v-.347657h28.625" stroke="#a9a9a9" stroke-linejoin="round"/><path d="m322.519531 188.050781v-1.894531h53.152344" stroke="#a9a9a9" stroke-linejoin="round"/><path d="m375.671875 186.15625v1.089844h31.242187" stroke="#a9a9a9" stroke-linejoin="round"/><path d="m406.914062 187.246094v.347656h7.40625" stroke="#a9a9a9" stroke-linejoin="round"/><path d="m406.914062 187.246094v-.347656h7.40625" stroke="#a9a9a9" stroke-linejoin="round"/><path d="m375.671875 186.15625v-1.089844h7.914063" stroke="#a9a9a9" stroke-linejoin="round"/><path d="m383.585938 185.066406v.785156h27.480468" stroke="#a9a9a9" stroke-linejoin="round"/><path d="m411.066406 185.851562v.347657h3.253906" stroke="#a9a9a9" stroke-linejoin="round"/><path d="m411.066406 185.851562v-.347656h3.253906" stroke="#a9a9a9" stroke-linejoin="round"/><path d="m383.585938 185.066406v-.785156h9.691406" stroke="#a9a9a9" stroke-linejoin="round"/><path d="m393.277344 184.28125v.523438h21.042968" stroke="#a9a9a9" stroke-linejoin="round"/><path d="m393.277344 184.28125v-.519531h6.339844" stroke="#a9a9a9" stroke-linejoin="round"/><path d="m399.617188 183.761719v.347656h14.703124" stroke="#a9a9a9" stroke-linejoin="round"/><path d="m399.617188 183.761719v-.351563h14.703124" stroke="#a9a9a9" stroke-linejoin="round"/><path d="m141.363281 189.914062v1.863282h272.957031" stroke="#a9a9a9" stroke-linejoin="round"/><path d="m29.804688 236.320312v69.820313h59.648437" stroke="#a9a9a9" stroke-linejoin="round"/><path d="m89.453125 306.140625v-36.9375h4.457031" stroke="#a9a9a9" stroke-linejoin="round"/><path d="m93.910156 269.203125v-32.371094h42.011719" stroke="#a9a9a9" stroke-linejoin="round"/><path d="m135.921875 236.832031v-14.902343h39.269531" stroke="#a9a9a9" stroke-linejoin="round"/><path d="m175.191406 221.929688v6.839843h132.523438" stroke="#a9a9a9" stroke-linejoin="round"/><path d="m307.714844 228.769531v.652344h106.605468" stroke="#a9a9a9" stroke-linejoin="round"/><path d="m307.714844 228.769531v-.652343h79.039062" stroke="#a9a9a9" stroke-linejoin="round"/><path d="m386.753906 228.117188v-.613282h10.484375" stroke="#a9a9a9" stroke-linejoin="round"/><path d="m397.238281 227.503906v.523438h17.082031" stroke="#a9a9a9" stroke-linejoin="round"/><path d="m397.238281 227.503906v-.519531h10.625" stroke="#a9a9a9" stroke-linejoin="round"/><path d="m407.863281 226.984375v.347656h6.457031" stroke="#a9a9a9" stroke-linejoin="round"/><path d="m407.863281 226.984375v-.351563h6.457031" stroke="#a9a9a9" stroke-linejoin="round"/><path d="m386.753906 228.117188v.609374h27.566406" stroke="#a9a9a9" stroke-linejoin="round"/><path d="m175.191406 221.929688v-6.839844h16.632813" stroke="#a9a9a9" stroke-linejoin="round"/><path d="m191.824219 215.089844v7.585937h112.5" stroke="#a9a9a9" stroke-linejoin="round"/><path d="m304.324219 222.675781v2.085938h30.847656" stroke="#a9a9a9" stroke-linejoin="round"/><path d="m335.171875 224.761719v-.828125h20.585937" stroke="#a9a9a9" stroke-linejoin="round"/><path d="m355.757812 223.933594v.609375h58.5625" stroke="#a9a9a9" stroke-linejoin="round"/><path d="m355.757812 223.933594v-.609375h38.796876" stroke="#a9a9a9" stroke-linejoin="round"/><path d="m394.554688 223.324219v.523437h19.765624" stroke="#a9a9a9" stroke-linejoin="round"/><path d="m394.554688 223.324219v-.523438h3.605468" stroke="#a9a9a9" stroke-linejoin="round"/><path d="m398.160156 222.800781v.347657h16.160156" stroke="#a9a9a9" stroke-linejoin="round"/><path d="m398.160156 222.800781v-.347656h16.160156" stroke="#a9a9a9" stroke-linejoin="round"/><path d="m335.171875 224.761719v.828125h73.570313" stroke="#a9a9a9" stroke-linejoin="round"/><path d="m408.742188 225.589844v.347656h5.578124" stroke="#a9a9a9" stroke-linejoin="round"/><path d="m408.742188 225.589844v-.351563h5.578124" stroke="#a9a9a9" stroke-linejoin="round"/><path d="m304.324219 222.675781v-2.085937h10.246093" stroke="#a9a9a9" stroke-linejoin="round"/><path d="m314.570312 220.589844v-1.167969h3.625" stroke="#a9a9a9" stroke-linejoin="round"/><path d="m318.195312 219.421875v1.113281h56.148438" stroke="#a9a9a9" stroke-linejoin="round"/><path d="m374.34375 220.535156v.523438h39.976562" stroke="#a9a9a9" stroke-linejoin="round"/><path d="m374.34375 220.535156v-.523437h38.691406" stroke="#a9a9a9" stroke-linejoin="round"/><path d="m413.035156 220.011719v.347656h1.285156" stroke="#a9a9a9" stroke-linejoin="round"/><path d="m413.035156 220.011719v-.347657h1.285156" stroke="#a9a9a9" stroke-linejoin="round"/><path d="m318.195312 219.421875v-1.109375h49.242188" stroke="#a9a9a9" stroke-linejoin="round"/><path d="m367.4375 218.3125v.652344h46.882812" stroke="#a9a9a9" stroke-linejoin="round"/><path d="m367.4375 218.3125v-.652344h6.347656" stroke="#a9a9a9" stroke-linejoin="round"/><path d="m373.785156 217.660156v-.613281h2.589844" stroke="#a9a9a9" stroke-linejoin="round"/><path d="m376.375 217.046875v.523437h37.945312" stroke="#a9a9a9" stroke-linejoin="round"/><path d="m376.375 217.046875v-.519531h31.949219" stroke="#a9a9a9" stroke-linejoin="round"/><path d="m408.324219 216.527344v.347656h5.996093" stroke="#a9a9a9" stroke-linejoin="round"/><path d="m408.324219 216.527344v-.351563h5.996093" stroke="#a9a9a9" stroke-linejoin="round"/><path d="m373.785156 217.660156v.609375h40.535156" stroke="#a9a9a9" stroke-linejoin="round"/><path d="m314.570312 220.589844v1.164062h99.75" stroke="#a9a9a9" stroke-linejoin="round"/><path d="m191.824219 215.089844v-7.585938h103.382812" stroke="#a9a9a9" stroke-linejoin="round"/><path d="m295.207031 207.503906v-5.8125h33.667969" stroke="#a9a9a9" stroke-linejoin="round"/><path d="m328.875 201.691406v-3.597656h4.761719" stroke="#a9a9a9" stroke-linejoin="round"/><path d="m333.636719 198.09375v2.964844h28.164062" stroke="#a9a9a9" stroke-linejoin="round"/><path d="m361.800781 201.058594v1.351562h27.761719" stroke="#a9a9a9" stroke-linejoin="round"/><path d="m389.5625 202.410156v.519532h24.757812" stroke="#a9a9a9" stroke-linejoin="round"/><path d="m389.5625 202.410156v-.523437h13.472656" stroke="#a9a9a9" stroke-linejoin="round"/><path d="m403.035156 201.886719v.347656h11.285156" stroke="#a9a9a9" stroke-linejoin="round"/><path d="m403.035156 201.886719v-.347657h11.285156" stroke="#a9a9a9" stroke-linejoin="round"/><path d="m361.800781 201.058594v-1.351563h15.058594" stroke="#a9a9a9" stroke-linejoin="round"/><path d="m376.859375 199.707031v-.785156h23.511719" stroke="#a9a9a9" stroke-linejoin="round"/><path d="m400.371094 198.921875v-.523437h7.648437" stroke="#a9a9a9" stroke-linejoin="round"/><path d="m408.019531 198.398438v.351562h6.300781" stroke="#a9a9a9" stroke-linejoin="round"/><path d="m408.019531 198.398438v-.347657h6.300781" stroke="#a9a9a9" stroke-linejoin="round"/><path d="m400.371094 198.921875v.523437h13.949218" stroke="#a9a9a9" stroke-linejoin="round"/><path d="m376.859375 199.707031v.785157h22.421875" stroke="#a9a9a9" stroke-linejoin="round"/><path d="m399.28125 200.492188v.347656h15.039062" stroke="#a9a9a9" stroke-linejoin="round"/><path d="m399.28125 200.492188v-.347657h15.039062" stroke="#a9a9a9" stroke-linejoin="round"/><path d="m333.636719 198.09375v-2.960938h3.847656" stroke="#a9a9a9" stroke-linejoin="round"/><path d="m337.484375 195.132812v1.175782h41.699219" stroke="#a9a9a9" stroke-linejoin="round"/><path d="m379.183594 196.308594v-.695313h26.578125" stroke="#a9a9a9" stroke-linejoin="round"/><path d="m405.761719 195.613281v.347657h8.558593" stroke="#a9a9a9" stroke-linejoin="round"/><path d="m405.761719 195.613281v-.351562h8.558593" stroke="#a9a9a9" stroke-linejoin="round"/><path d="m379.183594 196.308594v.695312h34.542968" stroke="#a9a9a9" stroke-linejoin="round"/><path d="m413.726562 197.003906v.351563h.59375" stroke="#a9a9a9" stroke-linejoin="round"/><path d="m413.726562 197.003906v-.347656h.59375" stroke="#a9a9a9" stroke-linejoin="round"/><path d="m337.484375 195.132812v-1.175781h3.742187" stroke="#a9a9a9" stroke-linejoin="round"/><path d="m341.226562 193.957031v-.609375h1.105469" stroke="#a9a9a9" stroke-linejoin="round"/><path d="m342.332031 193.347656v.519532h71.988281" stroke="#a9a9a9" stroke-linejoin="round"/><path d="m342.332031 193.347656v-.523437h53.367188" stroke="#a9a9a9" stroke-linejoin="round"/><path d="m395.699219 192.824219v.347656h18.621093" stroke="#a9a9a9" stroke-linejoin="round"/><path d="m395.699219 192.824219v-.351563h18.621093" stroke="#a9a9a9" stroke-linejoin="round"/><path d="m341.226562 193.957031v.609375h73.09375" stroke="#a9a9a9" stroke-linejoin="round"/><path d="m328.875 201.691406v3.59375h17.25" stroke="#a9a9a9" stroke-linejoin="round"/><path d="m346.125 205.285156v-.785156h22.285156" stroke="#a9a9a9" stroke-linejoin="round"/><path d="m368.410156 204.5v-.523438h31.3125" stroke="#a9a9a9" stroke-linejoin="round"/><path d="m399.722656 203.976562v.347657h14.597656" stroke="#a9a9a9" stroke-linejoin="round"/><path d="m399.722656 203.976562v-.347656h14.597656" stroke="#a9a9a9" stroke-linejoin="round"/><path d="m368.410156 204.5v.523438h45.910156" stroke="#a9a9a9" stroke-linejoin="round"/><path d="m346.125 205.285156v.785156h12.894531" stroke="#a9a9a9" stroke-linejoin="round"/><path d="m359.019531 206.070312v.347657h55.300781" stroke="#a9a9a9" stroke-linejoin="round"/><path d="m359.019531 206.070312v-.351562h55.300781" stroke="#a9a9a9" stroke-linejoin="round"/><path d="m295.207031 207.503906v5.8125h38.601563" stroke="#a9a9a9" stroke-linejoin="round"/><path d="m333.808594 213.316406v-1.550781h12.679687" stroke="#a9a9a9" stroke-linejoin="round"/><path d="m346.488281 211.765625v-.925781h28.296875" stroke="#a9a9a9" stroke-linejoin="round"/><path d="m374.785156 210.839844v1.15625h39.535156" stroke="#a9a9a9" stroke-linejoin="round"/><path d="m374.785156 210.839844v-1.15625h12.621094" stroke="#a9a9a9" stroke-linejoin="round"/><path d="m387.40625 209.683594v1.089844h8.242188" stroke="#a9a9a9" stroke-linejoin="round"/><path d="m395.648438 210.773438v.523437h18.671874" stroke="#a9a9a9" stroke-linejoin="round"/><path d="m395.648438 210.773438v-.523438h4.5625" stroke="#a9a9a9" stroke-linejoin="round"/><path d="m400.210938 210.25v.351562h14.109374" stroke="#a9a9a9" stroke-linejoin="round"/><path d="m400.210938 210.25v-.347656h14.109374" stroke="#a9a9a9" stroke-linejoin="round"/><path d="m387.40625 209.683594v-1.085938h3.195312" stroke="#a9a9a9" stroke-linejoin="round"/><path d="m390.601562 208.597656v-.613281h10.214844" stroke="#a9a9a9" stroke-linejoin="round"/><path d="m400.816406 207.984375v-.523437h9.050782" stroke="#a9a9a9" stroke-linejoin="round"/><path d="m409.867188 207.460938v.351562h4.453124" stroke="#a9a9a9" stroke-linejoin="round"/><path d="m409.867188 207.460938v-.347657h4.453124" stroke="#a9a9a9" stroke-linejoin="round"/><path d="m400.816406 207.984375v.523437h13.503906" stroke="#a9a9a9" stroke-linejoin="round"/><path d="m390.601562 208.597656v.609375h23.71875" stroke="#a9a9a9" stroke-linejoin="round"/><path d="m346.488281 211.765625v.925781h67.832031" stroke="#a9a9a9" stroke-linejoin="round"/><path d="m333.808594 213.316406v1.554688h24.617187" stroke="#a9a9a9" stroke-linejoin="round"/><path d="m358.425781 214.871094v-.609375h22.8125" stroke="#a9a9a9" stroke-linejoin="round"/><path d="m381.238281 214.261719v.519531h33.082031" stroke="#a9a9a9" stroke-linejoin="round"/><path d="m381.238281 214.261719v-.523438h6.234375" stroke="#a9a9a9" stroke-linejoin="round"/><path d="m387.472656 213.738281v.347657h26.847656" stroke="#a9a9a9" stroke-linejoin="round"/><path d="m387.472656 213.738281v-.351562h26.847656" stroke="#a9a9a9" stroke-linejoin="round"/><path d="m358.425781 214.871094v.609375h55.894531" stroke="#a9a9a9" stroke-linejoin="round"/><path d="m135.921875 236.832031v14.90625h44.011719" stroke="#a9a9a9" stroke-linejoin="round"/><path d="m179.933594 251.738281v-6.269531h3.503906" stroke="#a9a9a9" stroke-linejoin="round"/><path d="m183.4375 245.46875v3.824219h43.128906" stroke="#a9a9a9" stroke-linejoin="round"/><path d="m226.566406 249.292969v.347656h187.753906" stroke="#a9a9a9" stroke-linejoin="round"/><path d="m226.566406 249.292969v-.351563h187.753906" stroke="#a9a9a9" stroke-linejoin="round"/><path d="m183.4375 245.46875v-3.824219h64.664062" stroke="#a9a9a9" stroke-linejoin="round"/><path d="m248.101562 241.644531v-4.867187h46.457032" stroke="#a9a9a9" stroke-linejoin="round"/><path d="m294.558594 236.777344v1.96875h44.945312" stroke="#a9a9a9" stroke-linejoin="round"/><path d="m339.503906 238.746094v-.785156h27.9375" stroke="#a9a9a9" stroke-linejoin="round"/><path d="m367.441406 237.960938v.523437h46.878906" stroke="#a9a9a9" stroke-linejoin="round"/><path d="m367.441406 237.960938v-.519532h6.199219" stroke="#a9a9a9" stroke-linejoin="round"/><path d="m373.640625 237.441406v.347656h40.679687" stroke="#a9a9a9" stroke-linejoin="round"/><path d="m373.640625 237.441406v-.351562h40.679687" stroke="#a9a9a9" stroke-linejoin="round"/><path d="m339.503906 238.746094v.785156h70.125" stroke="#a9a9a9" stroke-linejoin="round"/><path d="m409.628906 239.53125v.347656h4.691406" stroke="#a9a9a9" stroke-linejoin="round"/><path d="m409.628906 239.53125v-.347656h4.691406" stroke="#a9a9a9" stroke-linejoin="round"/><path d="m294.558594 236.777344v-1.972656h20.730468" stroke="#a9a9a9" stroke-linejoin="round"/><path d="m315.289062 234.804688v1.589843h99.03125" stroke="#a9a9a9" stroke-linejoin="round"/><path d="m315.289062 234.804688v-1.589844h25.902344" stroke="#a9a9a9" stroke-linejoin="round"/><path d="m341.191406 233.214844v-1.4375h45.433594" stroke="#a9a9a9" stroke-linejoin="round"/><path d="m386.625 231.777344v-.785156h9.636719" stroke="#a9a9a9" stroke-linejoin="round"/><path d="m396.261719 230.992188v.523437h18.058593" stroke="#a9a9a9" stroke-linejoin="round"/><path d="m396.261719 230.992188v-.523438h4.265625" stroke="#a9a9a9" stroke-linejoin="round"/><path d="m400.527344 230.46875v.347656h13.792968" stroke="#a9a9a9" stroke-linejoin="round"/><path d="m400.527344 230.46875v-.347656h13.792968" stroke="#a9a9a9" stroke-linejoin="round"/><path d="m386.625 231.777344v.78125h19.746094" stroke="#a9a9a9" stroke-linejoin="round"/><path d="m406.371094 232.558594v.351562h7.949218" stroke="#a9a9a9" stroke-linejoin="round"/><path d="m406.371094 232.558594v-.347656h7.949218" stroke="#a9a9a9" stroke-linejoin="round"/><path d="m341.191406 233.214844v1.4375h10.070313" stroke="#a9a9a9" stroke-linejoin="round"/><path d="m351.261719 234.652344v.695312h35.757812" stroke="#a9a9a9" stroke-linejoin="round"/><path d="m387.019531 235.347656v.347656h27.300781" stroke="#a9a9a9" stroke-linejoin="round"/><path d="m387.019531 235.347656v-.347656h27.300781" stroke="#a9a9a9" stroke-linejoin="round"/><path d="m351.261719 234.652344v-.699219h21.511719" stroke="#a9a9a9" stroke-linejoin="round"/><path d="m372.773438 233.953125v.351563h41.546874" stroke="#a9a9a9" stroke-linejoin="round"/><path d="m372.773438 233.953125v-.347656h41.546874" stroke="#a9a9a9" stroke-linejoin="round"/><path d="m248.101562 241.644531v4.871094h16.402344" stroke="#a9a9a9" stroke-linejoin="round"/><path d="m264.503906 246.515625v1.730469h149.816406" stroke="#a9a9a9" stroke-linejoin="round"/><path d="m264.503906 246.515625v-1.734375h69.496094" stroke="#a9a9a9" stroke-linejoin="round"/><path d="m334 244.78125v1.632812h56.847656" stroke="#a9a9a9" stroke-linejoin="round"/><path d="m390.847656 246.414062v-.78125h19.414063" stroke="#a9a9a9" stroke-linejoin="round"/><path d="m410.261719 245.632812v-.523437h3.867187" stroke="#a9a9a9" stroke-linejoin="round"/><path d="m414.128906 245.109375v.347656h.191406" stroke="#a9a9a9" stroke-linejoin="round"/><path d="m414.128906 245.109375v-.347656h.191406" stroke="#a9a9a9" stroke-linejoin="round"/><path d="m410.261719 245.632812v.519532h4.058593" stroke="#a9a9a9" stroke-linejoin="round"/><path d="m390.847656 246.414062v.785157h12.578125" stroke="#a9a9a9" stroke-linejoin="round"/><path d="m403.425781 247.199219v.347656h10.894531" stroke="#a9a9a9" stroke-linejoin="round"/><path d="m403.425781 247.199219v-.347657h10.894531" stroke="#a9a9a9" stroke-linejoin="round"/><path d="m334 244.78125v-1.632812h1.820312" stroke="#a9a9a9" stroke-linejoin="round"/><path d="m335.820312 243.148438v.914062h78.5" stroke="#a9a9a9" stroke-linejoin="round"/><path d="m335.820312 243.148438v-.914063h19.390626" stroke="#a9a9a9" stroke-linejoin="round"/><path d="m355.210938 242.234375v-.785156h56.667968" stroke="#a9a9a9" stroke-linejoin="round"/><path d="m411.878906 241.449219v.523437h2.441406" stroke="#a9a9a9" stroke-linejoin="round"/><path d="m411.878906 241.449219v-.523438h.3125" stroke="#a9a9a9" stroke-linejoin="round"/><path d="m412.191406 240.925781v.347657h2.128906" stroke="#a9a9a9" stroke-linejoin="round"/><path d="m412.191406 240.925781v-.347656h2.128906" stroke="#a9a9a9" stroke-linejoin="round"/><path d="m355.210938 242.234375v.78125h44.703124" stroke="#a9a9a9" stroke-linejoin="round"/><path d="m399.914062 243.015625v.351563h14.40625" stroke="#a9a9a9" stroke-linejoin="round"/><path d="m399.914062 243.015625v-.347656h14.40625" stroke="#a9a9a9" stroke-linejoin="round"/><path d="m179.933594 251.738281v6.265625h24.789062" stroke="#a9a9a9" stroke-linejoin="round"/><path d="m204.722656 258.003906v2.441406h44.480469" stroke="#a9a9a9" stroke-linejoin="round"/><path d="m249.203125 260.445312v.699219h152.9375" stroke="#a9a9a9" stroke-linejoin="round"/><path d="m402.140625 261.144531v.347657h12.179687" stroke="#a9a9a9" stroke-linejoin="round"/><path d="m402.140625 261.144531v-.351562h12.179687" stroke="#a9a9a9" stroke-linejoin="round"/><path d="m249.203125 260.445312v-.695312h102.925781" stroke="#a9a9a9" stroke-linejoin="round"/><path d="m352.128906 259.75v.347656h62.191406" stroke="#a9a9a9" stroke-linejoin="round"/><path d="m352.128906 259.75v-.351562h62.191406" stroke="#a9a9a9" stroke-linejoin="round"/><path d="m204.722656 258.003906v-2.4375h21.953125" stroke="#a9a9a9" stroke-linejoin="round"/><path d="m226.675781 255.566406v2.003906h120.175781" stroke="#a9a9a9" stroke-linejoin="round"/><path d="m346.851562 257.570312v-.785156h24.300782" stroke="#a9a9a9" stroke-linejoin="round"/><path d="m371.152344 256.785156v-.523437h12.609375" stroke="#a9a9a9" stroke-linejoin="round"/><path d="m383.761719 256.261719v.351562h30.558593" stroke="#a9a9a9" stroke-linejoin="round"/><path d="m383.761719 256.261719v-.347657h30.558593" stroke="#a9a9a9" stroke-linejoin="round"/><path d="m371.152344 256.785156v.523438h43.167968" stroke="#a9a9a9" stroke-linejoin="round"/><path d="m346.851562 257.570312v.785157h63.664063" stroke="#a9a9a9" stroke-linejoin="round"/><path d="m410.515625 258.355469v.347656h3.804687" stroke="#a9a9a9" stroke-linejoin="round"/><path d="m410.515625 258.355469v-.351563h3.804687" stroke="#a9a9a9" stroke-linejoin="round"/><path d="m226.675781 255.566406v-2.003906h69.570313" stroke="#a9a9a9" stroke-linejoin="round"/><path d="m296.246094 253.5625v1.304688h105.046875" stroke="#a9a9a9" stroke-linejoin="round"/><path d="m401.292969 254.867188v.351562h13.027343" stroke="#a9a9a9" stroke-linejoin="round"/><path d="m401.292969 254.867188v-.347657h13.027343" stroke="#a9a9a9" stroke-linejoin="round"/><path d="m296.246094 253.5625v-1.308594h27.332031" stroke="#a9a9a9" stroke-linejoin="round"/><path d="m323.578125 252.253906v1.046875h51.429687" stroke="#a9a9a9" stroke-linejoin="round"/><path d="m375.007812 253.300781v.523438h39.3125" stroke="#a9a9a9" stroke-linejoin="round"/><path d="m375.007812 253.300781v-.523437h38.417969" stroke="#a9a9a9" stroke-linejoin="round"/><path d="m413.425781 252.777344v.347656h.894531" stroke="#a9a9a9" stroke-linejoin="round"/><path d="m413.425781 252.777344v-.347656h.894531" stroke="#a9a9a9" stroke-linejoin="round"/><path d="m323.578125 252.253906v-1.046875h9.777344" stroke="#a9a9a9" stroke-linejoin="round"/><path d="m333.355469 251.207031v.523438h80.964843" stroke="#a9a9a9" stroke-linejoin="round"/><path d="m333.355469 251.207031v-.519531h52.015625" stroke="#a9a9a9" stroke-linejoin="round"/><path d="m385.371094 250.6875v.347656h28.949218" stroke="#a9a9a9" stroke-linejoin="round"/><path d="m385.371094 250.6875v-.351562h28.949218" stroke="#a9a9a9" stroke-linejoin="round"/><path d="m93.910156 269.203125v32.371094h62.101563" stroke="#a9a9a9" stroke-linejoin="round"/><path d="m156.011719 301.574219v-7.707031h.582031" stroke="#a9a9a9" stroke-linejoin="round"/><path d="m156.59375 293.867188v6.445312h194.214844" stroke="#a9a9a9" stroke-linejoin="round"/><path d="m350.808594 300.3125v-.914062h37.535156" stroke="#a9a9a9" stroke-linejoin="round"/><path d="m388.34375 299.398438v-.785157h.660156" stroke="#a9a9a9" stroke-linejoin="round"/><path d="m389.003906 298.613281v.523438h25.316406" stroke="#a9a9a9" stroke-linejoin="round"/><path d="m389.003906 298.613281v-.523437h1.207032" stroke="#a9a9a9" stroke-linejoin="round"/><path d="m390.210938 298.089844v.351562h24.109374" stroke="#a9a9a9" stroke-linejoin="round"/><path d="m390.210938 298.089844v-.347656h24.109374" stroke="#a9a9a9" stroke-linejoin="round"/><path d="m388.34375 299.398438v.785156h25.433594" stroke="#a9a9a9" stroke-linejoin="round"/><path d="m413.777344 300.183594v.347656h.542968" stroke="#a9a9a9" stroke-linejoin="round"/><path d="m413.777344 300.183594v-.347656h.542968" stroke="#a9a9a9" stroke-linejoin="round"/><path d="m350.808594 300.3125v.917969h63.511718" stroke="#a9a9a9" stroke-linejoin="round"/><path d="m156.59375 293.867188v-6.445313h26.875" stroke="#a9a9a9" stroke-linejoin="round"/><path d="m183.46875 287.421875v-7.226563h51.085938" stroke="#a9a9a9" stroke-linejoin="round"/><path d="m234.554688 280.195312v5.261719h20.730468" stroke="#a9a9a9" stroke-linejoin="round"/><path d="m255.285156 285.457031v2.984375h37.171875" stroke="#a9a9a9" stroke-linejoin="round"/><path d="m292.457031 288.441406v-1.113281h34.191407" stroke="#a9a9a9" stroke-linejoin="round"/><path d="m326.648438 287.328125v-.652344h45.652343" stroke="#a9a9a9" stroke-linejoin="round"/><path d="m372.300781 286.675781v.609375h42.019531" stroke="#a9a9a9" stroke-linejoin="round"/><path d="m372.300781 286.675781v-.609375h8.847657" stroke="#a9a9a9" stroke-linejoin="round"/><path d="m381.148438 286.066406v-.523437h24.949218" stroke="#a9a9a9" stroke-linejoin="round"/><path d="m406.097656 285.542969v.347656h8.222656" stroke="#a9a9a9" stroke-linejoin="round"/><path d="m406.097656 285.542969v-.347657h8.222656" stroke="#a9a9a9" stroke-linejoin="round"/><path d="m381.148438 286.066406v.523438h33.171874" stroke="#a9a9a9" stroke-linejoin="round"/><path d="m326.648438 287.328125v.65625h87.671874" stroke="#a9a9a9" stroke-linejoin="round"/><path d="m292.457031 288.441406v1.109375h117.488281" stroke="#a9a9a9" stroke-linejoin="round"/><path d="m409.945312 289.550781v-.523437h2.144532" stroke="#a9a9a9" stroke-linejoin="round"/><path d="m412.089844 289.027344v.351562h2.230468" stroke="#a9a9a9" stroke-linejoin="round"/><path d="m412.089844 289.027344v-.347656h2.230468" stroke="#a9a9a9" stroke-linejoin="round"/><path d="m409.945312 289.550781v.523438h4.375" stroke="#a9a9a9" stroke-linejoin="round"/><path d="m255.285156 285.457031v-2.984375h90.855469" stroke="#a9a9a9" stroke-linejoin="round"/><path d="m346.140625 282.472656v1.5h46.816406" stroke="#a9a9a9" stroke-linejoin="round"/><path d="m392.957031 283.972656v.523438h21.363281" stroke="#a9a9a9" stroke-linejoin="round"/><path d="m392.957031 283.972656v-.519531h19.609375" stroke="#a9a9a9" stroke-linejoin="round"/><path d="m412.566406 283.453125v.347656h1.753906" stroke="#a9a9a9" stroke-linejoin="round"/><path d="m412.566406 283.453125v-.351563h1.753906" stroke="#a9a9a9" stroke-linejoin="round"/><path d="m346.140625 282.472656v-1.503906h11.269531" stroke="#a9a9a9" stroke-linejoin="round"/><path d="m357.410156 280.96875v1.089844h30.054688" stroke="#a9a9a9" stroke-linejoin="round"/><path d="m387.464844 282.058594v.347656h26.855468" stroke="#a9a9a9" stroke-linejoin="round"/><path d="m387.464844 282.058594v-.351563h26.855468" stroke="#a9a9a9" stroke-linejoin="round"/><path d="m357.410156 280.96875v-1.089844h25.246094" stroke="#a9a9a9" stroke-linejoin="round"/><path d="m382.65625 279.878906v.785156h2.082031" stroke="#a9a9a9" stroke-linejoin="round"/><path d="m384.738281 280.664062v.347657h29.582031" stroke="#a9a9a9" stroke-linejoin="round"/><path d="m384.738281 280.664062v-.351562h29.582031" stroke="#a9a9a9" stroke-linejoin="round"/><path d="m382.65625 279.878906v-.785156h13.320312" stroke="#a9a9a9" stroke-linejoin="round"/><path d="m395.976562 279.09375v-.523438h10.492188" stroke="#a9a9a9" stroke-linejoin="round"/><path d="m406.46875 278.570312v.351563h7.851562" stroke="#a9a9a9" stroke-linejoin="round"/><path d="m406.46875 278.570312v-.347656h7.851562" stroke="#a9a9a9" stroke-linejoin="round"/><path d="m395.976562 279.09375v.523438h18.34375" stroke="#a9a9a9" stroke-linejoin="round"/><path d="m234.554688 280.195312v-5.261718h6.605468" stroke="#a9a9a9" stroke-linejoin="round"/><path d="m241.160156 274.933594v-2.242188h11.859375" stroke="#a9a9a9" stroke-linejoin="round"/><path d="m253.019531 272.691406v2.394532h18.917969" stroke="#a9a9a9" stroke-linejoin="round"/><path d="m271.9375 275.085938v-.699219h74.621094" stroke="#a9a9a9" stroke-linejoin="round"/><path d="m346.558594 274.386719v.351562h67.761718" stroke="#a9a9a9" stroke-linejoin="round"/><path d="m346.558594 274.386719v-.347657h67.761718" stroke="#a9a9a9" stroke-linejoin="round"/><path d="m271.9375 275.085938v.695312h124.066406" stroke="#a9a9a9" stroke-linejoin="round"/><path d="m396.003906 275.78125v.351562h18.316406" stroke="#a9a9a9" stroke-linejoin="round"/><path d="m396.003906 275.78125v-.347656h18.316406" stroke="#a9a9a9" stroke-linejoin="round"/><path d="m253.019531 272.691406v-2.394531h105.953125" stroke="#a9a9a9" stroke-linejoin="round"/><path d="m358.972656 270.296875v2.390625h22.632813" stroke="#a9a9a9" stroke-linejoin="round"/><path d="m381.605469 272.6875v-.652344h17.363281" stroke="#a9a9a9" stroke-linejoin="round"/><path d="m398.96875 272.035156v.609375h15.351562" stroke="#a9a9a9" stroke-linejoin="round"/><path d="m398.96875 272.035156v-.609375h2.535156" stroke="#a9a9a9" stroke-linejoin="round"/><path d="m401.503906 271.425781v-.523437h10.582032" stroke="#a9a9a9" stroke-linejoin="round"/><path d="m412.085938 270.902344v.347656h2.234374" stroke="#a9a9a9" stroke-linejoin="round"/><path d="m412.085938 270.902344v-.347656h2.234374" stroke="#a9a9a9" stroke-linejoin="round"/><path d="m401.503906 271.425781v.523438h12.816406" stroke="#a9a9a9" stroke-linejoin="round"/><path d="m381.605469 272.6875v.65625h32.714843" stroke="#a9a9a9" stroke-linejoin="round"/><path d="m358.972656 270.296875v-2.390625h21.023438" stroke="#a9a9a9" stroke-linejoin="round"/><path d="m379.996094 267.90625v-1.425781h1.699218" stroke="#a9a9a9" stroke-linejoin="round"/><path d="m381.695312 266.480469v1.285156h32.625" stroke="#a9a9a9" stroke-linejoin="round"/><path d="m381.695312 266.480469v-1.285157h1.75" stroke="#a9a9a9" stroke-linejoin="round"/><path d="m383.445312 265.195312v1.351563h12.253907" stroke="#a9a9a9" stroke-linejoin="round"/><path d="m395.699219 266.546875v.523437h18.621093" stroke="#a9a9a9" stroke-linejoin="round"/><path d="m395.699219 266.546875v-.523437h17.378906" stroke="#a9a9a9" stroke-linejoin="round"/><path d="m413.078125 266.023438v.347656h1.242187" stroke="#a9a9a9" stroke-linejoin="round"/><path d="m413.078125 266.023438v-.347657h1.242187" stroke="#a9a9a9" stroke-linejoin="round"/><path d="m383.445312 265.195312v-1.351562h8.203126" stroke="#a9a9a9" stroke-linejoin="round"/><path d="m391.648438 263.84375v.785156h21.722656" stroke="#a9a9a9" stroke-linejoin="round"/><path d="m413.371094 264.628906v.347656h.949218" stroke="#a9a9a9" stroke-linejoin="round"/><path d="m413.371094 264.628906v-.347656h.949218" stroke="#a9a9a9" stroke-linejoin="round"/><path d="m391.648438 263.84375v-.785156h9.460937" stroke="#a9a9a9" stroke-linejoin="round"/><path d="m401.109375 263.058594v-.519532h11.582031" stroke="#a9a9a9" stroke-linejoin="round"/><path d="m412.691406 262.539062v.347657h1.628906" stroke="#a9a9a9" stroke-linejoin="round"/><path d="m412.691406 262.539062v-.351562h1.628906" stroke="#a9a9a9" stroke-linejoin="round"/><path d="m401.109375 263.058594v.523437h13.210937" stroke="#a9a9a9" stroke-linejoin="round"/><path d="m379.996094 267.90625v1.429688h16.730468" stroke="#a9a9a9" stroke-linejoin="round"/><path d="m396.726562 269.335938v.519531h17.59375" stroke="#a9a9a9" stroke-linejoin="round"/><path d="m396.726562 269.335938v-.523438h4.121094" stroke="#a9a9a9" stroke-linejoin="round"/><path d="m400.847656 268.8125v.347656h13.472656" stroke="#a9a9a9" stroke-linejoin="round"/><path d="m400.847656 268.8125v-.351562h13.472656" stroke="#a9a9a9" stroke-linejoin="round"/><path d="m241.160156 274.933594v2.242187h161.503906" stroke="#a9a9a9" stroke-linejoin="round"/><path d="m402.664062 277.175781v.351563h11.65625" stroke="#a9a9a9" stroke-linejoin="round"/><path d="m402.664062 277.175781v-.347656h11.65625" stroke="#a9a9a9" stroke-linejoin="round"/><path d="m183.46875 287.421875v7.226563h119.449219" stroke="#a9a9a9" stroke-linejoin="round"/><path d="m302.917969 294.648438v-1.742188h14.738281" stroke="#a9a9a9" stroke-linejoin="round"/><path d="m317.65625 292.90625v.652344h96.664062" stroke="#a9a9a9" stroke-linejoin="round"/><path d="m317.65625 292.90625v-.652344h55.195312" stroke="#a9a9a9" stroke-linejoin="round"/><path d="m372.851562 292.253906v.609375h41.46875" stroke="#a9a9a9" stroke-linejoin="round"/><path d="m372.851562 292.253906v-.609375h26.304688" stroke="#a9a9a9" stroke-linejoin="round"/><path d="m399.15625 291.644531v.519531h15.164062" stroke="#a9a9a9" stroke-linejoin="round"/><path d="m399.15625 291.644531v-.523437h8.761719" stroke="#a9a9a9" stroke-linejoin="round"/><path d="m407.917969 291.121094v.347656h6.402343" stroke="#a9a9a9" stroke-linejoin="round"/><path d="m407.917969 291.121094v-.351563h6.402343" stroke="#a9a9a9" stroke-linejoin="round"/><path d="m302.917969 294.648438v1.742187h34.257812" stroke="#a9a9a9" stroke-linejoin="round"/><path d="m337.175781 296.390625v.65625h77.144531" stroke="#a9a9a9" stroke-linejoin="round"/><path d="m337.175781 296.390625v-.652344h8.851563" stroke="#a9a9a9" stroke-linejoin="round"/><path d="m346.027344 295.738281v.609375h68.292968" stroke="#a9a9a9" stroke-linejoin="round"/><path d="m346.027344 295.738281v-.609375h38.457031" stroke="#a9a9a9" stroke-linejoin="round"/><path d="m384.484375 295.128906v.523438h29.835937" stroke="#f00" stroke-linejoin="round"/><path d="m384.484375 295.128906v-.523437h8.21875" stroke="#a9a9a9" stroke-linejoin="round"/><path d="m392.703125 294.605469v.347656h21.617187" stroke="#a9a9a9" stroke-linejoin="round"/><path d="m392.703125 294.605469v-.347657h21.617187" stroke="#a9a9a9" stroke-linejoin="round"/><path d="m156.011719 301.574219v7.707031h95.320312" stroke="#a9a9a9" stroke-linejoin="round"/><path d="m251.332031 309.28125v-1.707031h30.09375" stroke="#a9a9a9" stroke-linejoin="round"/><path d="m281.425781 307.574219v-1.585938h37.039063" stroke="#a9a9a9" stroke-linejoin="round"/><path d="m318.464844 305.988281v.816407h95.855468" stroke="#a9a9a9" stroke-linejoin="round"/><path d="m318.464844 305.988281v-.816406h42.984375" stroke="#a9a9a9" stroke-linejoin="round"/><path d="m361.449219 305.171875v-.9375h17.144531" stroke="#a9a9a9" stroke-linejoin="round"/><path d="m378.59375 304.234375v-.828125h7.148438" stroke="#a9a9a9" stroke-linejoin="round"/><path d="m385.742188 303.40625v.609375h28.578124" stroke="#a9a9a9" stroke-linejoin="round"/><path d="m385.742188 303.40625v-.609375h11.472656" stroke="#a9a9a9" stroke-linejoin="round"/><path d="m397.214844 302.796875v.523437h17.105468" stroke="#a9a9a9" stroke-linejoin="round"/><path d="m397.214844 302.796875v-.523437h13.285156" stroke="#a9a9a9" stroke-linejoin="round"/><path d="m410.5 302.273438v.347656h3.820312" stroke="#a9a9a9" stroke-linejoin="round"/><path d="m410.5 302.273438v-.347657h3.820312" stroke="#a9a9a9" stroke-linejoin="round"/><path d="m378.59375 304.234375v.828125h23.929688" stroke="#a9a9a9" stroke-linejoin="round"/><path d="m402.523438 305.0625v.347656h11.796874" stroke="#a9a9a9" stroke-linejoin="round"/><path d="m402.523438 305.0625v-.347656h11.796874" stroke="#a9a9a9" stroke-linejoin="round"/><path d="m361.449219 305.171875v.9375h52.871093" stroke="#a9a9a9" stroke-linejoin="round"/><path d="m281.425781 307.574219v1.585937h30.347657" stroke="#a9a9a9" stroke-linejoin="round"/><path d="m311.773438 309.160156v-.785156h10.015624" stroke="#a9a9a9" stroke-linejoin="round"/><path d="m321.789062 308.375v-.523438h57.457032" stroke="#a9a9a9" stroke-linejoin="round"/><path d="m379.246094 307.851562v.347657h35.074218" stroke="#a9a9a9" stroke-linejoin="round"/><path d="m379.246094 307.851562v-.347656h35.074218" stroke="#a9a9a9" stroke-linejoin="round"/><path d="m321.789062 308.375v.523438h92.53125" stroke="#a9a9a9" stroke-linejoin="round"/><path d="m311.773438 309.160156v.78125h100.804687" stroke="#a9a9a9" stroke-linejoin="round"/><path d="m412.578125 309.941406v.351563h1.742187" stroke="#a9a9a9" stroke-linejoin="round"/><path d="m412.578125 309.941406v-.347656h1.742187" stroke="#a9a9a9" stroke-linejoin="round"/><path d="m251.332031 309.28125v1.707031h162.988281" stroke="#a9a9a9" stroke-linejoin="round"/><path d="m89.453125 306.140625v36.9375h13.566406" stroke="#a9a9a9" stroke-linejoin="round"/><path d="m103.019531 343.078125v-12.417969h29.03125" stroke="#a9a9a9" stroke-linejoin="round"/><path d="m132.050781 330.660156v-5.445312h30.097657" stroke="#a9a9a9" stroke-linejoin="round"/><path d="m162.148438 325.214844v-5.894532h75.851562" stroke="#a9a9a9" stroke-linejoin="round"/><path d="m238 319.320312v-2.734374h92.066406" stroke="#a9a9a9" stroke-linejoin="round"/><path d="m330.066406 316.585938v1.027343h70.71875" stroke="#a9a9a9" stroke-linejoin="round"/><path d="m400.785156 317.613281v.347657h13.535156" stroke="#a9a9a9" stroke-linejoin="round"/><path d="m400.785156 317.613281v-.351562h13.535156" stroke="#a9a9a9" stroke-linejoin="round"/><path d="m330.066406 316.585938v-1.023438h28.179688" stroke="#a9a9a9" stroke-linejoin="round"/><path d="m358.246094 315.5625v-1h7.382812" stroke="#a9a9a9" stroke-linejoin="round"/><path d="m365.628906 314.5625v.957031h44.773438" stroke="#a9a9a9" stroke-linejoin="round"/><path d="m410.402344 315.519531v.347657h3.917968" stroke="#a9a9a9" stroke-linejoin="round"/><path d="m410.402344 315.519531v-.347656h3.917968" stroke="#a9a9a9" stroke-linejoin="round"/><path d="m365.628906 314.5625v-.960938h2.609375" stroke="#a9a9a9" stroke-linejoin="round"/><path d="m368.238281 313.601562v-.871093h5.613281" stroke="#a9a9a9" stroke-linejoin="round"/><path d="m373.851562 312.730469v.699219h37.726563" stroke="#a9a9a9" stroke-linejoin="round"/><path d="m411.578125 313.429688v.347656h2.742187" stroke="#a9a9a9" stroke-linejoin="round"/><path d="m411.578125 313.429688v-.351563h2.742187" stroke="#a9a9a9" stroke-linejoin="round"/><path d="m373.851562 312.730469v-.695313h.941407" stroke="#a9a9a9" stroke-linejoin="round"/><path d="m374.792969 312.035156v.347656h39.527343" stroke="#a9a9a9" stroke-linejoin="round"/><path d="m374.792969 312.035156v-.347656h39.527343" stroke="#a9a9a9" stroke-linejoin="round"/><path d="m368.238281 313.601562v.871094h46.082031" stroke="#a9a9a9" stroke-linejoin="round"/><path d="m358.246094 315.5625v1.003906h56.074218" stroke="#a9a9a9" stroke-linejoin="round"/><path d="m238 319.320312v2.734376h95.648438" stroke="#a9a9a9" stroke-linejoin="round"/><path d="m333.648438 322.054688v1.742187h3.976562" stroke="#a9a9a9" stroke-linejoin="round"/><path d="m337.625 323.796875v.785156h67.8125" stroke="#a9a9a9" stroke-linejoin="round"/><path d="m405.4375 324.582031v.347657h8.882812" stroke="#a9a9a9" stroke-linejoin="round"/><path d="m405.4375 324.582031v-.347656h8.882812" stroke="#a9a9a9" stroke-linejoin="round"/><path d="m337.625 323.796875v-.78125h2.195312" stroke="#a9a9a9" stroke-linejoin="round"/><path d="m339.820312 323.015625v.523437h74.5" stroke="#a9a9a9" stroke-linejoin="round"/><path d="m339.820312 323.015625v-.523437h71.671876" stroke="#a9a9a9" stroke-linejoin="round"/><path d="m411.492188 322.492188v.347656h2.828124" stroke="#a9a9a9" stroke-linejoin="round"/><path d="m411.492188 322.492188v-.347657h2.828124" stroke="#a9a9a9" stroke-linejoin="round"/><path d="m333.648438 322.054688v-1.742188h1.398437" stroke="#a9a9a9" stroke-linejoin="round"/><path d="m335.046875 320.3125v.785156h77.464844" stroke="#a9a9a9" stroke-linejoin="round"/><path d="m412.511719 321.097656v.347656h1.808593" stroke="#a9a9a9" stroke-linejoin="round"/><path d="m412.511719 321.097656v-.347656h1.808593" stroke="#a9a9a9" stroke-linejoin="round"/><path d="m335.046875 320.3125v-.785156h42.269531" stroke="#a9a9a9" stroke-linejoin="round"/><path d="m377.316406 319.527344v.523437h37.003906" stroke="#a9a9a9" stroke-linejoin="round"/><path d="m377.316406 319.527344v-.523438h.605469" stroke="#a9a9a9" stroke-linejoin="round"/><path d="m377.921875 319.003906v.351563h36.398437" stroke="#a9a9a9" stroke-linejoin="round"/><path d="m377.921875 319.003906v-.347656h36.398437" stroke="#a9a9a9" stroke-linejoin="round"/><path d="m162.148438 325.214844v5.894531h101.414062" stroke="#a9a9a9" stroke-linejoin="round"/><path d="m263.5625 331.109375v1.492187h150.757812" stroke="#a9a9a9" stroke-linejoin="round"/><path d="m263.5625 331.109375v-1.492187h101.6875" stroke="#a9a9a9" stroke-linejoin="round"/><path d="m365.25 329.617188v1.675781h12.222656" stroke="#a9a9a9" stroke-linejoin="round"/><path d="m377.472656 331.292969v.609375h36.847656" stroke="#a9a9a9" stroke-linejoin="round"/><path d="m377.472656 331.292969v-.609375h13.664063" stroke="#a9a9a9" stroke-linejoin="round"/><path d="m391.136719 330.683594v.523437h23.183593" stroke="#a9a9a9" stroke-linejoin="round"/><path d="m391.136719 330.683594v-.523438h21.117187" stroke="#a9a9a9" stroke-linejoin="round"/><path d="m412.253906 330.160156v.347656h2.066406" stroke="#a9a9a9" stroke-linejoin="round"/><path d="m412.253906 330.160156v-.347656h2.066406" stroke="#f00" stroke-linejoin="round"/><path d="m365.25 329.617188v-1.679688h16.742188" stroke="#a9a9a9" stroke-linejoin="round"/><path d="m381.992188 327.9375v.828125h11.238281" stroke="#a9a9a9" stroke-linejoin="round"/><path d="m393.230469 328.765625v.347656h21.089843" stroke="#a9a9a9" stroke-linejoin="round"/><path d="m393.230469 328.765625v-.347656h21.089843" stroke="#a9a9a9" stroke-linejoin="round"/><path d="m381.992188 327.9375v-.828125h12.644531" stroke="#a9a9a9" stroke-linejoin="round"/><path d="m394.636719 327.109375v-.609375h8.773437" stroke="#a9a9a9" stroke-linejoin="round"/><path d="m403.410156 326.5v-.523438h6.578125" stroke="#a9a9a9" stroke-linejoin="round"/><path d="m409.988281 325.976562v.347657h4.332031" stroke="#a9a9a9" stroke-linejoin="round"/><path d="m409.988281 325.976562v-.347656h4.332031" stroke="#a9a9a9" stroke-linejoin="round"/><path d="m403.410156 326.5v.523438h10.910156" stroke="#a9a9a9" stroke-linejoin="round"/><path d="m394.636719 327.109375v.609375h19.683593" stroke="#a9a9a9" stroke-linejoin="round"/><path d="m132.050781 330.660156v5.449219h197.996094" stroke="#a9a9a9" stroke-linejoin="round"/><path d="m330.046875 336.109375v.671875h84.273437" stroke="#a9a9a9" stroke-linejoin="round"/><path d="m330.046875 336.109375v-.675781h41.996094" stroke="#a9a9a9" stroke-linejoin="round"/><path d="m372.042969 335.433594v.652344h42.277343" stroke="#a9a9a9" stroke-linejoin="round"/><path d="m372.042969 335.433594v-.65625h16.023437" stroke="#a9a9a9" stroke-linejoin="round"/><path d="m388.066406 334.777344v-.609375h15.726563" stroke="#a9a9a9" stroke-linejoin="round"/><path d="m403.792969 334.167969v-.523438h8.097656" stroke="#a9a9a9" stroke-linejoin="round"/><path d="m411.890625 333.644531v.351563h2.429687" stroke="#a9a9a9" stroke-linejoin="round"/><path d="m411.890625 333.644531v-.347656h2.429687" stroke="#a9a9a9" stroke-linejoin="round"/><path d="m403.792969 334.167969v.523437h10.527343" stroke="#a9a9a9" stroke-linejoin="round"/><path d="m388.066406 334.777344v.609375h26.253906" stroke="#a9a9a9" stroke-linejoin="round"/><path d="m103.019531 343.078125v12.414063h131.71875" stroke="#a9a9a9" stroke-linejoin="round"/><path d="m234.738281 355.492188v-4.574219h30.667969" stroke="#a9a9a9" stroke-linejoin="round"/><path d="m265.40625 350.917969v3.640625h133.875" stroke="#a9a9a9" stroke-linejoin="round"/><path d="m399.28125 354.558594v.351562h15.039062" stroke="#a9a9a9" stroke-linejoin="round"/><path d="m399.28125 354.558594v-.347656h15.039062" stroke="#a9a9a9" stroke-linejoin="round"/><path d="m265.40625 350.917969v-3.644531h16.34375" stroke="#a9a9a9" stroke-linejoin="round"/><path d="m281.75 347.273438v3.84375h19.96875" stroke="#a9a9a9" stroke-linejoin="round"/><path d="m301.71875 351.117188v1.742187h50.910156" stroke="#a9a9a9" stroke-linejoin="round"/><path d="m352.628906 352.859375v-.652344h25.296875" stroke="#a9a9a9" stroke-linejoin="round"/><path d="m377.925781 352.207031v-.609375h28.625" stroke="#a9a9a9" stroke-linejoin="round"/><path d="m406.550781 351.597656v.523438h7.769531" stroke="#a9a9a9" stroke-linejoin="round"/><path d="m406.550781 351.597656v-.523437h2.488281" stroke="#a9a9a9" stroke-linejoin="round"/><path d="m409.039062 351.074219v.347656h5.28125" stroke="#a9a9a9" stroke-linejoin="round"/><path d="m409.039062 351.074219v-.347657h5.28125" stroke="#a9a9a9" stroke-linejoin="round"/><path d="m377.925781 352.207031v.609375h36.394531" stroke="#a9a9a9" stroke-linejoin="round"/><path d="m352.628906 352.859375v.65625h61.691406" stroke="#a9a9a9" stroke-linejoin="round"/><path d="m301.71875 351.117188v-1.742188h49.644531" stroke="#a9a9a9" stroke-linejoin="round"/><path d="m351.363281 349.375v.652344h62.957031" stroke="#a9a9a9" stroke-linejoin="round"/><path d="m351.363281 349.375v-.652344h6.410157" stroke="#a9a9a9" stroke-linejoin="round"/><path d="m357.773438 348.722656v-.609375h5.0625" stroke="#a9a9a9" stroke-linejoin="round"/><path d="m362.835938 348.113281v.519531h51.484374" stroke="#a9a9a9" stroke-linejoin="round"/><path d="m362.835938 348.113281v-.523437h46.839843" stroke="#a9a9a9" stroke-linejoin="round"/><path d="m409.675781 347.589844v.347656h4.644531" stroke="#a9a9a9" stroke-linejoin="round"/><path d="m409.675781 347.589844v-.351563h4.644531" stroke="#a9a9a9" stroke-linejoin="round"/><path d="m357.773438 348.722656v.609375h56.546874" stroke="#a9a9a9" stroke-linejoin="round"/><path d="m281.75 347.273438v-3.847657h22.917969" stroke="#a9a9a9" stroke-linejoin="round"/><path d="m304.667969 343.425781v2.464844h65.773437" stroke="#a9a9a9" stroke-linejoin="round"/><path d="m370.441406 345.890625v.652344h43.878906" stroke="#a9a9a9" stroke-linejoin="round"/><path d="m370.441406 345.890625v-.65625h4.859375" stroke="#a9a9a9" stroke-linejoin="round"/><path d="m375.300781 345.234375v.613281h39.019531" stroke="#a9a9a9" stroke-linejoin="round"/><path d="m375.300781 345.234375v-.609375h17.148438" stroke="#a9a9a9" stroke-linejoin="round"/><path d="m392.449219 344.625v.523438h21.871093" stroke="#a9a9a9" stroke-linejoin="round"/><path d="m392.449219 344.625v-.523438h8.386719" stroke="#a9a9a9" stroke-linejoin="round"/><path d="m400.835938 344.101562v.351563h13.484374" stroke="#a9a9a9" stroke-linejoin="round"/><path d="m400.835938 344.101562v-.347656h13.484374" stroke="#a9a9a9" stroke-linejoin="round"/><path d="m304.667969 343.425781v-2.460937h2.128906" stroke="#a9a9a9" stroke-linejoin="round"/><path d="m306.796875 340.964844v1.570312h62.59375" stroke="#a9a9a9" stroke-linejoin="round"/><path d="m369.390625 342.535156v-.523437h38.34375" stroke="#a9a9a9" stroke-linejoin="round"/><path d="m407.734375 342.011719v.347656h6.585937" stroke="#a9a9a9" stroke-linejoin="round"/><path d="m407.734375 342.011719v-.347657h6.585937" stroke="#a9a9a9" stroke-linejoin="round"/><path d="m369.390625 342.535156v.523438h44.929687" stroke="#a9a9a9" stroke-linejoin="round"/><path d="m306.796875 340.964844v-1.566406h39.910156" stroke="#a9a9a9" stroke-linejoin="round"/><path d="m346.707031 339.398438v1.042968h33.125" stroke="#a9a9a9" stroke-linejoin="round"/><path d="m379.832031 340.441406v-.519531h33.875" stroke="#a9a9a9" stroke-linejoin="round"/><path d="m413.707031 339.921875v.347656h.613281" stroke="#a9a9a9" stroke-linejoin="round"/><path d="m413.707031 339.921875v-.351563h.613281" stroke="#f00" stroke-linejoin="round"/><path d="m379.832031 340.441406v.523438h34.488281" stroke="#a9a9a9" stroke-linejoin="round"/><path d="m346.707031 339.398438v-1.046876h28.113281" stroke="#a9a9a9" stroke-linejoin="round"/><path d="m374.820312 338.351562v.523438h39.5" stroke="#a9a9a9" stroke-linejoin="round"/><path d="m374.820312 338.351562v-.523437h29.367188" stroke="#a9a9a9" stroke-linejoin="round"/><path d="m404.1875 337.828125v.347656h10.132812" stroke="#a9a9a9" stroke-linejoin="round"/><path d="m404.1875 337.828125v-.347656h10.132812" stroke="#a9a9a9" stroke-linejoin="round"/><path d="m234.738281 355.492188v4.578124h75.140625" stroke="#a9a9a9" stroke-linejoin="round"/><path d="m309.878906 360.070312v1.898438h86.816406" stroke="#a9a9a9" stroke-linejoin="round"/><path d="m396.695312 361.96875v.609375h17.625" stroke="#a9a9a9" stroke-linejoin="round"/><path d="m396.695312 361.96875v-.613281h1.222657" stroke="#a9a9a9" stroke-linejoin="round"/><path d="m397.917969 361.355469v-.519531h5.984375" stroke="#a9a9a9" stroke-linejoin="round"/><path d="m403.902344 360.835938v.347656h10.417968" stroke="#a9a9a9" stroke-linejoin="round"/><path d="m403.902344 360.835938v-.351563h10.417968" stroke="#a9a9a9" stroke-linejoin="round"/><path d="m397.917969 361.355469v.523437h16.402343" stroke="#a9a9a9" stroke-linejoin="round"/><path d="m309.878906 360.070312v-1.894531h46.148438" stroke="#a9a9a9" stroke-linejoin="round"/><path d="m356.027344 358.175781v1.089844h48.640625" stroke="#a9a9a9" stroke-linejoin="round"/><path d="m404.667969 359.265625v-.523437h5.9375" stroke="#a9a9a9" stroke-linejoin="round"/><path d="m410.605469 358.742188v.347656h3.714843" stroke="#a9a9a9" stroke-linejoin="round"/><path d="m410.605469 358.742188v-.347657h3.714843" stroke="#a9a9a9" stroke-linejoin="round"/><path d="m404.667969 359.265625v.523437h9.652343" stroke="#a9a9a9" stroke-linejoin="round"/><path d="m356.027344 358.175781v-1.089843h26.855468" stroke="#a9a9a9" stroke-linejoin="round"/><path d="m382.882812 357.085938v-.609376h20.621094" stroke="#a9a9a9" stroke-linejoin="round"/><path d="m403.503906 356.476562v.523438h10.816406" stroke="#a9a9a9" stroke-linejoin="round"/><path d="m403.503906 356.476562v-.523437h8.574219" stroke="#a9a9a9" stroke-linejoin="round"/><path d="m412.078125 355.953125v.351563h2.242187" stroke="#a9a9a9" stroke-linejoin="round"/><path d="m412.078125 355.953125v-.347656h2.242187" stroke="#a9a9a9" stroke-linejoin="round"/><path d="m382.882812 357.085938v.609374h31.4375" stroke="#a9a9a9" stroke-linejoin="round"/><path d="m12.960938 12.960938h406.078124" stroke="#fff" stroke-width="1.25"/></g></svg>