<svg height="396pt" viewBox="0 0 432 396" width="432pt" xmlns="http://www.w3.org/2000/svg" xmlns:xlink="http://www.w3.org/1999/xlink"><clipPath id="a"><path d="m69 31.679688h2v331.78125h-2zm0 0"/></clipPath><clipPath id="b"><path d="m136 31.679688h2v331.78125h-2zm0 0"/></clipPath><clipPath id="c"><path d="m202 31.679688h2v331.78125h-2zm0 0"/></clipPath><clipPath id="d"><path d="m269 31.679688h2v331.78125h-2zm0 0"/></clipPath><clipPath id="e"><path d="m335 31.679688h2v331.78125h-2zm0 0"/></clipPath><clipPath id="f"><path d="m402 31.679688h2v331.78125h-2zm0 0"/></clipPath><clipPath id="g"><path d="m53.058594 362h365.980468v1.460938h-365.980468zm0 0"/></clipPath><clipPath id="h"><path d="m53.058594 318h365.980468v2h-365.980468zm0 0"/></clipPath><clipPath id="i"><path d="m53.058594 274h365.980468v2h-365.980468zm0 0"/></clipPath><clipPath id="j"><path d="m53.058594 230h365.980468v2h-365.980468zm0 0"/></clipPath><clipPath id="k"><path d="m53.058594 186h365.980468v2h-365.980468zm0 0"/></clipPath><clipPath id="l"><path d="m53.058594 142h365.980468v2h-365.980468zm0 0"/></clipPath><clipPath id="m"><path d="m53.058594 98h365.980468v2h-365.980468zm0 0"/></clipPath><clipPath id="n"><path d="m53.058594 54h365.980468v2h-365.980468zm0 0"/></clipPath><clipPath id="o"><path d="m69 185h2v178.460938h-2zm0 0"/></clipPath><clipPath id="p"><path d="m70 47h1v316.460938h-1zm0 0"/></clipPath><clipPath id="q"><path d="m71 48h1v315.460938h-1zm0 0"/></clipPath><clipPath id="r"><path d="m71 233h2v130.460938h-2zm0 0"/></clipPath><clipPath id="s"><path d="m72 204h1v159.460938h-1zm0 0"/></clipPath><clipPath id="t"><path d="m73 115h1v248.460938h-1zm0 0"/></clipPath><clipPath id="u"><path d="m73 127h2v236.460938h-2zm0 0"/></clipPath><clipPath id="v"><path d="m74 146h1v217.460938h-1zm0 0"/></clipPath><clipPath id="w"><path d="m75 171h1v192.460938h-1zm0 0"/></clipPath><clipPath id="x"><path d="m75 168h2v195.460938h-2zm0 0"/></clipPath><clipPath id="y"><path d="m76 180h1v183.460938h-1zm0 0"/></clipPath><clipPath id="z"><path d="m77 191h1v172.460938h-1zm0 0"/></clipPath><clipPath id="A"><path d="m77 283h2v80.460938h-2zm0 0"/></clipPath><clipPath id="B"><path d="m78 228h1v135.460938h-1zm0 0"/></clipPath><clipPath id="C"><path d="m79 190h1v173.460938h-1zm0 0"/></clipPath><clipPath id="D"><path d="m79 230h2v133.460938h-2zm0 0"/></clipPath><clipPath id="E"><path d="m80 189h1v174.460938h-1zm0 0"/></clipPath><clipPath id="F"><path d="m81 200h1v163.460938h-1zm0 0"/></clipPath><clipPath id="G"><path d="m81 203h2v160.460938h-2zm0 0"/></clipPath><clipPath id="H"><path d="m82 276h1v87.460938h-1zm0 0"/></clipPath><clipPath id="I"><path d="m83 170h1v193.460938h-1zm0 0"/></clipPath><clipPath id="J"><path d="m83 214h2v149.460938h-2zm0 0"/></clipPath><clipPath id="K"><path d="m84 293h1v70.460938h-1zm0 0"/></clipPath><clipPath id="L"><path d="m85 250h1v113.460938h-1zm0 0"/></clipPath><clipPath id="M"><path d="m85 233h2v130.460938h-2zm0 0"/></clipPath><clipPath id="N"><path d="m86 300h1v63.460938h-1zm0 0"/></clipPath><clipPath id="O"><path d="m87 238h1v125.460938h-1zm0 0"/></clipPath><clipPath id="P"><path d="m87 283h2v80.460938h-2zm0 0"/></clipPath><clipPath id="Q"><path d="m88 271h1v92.460938h-1zm0 0"/></clipPath><clipPath id="R"><path d="m89 249h1v114.460938h-1zm0 0"/></clipPath><clipPath id="S"><path d="m89 301h2v62.460938h-2zm0 0"/></clipPath><clipPath id="T"><path d="m90 314h1v49.460938h-1zm0 0"/></clipPath><clipPath id="U"><path d="m90 310h2v53.460938h-2zm0 0"/></clipPath><clipPath id="V"><path d="m91 235h2v128.460938h-2zm0 0"/></clipPath><clipPath id="W"><path d="m92 262h1v101.460938h-1zm0 0"/></clipPath><clipPath id="X"><path d="m92 318h2v45.460938h-2zm0 0"/></clipPath><clipPath id="Y"><path d="m93 264h2v99.460938h-2zm0 0"/></clipPath><clipPath id="Z"><path d="m94 311h1v52.460938h-1zm0 0"/></clipPath><clipPath id="aa"><path d="m94 300h2v63.460938h-2zm0 0"/></clipPath><clipPath id="ab"><path d="m95 276h2v87.460938h-2zm0 0"/></clipPath><clipPath id="ac"><path d="m96 246h1v117.460938h-1zm0 0"/></clipPath><clipPath id="ad"><path d="m96 281h2v82.460938h-2zm0 0"/></clipPath><clipPath id="ae"><path d="m97 242h2v121.460938h-2zm0 0"/></clipPath><clipPath id="af"><path d="m98 274h1v89.460938h-1zm0 0"/></clipPath><clipPath id="ag"><path d="m98 268h2v95.460938h-2zm0 0"/></clipPath><clipPath id="ah"><path d="m99 316h2v47.460938h-2zm0 0"/></clipPath><clipPath id="ai"><path d="m100 256h1v107.460938h-1zm0 0"/></clipPath><clipPath id="aj"><path d="m100 296h2v67.460938h-2zm0 0"/></clipPath><clipPath id="ak"><path d="m101 322h2v41.460938h-2zm0 0"/></clipPath><clipPath id="al"><path d="m102 278h1v85.460938h-1zm0 0"/></clipPath><clipPath id="am"><path d="m102 285h2v78.460938h-2zm0 0"/></clipPath><clipPath id="an"><path d="m103 312h2v51.460938h-2zm0 0"/></clipPath><clipPath id="ao"><path d="m104 267h1v96.460938h-1zm0 0"/></clipPath><clipPath id="ap"><path d="m104 302h2v61.460938h-2zm0 0"/></clipPath><clipPath id="aq"><path d="m105 312h2v51.460938h-2zm0 0"/></clipPath><clipPath id="ar"><path d="m106 275h1v88.460938h-1zm0 0"/></clipPath><clipPath id="as"><path d="m106 305h2v58.460938h-2zm0 0"/></clipPath><clipPath id="at"><path d="m107 284h2v79.460938h-2zm0 0"/></clipPath><clipPath id="au"><path d="m108 284h1v79.460938h-1zm0 0"/></clipPath><clipPath id="av"><path d="m108 271h2v92.460938h-2zm0 0"/></clipPath><clipPath id="aw"><path d="m109 291h2v72.460938h-2zm0 0"/></clipPath><clipPath id="ax"><path d="m110 324h1v39.460938h-1zm0 0"/></clipPath><clipPath id="ay"><path d="m110 331h2v32.460938h-2zm0 0"/></clipPath><clipPath id="az"><path d="m111 276h2v87.460938h-2zm0 0"/></clipPath><clipPath id="aA"><path d="m112 295h1v68.460938h-1zm0 0"/></clipPath><clipPath id="aB"><path d="m112 299h2v64.460938h-2zm0 0"/></clipPath><clipPath id="aC"><path d="m113 326h2v37.460938h-2zm0 0"/></clipPath><clipPath id="aD"><path d="m114 335h1v28.460938h-1zm0 0"/></clipPath><clipPath id="aE"><path d="m114 272h2v91.460938h-2zm0 0"/></clipPath><clipPath id="aF"><path d="m115 338h2v25.460938h-2zm0 0"/></clipPath><clipPath id="aG"><path d="m116 314h1v49.460938h-1zm0 0"/></clipPath><clipPath id="aH"><path d="m116 296h2v67.460938h-2zm0 0"/></clipPath><clipPath id="aI"><path d="m117 305h2v58.460938h-2zm0 0"/></clipPath><clipPath id="aJ"><path d="m118 303h1v60.460938h-1zm0 0"/></clipPath><clipPath id="aK"><path d="m118 297h2v66.460938h-2zm0 0"/></clipPath><clipPath id="aL"><path d="m119 309h2v54.460938h-2zm0 0"/></clipPath><clipPath id="aM"><path d="m120 290h1v73.460938h-1zm0 0"/></clipPath><clipPath id="aN"><path d="m120 314h2v49.460938h-2zm0 0"/></clipPath><clipPath id="aO"><path d="m121 304h2v59.460938h-2zm0 0"/></clipPath><clipPath id="aP"><path d="m122 295h1v68.460938h-1zm0 0"/></clipPath><clipPath id="aQ"><path d="m122 273h2v90.460938h-2zm0 0"/></clipPath><clipPath id="aR"><path d="m123 307h2v56.460938h-2zm0 0"/></clipPath><clipPath id="aS"><path d="m124 296h1v67.460938h-1zm0 0"/></clipPath><clipPath id="aT"><path d="m124 330h2v33.460938h-2zm0 0"/></clipPath><clipPath id="aU"><path d="m125 308h2v55.460938h-2zm0 0"/></clipPath><clipPath id="aV"><path d="m126 322h1v41.460938h-1zm0 0"/></clipPath><clipPath id="aW"><path d="m126 306h2v57.460938h-2zm0 0"/></clipPath><clipPath id="aX"><path d="m127 286h2v77.460938h-2zm0 0"/></clipPath><clipPath id="aY"><path d="m128 322h1v41.460938h-1zm0 0"/></clipPath><clipPath id="aZ"><path d="m128 294h2v69.460938h-2zm0 0"/></clipPath><clipPath id="a0"><path d="m129 306h2v57.460938h-2zm0 0"/></clipPath><clipPath id="a1"><path d="m130 315h1v48.460938h-1zm0 0"/></clipPath><clipPath id="a2"><path d="m130 310h2v53.460938h-2zm0 0"/></clipPath><clipPath id="a3"><path d="m131 309h2v54.460938h-2zm0 0"/></clipPath><clipPath id="a4"><path d="m132 315h1v48.460938h-1zm0 0"/></clipPath><clipPath id="a5"><path d="m132 319h2v44.460938h-2zm0 0"/></clipPath><clipPath id="a6"><path d="m133 305h2v58.460938h-2zm0 0"/></clipPath><clipPath id="a7"><path d="m134 346h1v17.460938h-1zm0 0"/></clipPath><clipPath id="a8"><path d="m134 337h2v26.460938h-2zm0 0"/></clipPath><clipPath id="a9"><path d="m135 306h2v57.460938h-2zm0 0"/></clipPath><clipPath id="ba"><path d="m136 294h1v69.460938h-1zm0 0"/></clipPath><clipPath id="bb"><path d="m136 319h2v44.460938h-2zm0 0"/></clipPath><clipPath id="bc"><path d="m137 326h2v37.460938h-2zm0 0"/></clipPath><clipPath id="bd"><path d="m138 322h1v41.460938h-1zm0 0"/></clipPath><clipPath id="be"><path d="m138 311h2v52.460938h-2zm0 0"/></clipPath><clipPath id="bf"><path d="m139 312h2v51.460938h-2zm0 0"/></clipPath><clipPath id="bg"><path d="m140 334h1v29.460938h-1zm0 0"/></clipPath><clipPath id="bh"><path d="m140 305h2v58.460938h-2zm0 0"/></clipPath><clipPath id="bi"><path d="m141 319h2v44.460938h-2zm0 0"/></clipPath><clipPath id="bj"><path d="m142 313h1v50.460938h-1zm0 0"/></clipPath><clipPath id="bk"><path d="m142 338h2v25.460938h-2zm0 0"/></clipPath><clipPath id="bl"><path d="m143 338h2v25.460938h-2zm0 0"/></clipPath><clipPath id="bm"><path d="m144 337h1v26.460938h-1zm0 0"/></clipPath><clipPath id="bn"><path d="m144 312h2v51.460938h-2zm0 0"/></clipPath><clipPath id="bo"><path d="m145 330h2v33.460938h-2zm0 0"/></clipPath><clipPath id="bp"><path d="m146 352h1v11.460938h-1zm0 0"/></clipPath><clipPath id="bq"><path d="m146 315h2v48.460938h-2zm0 0"/></clipPath><clipPath id="br"><path d="m147 317h2v46.460938h-2zm0 0"/></clipPath><clipPath id="bs"><path d="m148 353h1v10.460938h-1zm0 0"/></clipPath><clipPath id="bt"><path d="m148 322h2v41.460938h-2zm0 0"/></clipPath><clipPath id="bu"><path d="m149 345h2v18.460938h-2zm0 0"/></clipPath><clipPath id="bv"><path d="m150 340h1v23.460938h-1zm0 0"/></clipPath><clipPath id="bw"><path d="m150 324h2v39.460938h-2zm0 0"/></clipPath><clipPath id="bx"><path d="m151 311h2v52.460938h-2zm0 0"/></clipPath><clipPath id="by"><path d="m152 316h1v47.460938h-1zm0 0"/></clipPath><clipPath id="bz"><path d="m152 314h2v49.460938h-2zm0 0"/></clipPath><clipPath id="bA"><path d="m153 331h2v32.460938h-2zm0 0"/></clipPath><clipPath id="bB"><path d="m154 341h1v22.460938h-1zm0 0"/></clipPath><clipPath id="bC"><path d="m154 319h2v44.460938h-2zm0 0"/></clipPath><clipPath id="bD"><path d="m155 342h2v21.460938h-2zm0 0"/></clipPath><clipPath id="bE"><path d="m156 309h1v54.460938h-1zm0 0"/></clipPath><clipPath id="bF"><path d="m156 334h2v29.460938h-2zm0 0"/></clipPath><clipPath id="bG"><path d="m157 352h2v11.460938h-2zm0 0"/></clipPath><clipPath id="bH"><path d="m158 310h1v53.460938h-1zm0 0"/></clipPath><clipPath id="bI"><path d="m158 326h2v37.460938h-2zm0 0"/></clipPath><clipPath id="bJ"><path d="m159 317h2v46.460938h-2zm0 0"/></clipPath><clipPath id="bK"><path d="m160 315h1v48.460938h-1zm0 0"/></clipPath><clipPath id="bL"><path d="m160 316h2v47.460938h-2zm0 0"/></clipPath><clipPath id="bM"><path d="m161 322h2v41.460938h-2zm0 0"/></clipPath><clipPath id="bN"><path d="m162 354h1v9.460938h-1zm0 0"/></clipPath><clipPath id="bO"><path d="m162 312h2v51.460938h-2zm0 0"/></clipPath><clipPath id="bP"><path d="m163 329h2v34.460938h-2zm0 0"/></clipPath><clipPath id="bQ"><path d="m164 345h1v18.460938h-1zm0 0"/></clipPath><clipPath id="bR"><path d="m164 335h2v28.460938h-2zm0 0"/></clipPath><clipPath id="bS"><path d="m165 308h2v55.460938h-2zm0 0"/></clipPath><clipPath id="bT"><path d="m166 324h1v39.460938h-1zm0 0"/></clipPath><clipPath id="bU"><path d="m166 327h2v36.460938h-2zm0 0"/></clipPath><clipPath id="bV"><path d="m167 315h2v48.460938h-2zm0 0"/></clipPath><clipPath id="bW"><path d="m168 311h1v52.460938h-1zm0 0"/></clipPath><clipPath id="bX"><path d="m168 345h2v18.460938h-2zm0 0"/></clipPath><clipPath id="bY"><path d="m169 333h2v30.460938h-2zm0 0"/></clipPath><clipPath id="bZ"><path d="m170 350h1v13.460938h-1zm0 0"/></clipPath><clipPath id="b0"><path d="m170 329h2v34.460938h-2zm0 0"/></clipPath><clipPath id="b1"><path d="m171 326h2v37.460938h-2zm0 0"/></clipPath><clipPath id="b2"><path d="m172 327h1v36.460938h-1zm0 0"/></clipPath><clipPath id="b3"><path d="m172 336h2v27.460938h-2zm0 0"/></clipPath><clipPath id="b4"><path d="m173 358h2v5.460938h-2zm0 0"/></clipPath><clipPath id="b5"><path d="m174 332h1v31.460938h-1zm0 0"/></clipPath><clipPath id="b6"><path d="m174 330h2v33.460938h-2zm0 0"/></clipPath><clipPath id="b7"><path d="m175 337h2v26.460938h-2zm0 0"/></clipPath><clipPath id="b8"><path d="m176 317h1v46.460938h-1zm0 0"/></clipPath><clipPath id="b9"><path d="m176 348h2v15.460938h-2zm0 0"/></clipPath><clipPath id="ca"><path d="m177 330h2v33.460938h-2zm0 0"/></clipPath><clipPath id="cb"><path d="m178 335h1v28.460938h-1zm0 0"/></clipPath><clipPath id="cc"><path d="m178 324h2v39.460938h-2zm0 0"/></clipPath><clipPath id="cd"><path d="m179 332h2v31.460938h-2zm0 0"/></clipPath><clipPath id="ce"><path d="m180 321h1v42.460938h-1zm0 0"/></clipPath><clipPath id="cf"><path d="m180 331h2v32.460938h-2zm0 0"/></clipPath><clipPath id="cg"><path d="m181 351h2v12.460938h-2zm0 0"/></clipPath><clipPath id="ch"><path d="m182 343h1v20.460938h-1zm0 0"/></clipPath><clipPath id="ci"><path d="m182 342h2v21.460938h-2zm0 0"/></clipPath><clipPath id="cj"><path d="m183 332h2v31.460938h-2zm0 0"/></clipPath><clipPath id="ck"><path d="m184 337h1v26.460938h-1zm0 0"/></clipPath><clipPath id="cl"><path d="m184 326h2v37.460938h-2zm0 0"/></clipPath><clipPath id="cm"><path d="m185 348h2v15.460938h-2zm0 0"/></clipPath><clipPath id="cn"><path d="m186 337h1v26.460938h-1zm0 0"/></clipPath><clipPath id="co"><path d="m186 328h2v35.460938h-2zm0 0"/></clipPath><clipPath id="cp"><path d="m187 354h2v9.460938h-2zm0 0"/></clipPath><clipPath id="cq"><path d="m188 351h1v12.460938h-1zm0 0"/></clipPath><clipPath id="cr"><path d="m188 360h2v3.460938h-2zm0 0"/></clipPath><clipPath id="cs"><path d="m189 330h2v33.460938h-2zm0 0"/></clipPath><clipPath id="ct"><path d="m190 355h1v8.460938h-1zm0 0"/></clipPath><clipPath id="cu"><path d="m190 330h2v33.460938h-2zm0 0"/></clipPath><clipPath id="cv"><path d="m191 329h2v34.460938h-2zm0 0"/></clipPath><clipPath id="cw"><path d="m192 347h1v16.460938h-1zm0 0"/></clipPath><clipPath id="cx"><path d="m192 336h2v27.460938h-2zm0 0"/></clipPath><clipPath id="cy"><path d="m193 326h2v37.460938h-2zm0 0"/></clipPath><clipPath id="cz"><path d="m194 332h1v31.460938h-1zm0 0"/></clipPath><clipPath id="cA"><path d="m194 333h2v30.460938h-2zm0 0"/></clipPath><clipPath id="cB"><path d="m195 342h2v21.460938h-2zm0 0"/></clipPath><clipPath id="cC"><path d="m196 351h1v12.460938h-1zm0 0"/></clipPath><clipPath id="cD"><path d="m196 350h2v13.460938h-2zm0 0"/></clipPath><clipPath id="cE"><path d="m197 331h2v32.460938h-2zm0 0"/></clipPath><clipPath id="cF"><path d="m198 330h1v33.460938h-1zm0 0"/></clipPath><clipPath id="cG"><path d="m198 339h2v24.460938h-2zm0 0"/></clipPath><clipPath id="cH"><path d="m199 337h2v26.460938h-2zm0 0"/></clipPath><clipPath id="cI"><path d="m200 332h1v31.460938h-1zm0 0"/></clipPath><clipPath id="cJ"><path d="m200 346h2v17.460938h-2zm0 0"/></clipPath><clipPath id="cK"><path d="m201 345h2v18.460938h-2zm0 0"/></clipPath><clipPath id="cL"><path d="m202 335h1v28.460938h-1zm0 0"/></clipPath><clipPath id="cM"><path d="m202 352h2v11.460938h-2zm0 0"/></clipPath><clipPath id="cN"><path d="m203 352h2v11.460938h-2zm0 0"/></clipPath><clipPath id="cO"><path d="m204 335h1v28.460938h-1zm0 0"/></clipPath><clipPath id="cP"><path d="m204 333h2v30.460938h-2zm0 0"/></clipPath><clipPath id="cQ"><path d="m205 338h2v25.460938h-2zm0 0"/></clipPath><clipPath id="cR"><path d="m206 356h1v7.460938h-1zm0 0"/></clipPath><clipPath id="cS"><path d="m206 330h2v33.460938h-2zm0 0"/></clipPath><clipPath id="cT"><path d="m207 339h2v24.460938h-2zm0 0"/></clipPath><clipPath id="cU"><path d="m208 338h1v25.460938h-1zm0 0"/></clipPath><clipPath id="cV"><path d="m208 333h2v30.460938h-2zm0 0"/></clipPath><clipPath id="cW"><path d="m209 338h2v25.460938h-2zm0 0"/></clipPath><clipPath id="cX"><path d="m210 347h1v16.460938h-1zm0 0"/></clipPath><clipPath id="cY"><path d="m210 358h2v5.460938h-2zm0 0"/></clipPath><clipPath id="cZ"><path d="m211 352h2v11.460938h-2zm0 0"/></clipPath><clipPath id="c0"><path d="m212 333h1v30.460938h-1zm0 0"/></clipPath><clipPath id="c1"><path d="m212 343h2v20.460938h-2zm0 0"/></clipPath><clipPath id="c2"><path d="m213 345h2v18.460938h-2zm0 0"/></clipPath><clipPath id="c3"><path d="m214 340h1v23.460938h-1zm0 0"/></clipPath><clipPath id="c4"><path d="m214 341h2v22.460938h-2zm0 0"/></clipPath><clipPath id="c5"><path d="m215 345h2v18.460938h-2zm0 0"/></clipPath><clipPath id="c6"><path d="m216 340h1v23.460938h-1zm0 0"/></clipPath><clipPath id="c7"><path d="m216 361h2v2.460938h-2zm0 0"/></clipPath><clipPath id="c8"><path d="m217 334h2v29.460938h-2zm0 0"/></clipPath><clipPath id="c9"><path d="m218 357h1v6.460938h-1zm0 0"/></clipPath><clipPath id="da"><path d="m218 342h2v21.460938h-2zm0 0"/></clipPath><clipPath id="db"><path d="m219 357h2v6.460938h-2zm0 0"/></clipPath><clipPath id="dc"><path d="m220 338h1v25.460938h-1zm0 0"/></clipPath><clipPath id="dd"><path d="m220 343h2v20.460938h-2zm0 0"/></clipPath><clipPath id="de"><path d="m221 334h2v29.460938h-2zm0 0"/></clipPath><clipPath id="df"><path d="m222 349h1v14.460938h-1zm0 0"/></clipPath><clipPath id="dg"><path d="m222 335h2v28.460938h-2zm0 0"/></clipPath><clipPath id="dh"><path d="m223 343h1v20.460938h-1zm0 0"/></clipPath><clipPath id="di"><path d="m224 344h1v19.460938h-1zm0 0"/></clipPath><clipPath id="dj"><path d="m224 342h2v21.460938h-2zm0 0"/></clipPath><clipPath id="dk"><path d="m225 354h1v9.460938h-1zm0 0"/></clipPath><clipPath id="dl"><path d="m226 341h1v22.460938h-1zm0 0"/></clipPath><clipPath id="dm"><path d="m226 334h2v29.460938h-2zm0 0"/></clipPath><clipPath id="dn"><path d="m227 341h1v22.460938h-1zm0 0"/></clipPath><clipPath id="do"><path d="m228 343h1v20.460938h-1zm0 0"/></clipPath><clipPath id="dp"><path d="m228 347h2v16.460938h-2zm0 0"/></clipPath><clipPath id="dq"><path d="m229 350h1v13.460938h-1zm0 0"/></clipPath><clipPath id="dr"><path d="m230 350h1v13.460938h-1zm0 0"/></clipPath><clipPath id="ds"><path d="m230 348h2v15.460938h-2zm0 0"/></clipPath><clipPath id="dt"><path d="m231 339h1v24.460938h-1zm0 0"/></clipPath><clipPath id="du"><path d="m232 345h1v18.460938h-1zm0 0"/></clipPath><clipPath id="dv"><path d="m232 358h2v5.460938h-2zm0 0"/></clipPath><clipPath id="dw"><path d="m233 347h1v16.460938h-1zm0 0"/></clipPath><clipPath id="dx"><path d="m234 353h1v10.460938h-1zm0 0"/></clipPath><clipPath id="dy"><path d="m234 344h2v19.460938h-2zm0 0"/></clipPath><clipPath id="dz"><path d="m235 350h1v13.460938h-1zm0 0"/></clipPath><clipPath id="dA"><path d="m236 344h1v19.460938h-1zm0 0"/></clipPath><clipPath id="dB"><path d="m236 349h2v14.460938h-2zm0 0"/></clipPath><clipPath id="dC"><path d="m237 345h1v18.460938h-1zm0 0"/></clipPath><clipPath id="dD"><path d="m238 341h1v22.460938h-1zm0 0"/></clipPath><clipPath id="dE"><path d="m238 345h2v18.460938h-2zm0 0"/></clipPath><clipPath id="dF"><path d="m239 357h1v6.460938h-1zm0 0"/></clipPath><clipPath id="dG"><path d="m240 338h1v25.460938h-1zm0 0"/></clipPath><clipPath id="dH"><path d="m240 345h2v18.460938h-2zm0 0"/></clipPath><clipPath id="dI"><path d="m241 352h1v11.460938h-1zm0 0"/></clipPath><clipPath id="dJ"><path d="m242 354h1v9.460938h-1zm0 0"/></clipPath><clipPath id="dK"><path d="m242 357h2v6.460938h-2zm0 0"/></clipPath><clipPath id="dL"><path d="m243 348h1v15.460938h-1zm0 0"/></clipPath><clipPath id="dM"><path d="m244 347h1v16.460938h-1zm0 0"/></clipPath><clipPath id="dN"><path d="m244 358h2v5.460938h-2zm0 0"/></clipPath><clipPath id="dO"><path d="m245 352h1v11.460938h-1zm0 0"/></clipPath><clipPath id="dP"><path d="m246 353h1v10.460938h-1zm0 0"/></clipPath><clipPath id="dQ"><path d="m246 344h2v19.460938h-2zm0 0"/></clipPath><clipPath id="dR"><path d="m247 359h1v4.460938h-1zm0 0"/></clipPath><clipPath id="dS"><path d="m248 342h1v21.460938h-1zm0 0"/></clipPath><clipPath id="dT"><path d="m248 346h2v17.460938h-2zm0 0"/></clipPath><clipPath id="dU"><path d="m249 348h1v15.460938h-1zm0 0"/></clipPath><clipPath id="dV"><path d="m250 356h1v7.460938h-1zm0 0"/></clipPath><clipPath id="dW"><path d="m250 355h2v8.460938h-2zm0 0"/></clipPath><clipPath id="dX"><path d="m251 341h1v22.460938h-1zm0 0"/></clipPath><clipPath id="dY"><path d="m252 360h1v3.460938h-1zm0 0"/></clipPath><clipPath id="dZ"><path d="m252 348h2v15.460938h-2zm0 0"/></clipPath><clipPath id="d0"><path d="m253 349h1v14.460938h-1zm0 0"/></clipPath><clipPath id="d1"><path d="m254 349h1v14.460938h-1zm0 0"/></clipPath><clipPath id="d2"><path d="m254 343h2v20.460938h-2zm0 0"/></clipPath><clipPath id="d3"><path d="m255 348h1v15.460938h-1zm0 0"/></clipPath><clipPath id="d4"><path d="m256 358h1v5.460938h-1zm0 0"/></clipPath><clipPath id="d5"><path d="m256 338h2v25.460938h-2zm0 0"/></clipPath><clipPath id="d6"><path d="m257 354h1v9.460938h-1zm0 0"/></clipPath><clipPath id="d7"><path d="m258 357h1v6.460938h-1zm0 0"/></clipPath><clipPath id="d8"><path d="m258 362h2v1.460938h-2zm0 0"/></clipPath><clipPath id="d9"><path d="m259 349h1v14.460938h-1zm0 0"/></clipPath><clipPath id="ea"><path d="m260 357h1v6.460938h-1zm0 0"/></clipPath><clipPath id="eb"><path d="m260 359h2v4.460938h-2zm0 0"/></clipPath><clipPath id="ec"><path d="m261 354h1v9.460938h-1zm0 0"/></clipPath><clipPath id="ed"><path d="m262 361h1v2.460938h-1zm0 0"/></clipPath><clipPath id="ee"><path d="m262 362h2v1.460938h-2zm0 0"/></clipPath><clipPath id="ef"><path d="m263 352h1v11.460938h-1zm0 0"/></clipPath><clipPath id="eg"><path d="m264 356h1v7.460938h-1zm0 0"/></clipPath><clipPath id="eh"><path d="m264 356h2v7.460938h-2zm0 0"/></clipPath><clipPath id="ei"><path d="m265 353h1v10.460938h-1zm0 0"/></clipPath><clipPath id="ej"><path d="m266 356h1v7.460938h-1zm0 0"/></clipPath><clipPath id="ek"><path d="m266 360h2v3.460938h-2zm0 0"/></clipPath><clipPath id="el"><path d="m267 358h1v5.460938h-1zm0 0"/></clipPath><clipPath id="em"><path d="m268 359h1v4.460938h-1zm0 0"/></clipPath><clipPath id="en"><path d="m268 354h2v9.460938h-2zm0 0"/></clipPath><clipPath id="eo"><path d="m269 354h1v9.460938h-1zm0 0"/></clipPath><clipPath id="ep"><path d="m270 362h1v1.460938h-1zm0 0"/></clipPath><clipPath id="eq"><path d="m270 358h2v5.460938h-2zm0 0"/></clipPath><clipPath id="er"><path d="m271 352h1v11.460938h-1zm0 0"/></clipPath><clipPath id="es"><path d="m272 351h1v12.460938h-1zm0 0"/></clipPath><clipPath id="et"><path d="m272 350h2v13.460938h-2zm0 0"/></clipPath><clipPath id="eu"><path d="m273 355h1v8.460938h-1zm0 0"/></clipPath><clipPath id="ev"><path d="m274 356h1v7.460938h-1zm0 0"/></clipPath><clipPath id="ew"><path d="m274 363h2v.460938h-2zm0 0"/></clipPath><clipPath id="ex"><path d="m275 358h1v5.460938h-1zm0 0"/></clipPath><clipPath id="ey"><path d="m276 357h1v6.460938h-1zm0 0"/></clipPath><clipPath id="ez"><path d="m276 352h2v11.460938h-2zm0 0"/></clipPath><clipPath id="eA"><path d="m277 351h1v12.460938h-1zm0 0"/></clipPath><clipPath id="eB"><path d="m278 356h1v7.460938h-1zm0 0"/></clipPath><clipPath id="eC"><path d="m278 357h2v6.460938h-2zm0 0"/></clipPath><clipPath id="eD"><path d="m279 354h1v9.460938h-1zm0 0"/></clipPath><clipPath id="eE"><path d="m280 358h1v5.460938h-1zm0 0"/></clipPath><clipPath id="eF"><path d="m280 354h2v9.460938h-2zm0 0"/></clipPath><clipPath id="eG"><path d="m281 355h1v8.460938h-1zm0 0"/></clipPath><clipPath id="eH"><path d="m282 356h1v7.460938h-1zm0 0"/></clipPath><clipPath id="eI"><path d="m282 362h2v1.460938h-2zm0 0"/></clipPath><clipPath id="eJ"><path d="m283 362h1v1.460938h-1zm0 0"/></clipPath><clipPath id="eK"><path d="m284 361h1v2.460938h-1zm0 0"/></clipPath><clipPath id="eL"><path d="m284 354h2v9.460938h-2zm0 0"/></clipPath><clipPath id="eM"><path d="m285 356h1v7.460938h-1zm0 0"/></clipPath><clipPath id="eN"><path d="m286 363h1v.460938h-1zm0 0"/></clipPath><clipPath id="eO"><path d="m286 362h2v1.460938h-2zm0 0"/></clipPath><clipPath id="eP"><path d="m287 352h1v11.460938h-1zm0 0"/></clipPath><clipPath id="eQ"><path d="m288 353h1v10.460938h-1zm0 0"/></clipPath><clipPath id="eR"><path d="m288 356h2v7.460938h-2zm0 0"/></clipPath><clipPath id="eS"><path d="m289 356h1v7.460938h-1zm0 0"/></clipPath><clipPath id="eT"><path d="m290 357h1v6.460938h-1zm0 0"/></clipPath><clipPath id="eU"><path d="m290 354h2v9.460938h-2zm0 0"/></clipPath><clipPath id="eV"><path d="m291 352h1v11.460938h-1zm0 0"/></clipPath><clipPath id="eW"><path d="m292 362h1v1.460938h-1zm0 0"/></clipPath><clipPath id="eX"><path d="m292 362h2v1.460938h-2zm0 0"/></clipPath><clipPath id="eY"><path d="m293 361h1v2.460938h-1zm0 0"/></clipPath><clipPath id="eZ"><path d="m294 353h1v10.460938h-1zm0 0"/></clipPath><clipPath id="e0"><path d="m294 355h2v8.460938h-2zm0 0"/></clipPath><clipPath id="e1"><path d="m295 361h1v2.460938h-1zm0 0"/></clipPath><clipPath id="e2"><path d="m296 358h1v5.460938h-1zm0 0"/></clipPath><clipPath id="e3"><path d="m296 362h2v1.460938h-2zm0 0"/></clipPath><clipPath id="e4"><path d="m297 351h1v12.460938h-1zm0 0"/></clipPath><clipPath id="e5"><path d="m298 362h1v1.460938h-1zm0 0"/></clipPath><clipPath id="e6"><path d="m298 355h2v8.460938h-2zm0 0"/></clipPath><clipPath id="e7"><path d="m299 357h1v6.460938h-1zm0 0"/></clipPath><clipPath id="e8"><path d="m300 358h1v5.460938h-1zm0 0"/></clipPath><clipPath id="e9"><path d="m300 361h2v2.460938h-2zm0 0"/></clipPath><clipPath id="fa"><path d="m301 362h1v1.460938h-1zm0 0"/></clipPath><clipPath id="fb"><path d="m302 360h1v3.460938h-1zm0 0"/></clipPath><clipPath id="fc"><path d="m302 361h2v2.460938h-2zm0 0"/></clipPath><clipPath id="fd"><path d="m303 363h1v.460938h-1zm0 0"/></clipPath><clipPath id="fe"><path d="m304 363h1v.460938h-1zm0 0"/></clipPath><clipPath id="ff"><path d="m304 358h2v5.460938h-2zm0 0"/></clipPath><clipPath id="fg"><path d="m305 361h1v2.460938h-1zm0 0"/></clipPath><clipPath id="fh"><path d="m306 363h1v.460938h-1zm0 0"/></clipPath><clipPath id="fi"><path d="m306 360h2v3.460938h-2zm0 0"/></clipPath><clipPath id="fj"><path d="m307 357h1v6.460938h-1zm0 0"/></clipPath><clipPath id="fk"><path d="m308 353h1v10.460938h-1zm0 0"/></clipPath><clipPath id="fl"><path d="m308 361h2v2.460938h-2zm0 0"/></clipPath><clipPath id="fm"><path d="m309 357h1v6.460938h-1zm0 0"/></clipPath><clipPath id="fn"><path d="m310 360h1v3.460938h-1zm0 0"/></clipPath><clipPath id="fo"><path d="m310 360h2v3.460938h-2zm0 0"/></clipPath><clipPath id="fp"><path d="m311 358h1v5.460938h-1zm0 0"/></clipPath><clipPath id="fq"><path d="m312 362h1v1.460938h-1zm0 0"/></clipPath><clipPath id="fr"><path d="m312 360h2v3.460938h-2zm0 0"/></clipPath><clipPath id="fs"><path d="m313 360h1v3.460938h-1zm0 0"/></clipPath><clipPath id="ft"><path d="m314 360h1v3.460938h-1zm0 0"/></clipPath><clipPath id="fu"><path d="m314 362h2v1.460938h-2zm0 0"/></clipPath><clipPath id="fv"><path d="m315 362h1v1.460938h-1zm0 0"/></clipPath><clipPath id="fw"><path d="m316 362h1v1.460938h-1zm0 0"/></clipPath><clipPath id="fx"><path d="m316 363h2v.460938h-2zm0 0"/></clipPath><clipPath id="fy"><path d="m317 361h1v2.460938h-1zm0 0"/></clipPath><clipPath id="fz"><path d="m317 357h2v6.460938h-2zm0 0"/></clipPath><clipPath id="fA"><path d="m318 361h2v2.460938h-2zm0 0"/></clipPath><clipPath id="fB"><path d="m319 360h1v3.460938h-1zm0 0"/></clipPath><clipPath id="fC"><path d="m319 363h2v.460938h-2zm0 0"/></clipPath><clipPath id="fD"><path d="m320 359h2v4.460938h-2zm0 0"/></clipPath><clipPath id="fE"><path d="m321 358h1v5.460938h-1zm0 0"/></clipPath><clipPath id="fF"><path d="m321 363h2v.460938h-2zm0 0"/></clipPath><clipPath id="fG"><path d="m322 361h2v2.460938h-2zm0 0"/></clipPath><clipPath id="fH"><path d="m323 359h1v4.460938h-1zm0 0"/></clipPath><clipPath id="fI"><path d="m323 361h2v2.460938h-2zm0 0"/></clipPath><clipPath id="fJ"><path d="m324 361h2v2.460938h-2zm0 0"/></clipPath><clipPath id="fK"><path d="m325 361h1v2.460938h-1zm0 0"/></clipPath><clipPath id="fL"><path d="m325 360h2v3.460938h-2zm0 0"/></clipPath><clipPath id="fM"><path d="m326 359h2v4.460938h-2zm0 0"/></clipPath><clipPath id="fN"><path d="m327 359h1v4.460938h-1zm0 0"/></clipPath><clipPath id="fO"><path d="m327 361h2v2.460938h-2zm0 0"/></clipPath><clipPath id="fP"><path d="m328 363h2v.460938h-2zm0 0"/></clipPath><clipPath id="fQ"><path d="m329 363h1v.460938h-1zm0 0"/></clipPath><clipPath id="fR"><path d="m329 360h2v3.460938h-2zm0 0"/></clipPath><clipPath id="fS"><path d="m330 361h2v2.460938h-2zm0 0"/></clipPath><clipPath id="fT"><path d="m331 363h1v.460938h-1zm0 0"/></clipPath><clipPath id="fU"><path d="m331 362h2v1.460938h-2zm0 0"/></clipPath><clipPath id="fV"><path d="m332 362h2v1.460938h-2zm0 0"/></clipPath><clipPath id="fW"><path d="m333 362h1v1.460938h-1zm0 0"/></clipPath><clipPath id="fX"><path d="m333 359h2v4.460938h-2zm0 0"/></clipPath><clipPath id="fY"><path d="m334 363h2v.460938h-2zm0 0"/></clipPath><clipPath id="fZ"><path d="m335 359h1v4.460938h-1zm0 0"/></clipPath><clipPath id="f0"><path d="m335 363h2v.460938h-2zm0 0"/></clipPath><clipPath id="f1"><path d="m336 362h2v1.460938h-2zm0 0"/></clipPath><clipPath id="f2"><path d="m337 361h1v2.460938h-1zm0 0"/></clipPath><clipPath id="f3"><path d="m337 361h2v2.460938h-2zm0 0"/></clipPath><clipPath id="f4"><path d="m338 361h2v2.460938h-2zm0 0"/></clipPath><clipPath id="f5"><path d="m339 359h1v4.460938h-1zm0 0"/></clipPath><clipPath id="f6"><path d="m339 363h2v.460938h-2zm0 0"/></clipPath><clipPath id="f7"><path d="m340 360h2v3.460938h-2zm0 0"/></clipPath><clipPath id="f8"><path d="m341 361h1v2.460938h-1zm0 0"/></clipPath><clipPath id="f9"><path d="m341 363h2v.460938h-2zm0 0"/></clipPath><clipPath id="ga"><path d="m342 362h2v1.460938h-2zm0 0"/></clipPath><clipPath id="gb"><path d="m343 361h1v2.460938h-1zm0 0"/></clipPath><clipPath id="gc"><path d="m343 361h2v2.460938h-2zm0 0"/></clipPath><clipPath id="gd"><path d="m344 362h2v1.460938h-2zm0 0"/></clipPath><clipPath id="ge"><path d="m345 360h1v3.460938h-1zm0 0"/></clipPath><clipPath id="gf"><path d="m345 361h2v2.460938h-2zm0 0"/></clipPath><clipPath id="gg"><path d="m346 362h2v1.460938h-2zm0 0"/></clipPath><clipPath id="gh"><path d="m347 363h1v.460938h-1zm0 0"/></clipPath><clipPath id="gi"><path d="m347 359h2v4.460938h-2zm0 0"/></clipPath><clipPath id="gj"><path d="m348 359h2v4.460938h-2zm0 0"/></clipPath><clipPath id="gk"><path d="m349 361h1v2.460938h-1zm0 0"/></clipPath><clipPath id="gl"><path d="m349 363h2v.460938h-2zm0 0"/></clipPath><clipPath id="gm"><path d="m350 359h2v4.460938h-2zm0 0"/></clipPath><clipPath id="gn"><path d="m351 361h1v2.460938h-1zm0 0"/></clipPath><clipPath id="go"><path d="m351 361h2v2.460938h-2zm0 0"/></clipPath><clipPath id="gp"><path d="m352 363h2v.460938h-2zm0 0"/></clipPath><clipPath id="gq"><path d="m353 363h1v.460938h-1zm0 0"/></clipPath><clipPath id="gr"><path d="m353 359h2v4.460938h-2zm0 0"/></clipPath><clipPath id="gs"><path d="m354 363h2v.460938h-2zm0 0"/></clipPath><clipPath id="gt"><path d="m355 362h1v1.460938h-1zm0 0"/></clipPath><clipPath id="gu"><path d="m355 361h2v2.460938h-2zm0 0"/></clipPath><clipPath id="gv"><path d="m356 363h2v.460938h-2zm0 0"/></clipPath><clipPath id="gw"><path d="m357 361h1v2.460938h-1zm0 0"/></clipPath><clipPath id="gx"><path d="m357 361h2v2.460938h-2zm0 0"/></clipPath><clipPath id="gy"><path d="m358 363h2v.460938h-2zm0 0"/></clipPath><clipPath id="gz"><path d="m359 363h1v.460938h-1zm0 0"/></clipPath><clipPath id="gA"><path d="m359 359h2v4.460938h-2zm0 0"/></clipPath><clipPath id="gB"><path d="m360 361h2v2.460938h-2zm0 0"/></clipPath><clipPath id="gC"><path d="m361 362h1v1.460938h-1zm0 0"/></clipPath><clipPath id="gD"><path d="m361 363h2v.460938h-2zm0 0"/></clipPath><clipPath id="gE"><path d="m362 362h2v1.460938h-2zm0 0"/></clipPath><clipPath id="gF"><path d="m363 362h1v1.460938h-1zm0 0"/></clipPath><clipPath id="gG"><path d="m364 361h2v2.460938h-2zm0 0"/></clipPath><clipPath id="gH"><path d="m365 362h1v1.460938h-1zm0 0"/></clipPath><clipPath id="gI"><path d="m365 361h2v2.460938h-2zm0 0"/></clipPath><clipPath id="gJ"><path d="m366 362h2v1.460938h-2zm0 0"/></clipPath><clipPath id="gK"><path d="m367 360h1v3.460938h-1zm0 0"/></clipPath><clipPath id="gL"><path d="m367 363h2v.460938h-2zm0 0"/></clipPath><clipPath id="gM"><path d="m368 363h2v.460938h-2zm0 0"/></clipPath><clipPath id="gN"><path d="m369 363h1v.460938h-1zm0 0"/></clipPath><clipPath id="gO"><path d="m370 363h2v.460938h-2zm0 0"/></clipPath><clipPath id="gP"><path d="m371 361h1v2.460938h-1zm0 0"/></clipPath><clipPath id="gQ"><path d="m371 363h2v.460938h-2zm0 0"/></clipPath><clipPath id="gR"><path d="m372 362h2v1.460938h-2zm0 0"/></clipPath><clipPath id="gS"><path d="m373 363h2v.460938h-2zm0 0"/></clipPath><clipPath id="gT"><path d="m374 363h2v.460938h-2zm0 0"/></clipPath><clipPath id="gU"><path d="m375 363h1v.460938h-1zm0 0"/></clipPath><clipPath id="gV"><path d="m375 362h2v1.460938h-2zm0 0"/></clipPath><clipPath id="gW"><path d="m376 363h2v.460938h-2zm0 0"/></clipPath><clipPath id="gX"><path d="m377 362h1v1.460938h-1zm0 0"/></clipPath><clipPath id="gY"><path d="m377 362h2v1.460938h-2zm0 0"/></clipPath><clipPath id="gZ"><path d="m378 363h2v.460938h-2zm0 0"/></clipPath><clipPath id="g0"><path d="m379 363h1v.460938h-1zm0 0"/></clipPath><clipPath id="g1"><path d="m379 362h2v1.460938h-2zm0 0"/></clipPath><clipPath id="g2"><path d="m380 363h2v.460938h-2zm0 0"/></clipPath><clipPath id="g3"><path d="m381 363h1v.460938h-1zm0 0"/></clipPath><clipPath id="g4"><path d="m381 363h2v.460938h-2zm0 0"/></clipPath><clipPath id="g5"><path d="m382 363h2v.460938h-2zm0 0"/></clipPath><clipPath id="g6"><path d="m383 363h1v.460938h-1zm0 0"/></clipPath><clipPath id="g7"><path d="m383 363h2v.460938h-2zm0 0"/></clipPath><clipPath id="g8"><path d="m384 363h2v.460938h-2zm0 0"/></clipPath><clipPath id="g9"><path d="m385 363h1v.460938h-1zm0 0"/></clipPath><clipPath id="ha"><path d="m385 363h2v.460938h-2zm0 0"/></clipPath><clipPath id="hb"><path d="m386 363h2v.460938h-2zm0 0"/></clipPath><clipPath id="hc"><path d="m387 363h1v.460938h-1zm0 0"/></clipPath><clipPath id="hd"><path d="m387 362h2v1.460938h-2zm0 0"/></clipPath><clipPath id="he"><path d="m389 363h1v.460938h-1zm0 0"/></clipPath><clipPath id="hf"><path d="m389 362h2v1.460938h-2zm0 0"/></clipPath><clipPath id="hg"><path d="m391 363h1v.460938h-1zm0 0"/></clipPath><clipPath id="hh"><path d="m391 363h2v.460938h-2zm0 0"/></clipPath><clipPath id="hi"><path d="m393 363h1v.460938h-1zm0 0"/></clipPath><clipPath id="hj"><path d="m393 363h2v.460938h-2zm0 0"/></clipPath><clipPath id="hk"><path d="m394 363h2v.460938h-2zm0 0"/></clipPath><clipPath id="hl"><path d="m395 363h2v.460938h-2zm0 0"/></clipPath><clipPath id="hm"><path d="m396 363h2v.460938h-2zm0 0"/></clipPath><clipPath id="hn"><path d="m397 363h1v.460938h-1zm0 0"/></clipPath><clipPath id="ho"><path d="m397 363h2v.460938h-2zm0 0"/></clipPath><clipPath id="hp"><path d="m398 362h2v1.460938h-2zm0 0"/></clipPath><clipPath id="hq"><path d="m399 363h1v.460938h-1zm0 0"/></clipPath><clipPath id="hr"><path d="m399 363h2v.460938h-2zm0 0"/></clipPath><clipPath id="hs"><path d="m400 363h2v.460938h-2zm0 0"/></clipPath><clipPath id="ht"><path d="m401 363h1v.460938h-1zm0 0"/></clipPath><clipPath id="hu"><path d="m401 363h2v.460938h-2zm0 0"/></clipPath><symbol id="hv" overflow="visible"><path d="m.460938-3.882812c0-.925782.089843-1.671876.285156-2.246094.1875-.570313.476562-1.011719.847656-1.316406.375-.308594.859375-.464844 1.429688-.464844.417968 0 .792968.089844 1.113281.265625.308593.175781.570312.417969.78125.738281.207031.316406.371093.703125.492187 1.164062.113282.460938.179688 1.089844.179688 1.859376 0 .921874-.101563 1.671874-.289063 2.242187-.1875.574219-.472656 1.003906-.847656 1.3125-.371094.3046875-.855469.449219-1.429687.449219-.769532 0-1.363282-.265625-1.792969-.804688-.515625-.648437-.769531-1.714844-.769531-3.199218m.992187 0c0 1.296874.140625 2.15625.449219 2.585937.296875.429687.671875.636719 1.121094.636719.441406 0 .804687-.207032 1.113281-.636719.308593-.429687.460937-1.289063.460937-2.585937 0-1.296876-.152344-2.15625-.460937-2.585938-.308594-.417969-.683594-.636719-1.121094-.636719-.453125 0-.804687.1875-1.070313.558594-.328124.484375-.492187 1.375-.492187 2.664063"/></symbol><symbol id="hw" overflow="visible"><path d="m4.101562 0h-.964843v-6.160156c-.242188.21875-.550781.449218-.925781.671875-.375.21875-.714844.382812-1.011719.496093v-.9375c.539062-.253906 1.011719-.558593 1.417969-.921874.398437-.351563.683593-.707032.859374-1.058594h.625z"/></symbol><symbol id="hx" overflow="visible"><path d="m5.53125-.925781v.925781h-5.203125c-.007813-.230469.035156-.449219.121094-.671875.132812-.351563.34375-.691406.628906-1.042969.285156-.34375.714844-.738281 1.265625-1.199218.855469-.695313 1.429688-1.242188 1.738281-1.660157.296875-.410156.449219-.792969.449219-1.167969s-.140625-.703124-.417969-.96875c-.273437-.261718-.625-.394531-1.066406-.394531-.460937 0-.835937.140625-1.109375.417969-.289062.285156-.429688.671875-.429688 1.164062l-.992187-.109374c.066406-.734376.320313-1.296876.761719-1.691407.4375-.386719 1.042968-.585937 1.792968-.585937.746094 0 1.351563.222656 1.792969.640625.4375.417969.660157.933593.660157 1.550781 0 .316406-.066407.625-.199219.933594-.132813.308594-.339844.628906-.636719.957031-.296875.339844-.792969.804687-1.488281 1.386719-.582031.484375-.957031.8125-1.121094.988281s-.296875.351563-.40625.527344z"/></symbol><symbol id="hy" overflow="visible"><path d="m.460938-2.078125.96875-.132813c.109374.550782.296874.945313.5625 1.1875.261718.242188.59375.363282.976562.363282.453125 0 .835938-.152344 1.144531-.472656.308594-.308594.472657-.703126.472657-1.167969 0-.4375-.152344-.8125-.4375-1.097657-.289063-.285156-.660157-.441406-1.101563-.441406-.1875 0-.417969.042969-.683594.109375l.113281-.84375c.0625.007813.109376.007813.152344.007813.40625 0 .78125-.097656 1.109375-.316406.332031-.222657.496094-.550782.496094-1.003907 0-.351562-.121094-.636719-.363281-.867187-.242188-.230469-.550782-.351563-.921875-.351563-.375 0-.695313.121094-.945313.351563-.253906.242187-.410156.59375-.476562 1.054687l-.964844-.164062c.109375-.648438.382812-1.15625.800781-1.507813.417969-.351562.9375-.539062 1.5625-.539062.429688 0 .824219.101562 1.1875.289062.351563.183594.628907.4375.824219.746094.199219.320312.296875.660156.296875 1.011719 0 .351562-.097656.660156-.273437.933593-.1875.289063-.460938.507813-.8125.660157.460937.113281.8125.34375 1.078124.671875.261719.339844.394532.769531.394532 1.277344 0 .679687-.253906 1.265624-.757813 1.738281-.507812.4843748-1.132812.714843-1.894531.714843-.703125 0-1.273438-.1992182-1.726562-.617187-.460938-.40625-.714844-.933594-.78125-1.59375"/></symbol><symbol id="hz" overflow="visible"><path d="m3.554688 0v-1.882812h-3.410157v-.890626l3.585938-5.101562h.789062v5.101562h1.070313v.890626h-1.070313v1.882812zm0-2.773438v-3.550781l-2.464844 3.550781z"/></symbol><symbol id="hA" overflow="visible"><path d="m.460938-2.066406 1.011718-.078125c.066406.496093.242188.867187.519532 1.109375.273437.253906.605468.375.988281.375.460937 0 .859375-.175782 1.1875-.527344.320312-.351562.484375-.816406.484375-1.398438 0-.550781-.164063-.976562-.472656-1.296874-.308594-.320313-.714844-.484376-1.210938-.484376-.308594 0-.59375.078126-.847656.21875-.25.144532-.449219.320313-.582032.539063l-.910156-.109375.757813-4.046875h3.914062v.921875h-3.132812l-.429688 2.113281c.472657-.328125.96875-.496093 1.484375-.496093.683594 0 1.265625.242187 1.738282.714843.472656.484375.714843 1.089844.714843 1.839844 0 .714844-.207031 1.328125-.625 1.847656-.507812.636719-1.191406.945313-2.070312.945313-.714844 0-1.296875-.199219-1.75-.59375-.460938-.394532-.714844-.925782-.769531-1.59375"/></symbol><path d="m0 0h432v396h-432z" fill="#fff"/><path d="m53.058594 363.460938h365.980468v-331.78125h-365.980468zm0 0" fill="#eaeaf2"/><g clip-path="url(#a)"><path d="m69.960938 32.539062v331.78125" fill="none" stroke="#fff" stroke-linecap="round" stroke-linejoin="round" stroke-miterlimit="10" transform="matrix(1 0 0 -1 0 396)"/></g><use fill="#262626" x="66.899228" xlink:href="#hv" y="380.835"/><g clip-path="url(#b)"><path d="m136.53125 32.539062v331.78125" fill="none" stroke="#fff" stroke-linecap="round" stroke-linejoin="round" stroke-miterlimit="10" transform="matrix(1 0 0 -1 0 396)"/></g><g fill="#262626"><use x="127.342674" xlink:href="#hw" y="380.835"/><use x="133.458674" xlink:href="#hv" y="380.835"/><use x="139.574674" xlink:href="#hv" y="380.835"/></g><g clip-path="url(#c)"><path d="m203.097656 32.539062v331.78125" fill="none" stroke="#fff" stroke-linecap="round" stroke-linejoin="round" stroke-miterlimit="10" transform="matrix(1 0 0 -1 0 396)"/></g><g fill="#262626"><use x="193.911119" xlink:href="#hx" y="380.835"/><use x="200.027119" xlink:href="#hv" y="380.835"/><use x="206.143119" xlink:href="#hv" y="380.835"/></g><g clip-path="url(#d)"><path d="m269.667969 32.539062v331.78125" fill="none" stroke="#fff" stroke-linecap="round" stroke-linejoin="round" stroke-miterlimit="10" transform="matrix(1 0 0 -1 0 396)"/></g><g fill="#262626"><use x="260.479565" xlink:href="#hy" y="380.835"/><use x="266.595565" xlink:href="#hv" y="380.835"/><use x="272.711565" xlink:href="#hv" y="380.835"/></g><g clip-path="url(#e)"><path d="m336.234375 32.539062v331.78125" fill="none" stroke="#fff" stroke-linecap="round" stroke-linejoin="round" stroke-miterlimit="10" transform="matrix(1 0 0 -1 0 396)"/></g><g fill="#262626"><use x="327.048011" xlink:href="#hz" y="380.835"/><use x="333.164011" xlink:href="#hv" y="380.835"/><use x="339.280011" xlink:href="#hv" y="380.835"/></g><g clip-path="url(#f)"><path d="m402.804688 32.539062v331.78125" fill="none" stroke="#fff" stroke-linecap="round" stroke-linejoin="round" stroke-miterlimit="10" transform="matrix(1 0 0 -1 0 396)"/></g><g fill="#262626"><use x="393.616456" xlink:href="#hA" y="380.835"/><use x="399.732456" xlink:href="#hv" y="380.835"/><use x="405.848456" xlink:href="#hv" y="380.835"/></g><g clip-path="url(#g)"><path d="m53.058594 32.539062h365.980468" fill="none" stroke="#fff" stroke-linecap="round" stroke-linejoin="round" stroke-miterlimit="10" transform="matrix(1 0 0 -1 0 396)"/></g><use fill="#262626" x="37.435" xlink:href="#hv" y="367.3975"/><g clip-path="url(#h)"><path d="m53.058594 76.546875h365.980468" fill="none" stroke="#fff" stroke-linecap="round" stroke-linejoin="round" stroke-miterlimit="10" transform="matrix(1 0 0 -1 0 396)"/></g><g fill="#262626"><use x="19.06" xlink:href="#hA" y="323.388865"/><use x="25.176" xlink:href="#hv" y="323.388865"/><use x="31.292" xlink:href="#hv" y="323.388865"/><use x="37.408" xlink:href="#hv" y="323.388865"/></g><g clip-path="url(#i)"><path d="m53.058594 120.558594h365.980468" fill="none" stroke="#fff" stroke-linecap="round" stroke-linejoin="round" stroke-miterlimit="10" transform="matrix(1 0 0 -1 0 396)"/></g><g fill="#262626"><use x="12.935" xlink:href="#hw" y="279.380229"/><use x="19.051" xlink:href="#hv" y="279.380229"/><use x="25.167" xlink:href="#hv" y="279.380229"/><use x="31.283" xlink:href="#hv" y="279.380229"/><use x="37.399" xlink:href="#hv" y="279.380229"/></g><g clip-path="url(#j)"><path d="m53.058594 164.566406h365.980468" fill="none" stroke="#fff" stroke-linecap="round" stroke-linejoin="round" stroke-miterlimit="10" transform="matrix(1 0 0 -1 0 396)"/></g><g fill="#262626"><use x="12.935" xlink:href="#hw" y="235.371594"/><use x="19.051" xlink:href="#hA" y="235.371594"/><use x="25.167" xlink:href="#hv" y="235.371594"/><use x="31.283" xlink:href="#hv" y="235.371594"/><use x="37.399" xlink:href="#hv" y="235.371594"/></g><g clip-path="url(#k)"><path d="m53.058594 208.574219h365.980468" fill="none" stroke="#fff" stroke-linecap="round" stroke-linejoin="round" stroke-miterlimit="10" transform="matrix(1 0 0 -1 0 396)"/></g><g fill="#262626"><use x="12.935" xlink:href="#hx" y="191.362959"/><use x="19.051" xlink:href="#hv" y="191.362959"/><use x="25.167" xlink:href="#hv" y="191.362959"/><use x="31.283" xlink:href="#hv" y="191.362959"/><use x="37.399" xlink:href="#hv" y="191.362959"/></g><g clip-path="url(#l)"><path d="m53.058594 252.582031h365.980468" fill="none" stroke="#fff" stroke-linecap="round" stroke-linejoin="round" stroke-miterlimit="10" transform="matrix(1 0 0 -1 0 396)"/></g><g fill="#262626"><use x="12.935" xlink:href="#hx" y="147.354324"/><use x="19.051" xlink:href="#hA" y="147.354324"/><use x="25.167" xlink:href="#hv" y="147.354324"/><use x="31.283" xlink:href="#hv" y="147.354324"/><use x="37.399" xlink:href="#hv" y="147.354324"/></g><g clip-path="url(#m)"><path d="m53.058594 296.59375h365.980468" fill="none" stroke="#fff" stroke-linecap="round" stroke-linejoin="round" stroke-miterlimit="10" transform="matrix(1 0 0 -1 0 396)"/></g><g fill="#262626"><use x="12.935" xlink:href="#hy" y="103.345688"/><use x="19.051" xlink:href="#hv" y="103.345688"/><use x="25.167" xlink:href="#hv" y="103.345688"/><use x="31.283" xlink:href="#hv" y="103.345688"/><use x="37.399" xlink:href="#hv" y="103.345688"/></g><g clip-path="url(#n)"><path d="m53.058594 340.601562h365.980468" fill="none" stroke="#fff" stroke-linecap="round" stroke-linejoin="round" stroke-miterlimit="10" transform="matrix(1 0 0 -1 0 396)"/></g><g fill="#262626"><use x="12.935" xlink:href="#hy" y="59.337053"/><use x="19.051" xlink:href="#hA" y="59.337053"/><use x="25.167" xlink:href="#hv" y="59.337053"/><use x="31.283" xlink:href="#hv" y="59.337053"/><use x="37.399" xlink:href="#hv" y="59.337053"/></g><g clip-path="url(#o)"><path d="m69.695312 363.460938h.53125v-177.519532h-.53125zm0 0" fill="#4c72b0"/></g><g clip-path="url(#p)"><path d="m70.359375 363.460938h.535156v-315.980469h-.535156zm0 0" fill="#4c72b0"/></g><g clip-path="url(#q)"><path d="m71.027344 363.460938h.53125v-315.226563h-.53125zm0 0" fill="#4c72b0"/></g><g clip-path="url(#r)"><path d="m71.691406 363.460938h.535156v-130.347657h-.535156zm0 0" fill="#4c72b0"/></g><g clip-path="url(#s)"><path d="m72.359375 363.460938h.53125v-159.027344h-.53125zm0 0" fill="#4c72b0"/></g><g clip-path="url(#t)"><path d="m73.023438 363.460938h.53125v-248.210938h-.53125zm0 0" fill="#4c72b0"/></g><g clip-path="url(#u)"><path d="m73.691406 363.460938h.53125v-235.597657h-.53125zm0 0" fill="#4c72b0"/></g><g clip-path="url(#v)"><path d="m74.355469 363.460938h.53125v-217.023438h-.53125zm0 0" fill="#4c72b0"/></g><g clip-path="url(#w)"><path d="m75.019531 363.460938h.535157v-191.648438h-.535157zm0 0" fill="#4c72b0"/></g><g clip-path="url(#x)"><path d="m75.6875 363.460938h.53125v-195.011719h-.53125zm0 0" fill="#4c72b0"/></g><g clip-path="url(#y)"><path d="m76.351562 363.460938h.535157v-183.445313h-.535157zm0 0" fill="#4c72b0"/></g><g clip-path="url(#z)"><path d="m77.019531 363.460938h.53125v-171.800782h-.53125zm0 0" fill="#4c72b0"/></g><g clip-path="url(#A)"><path d="m77.683594 363.460938h.53125v-79.503907h-.53125zm0 0" fill="#4c72b0"/></g><g clip-path="url(#B)"><path d="m78.347656 363.460938h.535156v-135.308594h-.535156zm0 0" fill="#4c72b0"/></g><g clip-path="url(#C)"><path d="m79.015625 363.460938h.53125v-172.914063h-.53125zm0 0" fill="#4c72b0"/></g><g clip-path="url(#D)"><path d="m79.679688 363.460938h.535156v-132.558594h-.535156zm0 0" fill="#4c72b0"/></g><g clip-path="url(#E)"><path d="m80.347656 363.460938h.53125v-173.675782h-.53125zm0 0" fill="#4c72b0"/></g><g clip-path="url(#F)"><path d="m81.011719 363.460938h.53125v-163.222657h-.53125zm0 0" fill="#4c72b0"/></g><g clip-path="url(#G)"><path d="m81.679688 363.460938h.53125v-159.65625h-.53125zm0 0" fill="#4c72b0"/></g><g clip-path="url(#H)"><path d="m82.34375 363.460938h.53125v-86.46875h-.53125zm0 0" fill="#4c72b0"/></g><g clip-path="url(#I)"><path d="m83.007812 363.460938h.535157v-192.46875h-.535157zm0 0" fill="#4c72b0"/></g><g clip-path="url(#J)"><path d="m83.675781 363.460938h.53125v-148.476563h-.53125zm0 0" fill="#4c72b0"/></g><g clip-path="url(#K)"><path d="m84.339844 363.460938h.535156v-69.484376h-.535156zm0 0" fill="#4c72b0"/></g><g clip-path="url(#L)"><path d="m85.007812 363.460938h.53125v-112.617188h-.53125zm0 0" fill="#4c72b0"/></g><g clip-path="url(#M)"><path d="m85.671875 363.460938h.53125v-129.527344h-.53125zm0 0" fill="#4c72b0"/></g><g clip-path="url(#N)"><path d="m86.335938 363.460938h.535156v-62.707032h-.535156zm0 0" fill="#4c72b0"/></g><g clip-path="url(#O)"><path d="m87.003906 363.460938h.53125v-124.835938h-.53125zm0 0" fill="#4c72b0"/></g><g clip-path="url(#P)"><path d="m87.667969 363.460938h.535156v-80.074219h-.535156zm0 0" fill="#4c72b0"/></g><g clip-path="url(#Q)"><path d="m88.335938 363.460938h.53125v-91.644532h-.53125zm0 0" fill="#4c72b0"/></g><g clip-path="url(#R)"><path d="m89 363.460938h.53125v-114.179688h-.53125zm0 0" fill="#4c72b0"/></g><g clip-path="url(#S)"><path d="m89.664062 363.460938h.535157v-61.585938h-.535157zm0 0" fill="#4c72b0"/></g><g clip-path="url(#T)"><path d="m90.332031 363.460938h.53125v-48.789063h-.53125zm0 0" fill="#4c72b0"/></g><g clip-path="url(#U)"><path d="m90.996094 363.460938h.535156v-53.242188h-.535156zm0 0" fill="#4c72b0"/></g><g clip-path="url(#V)"><path d="m91.664062 363.460938h.53125v-128.339844h-.53125zm0 0" fill="#4c72b0"/></g><g clip-path="url(#W)"><path d="m92.328125 363.460938h.53125v-101.140626h-.53125zm0 0" fill="#4c72b0"/></g><g clip-path="url(#X)"><path d="m92.996094 363.460938h.53125v-45.386719h-.53125zm0 0" fill="#4c72b0"/></g><g clip-path="url(#Y)"><path d="m93.660156 363.460938h.53125v-98.625h-.53125zm0 0" fill="#4c72b0"/></g><g clip-path="url(#Z)"><path d="m94.324219 363.460938h.535156v-51.613282h-.535156zm0 0" fill="#4c72b0"/></g><g clip-path="url(#aa)"><path d="m94.992188 363.460938h.53125v-62.507813h-.53125zm0 0" fill="#4c72b0"/></g><g clip-path="url(#ab)"><path d="m95.65625 363.460938h.535156v-86.523438h-.535156zm0 0" fill="#4c72b0"/></g><g clip-path="url(#ac)"><path d="m96.324219 363.460938h.53125v-117.324219h-.53125zm0 0" fill="#4c72b0"/></g><g clip-path="url(#ad)"><path d="m96.988281 363.460938h.53125v-82.34375h-.53125zm0 0" fill="#4c72b0"/></g><g clip-path="url(#ae)"><path d="m97.652344 363.460938h.535156v-120.609376h-.535156zm0 0" fill="#4c72b0"/></g><g clip-path="url(#af)"><path d="m98.320312 363.460938h.53125v-88.828126h-.53125zm0 0" fill="#4c72b0"/></g><g clip-path="url(#ag)"><path d="m98.984375 363.460938h.535156v-95.335938h-.535156zm0 0" fill="#4c72b0"/></g><g clip-path="url(#ah)"><path d="m99.652344 363.460938h.53125v-47.105469h-.53125zm0 0" fill="#4c72b0"/></g><g clip-path="url(#ai)"><path d="m100.316406 363.460938h.53125v-107.375h-.53125zm0 0" fill="#4c72b0"/></g><g clip-path="url(#aj)"><path d="m100.984375 363.460938h.53125v-67.132813h-.53125zm0 0" fill="#4c72b0"/></g><g clip-path="url(#ak)"><path d="m101.648438 363.460938h.53125v-41.210938h-.53125zm0 0" fill="#4c72b0"/></g><g clip-path="url(#al)"><path d="m102.3125 363.460938h.535156v-84.800782h-.535156zm0 0" fill="#4c72b0"/></g><g clip-path="url(#am)"><path d="m102.980469 363.460938h.53125v-78.097657h-.53125zm0 0" fill="#4c72b0"/></g><g clip-path="url(#an)"><path d="m103.644531 363.460938h.535157v-51.054688h-.535157zm0 0" fill="#4c72b0"/></g><g clip-path="url(#ao)"><path d="m104.3125 363.460938h.53125v-96.148438h-.53125zm0 0" fill="#4c72b0"/></g><g clip-path="url(#ap)"><path d="m104.976562 363.460938h.53125v-60.671876h-.53125zm0 0" fill="#4c72b0"/></g><g clip-path="url(#aq)"><path d="m105.640625 363.460938h.535156v-50.890626h-.535156zm0 0" fill="#4c72b0"/></g><g clip-path="url(#ar)"><path d="m106.308594 363.460938h.53125v-87.9375h-.53125zm0 0" fill="#4c72b0"/></g><g clip-path="url(#as)"><path d="m106.972656 363.460938h.535156v-57.851563h-.535156zm0 0" fill="#4c72b0"/></g><g clip-path="url(#at)"><path d="m107.640625 363.460938h.53125v-79.195313h-.53125zm0 0" fill="#4c72b0"/></g><g clip-path="url(#au)"><path d="m108.304688 363.460938h.53125v-78.9375h-.53125zm0 0" fill="#4c72b0"/></g><g clip-path="url(#av)"><path d="m108.972656 363.460938h.53125v-92.019532h-.53125zm0 0" fill="#4c72b0"/></g><g clip-path="url(#aw)"><path d="m109.636719 363.460938h.53125v-71.875h-.53125zm0 0" fill="#4c72b0"/></g><g clip-path="url(#ax)"><path d="m110.300781 363.460938h.535157v-39.375h-.535157zm0 0" fill="#4c72b0"/></g><g clip-path="url(#ay)"><path d="m110.96875 363.460938h.53125v-32.421876h-.53125zm0 0" fill="#4c72b0"/></g><g clip-path="url(#az)"><path d="m111.632812 363.460938h.535157v-86.757813h-.535157zm0 0" fill="#4c72b0"/></g><g clip-path="url(#aA)"><path d="m112.300781 363.460938h.53125v-68.085938h-.53125zm0 0" fill="#4c72b0"/></g><g clip-path="url(#aB)"><path d="m112.964844 363.460938h.53125v-63.726563h-.53125zm0 0" fill="#4c72b0"/></g><g clip-path="url(#aC)"><path d="m113.628906 363.460938h.535156v-37.144532h-.535156zm0 0" fill="#4c72b0"/></g><g clip-path="url(#aD)"><path d="m114.296875 363.460938h.53125v-27.574219h-.53125zm0 0" fill="#4c72b0"/></g><g clip-path="url(#aE)"><path d="m114.960938 363.460938h.535156v-91.433594h-.535156zm0 0" fill="#4c72b0"/></g><g clip-path="url(#aF)"><path d="m115.628906 363.460938h.53125v-24.828126h-.53125zm0 0" fill="#4c72b0"/></g><g clip-path="url(#aG)"><path d="m116.292969 363.460938h.53125v-48.96875h-.53125zm0 0" fill="#4c72b0"/></g><g clip-path="url(#aH)"><path d="m116.960938 363.460938h.53125v-67.078126h-.53125zm0 0" fill="#4c72b0"/></g><g clip-path="url(#aI)"><path d="m117.625 363.460938h.53125v-58.429688h-.53125zm0 0" fill="#4c72b0"/></g><g clip-path="url(#aJ)"><path d="m118.289062 363.460938h.535157v-60.21875h-.535157zm0 0" fill="#4c72b0"/></g><g clip-path="url(#aK)"><path d="m118.957031 363.460938h.53125v-66.332032h-.53125zm0 0" fill="#4c72b0"/></g><g clip-path="url(#aL)"><path d="m119.621094 363.460938h.535156v-53.859376h-.535156zm0 0" fill="#4c72b0"/></g><g clip-path="url(#aM)"><path d="m120.289062 363.460938h.53125v-72.726563h-.53125zm0 0" fill="#4c72b0"/></g><g clip-path="url(#aN)"><path d="m120.953125 363.460938h.53125v-49.417969h-.53125zm0 0" fill="#4c72b0"/></g><g clip-path="url(#aO)"><path d="m121.617188 363.460938h.535156v-58.71875h-.535156zm0 0" fill="#4c72b0"/></g><g clip-path="url(#aP)"><path d="m122.285156 363.460938h.53125v-67.738282h-.53125zm0 0" fill="#4c72b0"/></g><g clip-path="url(#aQ)"><path d="m122.949219 363.460938h.535156v-90.414063h-.535156zm0 0" fill="#4c72b0"/></g><g clip-path="url(#aR)"><path d="m123.617188 363.460938h.53125v-56.320313h-.53125zm0 0" fill="#4c72b0"/></g><g clip-path="url(#aS)"><path d="m124.28125 363.460938h.53125v-66.792969h-.53125zm0 0" fill="#4c72b0"/></g><g clip-path="url(#aT)"><path d="m124.945312 363.460938h.535157v-33.242188h-.535157zm0 0" fill="#4c72b0"/></g><g clip-path="url(#aU)"><path d="m125.613281 363.460938h.53125v-55.179688h-.53125zm0 0" fill="#4c72b0"/></g><g clip-path="url(#aV)"><path d="m126.277344 363.460938h.535156v-41.179688h-.535156zm0 0" fill="#4c72b0"/></g><g clip-path="url(#aW)"><path d="m126.945312 363.460938h.53125v-56.554688h-.53125zm0 0" fill="#4c72b0"/></g><g clip-path="url(#aX)"><path d="m127.609375 363.460938h.53125v-77.136719h-.53125zm0 0" fill="#4c72b0"/></g><g clip-path="url(#aY)"><path d="m128.277344 363.460938h.53125v-40.75h-.53125zm0 0" fill="#4c72b0"/></g><g clip-path="url(#aZ)"><path d="m128.941406 363.460938h.53125v-69.398438h-.53125zm0 0" fill="#4c72b0"/></g><g clip-path="url(#a0)"><path d="m129.605469 363.460938h.535156v-56.75h-.535156zm0 0" fill="#4c72b0"/></g><g clip-path="url(#a1)"><path d="m130.273438 363.460938h.53125v-48.140626h-.53125zm0 0" fill="#4c72b0"/></g><g clip-path="url(#a2)"><path d="m130.9375 363.460938h.535156v-53.058594h-.535156zm0 0" fill="#4c72b0"/></g><g clip-path="url(#a3)"><path d="m131.605469 363.460938h.53125v-53.59375h-.53125zm0 0" fill="#4c72b0"/></g><g clip-path="url(#a4)"><path d="m132.269531 363.460938h.53125v-47.707032h-.53125zm0 0" fill="#4c72b0"/></g><g clip-path="url(#a5)"><path d="m132.933594 363.460938h.535156v-43.625h-.535156zm0 0" fill="#4c72b0"/></g><g clip-path="url(#a6)"><path d="m133.601562 363.460938h.53125v-57.492188h-.53125zm0 0" fill="#4c72b0"/></g><g clip-path="url(#a7)"><path d="m134.265625 363.460938h.535156v-16.707032h-.535156zm0 0" fill="#4c72b0"/></g><g clip-path="url(#a8)"><path d="m134.933594 363.460938h.53125v-26.289063h-.53125zm0 0" fill="#4c72b0"/></g><g clip-path="url(#a9)"><path d="m135.597656 363.460938h.53125v-57.40625h-.53125zm0 0" fill="#4c72b0"/></g><g clip-path="url(#ba)"><path d="m136.265625 363.460938h.53125v-69.421876h-.53125zm0 0" fill="#4c72b0"/></g><g clip-path="url(#bb)"><path d="m136.929688 363.460938h.53125v-43.792969h-.53125zm0 0" fill="#4c72b0"/></g><g clip-path="url(#bc)"><path d="m137.59375 363.460938h.535156v-36.523438h-.535156zm0 0" fill="#4c72b0"/></g><g clip-path="url(#bd)"><path d="m138.261719 363.460938h.53125v-40.5625h-.53125zm0 0" fill="#4c72b0"/></g><g clip-path="url(#be)"><path d="m138.925781 363.460938h.535157v-51.515626h-.535157zm0 0" fill="#4c72b0"/></g><g clip-path="url(#bf)"><path d="m139.59375 363.460938h.53125v-51.125h-.53125zm0 0" fill="#4c72b0"/></g><g clip-path="url(#bg)"><path d="m140.257812 363.460938h.53125v-28.703126h-.53125zm0 0" fill="#4c72b0"/></g><g clip-path="url(#bh)"><path d="m140.921875 363.460938h.535156v-57.847657h-.535156zm0 0" fill="#4c72b0"/></g><g clip-path="url(#bi)"><path d="m141.589844 363.460938h.53125v-44.425782h-.53125zm0 0" fill="#4c72b0"/></g><g clip-path="url(#bj)"><path d="m142.253906 363.460938h.535156v-50.449219h-.535156zm0 0" fill="#4c72b0"/></g><g clip-path="url(#bk)"><path d="m142.921875 363.460938h.53125v-25.167969h-.53125zm0 0" fill="#4c72b0"/></g><g clip-path="url(#bl)"><path d="m143.585938 363.460938h.53125v-25.023438h-.53125zm0 0" fill="#4c72b0"/></g><g clip-path="url(#bm)"><path d="m144.253906 363.460938h.53125v-25.527344h-.53125zm0 0" fill="#4c72b0"/></g><g clip-path="url(#bn)"><path d="m144.917969 363.460938h.53125v-51.253907h-.53125zm0 0" fill="#4c72b0"/></g><g clip-path="url(#bo)"><path d="m145.582031 363.460938h.535157v-32.964844h-.535157zm0 0" fill="#4c72b0"/></g><g clip-path="url(#bp)"><path d="m146.25 363.460938h.53125v-11.429688h-.53125zm0 0" fill="#4c72b0"/></g><g clip-path="url(#bq)"><path d="m146.914062 363.460938h.535157v-48.359376h-.535157zm0 0" fill="#4c72b0"/></g><g clip-path="url(#br)"><path d="m147.582031 363.460938h.53125v-45.738282h-.53125zm0 0" fill="#4c72b0"/></g><g clip-path="url(#bs)"><path d="m148.246094 363.460938h.53125v-9.960938h-.53125zm0 0" fill="#4c72b0"/></g><g clip-path="url(#bt)"><path d="m148.910156 363.460938h.535156v-40.644532h-.535156zm0 0" fill="#4c72b0"/></g><g clip-path="url(#bu)"><path d="m149.578125 363.460938h.53125v-18.257813h-.53125zm0 0" fill="#4c72b0"/></g><g clip-path="url(#bv)"><path d="m150.242188 363.460938h.535156v-23.269532h-.535156zm0 0" fill="#4c72b0"/></g><g clip-path="url(#bw)"><path d="m150.910156 363.460938h.53125v-38.480469h-.53125zm0 0" fill="#4c72b0"/></g><g clip-path="url(#bx)"><path d="m151.574219 363.460938h.53125v-51.753907h-.53125zm0 0" fill="#4c72b0"/></g><g clip-path="url(#by)"><path d="m152.242188 363.460938h.53125v-46.871094h-.53125zm0 0" fill="#4c72b0"/></g><g clip-path="url(#bz)"><path d="m152.90625 363.460938h.53125v-49.175782h-.53125zm0 0" fill="#4c72b0"/></g><g clip-path="url(#bA)"><path d="m153.570312 363.460938h.535157v-31.945313h-.535157zm0 0" fill="#4c72b0"/></g><g clip-path="url(#bB)"><path d="m154.238281 363.460938h.53125v-21.890626h-.53125zm0 0" fill="#4c72b0"/></g><g clip-path="url(#bC)"><path d="m154.902344 363.460938h.535156v-43.613282h-.535156zm0 0" fill="#4c72b0"/></g><g clip-path="url(#bD)"><path d="m155.570312 363.460938h.53125v-20.558594h-.53125zm0 0" fill="#4c72b0"/></g><g clip-path="url(#bE)"><path d="m156.234375 363.460938h.53125v-54.046876h-.53125zm0 0" fill="#4c72b0"/></g><g clip-path="url(#bF)"><path d="m156.898438 363.460938h.535156v-28.761719h-.535156zm0 0" fill="#4c72b0"/></g><g clip-path="url(#bG)"><path d="m157.566406 363.460938h.53125v-10.722657h-.53125zm0 0" fill="#4c72b0"/></g><g clip-path="url(#bH)"><path d="m158.230469 363.460938h.535156v-53.167969h-.535156zm0 0" fill="#4c72b0"/></g><g clip-path="url(#bI)"><path d="m158.898438 363.460938h.53125v-36.992188h-.53125zm0 0" fill="#4c72b0"/></g><g clip-path="url(#bJ)"><path d="m159.5625 363.460938h.53125v-46.359376h-.53125zm0 0" fill="#4c72b0"/></g><g clip-path="url(#bK)"><path d="m160.230469 363.460938h.53125v-48.460938h-.53125zm0 0" fill="#4c72b0"/></g><g clip-path="url(#bL)"><path d="m160.894531 363.460938h.53125v-46.753907h-.53125zm0 0" fill="#4c72b0"/></g><g clip-path="url(#bM)"><path d="m161.558594 363.460938h.535156v-41.019532h-.535156zm0 0" fill="#4c72b0"/></g><g clip-path="url(#bN)"><path d="m162.226562 363.460938h.53125v-8.53125h-.53125zm0 0" fill="#4c72b0"/></g><g clip-path="url(#bO)"><path d="m162.890625 363.460938h.53125v-50.851563h-.53125zm0 0" fill="#4c72b0"/></g><g clip-path="url(#bP)"><path d="m163.558594 363.460938h.53125v-33.738282h-.53125zm0 0" fill="#4c72b0"/></g><g clip-path="url(#bQ)"><path d="m164.222656 363.460938h.53125v-17.496094h-.53125zm0 0" fill="#4c72b0"/></g><g clip-path="url(#bR)"><path d="m164.886719 363.460938h.535156v-28.414063h-.535156zm0 0" fill="#4c72b0"/></g><g clip-path="url(#bS)"><path d="m165.554688 363.460938h.53125v-54.546876h-.53125zm0 0" fill="#4c72b0"/></g><g clip-path="url(#bT)"><path d="m166.21875 363.460938h.535156v-38.941407h-.535156zm0 0" fill="#4c72b0"/></g><g clip-path="url(#bU)"><path d="m166.886719 363.460938h.53125v-35.65625h-.53125zm0 0" fill="#4c72b0"/></g><g clip-path="url(#bV)"><path d="m167.550781 363.460938h.53125v-47.554688h-.53125zm0 0" fill="#4c72b0"/></g><g clip-path="url(#bW)"><path d="m168.214844 363.460938h.535156v-52.261719h-.535156zm0 0" fill="#4c72b0"/></g><g clip-path="url(#bX)"><path d="m168.882812 363.460938h.53125v-18.398438h-.53125zm0 0" fill="#4c72b0"/></g><g clip-path="url(#bY)"><path d="m169.546875 363.460938h.535156v-30.054688h-.535156zm0 0" fill="#4c72b0"/></g><g clip-path="url(#bZ)"><path d="m170.214844 363.460938h.53125v-12.828126h-.53125zm0 0" fill="#4c72b0"/></g><g clip-path="url(#b0)"><path d="m170.878906 363.460938h.53125v-33.792969h-.53125zm0 0" fill="#4c72b0"/></g><g clip-path="url(#b1)"><path d="m171.546875 363.460938h.53125v-36.953126h-.53125zm0 0" fill="#4c72b0"/></g><g clip-path="url(#b2)"><path d="m172.210938 363.460938h.53125v-35.515626h-.53125zm0 0" fill="#4c72b0"/></g><g clip-path="url(#b3)"><path d="m172.875 363.460938h.535156v-27.414063h-.535156zm0 0" fill="#4c72b0"/></g><g clip-path="url(#b4)"><path d="m173.542969 363.460938h.53125v-5.070313h-.53125zm0 0" fill="#4c72b0"/></g><g clip-path="url(#b5)"><path d="m174.207031 363.460938h.535157v-31.449219h-.535157zm0 0" fill="#4c72b0"/></g><g clip-path="url(#b6)"><path d="m174.875 363.460938h.53125v-33.027344h-.53125zm0 0" fill="#4c72b0"/></g><g clip-path="url(#b7)"><path d="m175.539062 363.460938h.53125v-25.578126h-.53125zm0 0" fill="#4c72b0"/></g><g clip-path="url(#b8)"><path d="m176.203125 363.460938h.535156v-46.160157h-.535156zm0 0" fill="#4c72b0"/></g><g clip-path="url(#b9)"><path d="m176.871094 363.460938h.53125v-15.234376h-.53125zm0 0" fill="#4c72b0"/></g><g clip-path="url(#ca)"><path d="m177.535156 363.460938h.535156v-33.390626h-.535156zm0 0" fill="#4c72b0"/></g><g clip-path="url(#cb)"><path d="m178.203125 363.460938h.53125v-27.710938h-.53125zm0 0" fill="#4c72b0"/></g><g clip-path="url(#cc)"><path d="m178.867188 363.460938h.53125v-38.585938h-.53125zm0 0" fill="#4c72b0"/></g><g clip-path="url(#cd)"><path d="m179.535156 363.460938h.53125v-30.894532h-.53125zm0 0" fill="#4c72b0"/></g><g clip-path="url(#ce)"><path d="m180.199219 363.460938h.53125v-41.933594h-.53125zm0 0" fill="#4c72b0"/></g><g clip-path="url(#cf)"><path d="m180.863281 363.460938h.535157v-31.625h-.535157zm0 0" fill="#4c72b0"/></g><g clip-path="url(#cg)"><path d="m181.53125 363.460938h.53125v-12.390626h-.53125zm0 0" fill="#4c72b0"/></g><g clip-path="url(#ch)"><path d="m182.195312 363.460938h.535157v-19.996094h-.535157zm0 0" fill="#4c72b0"/></g><g clip-path="url(#ci)"><path d="m182.863281 363.460938h.53125v-21.304688h-.53125zm0 0" fill="#4c72b0"/></g><g clip-path="url(#cj)"><path d="m183.527344 363.460938h.53125v-30.824219h-.53125zm0 0" fill="#4c72b0"/></g><g clip-path="url(#ck)"><path d="m184.191406 363.460938h.535156v-26.351563h-.535156zm0 0" fill="#4c72b0"/></g><g clip-path="url(#cl)"><path d="m184.859375 363.460938h.53125v-36.605469h-.53125zm0 0" fill="#4c72b0"/></g><g clip-path="url(#cm)"><path d="m185.523438 363.460938h.535156v-14.847657h-.535156zm0 0" fill="#4c72b0"/></g><g clip-path="url(#cn)"><path d="m186.191406 363.460938h.53125v-25.714844h-.53125zm0 0" fill="#4c72b0"/></g><g clip-path="url(#co)"><path d="m186.855469 363.460938h.53125v-35.066407h-.53125zm0 0" fill="#4c72b0"/></g><g clip-path="url(#cp)"><path d="m187.523438 363.460938h.53125v-8.726563h-.53125zm0 0" fill="#4c72b0"/></g><g clip-path="url(#cq)"><path d="m188.1875 363.460938h.53125v-12.023438h-.53125zm0 0" fill="#4c72b0"/></g><g clip-path="url(#cr)"><path d="m188.851562 363.460938h.535157v-2.824219h-.535157zm0 0" fill="#4c72b0"/></g><g clip-path="url(#cs)"><path d="m189.519531 363.460938h.53125v-32.8125h-.53125zm0 0" fill="#4c72b0"/></g><g clip-path="url(#ct)"><path d="m190.183594 363.460938h.535156v-7.582032h-.535156zm0 0" fill="#4c72b0"/></g><g clip-path="url(#cu)"><path d="m190.851562 363.460938h.53125v-33.375h-.53125zm0 0" fill="#4c72b0"/></g><g clip-path="url(#cv)"><path d="m191.515625 363.460938h.53125v-34.242188h-.53125zm0 0" fill="#4c72b0"/></g><g clip-path="url(#cw)"><path d="m192.179688 363.460938h.535156v-16.285157h-.535156zm0 0" fill="#4c72b0"/></g><g clip-path="url(#cx)"><path d="m192.847656 363.460938h.53125v-27.253907h-.53125zm0 0" fill="#4c72b0"/></g><g clip-path="url(#cy)"><path d="m193.511719 363.460938h.535156v-36.90625h-.535156zm0 0" fill="#4c72b0"/></g><g clip-path="url(#cz)"><path d="m194.179688 363.460938h.53125v-30.691407h-.53125zm0 0" fill="#4c72b0"/></g><g clip-path="url(#cA)"><path d="m194.84375 363.460938h.53125v-30.050782h-.53125zm0 0" fill="#4c72b0"/></g><g clip-path="url(#cB)"><path d="m195.511719 363.460938h.53125v-20.710938h-.53125zm0 0" fill="#4c72b0"/></g><g clip-path="url(#cC)"><path d="m196.175781 363.460938h.53125v-11.605469h-.53125zm0 0" fill="#4c72b0"/></g><g clip-path="url(#cD)"><path d="m196.839844 363.460938h.535156v-13.082032h-.535156zm0 0" fill="#4c72b0"/></g><g clip-path="url(#cE)"><path d="m197.507812 363.460938h.53125v-32.421876h-.53125zm0 0" fill="#4c72b0"/></g><g clip-path="url(#cF)"><path d="m198.171875 363.460938h.535156v-32.539063h-.535156zm0 0" fill="#4c72b0"/></g><g clip-path="url(#cG)"><path d="m198.839844 363.460938h.53125v-24.210938h-.53125zm0 0" fill="#4c72b0"/></g><g clip-path="url(#cH)"><path d="m199.503906 363.460938h.53125v-26.296876h-.53125zm0 0" fill="#4c72b0"/></g><g clip-path="url(#cI)"><path d="m200.167969 363.460938h.535156v-30.484376h-.535156zm0 0" fill="#4c72b0"/></g><g clip-path="url(#cJ)"><path d="m200.835938 363.460938h.53125v-16.652344h-.53125zm0 0" fill="#4c72b0"/></g><g clip-path="url(#cK)"><path d="m201.5 363.460938h.535156v-17.707032h-.535156zm0 0" fill="#4c72b0"/></g><g clip-path="url(#cL)"><path d="m202.167969 363.460938h.53125v-28.292969h-.53125zm0 0" fill="#4c72b0"/></g><g clip-path="url(#cM)"><path d="m202.832031 363.460938h.53125v-10.546876h-.53125zm0 0" fill="#4c72b0"/></g><g clip-path="url(#cN)"><path d="m203.496094 363.460938h.535156v-11.167969h-.535156zm0 0" fill="#4c72b0"/></g><g clip-path="url(#cO)"><path d="m204.164062 363.460938h.53125v-27.59375h-.53125zm0 0" fill="#4c72b0"/></g><g clip-path="url(#cP)"><path d="m204.828125 363.460938h.535156v-29.722657h-.535156zm0 0" fill="#4c72b0"/></g><g clip-path="url(#cQ)"><path d="m205.496094 363.460938h.53125v-24.574219h-.53125zm0 0" fill="#4c72b0"/></g><g clip-path="url(#cR)"><path d="m206.160156 363.460938h.53125v-6.5625h-.53125zm0 0" fill="#4c72b0"/></g><g clip-path="url(#cS)"><path d="m206.828125 363.460938h.53125v-32.917969h-.53125zm0 0" fill="#4c72b0"/></g><g clip-path="url(#cT)"><path d="m207.492188 363.460938h.53125v-24.386719h-.53125zm0 0" fill="#4c72b0"/></g><g clip-path="url(#cU)"><path d="m208.15625 363.460938h.535156v-24.777344h-.535156zm0 0" fill="#4c72b0"/></g><g clip-path="url(#cV)"><path d="m208.824219 363.460938h.53125v-29.480469h-.53125zm0 0" fill="#4c72b0"/></g><g clip-path="url(#cW)"><path d="m209.488281 363.460938h.535157v-24.71875h-.535157zm0 0" fill="#4c72b0"/></g><g clip-path="url(#cX)"><path d="m210.15625 363.460938h.53125v-15.9375h-.53125zm0 0" fill="#4c72b0"/></g><g clip-path="url(#cY)"><path d="m210.820312 363.460938h.53125v-5.109376h-.53125zm0 0" fill="#4c72b0"/></g><g clip-path="url(#cZ)"><path d="m211.484375 363.460938h.535156v-11.238282h-.535156zm0 0" fill="#4c72b0"/></g><g clip-path="url(#c0)"><path d="m212.152344 363.460938h.53125v-29.664063h-.53125zm0 0" fill="#4c72b0"/></g><g clip-path="url(#c1)"><path d="m212.816406 363.460938h.535156v-19.972657h-.535156zm0 0" fill="#4c72b0"/></g><g clip-path="url(#c2)"><path d="m213.484375 363.460938h.53125v-17.691407h-.53125zm0 0" fill="#4c72b0"/></g><g clip-path="url(#c3)"><path d="m214.148438 363.460938h.53125v-22.675782h-.53125zm0 0" fill="#4c72b0"/></g><g clip-path="url(#c4)"><path d="m214.816406 363.460938h.53125v-22.136719h-.53125zm0 0" fill="#4c72b0"/></g><g clip-path="url(#c5)"><path d="m215.480469 363.460938h.53125v-17.800782h-.53125zm0 0" fill="#4c72b0"/></g><g clip-path="url(#c6)"><path d="m216.144531 363.460938h.535157v-22.984376h-.535157zm0 0" fill="#4c72b0"/></g><g clip-path="url(#c7)"><path d="m216.8125 363.460938h.53125v-1.921876h-.53125zm0 0" fill="#4c72b0"/></g><g clip-path="url(#c8)"><path d="m217.476562 363.460938h.535157v-29.378907h-.535157zm0 0" fill="#4c72b0"/></g><g clip-path="url(#c9)"><path d="m218.144531 363.460938h.53125v-5.496094h-.53125zm0 0" fill="#4c72b0"/></g><g clip-path="url(#da)"><path d="m218.808594 363.460938h.53125v-20.730469h-.53125zm0 0" fill="#4c72b0"/></g><g clip-path="url(#db)"><path d="m219.472656 363.460938h.535156v-6.335938h-.535156zm0 0" fill="#4c72b0"/></g><g clip-path="url(#dc)"><path d="m220.140625 363.460938h.53125v-24.609376h-.53125zm0 0" fill="#4c72b0"/></g><g clip-path="url(#dd)"><path d="m220.804688 363.460938h.535156v-19.769532h-.535156zm0 0" fill="#4c72b0"/></g><g clip-path="url(#de)"><path d="m221.472656 363.460938h.53125v-29.417969h-.53125zm0 0" fill="#4c72b0"/></g><g clip-path="url(#df)"><path d="m222.136719 363.460938h.53125v-14.394532h-.53125zm0 0" fill="#4c72b0"/></g><g clip-path="url(#dg)"><path d="m222.804688 363.460938h.53125v-28.445313h-.53125zm0 0" fill="#4c72b0"/></g><g clip-path="url(#dh)"><path d="m223.46875 363.460938h.53125v-20.019532h-.53125zm0 0" fill="#4c72b0"/></g><g clip-path="url(#di)"><path d="m224.132812 363.460938h.535157v-18.855469h-.535157zm0 0" fill="#4c72b0"/></g><g clip-path="url(#dj)"><path d="m224.800781 363.460938h.53125v-20.515626h-.53125zm0 0" fill="#4c72b0"/></g><g clip-path="url(#dk)"><path d="m225.464844 363.460938h.535156v-9.03125h-.535156zm0 0" fill="#4c72b0"/></g><g clip-path="url(#dl)"><path d="m226.132812 363.460938h.53125v-21.683594h-.53125zm0 0" fill="#4c72b0"/></g><g clip-path="url(#dm)"><path d="m226.796875 363.460938h.53125v-28.957032h-.53125zm0 0" fill="#4c72b0"/></g><g clip-path="url(#dn)"><path d="m227.460938 363.460938h.535156v-22.0625h-.535156zm0 0" fill="#4c72b0"/></g><g clip-path="url(#do)"><path d="m228.128906 363.460938h.53125v-20.003907h-.53125zm0 0" fill="#4c72b0"/></g><g clip-path="url(#dp)"><path d="m228.792969 363.460938h.535156v-16.066407h-.535156zm0 0" fill="#4c72b0"/></g><g clip-path="url(#dq)"><path d="m229.460938 363.460938h.53125v-12.511719h-.53125zm0 0" fill="#4c72b0"/></g><g clip-path="url(#dr)"><path d="m230.125 363.460938h.53125v-13.410157h-.53125zm0 0" fill="#4c72b0"/></g><g clip-path="url(#ds)"><path d="m230.792969 363.460938h.53125v-15.164063h-.53125zm0 0" fill="#4c72b0"/></g><g clip-path="url(#dt)"><path d="m231.457031 363.460938h.53125v-24.273438h-.53125zm0 0" fill="#4c72b0"/></g><g clip-path="url(#du)"><path d="m232.121094 363.460938h.535156v-17.976563h-.535156zm0 0" fill="#4c72b0"/></g><g clip-path="url(#dv)"><path d="m232.789062 363.460938h.53125v-4.691407h-.53125zm0 0" fill="#4c72b0"/></g><g clip-path="url(#dw)"><path d="m233.453125 363.460938h.535156v-15.648438h-.535156zm0 0" fill="#4c72b0"/></g><g clip-path="url(#dx)"><path d="m234.121094 363.460938h.53125v-9.996094h-.53125zm0 0" fill="#4c72b0"/></g><g clip-path="url(#dy)"><path d="m234.785156 363.460938h.53125v-19.417969h-.53125zm0 0" fill="#4c72b0"/></g><g clip-path="url(#dz)"><path d="m235.449219 363.460938h.535156v-12.921876h-.535156zm0 0" fill="#4c72b0"/></g><g clip-path="url(#dA)"><path d="m236.117188 363.460938h.53125v-18.625h-.53125zm0 0" fill="#4c72b0"/></g><g clip-path="url(#dB)"><path d="m236.78125 363.460938h.535156v-14.144532h-.535156zm0 0" fill="#4c72b0"/></g><g clip-path="url(#dC)"><path d="m237.449219 363.460938h.53125v-18.222657h-.53125zm0 0" fill="#4c72b0"/></g><g clip-path="url(#dD)"><path d="m238.113281 363.460938h.53125v-21.789063h-.53125zm0 0" fill="#4c72b0"/></g><g clip-path="url(#dE)"><path d="m238.78125 363.460938h.53125v-18.457032h-.53125zm0 0" fill="#4c72b0"/></g><g clip-path="url(#dF)"><path d="m239.445312 363.460938h.53125v-6.136719h-.53125zm0 0" fill="#4c72b0"/></g><g clip-path="url(#dG)"><path d="m240.109375 363.460938h.535156v-24.875h-.535156zm0 0" fill="#4c72b0"/></g><g clip-path="url(#dH)"><path d="m240.777344 363.460938h.53125v-17.96875h-.53125zm0 0" fill="#4c72b0"/></g><g clip-path="url(#dI)"><path d="m241.441406 363.460938h.53125v-10.496094h-.53125zm0 0" fill="#4c72b0"/></g><g clip-path="url(#dJ)"><path d="m242.109375 363.460938h.53125v-8.484376h-.53125zm0 0" fill="#4c72b0"/></g><g clip-path="url(#dK)"><path d="m242.773438 363.460938h.53125v-6.203126h-.53125zm0 0" fill="#4c72b0"/></g><g clip-path="url(#dL)"><path d="m243.4375 363.460938h.535156v-14.507813h-.535156zm0 0" fill="#4c72b0"/></g><g clip-path="url(#dM)"><path d="m244.105469 363.460938h.53125v-16.398438h-.53125zm0 0" fill="#4c72b0"/></g><g clip-path="url(#dN)"><path d="m244.769531 363.460938h.535157v-4.625h-.535157zm0 0" fill="#4c72b0"/></g><g clip-path="url(#dO)"><path d="m245.4375 363.460938h.53125v-11.421876h-.53125zm0 0" fill="#4c72b0"/></g><g clip-path="url(#dP)"><path d="m246.101562 363.460938h.53125v-10.066407h-.53125zm0 0" fill="#4c72b0"/></g><g clip-path="url(#dQ)"><path d="m246.765625 363.460938h.535156v-18.851563h-.535156zm0 0" fill="#4c72b0"/></g><g clip-path="url(#dR)"><path d="m247.433594 363.460938h.53125v-4.117188h-.53125zm0 0" fill="#4c72b0"/></g><g clip-path="url(#dS)"><path d="m248.097656 363.460938h.535156v-21.183594h-.535156zm0 0" fill="#4c72b0"/></g><g clip-path="url(#dT)"><path d="m248.765625 363.460938h.53125v-16.988282h-.53125zm0 0" fill="#4c72b0"/></g><g clip-path="url(#dU)"><path d="m249.429688 363.460938h.53125v-14.539063h-.53125zm0 0" fill="#4c72b0"/></g><g clip-path="url(#dV)"><path d="m250.097656 363.460938h.53125v-7.347657h-.53125zm0 0" fill="#4c72b0"/></g><g clip-path="url(#dW)"><path d="m250.761719 363.460938h.53125v-7.859376h-.53125zm0 0" fill="#4c72b0"/></g><g clip-path="url(#dX)"><path d="m251.425781 363.460938h.535157v-22.050782h-.535157zm0 0" fill="#4c72b0"/></g><g clip-path="url(#dY)"><path d="m252.09375 363.460938h.53125v-3.035157h-.53125zm0 0" fill="#4c72b0"/></g><g clip-path="url(#dZ)"><path d="m252.757812 363.460938h.535157v-15.152344h-.535157zm0 0" fill="#4c72b0"/></g><g clip-path="url(#d0)"><path d="m253.425781 363.460938h.53125v-13.535157h-.53125zm0 0" fill="#4c72b0"/></g><g clip-path="url(#d1)"><path d="m254.089844 363.460938h.53125v-13.734376h-.53125zm0 0" fill="#4c72b0"/></g><g clip-path="url(#d2)"><path d="m254.753906 363.460938h.535156v-19.785157h-.535156zm0 0" fill="#4c72b0"/></g><g clip-path="url(#d3)"><path d="m255.421875 363.460938h.53125v-15.167969h-.53125zm0 0" fill="#4c72b0"/></g><g clip-path="url(#d4)"><path d="m256.085938 363.460938h.535156v-5.382813h-.535156zm0 0" fill="#4c72b0"/></g><g clip-path="url(#d5)"><path d="m256.753906 363.460938h.53125v-24.898438h-.53125zm0 0" fill="#4c72b0"/></g><g clip-path="url(#d6)"><path d="m257.417969 363.460938h.53125v-9.199219h-.53125zm0 0" fill="#4c72b0"/></g><g clip-path="url(#d7)"><path d="m258.085938 363.460938h.53125v-5.882813h-.53125zm0 0" fill="#4c72b0"/></g><g clip-path="url(#d8)"><path d="m258.75 363.460938h.53125v-.492188h-.53125zm0 0" fill="#4c72b0"/></g><g clip-path="url(#d9)"><path d="m259.414062 363.460938h.535157v-13.757813h-.535157zm0 0" fill="#4c72b0"/></g><g clip-path="url(#ea)"><path d="m260.082031 363.460938h.53125v-6.390626h-.53125zm0 0" fill="#4c72b0"/></g><g clip-path="url(#eb)"><path d="m260.746094 363.460938h.535156v-3.789063h-.535156zm0 0" fill="#4c72b0"/></g><g clip-path="url(#ec)"><path d="m261.414062 363.460938h.53125v-9.289063h-.53125zm0 0" fill="#4c72b0"/></g><g clip-path="url(#ed)"><path d="m262.078125 363.460938h.53125v-2.300782h-.53125zm0 0" fill="#4c72b0"/></g><g clip-path="url(#ee)"><path d="m262.742188 363.460938h.535156v-1.128907h-.535156zm0 0" fill="#4c72b0"/></g><g clip-path="url(#ef)"><path d="m263.410156 363.460938h.53125v-10.523438h-.53125zm0 0" fill="#4c72b0"/></g><g clip-path="url(#eg)"><path d="m264.074219 363.460938h.535156v-7.449219h-.535156zm0 0" fill="#4c72b0"/></g><g clip-path="url(#eh)"><path d="m264.742188 363.460938h.53125v-6.625h-.53125zm0 0" fill="#4c72b0"/></g><g clip-path="url(#ei)"><path d="m265.40625 363.460938h.53125v-10.101563h-.53125zm0 0" fill="#4c72b0"/></g><g clip-path="url(#ej)"><path d="m266.074219 363.460938h.53125v-7.421876h-.53125zm0 0" fill="#4c72b0"/></g><g clip-path="url(#ek)"><path d="m266.738281 363.460938h.53125v-2.941407h-.53125zm0 0" fill="#4c72b0"/></g><g clip-path="url(#el)"><path d="m267.402344 363.460938h.535156v-5.113282h-.535156zm0 0" fill="#4c72b0"/></g><g clip-path="url(#em)"><path d="m268.070312 363.460938h.53125v-4.429688h-.53125zm0 0" fill="#4c72b0"/></g><g clip-path="url(#en)"><path d="m268.734375 363.460938h.535156v-8.972657h-.535156zm0 0" fill="#4c72b0"/></g><g clip-path="url(#eo)"><path d="m269.402344 363.460938h.53125v-8.859376h-.53125zm0 0" fill="#4c72b0"/></g><g clip-path="url(#ep)"><path d="m270.066406 363.460938h.53125v-.550782h-.53125zm0 0" fill="#4c72b0"/></g><g clip-path="url(#eq)"><path d="m270.730469 363.460938h.535156v-5.261719h-.535156zm0 0" fill="#4c72b0"/></g><g clip-path="url(#er)"><path d="m271.398438 363.460938h.53125v-10.769532h-.53125zm0 0" fill="#4c72b0"/></g><g clip-path="url(#es)"><path d="m272.0625 363.460938h.535156v-11.816407h-.535156zm0 0" fill="#4c72b0"/></g><g clip-path="url(#et)"><path d="m272.730469 363.460938h.53125v-13.292969h-.53125zm0 0" fill="#4c72b0"/></g><g clip-path="url(#eu)"><path d="m273.394531 363.460938h.53125v-7.496094h-.53125zm0 0" fill="#4c72b0"/></g><g clip-path="url(#ev)"><path d="m274.0625 363.460938h.53125v-6.625h-.53125zm0 0" fill="#4c72b0"/></g><g clip-path="url(#ew)"><path d="m274.726562 363.460938h.53125v-.042969h-.53125zm0 0" fill="#4c72b0"/></g><g clip-path="url(#ex)"><path d="m275.390625 363.460938h.535156v-4.78125h-.535156zm0 0" fill="#4c72b0"/></g><g clip-path="url(#ey)"><path d="m276.058594 363.460938h.53125v-5.824219h-.53125zm0 0" fill="#4c72b0"/></g><g clip-path="url(#ez)"><path d="m276.722656 363.460938h.535156v-10.789063h-.535156zm0 0" fill="#4c72b0"/></g><g clip-path="url(#eA)"><path d="m277.390625 363.460938h.53125v-12.261719h-.53125zm0 0" fill="#4c72b0"/></g><g clip-path="url(#eB)"><path d="m278.054688 363.460938h.53125v-6.625h-.53125zm0 0" fill="#4c72b0"/></g><g clip-path="url(#eC)"><path d="m278.71875 363.460938h.535156v-5.746094h-.535156zm0 0" fill="#4c72b0"/></g><g clip-path="url(#eD)"><path d="m279.386719 363.460938h.53125v-9.425782h-.53125zm0 0" fill="#4c72b0"/></g><g clip-path="url(#eE)"><path d="m280.050781 363.460938h.535157v-4.632813h-.535157zm0 0" fill="#4c72b0"/></g><g clip-path="url(#eF)"><path d="m280.71875 363.460938h.53125v-9.339844h-.53125zm0 0" fill="#4c72b0"/></g><g clip-path="url(#eG)"><path d="m281.382812 363.460938h.53125v-7.472657h-.53125zm0 0" fill="#4c72b0"/></g><g clip-path="url(#eH)"><path d="m282.046875 363.460938h.535156v-7.28125h-.535156zm0 0" fill="#4c72b0"/></g><g clip-path="url(#eI)"><path d="m282.714844 363.460938h.53125v-1.378907h-.53125zm0 0" fill="#4c72b0"/></g><g clip-path="url(#eJ)"><path d="m283.378906 363.460938h.535156v-1.285157h-.535156zm0 0" fill="#4c72b0"/></g><g clip-path="url(#eK)"><path d="m284.046875 363.460938h.53125v-2.117188h-.53125zm0 0" fill="#4c72b0"/></g><g clip-path="url(#eL)"><path d="m284.710938 363.460938h.53125v-8.777344h-.53125zm0 0" fill="#4c72b0"/></g><g clip-path="url(#eM)"><path d="m285.378906 363.460938h.53125v-7.113282h-.53125zm0 0" fill="#4c72b0"/></g><g clip-path="url(#eN)"><path d="m286.042969 363.460938h.53125v-.023438h-.53125zm0 0" fill="#4c72b0"/></g><g clip-path="url(#eO)"><path d="m286.707031 363.460938h.535157v-1.28125h-.535157zm0 0" fill="#4c72b0"/></g><g clip-path="url(#eP)"><path d="m287.375 363.460938h.53125v-11.296876h-.53125zm0 0" fill="#4c72b0"/></g><g clip-path="url(#eQ)"><path d="m288.039062 363.460938h.535157v-10.238282h-.535157zm0 0" fill="#4c72b0"/></g><g clip-path="url(#eR)"><path d="m288.707031 363.460938h.53125v-7.066407h-.53125zm0 0" fill="#4c72b0"/></g><g clip-path="url(#eS)"><path d="m289.371094 363.460938h.53125v-6.46875h-.53125zm0 0" fill="#4c72b0"/></g><g clip-path="url(#eT)"><path d="m290.035156 363.460938h.535156v-5.652344h-.535156zm0 0" fill="#4c72b0"/></g><g clip-path="url(#eU)"><path d="m290.703125 363.460938h.53125v-8.71875h-.53125zm0 0" fill="#4c72b0"/></g><g clip-path="url(#eV)"><path d="m291.367188 363.460938h.535156v-11.414063h-.535156zm0 0" fill="#4c72b0"/></g><g clip-path="url(#eW)"><path d="m292.035156 363.460938h.53125v-.464844h-.53125zm0 0" fill="#4c72b0"/></g><g clip-path="url(#eX)"><path d="m292.699219 363.460938h.53125v-.980469h-.53125zm0 0" fill="#4c72b0"/></g><g clip-path="url(#eY)"><path d="m293.367188 363.460938h.53125v-2.4375h-.53125zm0 0" fill="#4c72b0"/></g><g clip-path="url(#eZ)"><path d="m294.03125 363.460938h.53125v-10.394532h-.53125zm0 0" fill="#4c72b0"/></g><g clip-path="url(#e0)"><path d="m294.695312 363.460938h.535157v-8.078126h-.535157zm0 0" fill="#4c72b0"/></g><g clip-path="url(#e1)"><path d="m295.363281 363.460938h.53125v-2.386719h-.53125zm0 0" fill="#4c72b0"/></g><g clip-path="url(#e2)"><path d="m296.027344 363.460938h.535156v-4.523438h-.535156zm0 0" fill="#4c72b0"/></g><g clip-path="url(#e3)"><path d="m296.695312 363.460938h.53125v-1.199219h-.53125zm0 0" fill="#4c72b0"/></g><g clip-path="url(#e4)"><path d="m297.359375 363.460938h.53125v-11.488282h-.53125zm0 0" fill="#4c72b0"/></g><g clip-path="url(#e5)"><path d="m298.023438 363.460938h.535156v-.972657h-.535156zm0 0" fill="#4c72b0"/></g><g clip-path="url(#e6)"><path d="m298.691406 363.460938h.53125v-8.273438h-.53125zm0 0" fill="#4c72b0"/></g><g clip-path="url(#e7)"><path d="m299.355469 363.460938h.535156v-6.089844h-.535156zm0 0" fill="#4c72b0"/></g><g clip-path="url(#e8)"><path d="m300.023438 363.460938h.53125v-5.050782h-.53125zm0 0" fill="#4c72b0"/></g><g clip-path="url(#e9)"><path d="m300.6875 363.460938h.53125v-1.734376h-.53125zm0 0" fill="#4c72b0"/></g><g clip-path="url(#fa)"><path d="m301.355469 363.460938h.53125v-.5625h-.53125zm0 0" fill="#4c72b0"/></g><g clip-path="url(#fb)"><path d="m302.019531 363.460938h.53125v-3.03125h-.53125zm0 0" fill="#4c72b0"/></g><g clip-path="url(#fc)"><path d="m302.683594 363.460938h.535156v-2.335938h-.535156zm0 0" fill="#4c72b0"/></g><g clip-path="url(#fd)"><path d="m303.351562 363.460938h.53125v-.222657h-.53125zm0 0" fill="#4c72b0"/></g><g clip-path="url(#fe)"><path d="m304.015625 363.460938h.535156v-.234376h-.535156zm0 0" fill="#4c72b0"/></g><g clip-path="url(#ff)"><path d="m304.683594 363.460938h.53125v-4.957032h-.53125zm0 0" fill="#4c72b0"/></g><g clip-path="url(#fg)"><path d="m305.347656 363.460938h.53125v-2.265626h-.53125zm0 0" fill="#4c72b0"/></g><g clip-path="url(#fh)"><path d="m306.011719 363.460938h.535156v-.015626h-.535156zm0 0" fill="#4c72b0"/></g><g clip-path="url(#fi)"><path d="m306.679688 363.460938h.53125v-2.5h-.53125zm0 0" fill="#4c72b0"/></g><g clip-path="url(#fj)"><path d="m307.34375 363.460938h.535156v-5.761719h-.535156zm0 0" fill="#4c72b0"/></g><g clip-path="url(#fk)"><path d="m308.011719 363.460938h.53125v-9.792969h-.53125zm0 0" fill="#4c72b0"/></g><g clip-path="url(#fl)"><path d="m308.675781 363.460938h.53125v-1.484376h-.53125zm0 0" fill="#4c72b0"/></g><g clip-path="url(#fm)"><path d="m309.34375 363.460938h.53125v-5.542969h-.53125zm0 0" fill="#4c72b0"/></g><g clip-path="url(#fn)"><path d="m310.007812 363.460938h.53125v-3.460938h-.53125zm0 0" fill="#4c72b0"/></g><g clip-path="url(#fo)"><path d="m310.671875 363.460938h.535156v-3.335938h-.535156zm0 0" fill="#4c72b0"/></g><g clip-path="url(#fp)"><path d="m311.339844 363.460938h.53125v-5.132813h-.53125zm0 0" fill="#4c72b0"/></g><g clip-path="url(#fq)"><path d="m312.003906 363.460938h.535156v-1.265626h-.535156zm0 0" fill="#4c72b0"/></g><g clip-path="url(#fr)"><path d="m312.671875 363.460938h.53125v-2.488282h-.53125zm0 0" fill="#4c72b0"/></g><g clip-path="url(#fs)"><path d="m313.335938 363.460938h.53125v-3.230469h-.53125zm0 0" fill="#4c72b0"/></g><g clip-path="url(#ft)"><path d="m314 363.460938h.535156v-2.511719h-.535156zm0 0" fill="#4c72b0"/></g><g clip-path="url(#fu)"><path d="m314.667969 363.460938h.53125v-1.125h-.53125zm0 0" fill="#4c72b0"/></g><g clip-path="url(#fv)"><path d="m315.332031 363.460938h.535157v-1.070313h-.535157zm0 0" fill="#4c72b0"/></g><g clip-path="url(#fw)"><path d="m316 363.460938h.53125v-1.433594h-.53125zm0 0" fill="#4c72b0"/></g><g clip-path="url(#fx)"><path d="m316.664062 363.460938h.53125v-.144532h-.53125zm0 0" fill="#4c72b0"/></g><g clip-path="url(#fy)"><path d="m317.328125 363.460938h.535156v-1.8125h-.535156zm0 0" fill="#4c72b0"/></g><g clip-path="url(#fz)"><path d="m317.996094 363.460938h.53125v-5.546876h-.53125zm0 0" fill="#4c72b0"/></g><g clip-path="url(#fA)"><path d="m318.660156 363.460938h.535156v-1.742188h-.535156zm0 0" fill="#4c72b0"/></g><g clip-path="url(#fB)"><path d="m319.328125 363.460938h.53125v-2.609376h-.53125zm0 0" fill="#4c72b0"/></g><g clip-path="url(#fC)"><path d="m319.992188 363.460938h.53125v-.203126h-.53125zm0 0" fill="#4c72b0"/></g><g clip-path="url(#fD)"><path d="m320.660156 363.460938h.53125v-4.144532h-.53125zm0 0" fill="#4c72b0"/></g><g clip-path="url(#fE)"><path d="m321.324219 363.460938h.53125v-5.007813h-.53125zm0 0" fill="#4c72b0"/></g><g clip-path="url(#fF)"><path d="m321.988281 363.460938h.535157v-.230469h-.535157zm0 0" fill="#4c72b0"/></g><g clip-path="url(#fG)"><path d="m322.65625 363.460938h.53125v-1.824219h-.53125zm0 0" fill="#4c72b0"/></g><g clip-path="url(#fH)"><path d="m323.320312 363.460938h.535157v-3.589844h-.535157zm0 0" fill="#4c72b0"/></g><g clip-path="url(#fI)"><path d="m323.988281 363.460938h.53125v-2.460938h-.53125zm0 0" fill="#4c72b0"/></g><g clip-path="url(#fJ)"><path d="m324.652344 363.460938h.53125v-2.402344h-.53125zm0 0" fill="#4c72b0"/></g><g clip-path="url(#fK)"><path d="m325.316406 363.460938h.535156v-1.957032h-.535156zm0 0" fill="#4c72b0"/></g><g clip-path="url(#fL)"><path d="m325.984375 363.460938h.53125v-2.636719h-.53125zm0 0" fill="#4c72b0"/></g><g clip-path="url(#fM)"><path d="m326.648438 363.460938h.535156v-3.578126h-.535156zm0 0" fill="#4c72b0"/></g><g clip-path="url(#fN)"><path d="m327.316406 363.460938h.53125v-3.667969h-.53125zm0 0" fill="#4c72b0"/></g><g clip-path="url(#fO)"><path d="m327.980469 363.460938h.53125v-1.679688h-.53125zm0 0" fill="#4c72b0"/></g><g clip-path="url(#fP)"><path d="m328.648438 363.460938h.53125v-.257813h-.53125zm0 0" fill="#4c72b0"/></g><g clip-path="url(#fQ)"><path d="m329.3125 363.460938h.53125v-.332032h-.53125zm0 0" fill="#4c72b0"/></g><g clip-path="url(#fR)"><path d="m329.976562 363.460938h.535157v-2.734376h-.535157zm0 0" fill="#4c72b0"/></g><g clip-path="url(#fS)"><path d="m330.644531 363.460938h.53125v-1.890626h-.53125zm0 0" fill="#4c72b0"/></g><g clip-path="url(#fT)"><path d="m331.308594 363.460938h.535156v-.277344h-.535156zm0 0" fill="#4c72b0"/></g><g clip-path="url(#fU)"><path d="m331.976562 363.460938h.53125v-1.355469h-.53125zm0 0" fill="#4c72b0"/></g><g clip-path="url(#fV)"><path d="m332.640625 363.460938h.53125v-1.203126h-.53125zm0 0" fill="#4c72b0"/></g><g clip-path="url(#fW)"><path d="m333.304688 363.460938h.535156v-.78125h-.535156zm0 0" fill="#4c72b0"/></g><g clip-path="url(#fX)"><path d="m333.972656 363.460938h.53125v-4.171876h-.53125zm0 0" fill="#4c72b0"/></g><g clip-path="url(#fY)"><path d="m334.636719 363.460938h.535156v-.117188h-.535156zm0 0" fill="#4c72b0"/></g><g clip-path="url(#fZ)"><path d="m335.304688 363.460938h.53125v-3.695313h-.53125zm0 0" fill="#4c72b0"/></g><g clip-path="url(#f0)"><path d="m335.96875 363.460938h.53125v-.214844h-.53125zm0 0" fill="#4c72b0"/></g><g clip-path="url(#f1)"><path d="m336.636719 363.460938h.53125v-.578126h-.53125zm0 0" fill="#4c72b0"/></g><g clip-path="url(#f2)"><path d="m337.300781 363.460938h.53125v-1.570313h-.53125zm0 0" fill="#4c72b0"/></g><g clip-path="url(#f3)"><path d="m337.964844 363.460938h.535156v-2.375h-.535156zm0 0" fill="#4c72b0"/></g><g clip-path="url(#f4)"><path d="m338.632812 363.460938h.53125v-2.292969h-.53125zm0 0" fill="#4c72b0"/></g><g clip-path="url(#f5)"><path d="m339.296875 363.460938h.535156v-3.703126h-.535156zm0 0" fill="#4c72b0"/></g><g clip-path="url(#f6)"><path d="m339.964844 363.460938h.53125v-.453126h-.53125zm0 0" fill="#4c72b0"/></g><g clip-path="url(#f7)"><path d="m340.628906 363.460938h.53125v-2.621094h-.53125zm0 0" fill="#4c72b0"/></g><g clip-path="url(#f8)"><path d="m341.292969 363.460938h.535156v-1.5625h-.535156zm0 0" fill="#4c72b0"/></g><g clip-path="url(#f9)"><path d="m341.960938 363.460938h.53125v-.136719h-.53125zm0 0" fill="#4c72b0"/></g><g clip-path="url(#ga)"><path d="m342.625 363.460938h.535156v-1.21875h-.535156zm0 0" fill="#4c72b0"/></g><g clip-path="url(#gb)"><path d="m343.292969 363.460938h.53125v-1.65625h-.53125zm0 0" fill="#4c72b0"/></g><g clip-path="url(#gc)"><path d="m343.957031 363.460938h.53125v-1.667969h-.53125zm0 0" fill="#4c72b0"/></g><g clip-path="url(#gd)"><path d="m344.625 363.460938h.53125v-.53125h-.53125zm0 0" fill="#4c72b0"/></g><g clip-path="url(#ge)"><path d="m345.289062 363.460938h.53125v-2.730469h-.53125zm0 0" fill="#4c72b0"/></g><g clip-path="url(#gf)"><path d="m345.953125 363.460938h.535156v-2.199219h-.535156zm0 0" fill="#4c72b0"/></g><g clip-path="url(#gg)"><path d="m346.621094 363.460938h.53125v-.699219h-.53125zm0 0" fill="#4c72b0"/></g><g clip-path="url(#gh)"><path d="m347.285156 363.460938h.535156v-.035157h-.535156zm0 0" fill="#4c72b0"/></g><g clip-path="url(#gi)"><path d="m347.953125 363.460938h.53125v-4.285157h-.53125zm0 0" fill="#4c72b0"/></g><g clip-path="url(#gj)"><path d="m348.617188 363.460938h.53125v-4.007813h-.53125zm0 0" fill="#4c72b0"/></g><g clip-path="url(#gk)"><path d="m349.28125 363.460938h.535156v-1.582032h-.535156zm0 0" fill="#4c72b0"/></g><g clip-path="url(#gl)"><path d="m349.949219 363.460938h.53125v-.402344h-.53125zm0 0" fill="#4c72b0"/></g><g clip-path="url(#gm)"><path d="m350.613281 363.460938h.535157v-3.484376h-.535157zm0 0" fill="#4c72b0"/></g><g clip-path="url(#gn)"><path d="m351.28125 363.460938h.53125v-1.5h-.53125zm0 0" fill="#4c72b0"/></g><g clip-path="url(#go)"><path d="m351.945312 363.460938h.53125v-1.648438h-.53125zm0 0" fill="#4c72b0"/></g><g clip-path="url(#gp)"><path d="m352.613281 363.460938h.53125v-.445313h-.53125zm0 0" fill="#4c72b0"/></g><g clip-path="url(#gq)"><path d="m353.277344 363.460938h.53125v-.277344h-.53125zm0 0" fill="#4c72b0"/></g><g clip-path="url(#gr)"><path d="m353.941406 363.460938h.535156v-3.949219h-.535156zm0 0" fill="#4c72b0"/></g><g clip-path="url(#gs)"><path d="m354.609375 363.460938h.53125v-.105469h-.53125zm0 0" fill="#4c72b0"/></g><g clip-path="url(#gt)"><path d="m355.273438 363.460938h.53125v-.5h-.53125zm0 0" fill="#4c72b0"/></g><g clip-path="url(#gu)"><path d="m355.941406 363.460938h.53125v-1.640626h-.53125zm0 0" fill="#4c72b0"/></g><g clip-path="url(#gv)"><path d="m356.605469 363.460938h.53125v-.011719h-.53125zm0 0" fill="#4c72b0"/></g><g clip-path="url(#gw)"><path d="m357.269531 363.460938h.535157v-1.71875h-.535157zm0 0" fill="#4c72b0"/></g><g clip-path="url(#gx)"><path d="m357.9375 363.460938h.53125v-1.613282h-.53125zm0 0" fill="#4c72b0"/></g><g clip-path="url(#gy)"><path d="m358.601562 363.460938h.535157v-.046876h-.535157zm0 0" fill="#4c72b0"/></g><g clip-path="url(#gz)"><path d="m359.269531 363.460938h.53125v-.277344h-.53125zm0 0" fill="#4c72b0"/></g><g clip-path="url(#gA)"><path d="m359.933594 363.460938h.53125v-4.136719h-.53125zm0 0" fill="#4c72b0"/></g><g clip-path="url(#gB)"><path d="m360.597656 363.460938h.535156v-2.136719h-.535156zm0 0" fill="#4c72b0"/></g><g clip-path="url(#gC)"><path d="m361.265625 363.460938h.53125v-.566407h-.53125zm0 0" fill="#4c72b0"/></g><g clip-path="url(#gD)"><path d="m361.929688 363.460938h.535156v-.085938h-.535156zm0 0" fill="#4c72b0"/></g><g clip-path="url(#gE)"><path d="m362.597656 363.460938h.53125v-.835938h-.53125zm0 0" fill="#4c72b0"/></g><g clip-path="url(#gF)"><path d="m363.261719 363.460938h.53125v-1.300782h-.53125zm0 0" fill="#4c72b0"/></g><g clip-path="url(#gG)"><path d="m364.59375 363.460938h.53125v-2.042969h-.53125zm0 0" fill="#4c72b0"/></g><g clip-path="url(#gH)"><path d="m365.257812 363.460938h.535157v-.675782h-.535157zm0 0" fill="#4c72b0"/></g><g clip-path="url(#gI)"><path d="m365.925781 363.460938h.53125v-2.199219h-.53125zm0 0" fill="#4c72b0"/></g><g clip-path="url(#gJ)"><path d="m366.589844 363.460938h.535156v-.46875h-.535156zm0 0" fill="#4c72b0"/></g><g clip-path="url(#gK)"><path d="m367.257812 363.460938h.53125v-2.617188h-.53125zm0 0" fill="#4c72b0"/></g><g clip-path="url(#gL)"><path d="m367.921875 363.460938h.53125v-.105469h-.53125zm0 0" fill="#4c72b0"/></g><g clip-path="url(#gM)"><path d="m368.585938 363.460938h.535156v-.234376h-.535156zm0 0" fill="#4c72b0"/></g><g clip-path="url(#gN)"><path d="m369.253906 363.460938h.53125v-.101563h-.53125zm0 0" fill="#4c72b0"/></g><g clip-path="url(#gO)"><path d="m370.585938 363.460938h.53125v-.027344h-.53125zm0 0" fill="#4c72b0"/></g><g clip-path="url(#gP)"><path d="m371.25 363.460938h.53125v-1.867188h-.53125zm0 0" fill="#4c72b0"/></g><g clip-path="url(#gQ)"><path d="m371.917969 363.460938h.53125v-.363282h-.53125zm0 0" fill="#4c72b0"/></g><g clip-path="url(#gR)"><path d="m372.582031 363.460938h.53125v-1.320313h-.53125zm0 0" fill="#4c72b0"/></g><g clip-path="url(#gS)"><path d="m373.914062 363.460938h.53125v-.003907h-.53125zm0 0" fill="#4c72b0"/></g><g clip-path="url(#gT)"><path d="m374.578125 363.460938h.535156v-.1875h-.535156zm0 0" fill="#4c72b0"/></g><g clip-path="url(#gU)"><path d="m375.246094 363.460938h.53125v-.019532h-.53125zm0 0" fill="#4c72b0"/></g><g clip-path="url(#gV)"><path d="m375.910156 363.460938h.53125v-1.253907h-.53125zm0 0" fill="#4c72b0"/></g><g clip-path="url(#gW)"><path d="m376.574219 363.460938h.535156v-.207032h-.535156zm0 0" fill="#4c72b0"/></g><g clip-path="url(#gX)"><path d="m377.242188 363.460938h.53125v-.625h-.53125zm0 0" fill="#4c72b0"/></g><g clip-path="url(#gY)"><path d="m377.90625 363.460938h.535156v-1.386719h-.535156zm0 0" fill="#4c72b0"/></g><g clip-path="url(#gZ)"><path d="m378.574219 363.460938h.53125v-.007813h-.53125zm0 0" fill="#4c72b0"/></g><g clip-path="url(#g0)"><path d="m379.238281 363.460938h.53125v-.003907h-.53125zm0 0" fill="#4c72b0"/></g><g clip-path="url(#g1)"><path d="m379.90625 363.460938h.53125v-.816407h-.53125zm0 0" fill="#4c72b0"/></g><g clip-path="url(#g2)"><path d="m380.570312 363.460938h.53125v-.015626h-.53125zm0 0" fill="#4c72b0"/></g><g clip-path="url(#g3)"><path d="m381.234375 363.460938h.535156v-.234376h-.535156zm0 0" fill="#4c72b0"/></g><g clip-path="url(#g4)"><path d="m381.902344 363.460938h.53125v-.28125h-.53125zm0 0" fill="#4c72b0"/></g><g clip-path="url(#g5)"><path d="m382.566406 363.460938h.535156v-.007813h-.535156zm0 0" fill="#4c72b0"/></g><g clip-path="url(#g6)"><path d="m383.234375 363.460938h.53125v-.316407h-.53125zm0 0" fill="#4c72b0"/></g><g clip-path="url(#g7)"><path d="m383.898438 363.460938h.53125v-.054688h-.53125zm0 0" fill="#4c72b0"/></g><g clip-path="url(#g8)"><path d="m384.5625 363.460938h.535156v-.089844h-.535156zm0 0" fill="#4c72b0"/></g><g clip-path="url(#g9)"><path d="m385.230469 363.460938h.53125v-.003907h-.53125zm0 0" fill="#4c72b0"/></g><g clip-path="url(#ha)"><path d="m385.894531 363.460938h.535157v-.003907h-.535157zm0 0" fill="#4c72b0"/></g><g clip-path="url(#hb)"><path d="m386.5625 363.460938h.53125v-.257813h-.53125zm0 0" fill="#4c72b0"/></g><g clip-path="url(#hc)"><path d="m387.226562 363.460938h.53125v-.023438h-.53125zm0 0" fill="#4c72b0"/></g><g clip-path="url(#hd)"><path d="m387.894531 363.460938h.53125v-.480469h-.53125zm0 0" fill="#4c72b0"/></g><g clip-path="url(#he)"><path d="m389.222656 363.460938h.535156v-.003907h-.535156zm0 0" fill="#4c72b0"/></g><g clip-path="url(#hf)"><path d="m389.890625 363.460938h.53125v-.777344h-.53125zm0 0" fill="#4c72b0"/></g><g clip-path="url(#hg)"><path d="m391.222656 363.460938h.53125v-.027344h-.53125zm0 0" fill="#4c72b0"/></g><g clip-path="url(#hh)"><path d="m391.886719 363.460938h.53125v-.109376h-.53125zm0 0" fill="#4c72b0"/></g><g clip-path="url(#hi)"><path d="m393.21875 363.460938h.53125v-.007813h-.53125zm0 0" fill="#4c72b0"/></g><g clip-path="url(#hj)"><path d="m393.882812 363.460938h.535157v-.015626h-.535157zm0 0" fill="#4c72b0"/></g><g clip-path="url(#hk)"><path d="m394.550781 363.460938h.53125v-.0625h-.53125zm0 0" fill="#4c72b0"/></g><g clip-path="url(#hl)"><path d="m395.878906 363.460938h.535156v-.351563h-.535156zm0 0" fill="#4c72b0"/></g><g clip-path="url(#hm)"><path d="m396.546875 363.460938h.53125v-.027344h-.53125zm0 0" fill="#4c72b0"/></g><g clip-path="url(#hn)"><path d="m397.210938 363.460938h.535156v-.023438h-.535156zm0 0" fill="#4c72b0"/></g><g clip-path="url(#ho)"><path d="m397.878906 363.460938h.53125v-.007813h-.53125zm0 0" fill="#4c72b0"/></g><g clip-path="url(#hp)"><path d="m398.542969 363.460938h.53125v-.914063h-.53125zm0 0" fill="#4c72b0"/></g><g clip-path="url(#hq)"><path d="m399.210938 363.460938h.53125v-.164063h-.53125zm0 0" fill="#4c72b0"/></g><g clip-path="url(#hr)"><path d="m399.875 363.460938h.53125v-.058594h-.53125zm0 0" fill="#4c72b0"/></g><g clip-path="url(#hs)"><path d="m400.539062 363.460938h.535157v-.339844h-.535157zm0 0" fill="#4c72b0"/></g><g clip-path="url(#ht)"><path d="m401.207031 363.460938h.53125v-.09375h-.53125zm0 0" fill="#4c72b0"/></g><g clip-path="url(#hu)"><path d="m401.871094 363.460938h.535156v-.003907h-.535156zm0 0" fill="#4c72b0"/></g><g fill="none" stroke="#fff" stroke-linecap="square" stroke-miterlimit="10" stroke-width="1.25" transform="matrix(1 0 0 -1 0 396)"><path d="m53.058594 32.539062v331.78125"/><path d="m419.039062 32.539062v331.78125"/><path d="m53.058594 32.539062h365.980468"/><path d="m53.058594 364.320312h365.980468"/></g></svg>